<svg width="342" height="342" viewBox="0 0 342 342" fill="none" xmlns="http://www.w3.org/2000/svg">
<path opacity="0.7" d="M46.4647 114.289C46.4647 114.289 27.3948 163.537 54.194 213.127C80.9931 262.717 136.192 288.915 180.371 311.316C224.551 333.717 270.427 322.807 292.226 286.117C314.025 249.427 284.127 223.237 284.086 170.918C284.045 118.599 291.918 104.748 263.566 60.5476C235.215 16.3475 165.713 6.55949 113.155 39.3436C60.5962 72.1277 46.4647 114.289 46.4647 114.289Z" fill="white"/>
<path d="M24.016 193.818C20.8164 179.05 22.198 163.656 27.9763 149.693C35.8765 130.165 52.8466 116.28 71.8686 108.188C99.5022 96.444 126.637 96.191 149.113 73.1333C156.042 66.0197 161.863 57.8733 168.949 50.9033C189.824 30.3833 220.386 32.8526 243.197 49.1454C290.796 83.1334 307.917 150.446 305.27 206.096C304.08 231.069 292.158 254.318 273.286 270.7C230.604 307.759 158.128 301.528 109.126 282.184C72.5047 267.759 32.6002 234.106 24.016 193.818Z" fill="#FA7070"/>
<path opacity="0.7" d="M24.016 193.818C20.8164 179.05 22.198 163.656 27.9763 149.693C35.8765 130.165 52.8466 116.28 71.8686 108.188C99.5022 96.444 126.637 96.191 149.113 73.1333C156.042 66.0197 161.863 57.8733 168.949 50.9033C189.824 30.3833 220.386 32.8526 243.197 49.1454C290.796 83.1334 307.917 150.446 305.27 206.096C304.08 231.069 292.158 254.318 273.286 270.7C230.604 307.759 158.128 301.528 109.126 282.184C72.5047 267.759 32.6002 234.106 24.016 193.818Z" fill="white"/>
<path d="M203.495 272.095C203.501 274.884 202.824 277.631 201.525 280.098H197.811C197.701 280.099 197.591 280.111 197.483 280.132C197.16 280.207 196.871 280.389 196.665 280.648C196.459 280.908 196.347 281.23 196.347 281.562V286.062C193.211 288.326 189.404 289.468 185.539 289.305C181.675 289.142 177.977 287.683 175.042 285.164C172.107 282.645 170.106 279.211 169.359 275.416C168.613 271.62 169.165 267.684 170.927 264.241C172.689 260.798 175.559 258.047 179.073 256.433C182.588 254.819 186.544 254.434 190.305 255.341C194.065 256.247 197.41 258.393 199.803 261.432C202.196 264.471 203.496 268.227 203.495 272.095V272.095Z" stroke="#263238" stroke-linecap="round" stroke-linejoin="round"/>
<path d="M190.473 278.443C192.867 278.735 195.219 279.302 197.484 280.132C197.16 280.207 196.872 280.389 196.666 280.648C196.459 280.908 196.348 281.23 196.348 281.562V286.063C192.659 288.725 188.065 289.819 183.572 289.105C179.078 288.391 175.05 285.928 172.367 282.253C172.463 282.084 172.566 281.913 172.675 281.74C173.318 280.693 177.196 279.004 182.696 278.429C183.044 277.562 183.153 276.617 183.01 275.693C183.01 275.536 182.969 275.392 182.949 275.249C182.639 274.981 182.382 274.659 182.189 274.298C181.908 273.593 181.679 272.868 181.505 272.13C181.519 272.292 181.481 272.455 181.396 272.595C180.992 272.971 180.623 272.321 180.568 271.753C180.514 271.186 179.809 270.194 179.645 269.633C179.591 269.377 179.608 269.112 179.694 268.865C179.779 268.618 179.93 268.399 180.131 268.231C180.197 268.199 180.271 268.187 180.345 268.194C180.418 268.201 180.488 268.228 180.548 268.272C180.303 267.284 180.224 266.262 180.315 265.249C180.357 264.626 180.533 264.019 180.83 263.47C181.128 262.921 181.54 262.443 182.039 262.068C182.039 262.068 182.723 260.091 186.56 260.105C190.726 260.105 191.143 262.376 191.143 262.376C191.143 262.376 193.298 263.812 192.449 268.265C192.505 268.223 192.571 268.198 192.639 268.192C192.708 268.186 192.778 268.199 192.839 268.231C193.041 268.397 193.194 268.616 193.279 268.864C193.365 269.111 193.381 269.377 193.325 269.633C193.168 270.194 192.456 271.179 192.402 271.753C192.347 272.328 191.977 272.971 191.574 272.595C191.529 272.532 191.5 272.459 191.492 272.383C191.321 273.113 191.093 273.829 190.808 274.524C190.602 274.925 190.31 275.275 189.953 275.55C189.87 276.153 189.893 276.767 190.021 277.362C190.099 277.749 190.253 278.116 190.473 278.443V278.443Z" stroke="#263238" stroke-linecap="round" stroke-linejoin="round"/>
<path d="M203.29 280.098H197.811C197.003 280.098 196.348 280.754 196.348 281.562V287.041C196.348 287.849 197.003 288.505 197.811 288.505H203.29C204.099 288.505 204.754 287.849 204.754 287.041V281.562C204.754 280.754 204.099 280.098 203.29 280.098Z" stroke="#263238" stroke-linecap="round" stroke-linejoin="round"/>
<path d="M202.643 283.819H201.029V282.205H200.071V283.819H198.457V284.777H200.071V286.391H201.029V284.777H202.643V283.819Z" fill="#263238"/>
<path d="M96.0949 133.442C96.0992 137.316 95.1602 141.133 93.3589 144.563H87.6133C87.2251 144.563 86.8527 144.718 86.5782 144.992C86.3037 145.267 86.1495 145.639 86.1495 146.027V152.867C81.79 156.008 76.5005 157.591 71.1322 157.362C65.7639 157.132 60.6289 155.103 56.5534 151.602C52.4779 148.1 49.6989 143.329 48.6635 138.057C47.6282 132.784 48.3966 127.317 50.8453 122.534C53.294 117.751 57.2805 113.931 62.1633 111.688C67.0462 109.446 72.5415 108.911 77.7651 110.17C82.9887 111.43 87.6368 114.409 90.9616 118.63C94.2863 122.852 96.0944 128.068 96.0949 133.442V133.442Z" stroke="#263238" stroke-linecap="round" stroke-linejoin="round"/>
<path d="M84.3336 119.268L55.4965 124.878C54.4694 125.078 53.7987 126.073 53.9986 127.1L57.7019 146.135C57.9018 147.162 58.8964 147.832 59.9236 147.632L88.7607 142.022C89.7878 141.822 90.4585 140.827 90.2586 139.8L86.5552 120.766C86.3554 119.739 85.3607 119.068 84.3336 119.268Z" stroke="#263238" stroke-linecap="round" stroke-linejoin="round"/>
<path d="M54.1445 127.819L69.7671 136.314C70.6971 136.818 71.7731 136.983 72.8112 136.781C73.8492 136.579 74.7848 136.022 75.458 135.206L86.7303 121.485" stroke="#263238" stroke-linecap="round" stroke-linejoin="round"/>
<path d="M60.0977 145.767L69.7421 136.314" stroke="#263238" stroke-linecap="round" stroke-linejoin="round"/>
<path d="M87.7622 140.384L75.4297 135.206" stroke="#263238" stroke-linecap="round" stroke-linejoin="round"/>
<path d="M96.3742 144.563H87.6122C86.8038 144.563 86.1484 145.219 86.1484 146.027V154.789C86.1484 155.598 86.8038 156.253 87.6122 156.253H96.3742C97.1826 156.253 97.838 155.598 97.838 154.789V146.027C97.838 145.219 97.1826 144.563 96.3742 144.563Z" stroke="#263238" stroke-linecap="round" stroke-linejoin="round"/>
<path d="M94.9038 149.748H92.6603V147.505H91.3334V149.748H89.0898V151.075H91.3334V153.319H92.6603V151.075H94.9038V149.748Z" fill="#263238"/>
<path d="M284.298 229.345H262.547L262.971 228.661C264.812 225.624 265.747 222.123 265.666 218.572V218.531C265.674 217.513 265.882 216.505 266.279 215.567C266.675 214.629 267.253 213.778 267.979 213.063C268.705 212.349 269.564 211.784 270.508 211.401C271.452 211.018 272.462 210.825 273.481 210.833C274.499 210.84 275.506 211.049 276.445 211.445C277.383 211.842 278.233 212.42 278.948 213.146C279.663 213.871 280.228 214.731 280.611 215.675C280.994 216.619 281.187 217.629 281.179 218.647C281.044 222.095 281.926 225.507 283.717 228.456L284.298 229.345Z" stroke="#263238" stroke-linecap="round" stroke-linejoin="round"/>
<path d="M271.662 210.624C271.314 210.276 271.077 209.832 270.981 209.349C270.885 208.867 270.935 208.366 271.123 207.911C271.312 207.456 271.631 207.068 272.04 206.794C272.45 206.521 272.931 206.375 273.423 206.375C273.916 206.375 274.397 206.521 274.806 206.794C275.216 207.068 275.535 207.456 275.723 207.911C275.912 208.366 275.961 208.867 275.865 209.349C275.77 209.832 275.533 210.276 275.185 210.624" stroke="#263238" stroke-linecap="round" stroke-linejoin="round"/>
<path d="M284.86 229.352H261.994C261.484 229.352 261.07 229.765 261.07 230.275V230.658C261.07 231.168 261.484 231.582 261.994 231.582H284.86C285.37 231.582 285.783 231.168 285.783 230.658V230.275C285.783 229.765 285.37 229.352 284.86 229.352Z" stroke="#263238" stroke-linecap="round" stroke-linejoin="round"/>
<path d="M273.421 237.232C274.471 237.232 275.323 236.38 275.323 235.33C275.323 234.28 274.471 233.429 273.421 233.429C272.371 233.429 271.52 234.28 271.52 235.33C271.52 236.38 272.371 237.232 273.421 237.232Z" stroke="#263238" stroke-linecap="round" stroke-linejoin="round"/>
<path d="M294.215 223.449C294.22 226.813 293.408 230.127 291.849 233.107H287.061C286.672 233.107 286.3 233.262 286.025 233.536C285.751 233.811 285.597 234.183 285.597 234.571V240.317C281.811 243.05 277.215 244.43 272.55 244.234C267.885 244.038 263.421 242.279 259.877 239.238C256.334 236.198 253.916 232.053 253.013 227.472C252.111 222.891 252.776 218.139 254.902 213.982C257.028 209.824 260.491 206.503 264.733 204.553C268.976 202.602 273.751 202.136 278.291 203.229C282.83 204.322 286.87 206.911 289.76 210.579C292.65 214.247 294.221 218.78 294.222 223.449H294.215Z" stroke="#263238" stroke-linecap="round" stroke-linejoin="round"/>
<path d="M294.27 233.107H287.054C286.245 233.107 285.59 233.763 285.59 234.571V241.787C285.59 242.596 286.245 243.251 287.054 243.251H294.27C295.078 243.251 295.734 242.596 295.734 241.787V234.571C295.734 233.763 295.078 233.107 294.27 233.107Z" stroke="#263238" stroke-linecap="round" stroke-linejoin="round"/>
<path d="M293.182 237.608H291.239V235.659H290.09V237.608H288.141V238.757H290.09V240.7H291.239V238.757H293.182V237.608Z" fill="#263238"/>
<path d="M286.557 48.6733H133.183C130.558 48.6733 128.43 50.8017 128.43 53.4271V202.744C128.43 205.37 130.558 207.498 133.183 207.498H286.557C289.182 207.498 291.311 205.37 291.311 202.744V53.4271C291.311 50.8017 289.182 48.6733 286.557 48.6733Z" fill="white"/>
<path d="M265.649 194.784H227.892C225.534 194.784 223.272 193.847 221.604 192.179C219.937 190.512 219 188.25 219 185.892C219 183.533 219.937 181.272 221.604 179.604C223.272 177.937 225.534 177 227.892 177H265.649C268.007 177 270.269 177.937 271.936 179.604C273.604 181.272 274.541 183.533 274.541 185.892C274.541 188.25 273.604 190.512 271.936 192.179C270.269 193.847 268.007 194.784 265.649 194.784Z" fill="#FA7070" stroke="#263238" stroke-linecap="round" stroke-linejoin="round"/>
<path d="M191.404 194.94H153.654C151.295 194.94 149.034 194.003 147.366 192.335C145.699 190.668 144.762 188.406 144.762 186.048C144.762 183.689 145.699 181.428 147.366 179.76C149.034 178.093 151.295 177.156 153.654 177.156H191.404C193.762 177.156 196.024 178.093 197.691 179.76C199.359 181.428 200.296 183.689 200.296 186.048C200.296 188.406 199.359 190.668 197.691 192.335C196.024 194.003 193.762 194.94 191.404 194.94Z" fill="#FA7070"/>
<path opacity="0.6" d="M191.642 194.784H153.892C151.534 194.784 149.272 193.847 147.604 192.179C145.937 190.512 145 188.25 145 185.892C145 183.533 145.937 181.272 147.604 179.604C149.272 177.937 151.534 177 153.892 177H191.642C194 177 196.262 177.937 197.93 179.604C199.597 181.272 200.534 183.533 200.534 185.892C200.534 188.25 199.597 190.512 197.93 192.179C196.262 193.847 194 194.784 191.642 194.784Z" fill="white"/>
<path d="M191.404 194.94H153.654C151.295 194.94 149.034 194.003 147.366 192.335C145.699 190.668 144.762 188.406 144.762 186.048V186.048C144.762 183.689 145.699 181.428 147.366 179.76C149.034 178.093 151.295 177.156 153.654 177.156H191.404C193.762 177.156 196.024 178.093 197.691 179.76C199.359 181.428 200.296 183.689 200.296 186.048V186.048C200.296 188.406 199.359 190.668 197.691 192.335C196.024 194.003 193.762 194.94 191.404 194.94V194.94Z" stroke="#263238" stroke-linecap="round" stroke-linejoin="round"/>
<path d="M246.925 120.384C246.925 127.718 244.75 134.887 240.676 140.984C236.602 147.082 230.81 151.835 224.035 154.641C217.26 157.447 209.804 158.182 202.611 156.751C195.419 155.32 188.812 151.789 183.626 146.603C178.44 141.417 174.909 134.811 173.478 127.618C172.047 120.425 172.782 112.97 175.588 106.194C178.395 99.4187 183.147 93.6276 189.245 89.5533C195.343 85.4789 202.512 83.3042 209.845 83.3042C214.72 83.2852 219.55 84.2314 224.057 86.0881C228.565 87.9448 232.66 90.6753 236.107 94.1223C239.554 97.5692 242.284 101.664 244.141 106.172C245.998 110.679 246.944 115.509 246.925 120.384Z" fill="#FA7070" stroke="#263238" stroke-linecap="round" stroke-linejoin="round"/>
<path d="M240.664 141.006C237.344 145.964 232.876 150.046 227.641 152.908C222.405 155.77 216.556 157.326 210.591 157.444C204.626 157.562 198.72 156.239 193.375 153.587C188.031 150.935 183.405 147.032 179.891 142.21C180.11 141.841 180.328 141.472 180.575 141.109C181.943 138.845 190.315 135.261 202.155 133.975C204.826 133.681 207.511 133.521 210.199 133.496C213.109 133.469 216.018 133.638 218.906 134.002C229.193 135.288 237.75 138.694 240.664 141.006Z" fill="#757575" stroke="#263238" stroke-linecap="round" stroke-linejoin="round"/>
<path d="M219.768 134.878C218.844 136.513 217.496 137.868 215.866 138.801C214.236 139.734 212.384 140.21 210.507 140.179C205.035 140.179 201.074 135.446 201.074 135.446C202.989 133.729 203.126 130.541 202.825 128.031C202.701 126.801 202.472 125.583 202.141 124.392H218.462C217.47 127.655 217.504 129.994 217.887 131.622C218.427 134.023 219.768 134.878 219.768 134.878Z" fill="white" stroke="#263238" stroke-linecap="round" stroke-linejoin="round"/>
<path d="M217.852 131.622C206.06 134.714 203.721 127.976 203.721 127.976L202.825 128.031C202.7 126.801 202.471 125.583 202.141 124.392H218.461C217.435 127.655 217.469 129.994 217.852 131.622Z" fill="#263238"/>
<path d="M221.977 112.935C221.977 112.935 223.29 111.505 223.94 111.977C224.376 112.334 224.704 112.803 224.89 113.334C225.076 113.865 225.112 114.437 224.994 114.987C224.645 116.205 223.119 118.318 222.996 119.549C222.873 120.78 222.093 122.176 221.225 121.362C220.356 120.548 221.977 112.935 221.977 112.935Z" fill="white" stroke="#263238" stroke-linecap="round" stroke-linejoin="round"/>
<path d="M198.557 112.935C198.557 112.935 197.244 111.505 196.594 111.977C196.159 112.334 195.83 112.803 195.644 113.334C195.458 113.865 195.423 114.437 195.541 114.987C195.89 116.205 197.415 118.318 197.538 119.549C197.661 120.78 198.441 122.176 199.31 121.362C200.179 120.548 198.557 112.935 198.557 112.935Z" fill="white" stroke="#263238" stroke-linecap="round" stroke-linejoin="round"/>
<path d="M209.988 96.4438C226.52 96.4438 222.587 118.455 219.564 125.521C218.497 128.004 212.956 131.259 210.282 131.259C207.792 131.259 202.074 127.367 201.089 125.035C197.997 117.921 194.256 96.4438 209.988 96.4438Z" fill="white" stroke="#263238" stroke-linecap="round" stroke-linejoin="round"/>
<path d="M212.793 110.021C212.793 110.021 217.095 108.688 218.429 111.348" stroke="#263238" stroke-linecap="round" stroke-linejoin="round"/>
<path d="M215.98 113.639C215.98 114.146 215.72 114.556 215.406 114.556C215.091 114.556 214.824 114.146 214.824 113.639C214.824 113.133 215.084 112.723 215.406 112.723C215.727 112.723 215.98 113.133 215.98 113.639Z" fill="#263238"/>
<path d="M207.746 110.021C207.746 110.021 203.443 108.688 202.109 111.348" stroke="#263238" stroke-linecap="round" stroke-linejoin="round"/>
<path d="M204.559 113.639C204.559 114.146 204.819 114.556 205.133 114.556C205.448 114.556 205.715 114.146 205.715 113.639C205.715 113.133 205.455 112.723 205.133 112.723C204.812 112.723 204.559 113.133 204.559 113.639Z" fill="#263238"/>
<path d="M216.829 102.059C212.686 103.382 208.235 103.382 204.093 102.059C204.093 102.059 201.856 101.929 200.98 103.051C200.105 104.173 200.98 107.634 201.213 109.043C201.445 110.452 199.277 111.43 199.571 114.987L198.73 116.218C198.73 116.218 196.398 110.486 196.986 105.561C197.574 100.637 200.686 98.7215 200.686 98.7215C200.686 98.7215 202.102 94.4601 210.42 94.4943C219.387 94.5285 220.29 99.3781 220.29 99.3781C220.29 99.3781 226.364 103.434 221.87 116.635L220.898 114.994C221.13 113.243 220.727 111.467 219.763 109.987C218.976 108.845 220.228 105.411 219.934 103.646C219.64 101.882 216.829 102.059 216.829 102.059Z" fill="#263238"/>
<path d="M211.255 112.723C211.255 112.723 211.302 116.745 212.356 118.051C212.896 118.735 211.843 120.172 210.215 120.432" stroke="#263238" stroke-linecap="round" stroke-linejoin="round"/>
<path d="M206.648 122.764C206.762 123.179 206.957 123.567 207.221 123.906C207.485 124.245 207.814 124.529 208.187 124.741C209.316 125.227 212.75 125.021 213.4 124.618C214.049 124.214 214.371 122.894 214.371 122.894" fill="white"/>
<path d="M206.648 122.764C206.762 123.179 206.957 123.567 207.221 123.906C207.485 124.245 207.814 124.529 208.187 124.741C209.316 125.227 212.75 125.021 213.4 124.618C214.049 124.214 214.371 122.894 214.371 122.894" stroke="#263238" stroke-linecap="round" stroke-linejoin="round"/>
<path d="M206.289 122.682C209.103 123.285 212.012 123.285 214.825 122.682" stroke="#263238" stroke-linecap="round" stroke-linejoin="round"/>
<path d="M218.428 102.23C218.428 102.23 216.582 104.966 210.508 105.562C210.971 105.131 211.337 104.606 211.582 104.023C210.663 104.695 209.619 105.178 208.512 105.442C207.404 105.707 206.255 105.747 205.131 105.562C203.975 105.405 202.799 105.554 201.718 105.995C200.638 106.435 199.692 107.152 198.975 108.072L197.949 112.723C197.949 112.723 194.317 108.619 196.903 102.025L195.973 102.798C195.973 102.798 197.005 93.9814 207.601 93.6599L206.315 92.887C206.315 92.887 216.869 90.6366 221 97.5861C221 97.5861 224.673 98.2701 225.576 104.624L224.543 103.94C224.543 103.94 226.178 109.214 222.785 113.626C222.758 113.64 218.428 106.656 218.428 102.23Z" fill="#263238"/>
<path opacity="0.5" d="M250.18 72.1755H169.564C169.019 72.1755 168.498 71.9593 168.113 71.5745C167.728 71.1897 167.512 70.6678 167.512 70.1235C167.512 69.5793 167.728 69.0574 168.113 68.6726C168.498 68.2877 169.019 68.0715 169.564 68.0715H250.18C250.724 68.0715 251.246 68.2877 251.631 68.6726C252.016 69.0574 252.232 69.5793 252.232 70.1235C252.232 70.6678 252.016 71.1897 251.631 71.5745C251.246 71.9593 250.724 72.1755 250.18 72.1755Z" fill="#263238"/>
<g opacity="0.4">
<path d="M244.429 163.243H175.311C175.204 163.243 175.099 163.222 175.001 163.181C174.902 163.14 174.813 163.08 174.738 163.004C174.663 162.929 174.604 162.839 174.563 162.74C174.523 162.641 174.503 162.536 174.504 162.429C174.504 162.215 174.589 162.01 174.74 161.859C174.892 161.707 175.097 161.622 175.311 161.622H244.429C244.536 161.621 244.642 161.641 244.74 161.682C244.839 161.722 244.929 161.781 245.004 161.856C245.08 161.931 245.14 162.02 245.181 162.119C245.222 162.217 245.243 162.323 245.243 162.429C245.243 162.645 245.157 162.852 245.005 163.005C244.852 163.157 244.645 163.243 244.429 163.243Z" fill="black"/>
<path d="M237.589 167.58H182.151C182.044 167.58 181.939 167.559 181.84 167.518C181.742 167.477 181.653 167.417 181.578 167.341C181.503 167.265 181.443 167.176 181.403 167.077C181.363 166.978 181.343 166.872 181.344 166.766C181.344 166.552 181.429 166.347 181.58 166.195C181.732 166.044 181.937 165.959 182.151 165.959H237.589C237.696 165.958 237.801 165.978 237.9 166.018C237.999 166.058 238.089 166.118 238.164 166.193C238.24 166.268 238.3 166.357 238.341 166.455C238.382 166.554 238.403 166.659 238.403 166.766C238.403 166.982 238.317 167.189 238.165 167.341C238.012 167.494 237.805 167.58 237.589 167.58Z" fill="black"/>
</g>
<path d="M246.371 137.566H234.846C233.032 137.566 231.562 139.036 231.562 140.849V152.375C231.562 154.188 233.032 155.658 234.846 155.658H246.371C248.184 155.658 249.654 154.188 249.654 152.375V140.849C249.654 139.036 248.184 137.566 246.371 137.566Z" fill="#263238" stroke="white" stroke-linecap="round" stroke-linejoin="round"/>
<path d="M245.111 145.589H241.636V142.115H239.584V145.589H236.109V147.641H239.584V151.109H241.636V147.641H245.111V145.589Z" fill="white"/>
<path opacity="0.3" d="M286.738 56.2657C286.738 56.9258 286.543 57.5712 286.176 58.1201C285.809 58.669 285.288 59.0969 284.678 59.3495C284.068 59.6021 283.397 59.6682 282.749 59.5394C282.102 59.4106 281.507 59.0927 281.04 58.6259C280.573 58.1591 280.255 57.5643 280.127 56.9169C279.998 56.2694 280.064 55.5982 280.317 54.9883C280.569 54.3784 280.997 53.8571 281.546 53.4903C282.095 53.1235 282.74 52.9277 283.4 52.9277C284.286 52.9277 285.135 53.2794 285.761 53.9054C286.387 54.5314 286.738 55.3804 286.738 56.2657Z" fill="black"/>
<path opacity="0.3" d="M277.164 56.2657C277.164 56.9258 276.968 57.5712 276.602 58.1201C276.235 58.669 275.714 59.0969 275.104 59.3495C274.494 59.6021 273.823 59.6682 273.175 59.5394C272.528 59.4106 271.933 59.0927 271.466 58.6259C270.999 58.1591 270.681 57.5643 270.552 56.9169C270.424 56.2694 270.49 55.5982 270.742 54.9883C270.995 54.3784 271.423 53.8571 271.972 53.4903C272.521 53.1235 273.166 52.9277 273.826 52.9277C274.711 52.9277 275.56 53.2794 276.186 53.9054C276.812 54.5314 277.164 55.3804 277.164 56.2657Z" fill="black"/>
<path opacity="0.3" d="M223.298 190.836C223.298 190.836 227.579 191.759 227.73 194.878C228.058 201.581 228.045 201.787 223.339 201.192C223.339 201.192 220.493 205.097 213.598 203.975L211.239 207.519H199.043C202.429 203.476 205.151 200.131 206.341 198.544C210.712 192.724 231.136 184.146 231.136 184.146C231.136 184.146 231.054 186.369 223.298 190.836Z" fill="black" fill-opacity="0.7"/>
<path d="M286.557 48.6733H133.183C130.558 48.6733 128.43 50.8017 128.43 53.4271V202.744C128.43 205.37 130.558 207.498 133.183 207.498H286.557C289.182 207.498 291.311 205.37 291.311 202.744V53.4271C291.311 50.8017 289.182 48.6733 286.557 48.6733Z" stroke="#263238" stroke-linecap="round" stroke-linejoin="round"/>
<path d="M69.2268 303.792C69.2268 303.792 70.4307 295.03 71.3267 291.418C72.2228 287.807 77.4827 273.833 78.625 266.008L65.1228 255.248C65.1228 255.248 60.0339 281.493 60.0339 285.611L57.25 294.578" fill="white"/>
<path d="M69.2268 303.792C69.2268 303.792 70.4307 295.03 71.3267 291.418C72.2228 287.807 77.4827 273.833 78.625 266.008L65.1228 255.248C65.1228 255.248 60.0339 281.493 60.0339 285.611L57.25 294.578" stroke="#263238" stroke-linecap="round" stroke-linejoin="round"/>
<path d="M82.6124 275.905C79.7898 273.753 77.0036 271.473 74.2539 269.065C70.2799 265.645 66.4085 261.924 62.6875 258.019C63.5878 253.654 64.7064 249.337 66.0391 245.084C67.3097 241.084 70.0202 237.698 73.6452 235.583L73.782 235.501L74.4181 235.146C74.8148 234.934 75.1979 234.742 75.5672 234.578C76.7826 234.017 78.0588 233.6 79.3703 233.333L82.2773 271.548L82.6124 275.905Z" fill="#FA7070"/>
<path opacity="0.3" d="M82.6124 275.905C79.7898 273.753 77.0036 271.473 74.2539 269.065C70.2799 265.645 66.4085 261.924 62.6875 258.019C63.5878 253.654 64.7064 249.337 66.0391 245.084C67.3097 241.084 70.0202 237.698 73.6452 235.583L73.782 235.501L74.4181 235.146C74.8148 234.934 75.1979 234.742 75.5672 234.578C76.7826 234.017 78.0588 233.6 79.3703 233.333L82.2773 271.548L82.6124 275.905Z" fill="black" fill-opacity="0.7"/>
<path d="M82.6124 275.905C79.7898 273.753 77.0036 271.473 74.2539 269.065C70.2799 265.645 66.4085 261.924 62.6875 258.019C63.5878 253.654 64.7064 249.337 66.0391 245.084C67.3097 241.084 70.0202 237.698 73.6452 235.583L73.782 235.501L74.4181 235.146C74.8148 234.934 75.1979 234.742 75.5672 234.578C76.7826 234.017 78.0588 233.6 79.3703 233.333L82.2773 271.548L82.6124 275.905Z" stroke="#263238" stroke-linecap="round" stroke-linejoin="round"/>
<path d="M68.543 254.667C68.543 254.667 70.1162 265.358 77.3392 269.435" stroke="#263238" stroke-linecap="round" stroke-linejoin="round"/>
<path d="M140.956 263.34C140.956 268.812 136.503 290.946 136.503 290.946L136.353 310.392C136.353 310.392 127.139 313.45 112.269 313.45C94.0476 313.45 85.9764 308.573 85.265 308.115L85.2103 308.08L87.9463 294.599C87.9463 294.599 73.5823 260.7 73.3018 259.537C72.8572 257.813 72.4742 256.069 72.1664 254.332C71.3666 250.318 71.1569 246.21 71.544 242.136C71.757 239.835 72.4341 237.601 73.5344 235.57C73.6119 235.433 73.694 235.296 73.7806 235.159C74.1514 234.561 74.5848 234.004 75.0734 233.497L75.2034 233.36C75.6541 232.909 76.1364 232.491 76.6466 232.108C76.8176 231.979 76.9954 231.855 77.1733 231.732L77.6179 231.431L77.9052 231.247L78.2814 231.014L78.8628 230.679C89.6631 224.694 109.766 225.617 109.766 225.617C109.987 225.545 110.217 225.501 110.45 225.487H110.498C110.899 225.464 111.302 225.496 111.695 225.583C116.702 226.554 125.867 234.728 132.618 244.051C134.646 246.803 136.435 249.723 137.967 252.779C139.814 256.5 140.956 260.166 140.956 263.34Z" fill="#FA7070"/>
<path opacity="0.3" d="M140.835 261.466C137.208 260.34 133.783 258.643 130.691 256.439C125.841 257.348 121.163 252.519 119.945 249.934L135.855 248.908C136.628 250.18 137.326 251.459 137.948 252.724C139.381 255.461 140.356 258.414 140.835 261.466Z" fill="black" fill-opacity="0.7"/>
<path opacity="0.3" d="M91.1842 298.06C91.1842 298.06 94.7615 313.368 85.2676 308.094L85.2129 308.06L87.9489 294.578C87.9489 294.578 73.5849 260.679 73.3044 259.516C72.8598 257.793 72.4768 256.049 72.169 254.311C71.3712 250.305 71.1615 246.203 71.5465 242.136C71.7596 239.835 72.4367 237.601 73.537 235.57C73.6145 235.433 73.6966 235.296 73.7832 235.159C74.154 234.561 74.5873 234.004 75.076 233.497L75.2059 233.36C75.6567 232.909 76.139 232.491 76.6492 232.109C76.8202 231.979 76.998 231.855 77.1759 231.732L77.6205 231.431L77.9077 231.247L78.2839 231.014L78.8654 230.679C88.8039 231.445 99.8505 236.151 101.985 245.809C101.985 245.809 101.082 260.604 97.8327 266.014C95.8149 269.387 95.1309 285.132 105.11 280.577C101.991 296.295 91.1842 298.06 91.1842 298.06Z" fill="black" fill-opacity="0.7"/>
<path d="M85.2129 308.06L87.9489 294.578C87.9489 294.578 73.5849 260.679 73.3044 259.516C72.8598 257.793 72.4768 256.048 72.169 254.311C71.3712 250.304 71.1615 246.203 71.5465 242.136C71.7596 239.835 72.4367 237.601 73.537 235.57C73.6145 235.433 73.6966 235.296 73.7832 235.159C74.154 234.561 74.5873 234.004 75.076 233.497L75.2059 233.36C75.6567 232.909 76.139 232.491 76.6492 232.108V232.108C86.6082 224.584 109.768 225.617 109.768 225.617C109.99 225.545 110.22 225.501 110.452 225.487H110.5C110.902 225.464 111.305 225.496 111.697 225.583C116.704 226.554 125.87 234.728 132.621 244.051C134.648 246.803 136.438 249.723 137.97 252.779C139.837 256.561 140.979 260.221 140.979 263.374C140.979 268.846 136.527 290.98 136.527 290.98L136.376 310.426" stroke="#263238" stroke-linecap="round" stroke-linejoin="round"/>
<path d="M119.796 194.639C118.982 193.627 115.35 191.219 115.35 191.219C114.666 186.493 114.242 180.186 109.344 175.295C102.648 168.613 87.1962 170.726 82.1346 180.692C72.0319 200.603 91.1292 219.359 114.501 215.392C116.492 215.056 117.833 213.107 118.106 203.852L118.729 202.56C118.729 202.56 118.086 200.35 117.887 199.242C119.064 198.107 120.384 195.378 119.796 194.639Z" fill="white" stroke="#263238" stroke-linecap="round" stroke-linejoin="round"/>
<path d="M114.048 183.825C113.448 184.8 112.988 185.855 112.68 186.958" stroke="#263238" stroke-linecap="round" stroke-linejoin="round"/>
<path d="M114.406 192.731C114.406 192.731 116.034 193.716 116.773 196.835" stroke="#263238" stroke-linecap="round" stroke-linejoin="round"/>
<path d="M118.518 203.025C118.518 203.025 117.881 204.051 115.234 203.75" stroke="#263238" stroke-linecap="round" stroke-linejoin="round"/>
<path d="M111.573 172.71C111.573 172.71 117.729 170.172 115.95 182.211C114.172 194.249 105.273 208.565 97.7695 205.884L97.8995 204.81C97.8995 204.81 104.466 207.402 109.993 195.987C115.519 184.571 115.061 174.099 111.901 175.938L111.573 172.71Z" fill="#263238"/>
<path d="M111.019 191.37C111.019 191.37 108.666 197.574 106.785 199.578C106.785 199.578 106.026 197.204 104.213 197.184C102.4 197.163 100.793 192.341 100.793 192.341L111.019 191.37Z" fill="#263238"/>
<path d="M108.488 191.657C108.488 191.657 104.166 202.197 107.332 210.337C110.499 218.476 119.426 224.591 119.426 224.591L116.546 223.285C116.546 223.285 108.967 218.299 106.32 209.666C104.765 204.191 104.727 198.396 106.211 192.902L108.488 191.657Z" fill="#263238"/>
<path d="M72.867 177.628C72.867 177.628 65.6645 180.576 66.0543 191.253C66.4442 201.93 73.763 211.212 75.2336 224.824C76.5127 236.664 63.6056 247.088 76.6769 260.925C76.6769 260.925 70.9518 252.033 72.696 242.088C74.4402 232.143 80.4252 233.572 75.986 217.382C71.5469 201.192 62.1282 191.616 71.882 181.294L72.867 177.628Z" fill="#263238"/>
<path d="M114.861 221.855C101.688 214.509 105.285 198.825 105.285 198.825C115.197 191.52 116.517 177.84 114.697 174.317C112.878 170.795 108.911 171.999 108.911 171.999C93.1171 164.475 73.6778 171.499 69.9842 182.56C65.2577 196.725 73.3358 207.608 77.2825 219.496C80.8256 230.18 72.6176 232.115 72.6449 242.752C71.0923 262.588 91.4344 270.871 91.4344 270.871C90.8989 270.548 90.4558 270.093 90.1478 269.549C89.8399 269.005 89.6775 268.391 89.6765 267.765C89.6765 265.597 95.2238 265.597 98.8763 259.489C101.906 254.421 102.146 242.061 103.158 236.083C104.526 230.672 106.236 226.349 109.772 225.563C119.089 223.476 127.126 232.519 127.126 232.519C127.126 232.519 128.042 229.202 114.861 221.855Z" fill="#263238"/>
<g opacity="0.3">
<path d="M111.018 174.167C112.455 176.691 101.675 190.043 97.7691 201.582C93.8634 213.121 97.8375 219.886 97.8375 219.886" stroke="white" stroke-linecap="round" stroke-linejoin="round"/>
<path d="M86.867 177.628C86.867 177.628 75.1364 187.731 81.8122 206.205C88.4881 224.68 85.5332 237.416 83.3102 247.375C81.0872 257.334 82.893 260.754 85.6016 263.463" stroke="white" stroke-linecap="round" stroke-linejoin="round"/>
<path d="M101.628 208.121C101.628 208.121 107.921 215.207 103.605 225.446C99.2887 235.686 96.9426 243.005 95.3146 250.973C93.6867 258.942 90.082 260.925 90.082 260.925" stroke="white" stroke-linecap="round" stroke-linejoin="round"/>
<path d="M101.99 172.484C101.99 172.484 95.4991 172.183 92.4142 180.48C89.3294 188.777 92.2364 203.114 91.1557 208.121" stroke="white" stroke-linecap="round" stroke-linejoin="round"/>
<path d="M85.2124 172.484C85.2124 172.484 75.6911 172.881 72.6542 186.048C69.6172 199.215 78.7623 210.282 79.7336 220.542C80.7049 230.802 74.9456 240.303 75.2944 247.376C75.6433 254.448 79.7336 258.183 79.7336 258.183" stroke="white" stroke-linecap="round" stroke-linejoin="round"/>
</g>
<path d="M144.749 226.65C144.749 226.65 165.583 228.203 168.559 228.203C171.534 228.203 199.133 200.843 204.004 195.46C208.874 190.077 229.996 183.312 229.996 183.312C229.996 183.312 229.729 185.549 221.61 189.283C221.61 189.283 225.789 190.583 225.666 193.702C225.399 200.412 225.365 200.617 220.727 199.598C220.727 199.598 217.547 203.244 210.782 201.513C210.782 201.513 194.551 221.705 187.376 230.925C180.2 240.146 177.232 243.237 174.523 244.243C171.815 245.248 138.805 247.396 138.805 247.396L144.749 226.65Z" fill="white" stroke="#263238" stroke-linecap="round" stroke-linejoin="round"/>
<path d="M118.517 251.199C129.324 257.964 147.45 249.578 147.45 249.578C147.45 249.578 150.699 234.858 147.45 225.44C147.45 225.44 124.721 221.014 112.272 225.282C111.624 225.527 111.034 225.905 110.541 226.392C110.047 226.878 109.661 227.463 109.406 228.107" fill="#FA7070"/>
<path d="M118.517 251.199C129.324 257.964 147.45 249.578 147.45 249.578C147.45 249.578 150.699 234.858 147.45 225.44C147.45 225.44 124.721 221.014 112.272 225.282C111.624 225.527 111.034 225.905 110.541 226.392C110.047 226.878 109.661 227.463 109.406 228.107" stroke="#263238" stroke-linecap="round" stroke-linejoin="round"/>
<path d="M144.578 224.947C146.389 232.523 146.538 240.4 145.016 248.039" stroke="#263238" stroke-linecap="round" stroke-linejoin="round"/>
<path d="M140.957 234.414C140.957 234.414 133.433 246.685 123.816 248.49" stroke="#263238" stroke-linecap="round" stroke-linejoin="round"/>
<path d="M133.96 253.47C133.96 253.47 128.96 259.4 122.824 259.4" stroke="#263238" stroke-linecap="round" stroke-linejoin="round"/>
<path d="M129.144 253.839C129.613 255 129.613 256.297 129.144 257.458C129.144 257.458 129.992 261.021 128.392 266.158C127.215 269.948 127.27 280.693 126.723 288.251C126.723 288.251 128.46 297.369 128.392 311.076" stroke="#263238" stroke-linecap="round" stroke-linejoin="round"/>
<path d="M117.578 224.031C117.578 224.031 126.887 223.415 132.387 229.906" stroke="#263238" stroke-linecap="round" stroke-linejoin="round"/>
<path d="M223.96 195.542C223.96 195.542 222.592 197.909 220.985 198.449C220.985 198.449 220.862 200.918 216.73 201.746" stroke="#263238" stroke-linecap="round" stroke-linejoin="round"/>
<path d="M222.82 197.094C223.211 197.323 223.507 197.685 223.655 198.114" stroke="#263238" stroke-linecap="round" stroke-linejoin="round"/>
<path d="M87.9219 294.578C87.9219 294.578 97.5389 307.116 106.705 302.609" stroke="#263238" stroke-linecap="round" stroke-linejoin="round"/>
<path d="M112.269 268.614C112.269 268.614 105.778 288.538 91.168 287.636" stroke="#263238" stroke-linecap="round" stroke-linejoin="round"/>
<path d="M237 189.237C237 189.076 237.014 188.887 237.042 188.67C237.07 188.452 237.122 188.207 237.198 187.934C237.275 187.654 237.389 187.342 237.542 186.999L238.826 187.451C238.749 187.668 238.683 187.868 238.627 188.05C238.572 188.225 238.53 188.389 238.502 188.543C238.474 188.691 238.461 188.838 238.461 188.985C238.461 189.342 238.537 189.636 238.69 189.867C238.85 190.098 239.073 190.27 239.358 190.382C239.643 190.494 239.973 190.55 240.349 190.55C240.85 190.55 241.246 190.466 241.538 190.298C241.83 190.13 242.042 189.895 242.175 189.594C242.307 189.3 242.387 188.957 242.415 188.564C242.449 188.165 242.46 187.741 242.446 187.293L242.248 181.84H243.719L243.896 187.199C243.91 187.654 243.892 188.109 243.844 188.564C243.802 189.02 243.708 189.45 243.562 189.857C243.423 190.263 243.218 190.624 242.947 190.939C242.675 191.254 242.324 191.503 241.893 191.685C241.469 191.867 240.944 191.958 240.318 191.958C239.865 191.958 239.438 191.905 239.034 191.8C238.638 191.695 238.287 191.531 237.981 191.307C237.675 191.089 237.435 190.809 237.261 190.466C237.087 190.123 237 189.713 237 189.237Z" fill="white"/>
<path d="M244.79 191.947L244.488 190.477C244.981 190.414 245.413 190.337 245.781 190.245C246.15 190.161 246.459 190.042 246.71 189.888C246.96 189.734 247.148 189.524 247.273 189.258C247.398 188.985 247.461 188.635 247.461 188.207C247.461 187.794 247.398 187.465 247.273 187.22C247.148 186.975 246.981 186.852 246.772 186.852C246.626 186.852 246.505 186.904 246.407 187.01C246.31 187.108 246.237 187.227 246.188 187.367C246.146 187.5 246.126 187.619 246.126 187.724C246.126 187.787 246.143 187.854 246.178 187.924C246.212 187.994 246.289 188.053 246.407 188.102C246.525 188.151 246.71 188.179 246.96 188.186C247.217 188.193 247.565 188.169 248.003 188.113H249.756C250.02 188.113 250.208 188.183 250.319 188.323C250.438 188.456 250.497 188.624 250.497 188.827C250.497 189.044 250.424 189.226 250.278 189.373C250.132 189.514 249.923 189.584 249.652 189.584H246.783C246.345 189.584 245.969 189.531 245.656 189.426C245.343 189.321 245.103 189.153 244.936 188.922C244.769 188.684 244.686 188.368 244.686 187.976C244.686 187.661 244.738 187.346 244.842 187.031C244.954 186.715 245.107 186.428 245.301 186.169C245.496 185.903 245.722 185.693 245.979 185.539C246.244 185.378 246.529 185.297 246.835 185.297C247.252 185.297 247.617 185.427 247.93 185.686C248.243 185.945 248.487 186.288 248.661 186.715C248.842 187.143 248.932 187.608 248.932 188.113C248.932 188.904 248.765 189.577 248.431 190.13C248.097 190.683 247.621 191.11 247.002 191.412C246.383 191.72 245.646 191.898 244.79 191.947Z" fill="white"/>
<path d="M249.4 189.584L249.505 188.113C249.769 188.113 249.978 188.088 250.131 188.039C250.291 187.99 250.416 187.892 250.506 187.745C250.604 187.591 250.684 187.367 250.746 187.073C250.816 186.778 250.885 186.386 250.955 185.896L252.322 186.127C252.308 186.232 252.287 186.355 252.259 186.495C252.238 186.635 252.217 186.778 252.196 186.926C252.183 187.066 252.176 187.199 252.176 187.325C252.176 187.493 252.21 187.636 252.28 187.755C252.356 187.868 252.489 187.955 252.676 188.018C252.871 188.081 253.149 188.113 253.511 188.113C253.775 188.113 253.963 188.183 254.074 188.323C254.186 188.456 254.241 188.624 254.241 188.827C254.241 189.044 254.168 189.226 254.022 189.373C253.883 189.514 253.678 189.584 253.407 189.584C252.927 189.584 252.537 189.538 252.238 189.447C251.939 189.356 251.717 189.202 251.57 188.985C251.424 188.768 251.331 188.47 251.289 188.092H251.79C251.664 188.428 251.518 188.698 251.351 188.901C251.184 189.097 250.997 189.244 250.788 189.342C250.579 189.44 250.357 189.503 250.12 189.531C249.891 189.566 249.651 189.584 249.4 189.584ZM251.257 192C251.056 192 250.882 191.93 250.736 191.79C250.597 191.65 250.527 191.478 250.527 191.275C250.527 191.072 250.597 190.893 250.736 190.739C250.882 190.592 251.056 190.519 251.257 190.519C251.459 190.519 251.63 190.592 251.769 190.739C251.915 190.893 251.988 191.072 251.988 191.275C251.988 191.478 251.915 191.65 251.769 191.79C251.63 191.93 251.459 192 251.257 192Z" fill="white"/>
<path d="M253.138 189.584L253.243 188.123C253.82 188.123 254.283 188.12 254.63 188.113C254.985 188.106 255.26 188.092 255.454 188.071C255.656 188.043 255.806 188.011 255.903 187.976C256 187.934 256.084 187.889 256.153 187.84C256.237 187.777 256.306 187.692 256.362 187.587C256.425 187.475 256.473 187.328 256.508 187.146C256.543 186.964 256.56 186.736 256.56 186.463C256.56 186.12 256.529 185.833 256.466 185.602C256.411 185.364 256.327 185.185 256.216 185.066C256.112 184.947 255.983 184.887 255.83 184.887C255.719 184.887 255.614 184.926 255.517 185.003C255.42 185.073 255.34 185.171 255.277 185.297C255.214 185.423 255.183 185.567 255.183 185.728C255.183 185.819 255.208 185.899 255.256 185.969C255.305 186.039 255.381 186.092 255.486 186.127C255.59 186.162 255.722 186.18 255.882 186.18C256.035 186.18 256.195 186.162 256.362 186.127C256.536 186.085 256.696 186.029 256.842 185.959L256.884 187.209C256.772 187.286 256.644 187.356 256.498 187.419C256.352 187.482 256.195 187.531 256.028 187.566C255.868 187.594 255.705 187.608 255.538 187.608C255.169 187.608 254.849 187.559 254.578 187.461C254.314 187.356 254.109 187.188 253.963 186.957C253.817 186.726 253.743 186.411 253.743 186.011C253.743 185.703 253.796 185.399 253.9 185.097C254.004 184.789 254.154 184.513 254.349 184.267C254.543 184.015 254.773 183.816 255.037 183.669C255.301 183.514 255.594 183.437 255.913 183.437C256.386 183.437 256.776 183.578 257.082 183.858C257.395 184.131 257.624 184.502 257.77 184.971C257.923 185.434 258 185.948 258 186.516C258 187.013 257.927 187.447 257.781 187.819C257.635 188.183 257.461 188.47 257.259 188.68C257.092 188.855 256.901 189.002 256.685 189.121C256.47 189.24 256.206 189.335 255.893 189.405C255.587 189.468 255.208 189.514 254.755 189.542C254.31 189.57 253.771 189.584 253.138 189.584ZM256.8 182.481C256.599 182.481 256.425 182.411 256.279 182.271C256.14 182.124 256.07 181.953 256.07 181.756C256.07 181.553 256.14 181.378 256.279 181.231C256.425 181.084 256.599 181.011 256.8 181.011C256.995 181.011 257.162 181.084 257.301 181.231C257.44 181.378 257.51 181.553 257.51 181.756C257.51 181.953 257.44 182.124 257.301 182.271C257.162 182.411 256.995 182.481 256.8 182.481ZM254.995 182.471C254.794 182.471 254.62 182.401 254.474 182.261C254.335 182.114 254.265 181.942 254.265 181.746C254.265 181.543 254.335 181.368 254.474 181.221C254.62 181.074 254.794 181 254.995 181C255.19 181 255.357 181.074 255.496 181.221C255.635 181.368 255.705 181.543 255.705 181.746C255.705 181.942 255.635 182.114 255.496 182.261C255.357 182.401 255.19 182.471 254.995 182.471Z" fill="white"/>
<path d="M175.575 189.637C175.249 189.637 174.935 189.606 174.635 189.543C174.334 189.473 174.062 189.382 173.819 189.271C173.582 189.159 173.387 189.034 173.234 188.894L174.097 187.88C174.328 187.985 174.564 188.061 174.807 188.11C175.05 188.152 175.338 188.173 175.671 188.173C175.914 188.173 176.086 188.243 176.189 188.382C176.297 188.515 176.352 188.682 176.352 188.884C176.352 189.1 176.285 189.281 176.15 189.428C176.016 189.567 175.824 189.637 175.575 189.637ZM165.032 192C164.603 192 164.203 191.941 163.832 191.822C163.468 191.711 163.148 191.54 162.873 191.31C162.598 191.087 162.384 190.804 162.23 190.463C162.077 190.128 162 189.738 162 189.292C162 189.131 162.013 188.943 162.038 188.727C162.064 188.511 162.112 188.267 162.182 187.995C162.253 187.716 162.358 187.406 162.499 187.065L163.679 187.514C163.609 187.73 163.548 187.929 163.497 188.11C163.445 188.285 163.407 188.448 163.381 188.602C163.356 188.748 163.343 188.894 163.343 189.041C163.343 189.32 163.41 189.571 163.545 189.794C163.685 190.024 163.884 190.205 164.139 190.337C164.402 190.47 164.712 190.536 165.07 190.536C165.415 190.536 165.713 190.498 165.962 190.421C166.212 190.344 166.416 190.229 166.576 190.076C166.742 189.93 166.864 189.748 166.941 189.532C167.017 189.309 167.056 189.055 167.056 188.769C167.056 188.469 167.005 188.117 166.902 187.713C166.8 187.309 166.685 186.862 166.557 186.375L167.9 185.998C167.964 186.263 168.015 186.493 168.053 186.688C168.098 186.876 168.133 187.033 168.159 187.159C168.191 187.277 168.22 187.371 168.245 187.441C168.297 187.587 168.37 187.713 168.466 187.817C168.562 187.915 168.703 187.999 168.888 188.068C169.08 188.131 169.336 188.18 169.656 188.215C169.975 188.243 170.388 188.257 170.893 188.257C171.315 188.257 171.68 188.243 171.987 188.215C172.3 188.18 172.562 188.135 172.773 188.079C172.991 188.016 173.164 187.943 173.291 187.859C173.426 187.776 173.522 187.682 173.579 187.577C173.643 187.465 173.675 187.347 173.675 187.221C173.675 187.096 173.646 186.974 173.589 186.856C173.538 186.737 173.451 186.639 173.33 186.563C173.208 186.486 173.052 186.448 172.86 186.448C172.61 186.448 172.361 186.514 172.112 186.646C171.862 186.779 171.619 186.953 171.382 187.169C171.152 187.378 170.938 187.601 170.74 187.838C170.548 188.075 170.378 188.298 170.231 188.508L168.859 188.33C169.045 188.002 169.253 187.678 169.483 187.357C169.72 187.03 169.972 186.723 170.241 186.437C170.509 186.151 170.791 185.901 171.085 185.684C171.386 185.468 171.696 185.298 172.016 185.172C172.335 185.047 172.658 184.984 172.985 184.984C173.413 184.984 173.778 185.078 174.078 185.266C174.379 185.447 174.609 185.698 174.769 186.019C174.935 186.34 175.018 186.706 175.018 187.117C175.018 187.5 174.945 187.852 174.798 188.173C174.657 188.487 174.427 188.762 174.107 188.999C173.794 189.229 173.381 189.407 172.869 189.532C172.358 189.658 171.737 189.721 171.008 189.721C170.644 189.721 170.286 189.696 169.934 189.647C169.588 189.606 169.272 189.539 168.984 189.449C168.696 189.358 168.453 189.247 168.255 189.114C168.057 188.975 167.922 188.814 167.852 188.633L168.389 188.957C168.37 189.431 168.277 189.856 168.111 190.233C167.945 190.609 167.715 190.926 167.42 191.184C167.132 191.449 166.787 191.651 166.384 191.791C165.981 191.93 165.53 192 165.032 192ZM172.639 184.043C172.441 184.043 172.271 183.97 172.131 183.823C171.996 183.677 171.929 183.496 171.929 183.279C171.929 183.063 171.996 182.879 172.131 182.725C172.271 182.572 172.441 182.495 172.639 182.495C172.831 182.495 172.994 182.572 173.128 182.725C173.269 182.879 173.339 183.063 173.339 183.279C173.339 183.496 173.269 183.677 173.128 183.823C172.994 183.97 172.831 184.043 172.639 184.043Z" fill="black" fill-opacity="0.78"/>
<path d="M175.343 189.637L175.439 188.183C175.97 188.183 176.395 188.18 176.715 188.173C177.041 188.166 177.294 188.152 177.473 188.131C177.659 188.103 177.796 188.072 177.886 188.037C177.975 187.995 178.052 187.95 178.116 187.901C178.193 187.838 178.257 187.755 178.308 187.65C178.365 187.539 178.41 187.392 178.442 187.211C178.474 187.03 178.49 186.803 178.49 186.531C178.49 186.19 178.461 185.904 178.404 185.674C178.353 185.437 178.276 185.259 178.173 185.141C178.078 185.022 177.959 184.963 177.818 184.963C177.716 184.963 177.62 185.001 177.531 185.078C177.441 185.148 177.368 185.245 177.31 185.371C177.252 185.496 177.224 185.639 177.224 185.799C177.224 185.89 177.246 185.97 177.291 186.04C177.336 186.11 177.406 186.162 177.502 186.197C177.598 186.232 177.719 186.249 177.866 186.249C178.007 186.249 178.154 186.232 178.308 186.197C178.468 186.155 178.615 186.099 178.749 186.029L178.787 187.274C178.685 187.35 178.567 187.42 178.432 187.483C178.298 187.546 178.154 187.594 178.001 187.629C177.854 187.657 177.703 187.671 177.55 187.671C177.211 187.671 176.917 187.622 176.667 187.525C176.424 187.42 176.236 187.253 176.101 187.023C175.967 186.793 175.9 186.479 175.9 186.082C175.9 185.775 175.948 185.472 176.044 185.172C176.14 184.865 176.277 184.59 176.456 184.346C176.635 184.095 176.846 183.896 177.089 183.75C177.332 183.597 177.601 183.52 177.895 183.52C178.33 183.52 178.688 183.659 178.97 183.938C179.258 184.21 179.469 184.58 179.603 185.047C179.744 185.507 179.814 186.019 179.814 186.584C179.814 187.079 179.747 187.511 179.612 187.88C179.478 188.243 179.318 188.529 179.133 188.738C178.979 188.912 178.803 189.058 178.605 189.177C178.407 189.295 178.164 189.389 177.876 189.459C177.595 189.522 177.246 189.567 176.83 189.595C176.421 189.623 175.925 189.637 175.343 189.637ZM177.876 182.548C177.678 182.548 177.508 182.474 177.368 182.328C177.233 182.182 177.166 182 177.166 181.784C177.166 181.568 177.233 181.383 177.368 181.23C177.508 181.077 177.678 181 177.876 181C178.068 181 178.231 181.077 178.365 181.23C178.506 181.383 178.576 181.568 178.576 181.784C178.576 182 178.506 182.182 178.365 182.328C178.231 182.474 178.068 182.548 177.876 182.548Z" fill="black" fill-opacity="0.78"/>
<path d="M179.805 191.99L179.316 190.651C179.866 190.442 180.311 190.212 180.65 189.961C180.995 189.71 181.248 189.442 181.407 189.156C181.574 188.87 181.657 188.574 181.657 188.267C181.657 188.072 181.631 187.87 181.58 187.661C181.529 187.445 181.455 187.218 181.36 186.981C181.27 186.744 181.161 186.497 181.033 186.239L182.29 185.58C182.514 186.047 182.687 186.493 182.808 186.918C182.936 187.343 183 187.741 183 188.11C183 188.452 182.958 188.779 182.875 189.093C182.799 189.407 182.677 189.7 182.511 189.971C182.351 190.25 182.143 190.512 181.887 190.756C181.631 191 181.331 191.223 180.985 191.425C180.64 191.634 180.247 191.822 179.805 191.99Z" fill="black" fill-opacity="0.78"/>
</svg>
