<svg width="25" height="24" viewBox="0 0 25 24" fill="none" xmlns="http://www.w3.org/2000/svg">
<g clip-path="url(#clip0_3691_31725)">
<path d="M2.82875 1H18.6392C19.2791 1 19.8608 1.26521 20.2812 1.68701L20.3202 1.7298C20.72 2.15018 20.9675 2.71963 20.9675 3.33657V10.0425C20.3192 9.8563 19.6348 9.75568 18.927 9.75568C18.5872 9.75568 18.253 9.77919 17.9253 9.82386L19.7145 8.1536V3.33657C19.7145 3.05678 19.6039 2.79628 19.4239 2.60207L19.3958 2.57574C19.2008 2.38012 18.9322 2.25645 18.6392 2.25645H2.82875C2.54516 2.25645 2.28734 2.36696 2.09656 2.54517L2.06938 2.57433C1.87437 2.76994 1.7525 3.04033 1.7525 3.33657V11.7034C3.13906 10.4493 5.35859 8.69625 6.75969 7.51456C6.98844 7.31612 7.32875 7.32036 7.55328 7.51268C7.59875 7.55077 7.6325 7.59685 7.67047 7.64199L10.9348 12.6086L12.1016 9.0461C12.1948 8.5486 12.7808 8.38355 13.1356 8.71412L15.2455 10.7408C14.8808 10.9515 14.5367 11.1932 14.2147 11.4612L13.1286 10.4154L11.938 14.1199C11.863 14.6442 11.2142 14.8431 10.8636 14.4387L7.10094 8.87399L1.7525 13.3732V17.1199C1.7525 17.4143 1.87578 17.6837 2.07078 17.8794C2.26719 18.0769 2.53766 18.2001 2.82875 18.2001H11.6197C11.6802 18.6317 11.7777 19.0516 11.9094 19.4565H2.82875C2.19219 19.4565 1.60812 19.1922 1.18484 18.7681C0.764375 18.3458 0.5 17.7618 0.5 17.1199V3.33657C0.5 2.69377 0.762031 2.1088 1.18344 1.68559L1.22656 1.64657C1.64609 1.24687 2.21047 1 2.82875 1ZM18.927 11.5684C20.4659 11.5684 21.8595 12.1943 22.8673 13.2058C23.8761 14.2177 24.5 15.6152 24.5 17.159C24.5 18.7027 23.8761 20.1012 22.8678 21.1122C21.8595 22.1241 20.4659 22.75 18.927 22.75C17.3886 22.75 15.995 22.1241 14.9862 21.1122C13.978 20.1012 13.3541 18.7027 13.3541 17.159C13.3541 15.6166 13.978 14.22 14.9862 13.2081C15.9973 12.1943 17.3895 11.5684 18.927 11.5684ZM18.5253 14.6766H19.3297C19.52 14.6766 19.6761 14.8351 19.6761 15.0237V16.409H21.0561C21.2464 16.409 21.4025 16.5688 21.4025 16.7565V17.5629C21.4025 17.7519 21.2445 17.9109 21.0561 17.9109H19.6761V19.2952C19.6761 19.4843 19.5181 19.6427 19.3297 19.6427H18.5253C18.3369 19.6427 18.1789 19.4866 18.1789 19.2952V17.9109H16.7975C16.6091 17.9109 16.4511 17.7543 16.4511 17.5629V16.7565C16.4511 16.5651 16.6067 16.409 16.7975 16.409H18.1789V15.0237C18.1789 14.8327 18.3345 14.6766 18.5253 14.6766ZM22.1066 13.9689C21.2938 13.1536 20.1687 12.6481 18.927 12.6481C17.6848 12.6481 16.5598 13.1526 15.7461 13.968C14.9333 14.7838 14.4303 15.9129 14.4303 17.159C14.4303 18.4046 14.9342 19.5336 15.747 20.349C16.5608 21.1653 17.6858 21.6704 18.927 21.6704C20.1687 21.6704 21.2938 21.1653 22.107 20.349C22.9203 19.5336 23.4237 18.4046 23.4237 17.159C23.4237 15.9138 22.9203 14.7853 22.1066 13.9689ZM13.0578 3.87498C13.5753 3.87498 14.045 4.08565 14.3848 4.42656C14.7247 4.76748 14.9347 5.23818 14.9347 5.75778C14.9347 6.27645 14.7247 6.74809 14.3848 7.089C14.045 7.42992 13.5753 7.64058 13.0578 7.64058C12.5398 7.64058 12.0706 7.42992 11.7308 7.089C11.3909 6.74809 11.1809 6.27645 11.1809 5.75778C11.1809 5.23818 11.3909 4.76748 11.7308 4.42656C12.0706 4.08565 12.5398 3.87498 13.0578 3.87498ZM13.6306 5.18316C13.4786 5.03096 13.2726 4.94555 13.0578 4.9457C12.8342 4.9457 12.6312 5.03692 12.485 5.18316C12.3334 5.3357 12.2484 5.5424 12.2487 5.75778C12.2487 5.98208 12.3392 6.18569 12.485 6.3324C12.6312 6.47865 12.8342 6.56987 13.0578 6.56987C13.2814 6.56987 13.4844 6.47865 13.6306 6.3324C13.7764 6.18569 13.8673 5.98208 13.8673 5.75778C13.8673 5.53348 13.7764 5.32987 13.6306 5.18316Z" fill="#FA7070"/>
</g>
<defs>
<clipPath id="clip0_3691_31725">
<rect width="24" height="24" fill="white" transform="translate(0.5)"/>
</clipPath>
</defs>
</svg>
