<svg width="16" height="14" viewBox="0 0 16 14" fill="none" xmlns="http://www.w3.org/2000/svg">
<g clip-path="url(#clip0_4337_3648)">
<path d="M7.8763 4.77144C7.77734 4.82653 7.66537 4.83678 7.5625 4.80859C7.46094 4.78041 7.36979 4.71508 7.3125 4.61644L7.3112 4.61388C7.25521 4.51653 7.24479 4.40636 7.27344 4.30516C7.30208 4.20525 7.36849 4.11557 7.46875 4.05921H7.47005C7.625 3.97338 7.77214 3.88371 7.91146 3.78892C8.04948 3.69541 8.17839 3.59933 8.29557 3.49814C8.40625 3.40334 8.50781 3.30342 8.59635 3.19966C8.6849 3.09718 8.76042 2.99086 8.82292 2.8807C8.83724 2.85508 8.85156 2.82817 8.86458 2.80127C8.87761 2.77437 8.89063 2.74747 8.90104 2.72185L8.90365 2.71673C8.97526 2.5502 9.02083 2.37726 9.03516 2.20561C9.05078 2.03524 9.03776 1.86615 8.99349 1.70602C8.95052 1.54846 8.8776 1.40115 8.77344 1.27177C8.67578 1.14879 8.54818 1.04247 8.39193 0.95664L8.38672 0.954078C8.36589 0.942549 8.34635 0.932301 8.32682 0.923334C8.30469 0.913086 8.28125 0.901557 8.25912 0.89259C8.20182 0.868252 8.14453 0.849037 8.08984 0.836227C8.03385 0.823417 7.97917 0.815731 7.92839 0.81445C7.8776 0.813169 7.82552 0.815731 7.77474 0.824698C7.72396 0.833665 7.67318 0.846475 7.6237 0.86569L7.61849 0.866971C7.50391 0.909243 7.40234 0.966888 7.3151 1.03478C7.22135 1.1078 7.14453 1.19234 7.08464 1.28329C7.05208 1.33325 7.02604 1.38449 7.00521 1.43573C6.98568 1.48697 6.97135 1.53949 6.96224 1.59073V1.59329C6.95573 1.64069 6.95313 1.68681 6.95703 1.73164C6.96094 1.7752 6.96875 1.81491 6.98307 1.85334C7 1.89817 7.02474 1.94044 7.05859 1.97887C7.09115 2.0173 7.13281 2.05317 7.1849 2.0852C7.21094 2.10185 7.24219 2.11466 7.27995 2.12235C7.32031 2.13131 7.36719 2.13644 7.41927 2.13516C7.48698 2.13387 7.5638 2.12491 7.64714 2.10569C7.73307 2.08648 7.82813 2.0583 7.93229 2.02115L7.94141 2.01859C8.04688 1.984 8.15755 1.99297 8.25 2.03524C8.34635 2.07879 8.42578 2.15949 8.46354 2.26454L8.46484 2.26966C8.5013 2.37342 8.49219 2.48359 8.44792 2.57582C8.40365 2.67061 8.32162 2.74875 8.21484 2.7859C8.06901 2.83842 7.93229 2.87813 7.80208 2.90503C7.67057 2.93194 7.54688 2.94731 7.42839 2.94859C7.29427 2.95115 7.17057 2.93706 7.05469 2.9076C6.9375 2.87813 6.83073 2.83202 6.73307 2.77053C6.60547 2.68983 6.4987 2.59631 6.41146 2.49127C6.32031 2.38239 6.2513 2.26197 6.20313 2.13387C6.16276 2.02755 6.13802 1.91739 6.1276 1.80594C6.11719 1.69321 6.11979 1.5792 6.13802 1.46648C6.15365 1.35887 6.18359 1.25127 6.22526 1.14623C6.26693 1.04119 6.32031 0.938706 6.38411 0.838789C6.49089 0.674821 6.6276 0.523664 6.79297 0.395564C6.94922 0.27387 7.12891 0.17139 7.33203 0.0983732L7.33854 0.0958112C7.4375 0.0599434 7.53776 0.0330425 7.63802 0.0163895C7.74089 -0.00026342 7.84635 -0.0066684 7.95182 -0.00282541H7.95313C8.05859 0.00101758 8.16406 0.0138275 8.26823 0.0381664C8.3724 0.0625054 8.47787 0.0958112 8.58333 0.140646C8.61979 0.156018 8.65625 0.172671 8.6901 0.189324C8.72787 0.207258 8.76042 0.223911 8.79037 0.239283L8.79557 0.241845C9.05339 0.382754 9.26302 0.562094 9.42708 0.767053C9.60156 0.984822 9.72396 1.23334 9.79557 1.49594C9.86328 1.74445 9.88542 2.00449 9.86198 2.26582C9.83984 2.52842 9.77214 2.79103 9.66276 3.0421C9.64453 3.08437 9.6263 3.12408 9.60807 3.15995C9.59115 3.19454 9.57031 3.23297 9.54818 3.27396C9.45964 3.43152 9.35547 3.57884 9.23568 3.71847C9.11719 3.85681 8.98438 3.98876 8.83724 4.11429C8.69662 4.23343 8.54557 4.34743 8.38412 4.45504C8.22917 4.56777 8.05729 4.67153 7.8763 4.77144ZM5.4349 10.1657C5.36328 10.0914 5.32812 9.99534 5.33073 9.90055C5.33333 9.80576 5.3724 9.71096 5.44792 9.64051C5.52344 9.57005 5.62109 9.53547 5.71745 9.53803C5.8138 9.54059 5.91016 9.57902 5.98177 9.65332C6.35417 10.0376 6.72266 10.313 7.08724 10.4885C7.44792 10.6615 7.80469 10.7383 8.15885 10.7255C8.51823 10.7127 8.88412 10.6102 9.2526 10.427C9.6263 10.2413 10.0026 9.97485 10.3828 9.63538C10.4596 9.56621 10.5586 9.53419 10.6536 9.53931C10.75 9.54315 10.8451 9.58414 10.9167 9.65972C10.987 9.7353 11.0195 9.83138 11.0143 9.92617C11.0104 10.021 10.9688 10.1145 10.8919 10.1849C10.4505 10.5795 10.0052 10.8908 9.55599 11.1085C9.10287 11.3276 8.64714 11.4518 8.1862 11.4672C7.71875 11.4839 7.25391 11.3903 6.79297 11.1764C6.33724 10.9625 5.88412 10.6294 5.4349 10.1657ZM5.91797 6.16773C6.17448 6.16773 6.40625 6.27021 6.57422 6.43546C6.74219 6.60071 6.84635 6.82872 6.84635 7.08108C6.84635 7.33215 6.74219 7.56145 6.57422 7.7267C6.40625 7.89195 6.17448 7.99443 5.91797 7.99443C5.66146 7.99443 5.42969 7.89195 5.26172 7.7267C5.09375 7.56145 4.98958 7.33344 4.98958 7.08108C4.98958 6.82872 5.09375 6.60071 5.26172 6.43546C5.42969 6.27021 5.66276 6.16773 5.91797 6.16773ZM10.4063 6.16773C10.6628 6.16773 10.8945 6.27021 11.0625 6.43546C11.2305 6.60071 11.3346 6.82872 11.3346 7.08108C11.3346 7.33344 11.2305 7.56145 11.0625 7.7267C10.8945 7.89195 10.6628 7.99443 10.4063 7.99443C10.1497 7.99443 9.91797 7.89195 9.75 7.7267C9.58203 7.56145 9.47787 7.33344 9.47787 7.08108C9.47787 6.82872 9.58203 6.60071 9.75 6.43546C9.91797 6.27021 10.1497 6.16773 10.4063 6.16773ZM10.4831 3.95545C10.3802 3.91062 10.306 3.82863 10.2682 3.73128C10.2305 3.6352 10.2292 3.52375 10.2721 3.42128L10.2799 3.4059C10.3255 3.31111 10.4036 3.24065 10.4948 3.20351C10.5898 3.16508 10.6979 3.16251 10.7982 3.20479L10.806 3.20863C11.1966 3.38028 11.5638 3.58652 11.9023 3.82095C12.2435 4.05793 12.5573 4.32566 12.8372 4.61773C13.082 4.87264 13.3008 5.14806 13.4922 5.44012C13.6667 5.70657 13.8177 5.98711 13.9427 6.2779C13.9818 6.27149 14.0234 6.26509 14.0638 6.26124C14.125 6.25484 14.1849 6.25099 14.2448 6.25099C14.4818 6.25099 14.7083 6.29967 14.9167 6.38678C15.1315 6.47773 15.3255 6.60967 15.487 6.77492C15.6484 6.93889 15.7786 7.13488 15.8672 7.35265C15.9531 7.56273 16 7.79075 16 8.0303C16 8.26984 15.9531 8.49914 15.8672 8.70794C15.7786 8.92571 15.6484 9.12171 15.487 9.28567L15.4857 9.28695C15.3229 9.45092 15.1302 9.58286 14.9154 9.67381C14.7083 9.76092 14.4818 9.8096 14.2435 9.8096C14.2148 9.8096 14.1823 9.80832 14.1484 9.80704H14.138C13.9661 10.372 13.7005 10.901 13.3568 11.3801C12.9909 11.8899 12.5365 12.3447 12.013 12.7251C11.4557 13.1312 10.819 13.454 10.1276 13.6744C9.46094 13.8857 8.74349 14.001 7.9974 14.001C7.2526 14.001 6.53516 13.8857 5.86979 13.6744C5.17839 13.4553 4.54167 13.1312 3.98307 12.7251C3.45964 12.3434 3.00391 11.8887 2.63802 11.3788C2.29427 10.8997 2.02865 10.3707 1.85677 9.80704H1.84635C1.8125 9.8096 1.78125 9.8096 1.7513 9.8096C1.51432 9.8096 1.28776 9.76092 1.07943 9.67381C0.864583 9.58286 0.670573 9.45092 0.509115 9.28567C0.35026 9.12299 0.221354 8.92827 0.132813 8.71051C0.046875 8.5017 0 8.27241 0 8.03286C0 7.79331 0.046875 7.56401 0.132813 7.35521C0.221354 7.13744 0.351563 6.94145 0.513021 6.77748L0.514323 6.7762C0.677083 6.61224 0.869792 6.47901 1.08464 6.38934C1.29167 6.30223 1.51823 6.25356 1.75651 6.25356C1.8151 6.25356 1.8763 6.2574 1.9375 6.2638C1.97786 6.26893 2.01823 6.27405 2.05859 6.28046C2.18359 5.98839 2.33464 5.70913 2.50911 5.44269C2.70052 5.15062 2.92057 4.87521 3.16536 4.62029C3.44661 4.32694 3.76042 4.05921 4.10156 3.82223C4.4401 3.58652 4.80729 3.38156 5.19661 3.20991L5.20573 3.20607C5.30599 3.1638 5.41406 3.16636 5.50912 3.20479C5.60287 3.24194 5.68229 3.31495 5.72656 3.41359L5.73047 3.42256C5.77344 3.52504 5.77214 3.63648 5.73438 3.73256L5.72917 3.73896C5.6901 3.83376 5.61589 3.91446 5.51693 3.95801L5.51172 3.96057C5.17448 4.10917 4.85547 4.28723 4.5612 4.49219C4.26302 4.69971 3.98958 4.93285 3.74609 5.18777C3.50651 5.43756 3.29557 5.71041 3.11719 5.99864C2.94141 6.28174 2.79818 6.58277 2.6888 6.89662L2.68099 6.91839C2.67578 6.93248 2.67057 6.94658 2.66406 6.95939C2.61849 7.05418 2.53906 7.12335 2.44792 7.15922C2.35417 7.19637 2.24609 7.19765 2.14583 7.15666L2.13802 7.15282C2.10547 7.13872 2.07552 7.1272 2.04557 7.11695C2.01432 7.1067 1.98438 7.09773 1.95313 7.09133C1.92188 7.08492 1.89063 7.0798 1.85807 7.07724C1.82682 7.07467 1.79297 7.07211 1.75781 7.07211C1.62891 7.07211 1.50781 7.09773 1.39714 7.14385C1.28255 7.19253 1.17839 7.26298 1.09245 7.35137L1.08984 7.35265C1.0026 7.44104 0.932292 7.54608 0.885417 7.66393C0.839844 7.77794 0.813802 7.90348 0.813802 8.03542C0.813802 8.16736 0.839844 8.29162 0.885417 8.40435L0.886719 8.40947C0.934896 8.52604 1.00391 8.63108 1.09115 8.71947C1.17708 8.80786 1.28125 8.87832 1.39583 8.92571C1.50651 8.97183 1.62891 8.99745 1.75651 8.99745C1.78255 8.99745 1.80729 8.99617 1.82943 8.99489C1.85286 8.99361 1.8763 8.99104 1.89974 8.9872H1.90495C1.92578 8.98336 1.94922 8.97951 1.97266 8.97439C1.99609 8.96927 2.01823 8.96286 2.03646 8.95646C2.04818 8.95261 2.0625 8.94877 2.07422 8.94621C2.18099 8.92315 2.28776 8.94621 2.375 9.00129C2.46094 9.05637 2.52604 9.14348 2.55208 9.25109L2.55339 9.25749C2.67708 9.81344 2.90755 10.3348 3.22656 10.8062C3.55339 11.2879 3.97266 11.717 4.46224 12.0731C4.95052 12.4292 5.50912 12.7123 6.11849 12.9045C6.70573 13.0902 7.33984 13.1914 8.0013 13.1914C8.66276 13.1914 9.29688 13.0902 9.88412 12.9045C10.4935 12.7123 11.0521 12.4292 11.5417 12.0731C12.0299 11.717 12.4492 11.2891 12.776 10.8075C13.0938 10.3387 13.3255 9.81857 13.4492 9.2639L13.4531 9.24596L13.4596 9.22546C13.4935 9.11914 13.5651 9.03716 13.6549 8.98848C13.7461 8.9398 13.8555 8.92571 13.9609 8.95646L13.9661 8.95774C13.987 8.96414 14.0091 8.97055 14.0313 8.97567C14.056 8.98079 14.0807 8.98592 14.1029 8.98976C14.1263 8.99232 14.1497 8.99617 14.1719 8.99745C14.194 8.99873 14.2201 9.00001 14.2461 9.00001C14.375 9.00001 14.4961 8.97439 14.6068 8.92827C14.7214 8.8796 14.8255 8.80914 14.9115 8.72075L14.9128 8.71947C15 8.63108 15.0703 8.52604 15.1172 8.40819C15.1628 8.29418 15.1888 8.16864 15.1888 8.0367C15.1888 7.90476 15.1628 7.7805 15.1172 7.66778C15.069 7.54992 14.9987 7.4436 14.9115 7.35393C14.8255 7.26554 14.7214 7.19509 14.6068 7.14769C14.4961 7.10158 14.3737 7.07596 14.2461 7.07596C14.2096 7.07596 14.1758 7.07724 14.1445 7.08108C14.112 7.08364 14.0807 7.08877 14.0508 7.09517L14.0469 7.09645C14.0182 7.10286 13.9883 7.11182 13.9583 7.12079C13.9284 7.13104 13.8971 7.14257 13.8659 7.15666L13.8607 7.15922C13.8516 7.16306 13.8438 7.16563 13.8359 7.16819L13.8281 7.17075C13.7253 7.20534 13.6172 7.19509 13.526 7.15025C13.4362 7.1067 13.362 7.02728 13.3242 6.92608L13.3203 6.91583C13.2122 6.59814 13.0664 6.29455 12.8906 6.00889C12.7109 5.7181 12.4987 5.44397 12.2565 5.19033L12.2526 5.18521C12.0078 4.93157 11.7344 4.69843 11.4362 4.49219C11.1406 4.28339 10.8216 4.10405 10.4831 3.95545Z" fill="black" fill-opacity="0.5"/>
</g>
<defs>
<clipPath id="clip0_4337_3648">
<rect width="16" height="14" fill="white"/>
</clipPath>
</defs>
</svg>
