<svg width="20" height="20" viewBox="0 0 20 20" fill="none" xmlns="http://www.w3.org/2000/svg">
<path fill-rule="evenodd" clip-rule="evenodd" d="M7.75456 11.6249C7.22902 11.1564 6.8125 10.8196 6.72301 9.84657H6.67094C6.5399 9.84663 6.41103 9.81302 6.29672 9.74895C6.10923 9.63119 5.96484 9.45597 5.88507 9.24944C5.69471 8.81339 5.54176 7.66794 6.02012 7.33927L5.93063 7.2807L5.92087 7.15379C5.90134 6.92275 5.89646 6.64289 5.89321 6.35165C5.87531 5.27291 5.85416 4.3585 4.98694 4.09655L4.61434 3.98265L4.86002 3.68002C5.50041 2.8692 6.2277 2.13099 7.02889 1.47861C7.86358 0.821276 8.7129 0.38197 9.5427 0.256687C9.97484 0.187611 10.4168 0.21308 10.8382 0.331338C11.2595 0.449596 11.6502 0.657829 11.9833 0.941678C12.2217 1.13603 12.4398 1.35409 12.6341 1.5925C13.0212 1.63486 13.3951 1.75815 13.7315 1.95436C14.0678 2.15058 14.3592 2.41533 14.5866 2.73144C15.6621 4.14861 15.7255 6.14827 14.3783 7.44991C14.4916 7.45195 14.6029 7.47977 14.7037 7.53127C15.0649 7.72489 15.0763 8.14467 14.982 8.49611C14.8876 8.79061 14.7688 9.13229 14.6565 9.41866C14.5215 9.81891 14.3181 9.884 13.9358 9.84332C13.9162 10.8 13.4737 11.0636 12.8798 11.6249C13.062 13.3057 7.93191 13.2113 7.75456 11.6249ZM16.8124 14.7652C16.8708 14.7602 16.9297 14.7681 16.9848 14.7882C17.0398 14.8084 17.0898 14.8404 17.1312 14.882C17.1726 14.9235 17.2044 14.9736 17.2244 15.0288C17.2444 15.0839 17.252 15.1428 17.2468 15.2012C17.2448 15.274 17.2258 15.3453 17.1914 15.4094C17.1569 15.4736 17.1079 15.5287 17.0483 15.5706C16.9177 15.6776 16.7535 15.7352 16.5846 15.7333C16.5256 15.7371 16.4665 15.7291 16.4106 15.7098C16.3548 15.6905 16.3033 15.6603 16.2592 15.621C16.2188 15.5837 16.1869 15.538 16.1659 15.4871C16.1448 15.4363 16.135 15.3815 16.1372 15.3265C16.1382 15.2501 16.1564 15.1748 16.1905 15.1064C16.2246 15.0379 16.2737 14.978 16.334 14.9311C16.4664 14.8214 16.6341 14.7636 16.8059 14.7684L16.8124 14.7652ZM16.705 13.2097C17.138 13.2082 17.567 13.2926 17.9672 13.458C18.3674 13.6233 18.7309 13.8663 19.0366 14.1729C19.342 14.4779 19.5843 14.8401 19.7496 15.2387C19.9149 15.6374 20 16.0648 20 16.4964C20 16.928 19.9149 17.3553 19.7496 17.754C19.5843 18.1527 19.342 18.5148 19.0366 18.8198C18.4201 19.4354 17.5844 19.7812 16.7131 19.7812C15.8419 19.7812 15.0062 19.4354 14.3897 18.8198C13.7741 18.2033 13.4283 17.3676 13.4283 16.4964C13.4283 15.6251 13.7741 14.7895 14.3897 14.1729C14.6944 13.8672 15.0565 13.6247 15.4553 13.4594C15.854 13.2941 16.2815 13.2092 16.7131 13.2097H16.705ZM18.581 14.622C18.1459 14.1883 17.5738 13.919 16.9623 13.8598C16.3508 13.8007 15.7377 13.9554 15.2275 14.2976C14.7173 14.6398 14.3416 15.1483 14.1643 15.7366C13.987 16.3248 14.0191 16.9562 14.2552 17.5234C14.4913 18.0906 14.9168 18.5583 15.4591 18.8469C16.0014 19.1356 16.6271 19.2272 17.2294 19.1063C17.8317 18.9853 18.3735 18.6593 18.7623 18.1837C19.1512 17.7081 19.3631 17.1123 19.362 16.498C19.3627 16.1496 19.2945 15.8044 19.1613 15.4825C19.0281 15.1605 18.8326 14.8681 18.5859 14.622H18.581ZM15.8606 17.5979H16.1079V16.4166H15.7825C15.7825 15.9692 16.596 16.2539 17.2061 16.1075V17.5979H17.5055V18.086H15.8606V17.5979ZM7.48447 12.8127C8.62341 14.7782 12.5105 14.2413 13.0539 12.8127C13.2667 12.9877 13.5077 13.1252 13.7665 13.2195C13.7058 13.2737 13.6472 13.3279 13.5908 13.3822C12.9222 14.0493 12.4864 14.9142 12.3481 15.8486C12.2097 16.7829 12.3762 17.737 12.8229 18.5692H0C0.333547 17.0447 0.299379 15.3574 1.82881 14.5113C3.19229 13.7596 6.37156 13.8166 7.48447 12.8127Z" fill="black" fill-opacity="0.35"/>
</svg>
