<svg width="24" height="24" viewBox="0 0 24 24" fill="none" xmlns="http://www.w3.org/2000/svg">
<path fill-rule="evenodd" clip-rule="evenodd" d="M20.5352 14.8978V17.7738H3.50065V15.0117C4.11589 15.2575 4.72135 15.3242 5.29753 15.2201C5.99902 15.0931 6.6403 14.7171 7.19531 14.1068C7.93425 14.8896 8.7155 15.2673 9.53744 15.2591C10.3691 15.2493 11.2025 14.8376 12.0309 14.04C12.9261 14.8994 13.7936 15.2819 14.6318 15.2363C15.4261 15.194 16.1569 14.7741 16.8307 14.0221C17.5387 14.888 18.3298 15.29 19.1924 15.2689C19.6318 15.2542 20.0794 15.1289 20.5352 14.8978ZM2.26855 18.8822H21.7314C21.8796 18.8822 22 19.0026 22 19.1507V20.4105C22 20.557 21.8796 20.679 21.7314 20.679H2.26855C2.12207 20.679 2 20.5586 2 20.4105V19.1507C2 19.0026 2.12044 18.8822 2.26855 18.8822ZM10.8086 9.6276V7.13249C10.8086 6.87695 11.0186 6.66862 11.2725 6.66862H12.7292C12.9847 6.66862 13.193 6.87858 13.193 7.13249V9.6276H10.8086ZM12.0016 3C12.2523 4.11491 13.0091 4.67318 13.0091 5.23307C13.0091 5.79134 12.7585 6.34798 12.0016 6.34798C11.248 6.34798 10.9941 5.78971 10.9941 5.23307C10.9941 4.67643 11.7477 4.11816 12.0016 3ZM4.98991 10.3877H19.0247C19.915 10.3877 20.6426 11.1169 20.6426 12.0055V13.2344C20.029 13.7438 19.4626 14.0156 18.945 14.0303C18.3005 14.0465 17.6852 13.6331 17.1025 12.7331C17.07 12.6859 17.0326 12.6419 16.9821 12.6061C16.7673 12.4499 16.4678 12.4971 16.3132 12.7119C15.7256 13.5176 15.1217 13.9668 14.5016 14.001C13.8734 14.0352 13.1719 13.651 12.3857 12.79C12.3743 12.7803 12.3646 12.7689 12.3548 12.7591C12.1579 12.5801 11.8551 12.5947 11.6761 12.79C10.9404 13.5973 10.2503 14.0173 9.61068 14.0238C8.98568 14.0303 8.35417 13.6364 7.7194 12.8177C7.69173 12.7803 7.65592 12.7477 7.61523 12.7184C7.39876 12.5654 7.09766 12.6175 6.94629 12.834C6.47754 13.4997 5.93066 13.8936 5.3431 13.9993C4.93945 14.071 4.50651 14.0026 4.04427 13.8122C3.08887 13.4215 3.43555 13.1986 3.37207 12.0072C3.32324 11.1185 4.09961 10.3877 4.98991 10.3877ZM20.6426 14.4176V14.4697H20.5579C20.5856 14.4551 20.6133 14.4372 20.6426 14.4176Z" fill="black" fill-opacity="0.35"/>
</svg>
