<svg width="24" height="22" viewBox="0 0 24 22" fill="none" xmlns="http://www.w3.org/2000/svg">
<path fill-rule="evenodd" clip-rule="evenodd" d="M20.5352 13.8978V16.7738H3.50065V14.0117C4.11589 14.2575 4.72135 14.3242 5.29753 14.2201C5.99902 14.0931 6.6403 13.7171 7.19531 13.1068C7.93425 13.8896 8.7155 14.2673 9.53744 14.2591C10.3691 14.2493 11.2025 13.8376 12.0309 13.04C12.9261 13.8994 13.7936 14.2819 14.6318 14.2363C15.4261 14.194 16.1569 13.7741 16.8307 13.0221C17.5387 13.888 18.3298 14.29 19.1924 14.2689C19.6318 14.2542 20.0794 14.1289 20.5352 13.8978ZM2.26855 17.8822H21.7314C21.8796 17.8822 22 18.0026 22 18.1507V19.4105C22 19.557 21.8796 19.679 21.7314 19.679H2.26855C2.12207 19.679 2 19.5586 2 19.4105V18.1507C2 18.0026 2.12044 17.8822 2.26855 17.8822ZM10.8086 8.6276V6.13249C10.8086 5.87695 11.0186 5.66862 11.2725 5.66862H12.7292C12.9847 5.66862 13.193 5.87858 13.193 6.13249V8.6276H10.8086ZM12.0016 2C12.2523 3.11491 13.0091 3.67318 13.0091 4.23307C13.0091 4.79134 12.7585 5.34798 12.0016 5.34798C11.248 5.34798 10.9941 4.78971 10.9941 4.23307C10.9941 3.67643 11.7477 3.11816 12.0016 2ZM4.98991 9.3877H19.0247C19.915 9.3877 20.6426 10.1169 20.6426 11.0055V12.2344C20.029 12.7438 19.4626 13.0156 18.945 13.0303C18.3005 13.0465 17.6852 12.6331 17.1025 11.7331C17.07 11.6859 17.0326 11.6419 16.9821 11.6061C16.7673 11.4499 16.4678 11.4971 16.3132 11.7119C15.7256 12.5176 15.1217 12.9668 14.5016 13.001C13.8734 13.0352 13.1719 12.651 12.3857 11.79C12.3743 11.7803 12.3646 11.7689 12.3548 11.7591C12.1579 11.5801 11.8551 11.5947 11.6761 11.79C10.9404 12.5973 10.2503 13.0173 9.61068 13.0238C8.98568 13.0303 8.35417 12.6364 7.7194 11.8177C7.69173 11.7803 7.65592 11.7477 7.61523 11.7184C7.39876 11.5654 7.09766 11.6175 6.94629 11.834C6.47754 12.4997 5.93066 12.8936 5.3431 12.9993C4.93945 13.071 4.50651 13.0026 4.04427 12.8122C3.08887 12.4215 3.43555 12.1986 3.37207 11.0072C3.32324 10.1185 4.09961 9.3877 4.98991 9.3877ZM20.6426 13.4176V13.4697H20.5579C20.5856 13.4551 20.6133 13.4372 20.6426 13.4176Z" fill="black" fill-opacity="0.35"/>
</svg>
