<svg width="24" height="24" viewBox="0 0 24 24" fill="none" xmlns="http://www.w3.org/2000/svg">
<path d="M5.07298 10.3276C5.32852 10.3276 5.53685 10.5343 5.53685 10.7898C5.53685 11.0453 5.33015 11.252 5.07298 11.252C4.81745 11.252 4.61075 11.0453 4.61075 10.7898C4.61075 10.5359 4.81745 10.3276 5.07298 10.3276ZM5.63939 13.2768C5.54011 13.2084 5.51569 13.0717 5.58405 12.9724C5.65241 12.8731 5.78913 12.8487 5.88841 12.9171C6.11139 13.0717 6.32949 13.1482 6.54271 13.1482C6.75592 13.1482 6.97565 13.0701 7.197 12.9171C7.29628 12.8487 7.43137 12.8731 7.49973 12.9724C7.56809 13.0717 7.54368 13.2068 7.44439 13.2751C7.14817 13.4786 6.84707 13.5828 6.54108 13.5828C6.23672 13.586 5.93561 13.4835 5.63939 13.2768ZM8.11334 10.3276C8.36887 10.3276 8.57557 10.5343 8.57557 10.7898C8.57557 11.0453 8.36887 11.252 8.11334 11.252C7.8578 11.252 7.6511 11.0453 7.6511 10.7898C7.64947 10.5359 7.8578 10.3276 8.11334 10.3276ZM2.19214 18.6381C2.56323 17.3018 3.05314 16.8982 4.0476 16.0746C4.19896 15.9493 4.36172 15.8158 4.51797 15.6824C4.52123 15.6791 4.52448 15.6775 4.52774 15.6742C4.56192 15.6286 4.58633 15.5993 4.60912 15.57C4.72468 15.4219 4.82071 15.2999 4.89883 15.1371C4.40892 14.8751 3.95157 14.4812 3.56257 13.9506C3.26798 14.0255 3.02058 14.0906 2.81388 14.1459C2.57462 14.2077 2.38908 14.2566 2.26701 14.2842C2.25073 14.2875 2.23283 14.2891 2.2133 14.2891C2.09285 14.2859 1.99683 14.1866 2.00008 14.0661L2.12541 8.79436C2.12541 8.78622 2.12541 8.77808 2.12703 8.76995C2.15796 8.45745 2.22957 8.15634 2.33537 7.86663C2.44116 7.57529 2.58113 7.29697 2.75203 7.02842C3.21264 6.29925 3.79044 5.78168 4.46752 5.45127C5.14134 5.1225 5.91283 4.9809 6.77057 5.00206C7.50624 5.01996 8.22076 5.20225 8.85552 5.56683C9.44797 5.907 9.97205 6.40505 10.3806 7.07236C10.5319 7.31976 10.6622 7.57854 10.7712 7.85035C10.8786 8.11728 10.9665 8.39397 11.0349 8.68205C11.0414 8.70159 11.0446 8.72274 11.0446 8.7439V13.9066C11.0446 13.975 11.0121 14.0434 10.9519 14.0857C10.8526 14.1557 10.7175 14.1313 10.6475 14.032C10.5482 13.892 10.4213 13.7732 10.2699 13.6739C10.156 13.599 10.0274 13.5356 9.88579 13.4818C9.43332 14.2175 8.84087 14.7693 8.18495 15.1143C8.24354 15.2852 8.32655 15.4138 8.42746 15.5749L8.47141 15.6449C8.81646 15.8012 9.15337 15.9997 9.47075 16.2943C9.80116 16.5987 10.1071 17.0007 10.3773 17.5557C10.5515 17.9105 10.6817 18.2735 10.7924 18.6397H10.3334C10.2374 18.3353 10.125 18.0359 9.98345 17.7461C9.73931 17.2432 9.46587 16.8835 9.17453 16.615C8.93202 16.3904 8.67486 16.2292 8.40956 16.099C8.24192 16.3074 8.04823 16.4815 7.83502 16.6199C7.42812 16.8868 6.95449 17.0235 6.48086 17.0251C6.00723 17.0267 5.53359 16.89 5.12995 16.6101C5.05183 16.5564 4.97696 16.4962 4.90534 16.4327C4.80931 16.3513 4.71654 16.2601 4.62865 16.1625C4.51797 16.2536 4.42032 16.3366 4.32592 16.4148C3.43888 17.1472 2.9864 17.5232 2.64786 18.6413H2.19214V18.6381ZM7.64133 14.6472C7.69179 14.6244 7.74062 14.6016 7.7927 14.5772C7.79921 14.574 7.80572 14.5707 7.81223 14.5691C8.55604 14.1964 9.21197 13.5111 9.627 12.5688C9.77186 12.2367 9.83859 11.9356 9.86789 11.6345C9.95578 10.7084 9.8744 9.45679 9.8744 8.49651C9.11431 8.6137 8.79693 8.10589 8.65695 7.34742C7.10423 8.76343 5.29434 9.07593 3.26798 8.44931C3.26798 9.39983 3.19148 10.5945 3.26635 11.5141C3.28914 11.7924 3.34285 12.0723 3.46166 12.3848C4.33894 14.683 6.13906 15.2917 7.64133 14.6472ZM5.29759 15.3227C5.20482 15.5212 5.09089 15.6661 4.95417 15.8419C5.03392 15.9444 5.12019 16.0372 5.21296 16.1186C5.22923 16.1316 5.24551 16.1446 5.26341 16.1576C5.62148 16.4343 6.04303 16.5775 6.46295 16.584C6.88287 16.5906 7.30442 16.4603 7.66575 16.1902C7.80735 16.0844 7.94081 15.9558 8.05963 15.8077L8.058 15.8061C7.94569 15.6286 7.85455 15.4838 7.78456 15.2982C6.97727 15.6124 6.10488 15.6303 5.29759 15.3227ZM21.5654 18.6381C21.5247 18.4769 21.4759 18.3337 21.4222 18.2068C21.1113 17.4743 20.3382 17.1407 19.5781 16.8135C19.4496 16.7582 19.321 16.7029 19.1875 16.641C19.1696 16.6622 19.1533 16.6833 19.1354 16.7045C19.0313 16.8331 18.9092 16.9454 18.7725 17.0447C18.3949 17.3181 17.9082 17.4743 17.4053 17.4988C16.9056 17.5232 16.3864 17.4174 15.9437 17.1635C15.724 17.0381 15.5222 16.8754 15.3513 16.6752C15.2292 16.7338 15.1039 16.7907 14.9753 16.8493C14.2461 17.1814 13.4226 17.5573 13.1215 18.184C13.0547 18.3223 13.0026 18.4737 12.962 18.6364H12.529C12.5323 18.6169 12.5371 18.599 12.542 18.5795C12.5892 18.3711 12.656 18.1791 12.7406 18.0017C13.1084 17.2367 14.0052 16.8266 14.8011 16.4652C14.9785 16.3855 15.1494 16.3074 15.3024 16.2292C15.4082 16.0909 15.4929 15.9428 15.5596 15.7833C15.6166 15.6465 15.6589 15.5033 15.6882 15.352C15.527 15.2559 15.3741 15.1436 15.2276 15.015C14.6319 14.4861 14.2136 14.0548 13.945 13.5551C13.6716 13.0489 13.5577 12.4858 13.5723 11.7045L13.6146 9.44052C13.6146 9.4161 13.6195 9.39332 13.6276 9.37216L13.1003 9.20614C12.8968 4.7628 18.5414 4.46658 20.9079 7.29534C21.4792 7.97893 21.5036 8.3484 21.4889 9.24032C21.4841 9.53003 21.4401 9.78394 21.3066 9.87834C21.2448 9.92228 21.1716 9.93856 21.0853 9.93205V11.8689C21.0853 12.9415 20.7012 13.8367 20.1136 14.5007C19.7816 14.8751 19.3845 15.1745 18.9548 15.391C18.9808 15.5294 19.0166 15.6612 19.0606 15.7865C19.1143 15.9363 19.1843 16.0795 19.2673 16.2146C19.4121 16.2813 19.5781 16.3529 19.7442 16.4245C20.5807 16.7842 21.4336 17.1521 21.8112 18.0424C21.8844 18.2165 21.9479 18.4135 22 18.6381H21.5654ZM16.4808 15.6856C16.3441 15.6498 16.2106 15.6059 16.0804 15.5505C16.0479 15.6889 16.0056 15.8207 15.9518 15.9493C15.8851 16.1104 15.7989 16.2634 15.6979 16.4083C15.8102 16.5336 15.9388 16.641 16.0772 16.7305C16.4515 16.9714 16.9024 17.0853 17.3451 17.0756C17.7861 17.0642 18.2175 16.9307 18.5544 16.6752C18.6439 16.6068 18.7269 16.5303 18.8018 16.4457C18.8246 16.418 18.8457 16.3904 18.8652 16.3627C18.7871 16.226 18.7204 16.0811 18.6651 15.9297C18.6227 15.8142 18.5886 15.6937 18.5609 15.5717C18.1296 15.7263 17.6934 15.8028 17.2653 15.7963C16.9984 15.7898 16.7364 15.754 16.4808 15.6856ZM16.0349 15.0574C16.1748 15.1306 16.3181 15.1908 16.4645 15.238L16.4711 15.2396C16.7412 15.3227 17.0228 15.3633 17.306 15.3633C17.7601 15.3633 18.2207 15.2608 18.6472 15.0655C19.0752 14.8702 19.4723 14.5837 19.7962 14.2175C20.3203 13.6267 20.6605 12.8275 20.6605 11.8656V9.90764C20.6556 9.77255 20.6361 9.64885 20.6003 9.53654C20.5645 9.42912 20.514 9.33309 20.4456 9.25171C20.1852 8.94735 19.9395 8.95875 19.5879 8.97665C19.557 8.97828 19.5244 8.97991 19.4805 8.98153C18.0905 9.04338 17.1774 9.04175 16.4385 8.97665C15.7565 8.91643 15.2211 8.80575 14.5993 8.64136C14.5407 8.77971 14.4724 8.9148 14.3926 9.04501C14.2901 9.21265 14.1729 9.37378 14.0378 9.52678L13.9955 11.711C13.9825 12.4158 14.0817 12.9154 14.3177 13.3549C14.5586 13.8025 14.9476 14.2029 15.5075 14.6993C15.6556 14.8311 15.8135 14.9418 15.9795 15.0329C15.999 15.0378 16.0186 15.0476 16.0349 15.0574ZM16.3767 13.765C16.279 13.7016 16.2513 13.5697 16.3148 13.4721C16.3783 13.3744 16.5101 13.3468 16.6078 13.4102C16.8487 13.5665 17.0814 13.6511 17.3011 13.6544C17.5143 13.6576 17.7259 13.5811 17.9343 13.42C18.027 13.3484 18.1605 13.3647 18.2321 13.4574C18.3037 13.5502 18.2875 13.6837 18.1947 13.7553C17.9066 13.9783 17.6071 14.0824 17.2962 14.0775C16.9903 14.0727 16.6843 13.9652 16.3767 13.765ZM15.5856 11.1104C15.8379 11.1104 16.043 11.3155 16.043 11.5678C16.043 11.8201 15.8379 12.0251 15.5856 12.0251C15.3334 12.0251 15.1283 11.8201 15.1283 11.5678C15.1283 11.3155 15.3334 11.1104 15.5856 11.1104ZM19.0394 11.1104C19.2917 11.1104 19.4968 11.3155 19.4968 11.5678C19.4968 11.8201 19.2917 12.0251 19.0394 12.0251C18.7871 12.0251 18.582 11.8201 18.582 11.5678C18.5804 11.3155 18.7855 11.1104 19.0394 11.1104Z" fill="black" fill-opacity="0.5"/>
</svg>
