<svg width="16" height="16" viewBox="0 0 16 16" fill="none" xmlns="http://www.w3.org/2000/svg">
<path d="M5.33398 3.83333C5.06065 3.83333 4.83398 3.60666 4.83398 3.33333V1.33333C4.83398 1.05999 5.06065 0.833328 5.33398 0.833328C5.60732 0.833328 5.83398 1.05999 5.83398 1.33333V3.33333C5.83398 3.60666 5.60732 3.83333 5.33398 3.83333Z" fill="black" fill-opacity="0.5"/>
<path d="M10.666 3.83333C10.3927 3.83333 10.166 3.60666 10.166 3.33333V1.33333C10.166 1.05999 10.3927 0.833328 10.666 0.833328C10.9393 0.833328 11.166 1.05999 11.166 1.33333V3.33333C11.166 3.60666 10.9393 3.83333 10.666 3.83333Z" fill="black" fill-opacity="0.5"/>
<path d="M5.66667 9.66667C5.58 9.66667 5.49333 9.64668 5.41333 9.61335C5.32667 9.58001 5.26 9.53333 5.19333 9.47333C5.07333 9.34667 5 9.18 5 9C5 8.91334 5.02 8.82667 5.05333 8.74667C5.08667 8.66667 5.13333 8.59334 5.19333 8.52668C5.26 8.46668 5.32667 8.42 5.41333 8.38666C5.65333 8.28666 5.95333 8.34001 6.14 8.52668C6.26 8.65334 6.33333 8.82667 6.33333 9C6.33333 9.04 6.32667 9.08668 6.32 9.13335C6.31333 9.17335 6.3 9.21334 6.28 9.25334C6.26667 9.29334 6.24667 9.33334 6.22 9.37334C6.2 9.40667 6.16667 9.44 6.14 9.47333C6.01333 9.59333 5.84 9.66667 5.66667 9.66667Z" fill="black" fill-opacity="0.5"/>
<path d="M8.00065 9.66667C7.91398 9.66667 7.82732 9.64668 7.74732 9.61335C7.66065 9.58002 7.59399 9.53333 7.52732 9.47333C7.40732 9.34667 7.33398 9.18001 7.33398 9.00001C7.33398 8.91334 7.35399 8.82667 7.38732 8.74667C7.42065 8.66667 7.46732 8.59335 7.52732 8.52668C7.59399 8.46668 7.66065 8.42 7.74732 8.38666C7.98732 8.28 8.28732 8.34001 8.47398 8.52668C8.59398 8.65335 8.66732 8.82667 8.66732 9.00001C8.66732 9.04001 8.66065 9.08668 8.65398 9.13335C8.64732 9.17335 8.63398 9.21334 8.61398 9.25334C8.60065 9.29334 8.58065 9.33334 8.55399 9.37334C8.53399 9.40667 8.50065 9.44 8.47398 9.47333C8.34732 9.59333 8.17398 9.66667 8.00065 9.66667Z" fill="black" fill-opacity="0.5"/>
<path d="M10.3327 9.66667C10.246 9.66667 10.1593 9.64668 10.0793 9.61335C9.99268 9.58002 9.92602 9.53333 9.85935 9.47333C9.83268 9.44 9.80601 9.40667 9.77935 9.37334C9.75268 9.33334 9.73268 9.29334 9.71935 9.25334C9.69935 9.21334 9.68602 9.17335 9.67935 9.13335C9.67268 9.08668 9.66602 9.04001 9.66602 9.00001C9.66602 8.82667 9.73935 8.65335 9.85935 8.52668C9.92602 8.46668 9.99268 8.42 10.0793 8.38666C10.326 8.28 10.6193 8.34001 10.806 8.52668C10.926 8.65335 10.9993 8.82667 10.9993 9.00001C10.9993 9.04001 10.9927 9.08668 10.986 9.13335C10.9793 9.17335 10.966 9.21334 10.946 9.25334C10.9327 9.29334 10.9127 9.33334 10.886 9.37334C10.866 9.40667 10.8327 9.44 10.806 9.47333C10.6793 9.59333 10.506 9.66667 10.3327 9.66667Z" fill="black" fill-opacity="0.5"/>
<path d="M5.66667 12C5.58 12 5.49333 11.98 5.41333 11.9467C5.33333 11.9134 5.26 11.8667 5.19333 11.8067C5.07333 11.68 5 11.5067 5 11.3333C5 11.2467 5.02 11.16 5.05333 11.08C5.08667 10.9933 5.13333 10.92 5.19333 10.86C5.44 10.6134 5.89333 10.6134 6.14 10.86C6.26 10.9867 6.33333 11.16 6.33333 11.3333C6.33333 11.5067 6.26 11.68 6.14 11.8067C6.01333 11.9267 5.84 12 5.66667 12Z" fill="black" fill-opacity="0.5"/>
<path d="M8.00065 12C7.82732 12 7.65399 11.9267 7.52732 11.8067C7.40732 11.68 7.33398 11.5067 7.33398 11.3333C7.33398 11.2467 7.35399 11.16 7.38732 11.08C7.42065 10.9933 7.46732 10.92 7.52732 10.86C7.77399 10.6134 8.22732 10.6134 8.47398 10.86C8.53398 10.92 8.58065 10.9933 8.61398 11.08C8.64732 11.16 8.66732 11.2467 8.66732 11.3333C8.66732 11.5067 8.59398 11.68 8.47398 11.8067C8.34732 11.9267 8.17398 12 8.00065 12Z" fill="black" fill-opacity="0.5"/>
<path d="M10.3327 12C10.1593 12 9.98602 11.9267 9.85935 11.8067C9.79935 11.7467 9.75268 11.6734 9.71935 11.5867C9.68602 11.5067 9.66602 11.42 9.66602 11.3334C9.66602 11.2467 9.68602 11.16 9.71935 11.08C9.75268 10.9934 9.79935 10.92 9.85935 10.86C10.0127 10.7067 10.246 10.6334 10.4593 10.68C10.506 10.6867 10.546 10.7 10.586 10.72C10.626 10.7334 10.666 10.7534 10.706 10.78C10.7393 10.8 10.7727 10.8334 10.806 10.86C10.926 10.9867 10.9993 11.16 10.9993 11.3334C10.9993 11.5067 10.926 11.68 10.806 11.8067C10.6793 11.9267 10.506 12 10.3327 12Z" fill="black" fill-opacity="0.5"/>
<path d="M13.6673 6.55997H2.33398C2.06065 6.55997 1.83398 6.3333 1.83398 6.05997C1.83398 5.78663 2.06065 5.55997 2.33398 5.55997H13.6673C13.9407 5.55997 14.1673 5.78663 14.1673 6.05997C14.1673 6.3333 13.9407 6.55997 13.6673 6.55997Z" fill="black" fill-opacity="0.5"/>
<path d="M10.6667 15.1667H5.33333C2.9 15.1667 1.5 13.7667 1.5 11.3333V5.66666C1.5 3.23333 2.9 1.83333 5.33333 1.83333H10.6667C13.1 1.83333 14.5 3.23333 14.5 5.66666V11.3333C14.5 13.7667 13.1 15.1667 10.6667 15.1667ZM5.33333 2.83333C3.42667 2.83333 2.5 3.75999 2.5 5.66666V11.3333C2.5 13.24 3.42667 14.1667 5.33333 14.1667H10.6667C12.5733 14.1667 13.5 13.24 13.5 11.3333V5.66666C13.5 3.75999 12.5733 2.83333 10.6667 2.83333H5.33333Z" fill="black" fill-opacity="0.5"/>
</svg>
