<svg width="16" height="16" viewBox="0 0 16 16" fill="none" xmlns="http://www.w3.org/2000/svg">
<path d="M11.632 15.1668C10.8787 15.1668 10.0854 14.9868 9.26536 14.6402C8.46536 14.3002 7.6587 13.8335 6.87203 13.2668C6.09203 12.6935 5.3387 12.0535 4.62536 11.3535C3.9187 10.6402 3.2787 9.88683 2.71203 9.1135C2.1387 8.3135 1.6787 7.5135 1.35203 6.74016C1.00536 5.9135 0.832031 5.1135 0.832031 4.36016C0.832031 3.84016 0.925365 3.34683 1.10536 2.88683C1.29203 2.4135 1.59203 1.9735 1.9987 1.5935C2.51203 1.08683 3.0987 0.833496 3.72536 0.833496C3.98536 0.833496 4.25203 0.893496 4.4787 1.00016C4.7387 1.12016 4.9587 1.30016 5.1187 1.54016L6.66536 3.72016C6.80536 3.9135 6.91203 4.10016 6.98536 4.28683C7.07203 4.48683 7.1187 4.68683 7.1187 4.88016C7.1187 5.1335 7.04536 5.38016 6.90536 5.6135C6.80536 5.7935 6.65203 5.98683 6.4587 6.18016L6.00536 6.6535C6.01203 6.6735 6.0187 6.68683 6.02536 6.70016C6.10536 6.84016 6.26536 7.08016 6.57203 7.44016C6.8987 7.8135 7.20537 8.1535 7.51203 8.46683C7.90536 8.8535 8.23203 9.16016 8.5387 9.4135C8.9187 9.7335 9.16537 9.8935 9.31203 9.96683L9.2987 10.0002L9.78537 9.52016C9.99203 9.3135 10.192 9.16016 10.3854 9.06016C10.752 8.8335 11.2187 8.7935 11.6854 8.98683C11.8587 9.06016 12.0454 9.16016 12.2454 9.30016L14.4587 10.8735C14.7054 11.0402 14.8854 11.2535 14.992 11.5068C15.092 11.7602 15.1387 11.9935 15.1387 12.2268C15.1387 12.5468 15.0654 12.8668 14.9254 13.1668C14.7854 13.4668 14.612 13.7268 14.392 13.9668C14.012 14.3868 13.5987 14.6868 13.1187 14.8802C12.6587 15.0668 12.1587 15.1668 11.632 15.1668ZM3.72536 1.8335C3.3587 1.8335 3.0187 1.9935 2.69203 2.3135C2.38536 2.60016 2.17203 2.9135 2.0387 3.2535C1.8987 3.60016 1.83203 3.96683 1.83203 4.36016C1.83203 4.98016 1.9787 5.6535 2.27203 6.34683C2.57203 7.0535 2.99203 7.78683 3.52536 8.52016C4.0587 9.2535 4.66536 9.96683 5.33203 10.6402C5.9987 11.3002 6.7187 11.9135 7.4587 12.4535C8.1787 12.9802 8.9187 13.4068 9.65203 13.7135C10.792 14.2002 11.8587 14.3135 12.7387 13.9468C13.0787 13.8068 13.3787 13.5935 13.652 13.2868C13.8054 13.1202 13.9254 12.9402 14.0254 12.7268C14.1054 12.5602 14.1454 12.3868 14.1454 12.2135C14.1454 12.1068 14.1254 12.0002 14.072 11.8802C14.052 11.8402 14.012 11.7668 13.8854 11.6802L11.672 10.1068C11.5387 10.0135 11.4187 9.94683 11.3054 9.90016C11.1587 9.84016 11.0987 9.78016 10.872 9.92016C10.7387 9.98683 10.6187 10.0868 10.4854 10.2202L9.9787 10.7202C9.7187 10.9735 9.3187 11.0335 9.01203 10.9202L8.83203 10.8402C8.5587 10.6935 8.2387 10.4668 7.88536 10.1668C7.56536 9.8935 7.2187 9.5735 6.7987 9.16016C6.47203 8.82683 6.14536 8.4735 5.80536 8.08016C5.49203 7.7135 5.26536 7.40016 5.12536 7.14016L5.04536 6.94016C5.00536 6.78683 4.99203 6.70016 4.99203 6.60683C4.99203 6.36683 5.0787 6.1535 5.24536 5.98683L5.74536 5.46683C5.8787 5.3335 5.9787 5.20683 6.04536 5.0935C6.0987 5.00683 6.1187 4.9335 6.1187 4.86683C6.1187 4.8135 6.0987 4.7335 6.06536 4.6535C6.0187 4.54683 5.94536 4.42683 5.85203 4.30016L4.30536 2.1135C4.2387 2.02016 4.1587 1.9535 4.0587 1.90683C3.95203 1.86016 3.8387 1.8335 3.72536 1.8335ZM9.2987 10.0068L9.19203 10.4602L9.37203 9.9935C9.3387 9.98683 9.31203 9.9935 9.2987 10.0068Z" fill="black" fill-opacity="0.5"/>
<path d="M12.3333 6.49984C12.06 6.49984 11.8333 6.27317 11.8333 5.99984C11.8333 5.75984 11.5933 5.25984 11.1933 4.83317C10.8 4.41317 10.3667 4.1665 10 4.1665C9.72667 4.1665 9.5 3.93984 9.5 3.6665C9.5 3.39317 9.72667 3.1665 10 3.1665C10.6467 3.1665 11.3267 3.51317 11.92 4.1465C12.4733 4.73984 12.8333 5.4665 12.8333 5.99984C12.8333 6.27317 12.6067 6.49984 12.3333 6.49984Z" fill="black" fill-opacity="0.5"/>
<path d="M14.6667 6.50016C14.3933 6.50016 14.1667 6.2735 14.1667 6.00016C14.1667 3.70016 12.3 1.8335 10 1.8335C9.72667 1.8335 9.5 1.60683 9.5 1.3335C9.5 1.06016 9.72667 0.833496 10 0.833496C12.8467 0.833496 15.1667 3.1535 15.1667 6.00016C15.1667 6.2735 14.94 6.50016 14.6667 6.50016Z" fill="black" fill-opacity="0.5"/>
</svg>
