<svg width="220" height="220" viewBox="0 0 220 220" fill="none" xmlns="http://www.w3.org/2000/svg">
<path d="M178.34 116.442C216.33 137.936 216.528 172.762 178.78 194.273C141.033 215.785 79.6484 215.763 41.6588 194.273C3.66917 172.784 3.46676 137.953 41.2188 116.442C78.9708 94.93 140.36 94.9476 178.34 116.442Z" fill="#F0F0F0"/>
<path d="M54.0955 22.176C52.0407 23.364 50.2631 25.7532 49.4095 28.2348C48.8664 28.2957 48.3435 28.476 47.8783 28.7628L47.5483 28.9652C45.6923 30.3278 44.4319 32.3524 44.0283 34.6192C43.9285 35.2016 43.9285 35.7968 44.0283 36.3792C44.0332 36.4352 44.0226 36.4914 43.9978 36.5419C43.973 36.5923 43.9349 36.6349 43.8875 36.6652L41.7579 37.884C41.2716 38.2015 40.8668 38.6291 40.5763 39.132C40.2859 39.635 40.1179 40.1993 40.0859 40.7792C40.0859 41.844 40.8427 42.2752 41.7711 41.7384L62.5039 29.766C62.992 29.4503 63.3981 29.0233 63.6888 28.5199C63.9795 28.0165 64.1465 27.4513 64.1759 26.8708C64.1759 25.806 63.4191 25.3792 62.4951 25.916L59.0983 27.874C58.9927 27.9356 58.9223 27.874 58.9619 27.7244C59.2733 26.7366 59.4015 25.7003 59.3403 24.6664C59.1159 21.8592 57.0391 20.7064 54.5003 21.9692C54.3551 22.0308 54.2231 22.1012 54.0955 22.176Z" fill="#E6E6E6"/>
<path d="M37.8895 19.536C36.3658 20.5212 35.2247 21.9976 34.6555 23.7204C34.2812 23.7615 33.9206 23.8847 33.5995 24.0812C33.5206 24.1255 33.4442 24.1739 33.3707 24.2264C32.0861 25.1644 31.2142 26.5629 30.9375 28.1292C30.8692 28.5297 30.8692 28.9388 30.9375 29.3392C30.9411 29.3779 30.934 29.4169 30.9169 29.4519C30.8999 29.4868 30.8735 29.5163 30.8407 29.5372L29.3755 30.382C29.04 30.6011 28.7608 30.8961 28.5605 31.2432C28.3602 31.5902 28.2445 31.9795 28.2227 32.3796C28.2227 33.1144 28.7463 33.4092 29.3843 33.0396L43.6931 24.7764C44.0285 24.5573 44.3077 24.2623 44.508 23.9153C44.7083 23.5682 44.824 23.1789 44.8459 22.7788C44.8459 22.044 44.3223 21.7492 43.6843 22.1188L41.3611 23.4696C41.2863 23.5136 41.2379 23.4696 41.2643 23.3684C41.4792 22.6862 41.5672 21.9704 41.5239 21.2564C41.3699 19.3204 39.9355 18.524 38.1711 19.3952L37.8895 19.536Z" fill="#E6E6E6"/>
<path d="M47.1989 165.915L53.3017 169.567C53.7667 169.847 54.2991 169.995 54.8417 169.995C55.3844 169.995 55.9167 169.847 56.3817 169.567L106.001 139.854C106.155 139.759 106.283 139.626 106.372 139.468C106.46 139.31 106.507 139.131 106.507 138.95C106.507 138.768 106.46 138.59 106.372 138.432C106.283 138.273 106.155 138.14 106.001 138.046L99.8801 134.394C99.4151 134.114 98.8828 133.966 98.3401 133.966C97.7975 133.966 97.2651 134.114 96.8001 134.394L47.1989 164.12C47.0471 164.215 46.922 164.348 46.8353 164.505C46.7486 164.662 46.7031 164.838 46.7031 165.018C46.7031 165.197 46.7486 165.373 46.8353 165.53C46.922 165.687 47.0471 165.82 47.1989 165.915Z" fill="#E0E0E0"/>
<path d="M162.693 156.974C172.945 162.897 173.002 172.493 162.816 178.411C152.63 184.329 136.06 184.334 125.808 178.411C115.556 172.489 115.499 162.897 125.685 156.974C135.871 151.052 152.441 151.056 162.693 156.974Z" fill="#E0E0E0"/>
<path d="M41.0002 133.531C39.8694 132.449 38.5714 131.265 38.4922 129.699C38.4966 128.998 38.7146 128.316 39.1172 127.743C39.5197 127.17 40.0876 126.733 40.745 126.491C41.408 126.267 42.1092 126.179 42.8069 126.232C43.5046 126.285 44.1846 126.478 44.8062 126.799C46.0441 127.453 47.1473 128.336 48.0578 129.4C50.797 132.444 52.7799 136.091 53.8457 140.045C54.9114 143.999 55.0298 148.148 54.1914 152.156C54.077 152.684 53.901 153.27 53.4258 153.52C52.669 153.921 51.8066 153.217 51.2874 152.535C50.1615 151.04 49.3108 149.356 48.775 147.563C48.335 146.045 48.5286 144.373 47.9566 142.943C46.5574 139.436 43.693 136.105 41.0002 133.531Z" fill="#FA7070"/>
<path d="M41.0002 133.531C39.8694 132.449 38.5714 131.265 38.4922 129.699C38.4966 128.998 38.7146 128.316 39.1172 127.743C39.5197 127.17 40.0876 126.733 40.745 126.491C41.408 126.267 42.1092 126.179 42.8069 126.232C43.5046 126.285 44.1846 126.478 44.8062 126.799C46.0441 127.453 47.1473 128.336 48.0578 129.4C50.797 132.444 52.7799 136.091 53.8457 140.045C54.9114 143.999 55.0298 148.148 54.1914 152.156C54.077 152.684 53.901 153.27 53.4258 153.52C52.669 153.921 51.8066 153.217 51.2874 152.535C50.1615 151.04 49.3108 149.356 48.775 147.563C48.335 146.045 48.5286 144.373 47.9566 142.943C46.5574 139.436 43.693 136.105 41.0002 133.531Z" fill="#FA7070"/>
<path d="M52.766 151.474C52.7264 151.474 52.6871 151.467 52.6505 151.451C52.6139 151.436 52.5807 151.413 52.5529 151.385C52.525 151.357 52.5031 151.323 52.4883 151.287C52.4735 151.25 52.4662 151.21 52.4668 151.171C52.4298 146.78 51.4164 142.453 49.5002 138.503C47.5839 134.552 44.8128 131.077 41.3876 128.33C41.3547 128.305 41.3271 128.274 41.3065 128.238C41.2859 128.202 41.2727 128.163 41.2678 128.122C41.2629 128.081 41.2663 128.039 41.2778 127.999C41.2893 127.959 41.3087 127.922 41.3348 127.89C41.3605 127.858 41.3922 127.832 41.4283 127.812C41.4643 127.792 41.5039 127.779 41.5448 127.775C41.5856 127.77 41.627 127.774 41.6665 127.785C41.706 127.797 41.7428 127.816 41.7748 127.842C45.2724 130.646 48.1019 134.194 50.0578 138.227C52.0138 142.261 53.0471 146.679 53.0828 151.162C53.0841 151.204 53.0767 151.245 53.0612 151.284C53.0456 151.323 53.0223 151.358 52.9925 151.387C52.9628 151.417 52.9273 151.439 52.8884 151.454C52.8494 151.469 52.8077 151.476 52.766 151.474Z" fill="white"/>
<path d="M49.0558 163.478C47.1506 164.089 44.7614 163.689 43.6571 162.017C42.337 160.054 43.1687 157.027 41.4307 155.417C40.4583 154.537 39.0282 154.44 37.739 154.176C36.4498 153.912 35.0199 153.195 34.8263 151.892C34.5711 150.168 36.6919 148.733 36.3971 147.013C36.1023 145.292 33.7571 144.786 33.0663 143.211C32.4371 141.777 33.5502 140.039 35.0286 139.502C36.507 138.965 38.1483 139.335 39.6179 139.88C41.0875 140.426 42.5174 141.148 44.075 141.341C45.6326 141.535 47.5686 141.222 48.7566 142.336C50.3494 143.823 49.4387 146.661 50.6663 148.456C51.4935 149.662 53.0467 150.08 54.2347 150.924C54.9731 151.461 55.5725 152.166 55.9827 152.981C56.393 153.796 56.6023 154.698 56.593 155.61C56.5534 157.586 55.515 159.016 54.019 160.151C52.435 161.383 51.0402 162.844 49.0558 163.478Z" fill="#FA7070"/>
<path opacity="0.3" d="M49.0558 163.478C47.1506 164.089 44.7614 163.689 43.6571 162.017C42.337 160.054 43.1687 157.027 41.4307 155.417C40.4583 154.537 39.0282 154.44 37.739 154.176C36.4498 153.912 35.0199 153.195 34.8263 151.892C34.5711 150.168 36.6919 148.733 36.3971 147.013C36.1023 145.292 33.7571 144.786 33.0663 143.211C32.4371 141.777 33.5502 140.039 35.0286 139.502C36.507 138.965 38.1483 139.335 39.6179 139.88C41.0875 140.426 42.5174 141.148 44.075 141.341C45.6326 141.535 47.5686 141.222 48.7566 142.336C50.3494 143.823 49.4387 146.661 50.6663 148.456C51.4935 149.662 53.0467 150.08 54.2347 150.924C54.9731 151.461 55.5725 152.166 55.9827 152.981C56.393 153.796 56.6023 154.698 56.593 155.61C56.5534 157.586 55.515 159.016 54.019 160.151C52.435 161.383 51.0402 162.844 49.0558 163.478Z" fill="black"/>
<path d="M48.199 149.965L48.177 149.934C47.891 149.521 47.5962 149.112 47.297 148.72C44.4773 145.227 40.653 142.683 36.341 141.434C36.3017 141.418 36.2595 141.411 36.2172 141.413C36.1749 141.414 36.1334 141.425 36.0954 141.443C36.0574 141.462 36.0238 141.489 35.9966 141.521C35.9694 141.554 35.9493 141.591 35.9376 141.632C35.9259 141.673 35.9228 141.715 35.9286 141.757C35.9344 141.799 35.9488 141.839 35.9711 141.875C35.9933 141.911 36.0228 141.942 36.0578 141.966C36.0927 141.99 36.1322 142.007 36.1738 142.014C40.3665 143.229 44.085 145.702 46.8262 149.098C46.9098 149.204 46.9846 149.323 47.0682 149.428C43.6538 148.174 40.169 148.887 38.3122 150.383C38.2788 150.408 38.251 150.44 38.2305 150.476C38.21 150.512 38.1972 150.552 38.1931 150.594C38.189 150.635 38.1935 150.677 38.2064 150.716C38.2194 150.756 38.2404 150.792 38.2682 150.823C38.2927 150.857 38.324 150.885 38.36 150.906C38.3961 150.927 38.4361 150.94 38.4775 150.945C38.5189 150.949 38.5609 150.945 38.6006 150.933C38.6403 150.92 38.677 150.899 38.7082 150.872C40.5474 149.389 44.3446 148.729 47.7854 150.396C49.9259 153.555 51.1781 157.231 51.411 161.04C51.4155 161.116 51.449 161.188 51.5046 161.24C51.5603 161.293 51.6338 161.322 51.7102 161.322C51.7499 161.32 51.7889 161.31 51.8248 161.293C51.8608 161.277 51.893 161.253 51.9196 161.223C51.9463 161.194 51.9668 161.159 51.9799 161.122C51.9931 161.084 51.9986 161.044 51.9962 161.005C51.7521 157.049 50.4398 153.234 48.199 149.965Z" fill="white"/>
<path d="M164.871 143.176C165.791 142.296 166.843 141.337 166.904 140.07C166.902 139.502 166.726 138.948 166.399 138.483C166.073 138.018 165.612 137.664 165.078 137.469C164.54 137.286 163.971 137.214 163.405 137.257C162.838 137.3 162.286 137.458 161.783 137.72C160.776 138.247 159.88 138.963 159.143 139.828C156.916 142.298 155.304 145.26 154.439 148.471C153.573 151.682 153.478 155.053 154.162 158.308C154.182 158.526 154.248 158.737 154.356 158.929C154.464 159.12 154.61 159.286 154.787 159.416C155.403 159.742 156.107 159.17 156.52 158.616C157.435 157.402 158.125 156.034 158.557 154.576C158.927 153.349 158.76 151.989 159.222 150.832C160.361 147.972 162.685 145.266 164.871 143.176Z" fill="#FA7070"/>
<path d="M155.32 157.736C155.385 157.736 155.448 157.71 155.494 157.663C155.54 157.617 155.566 157.555 155.566 157.489C155.596 153.926 156.418 150.415 157.974 147.209C159.53 144.004 161.779 141.184 164.56 138.956C164.601 138.913 164.626 138.857 164.629 138.797C164.632 138.737 164.613 138.679 164.576 138.632C164.539 138.585 164.486 138.553 164.427 138.543C164.368 138.532 164.307 138.543 164.256 138.574C161.419 140.849 159.124 143.727 157.537 147C155.95 150.272 155.112 153.857 155.082 157.494C155.083 157.557 155.108 157.617 155.153 157.662C155.197 157.707 155.257 157.733 155.32 157.736Z" fill="white"/>
<path d="M158.333 167.473C159.881 167.97 161.822 167.644 162.733 166.289C163.784 164.696 163.129 162.241 164.537 160.952C165.329 160.235 166.486 160.16 167.533 159.944C168.58 159.729 169.733 159.152 169.896 158.096C170.103 156.693 168.382 155.531 168.624 154.136C168.866 152.742 170.763 152.332 171.326 151.056C171.836 149.89 170.93 148.478 169.733 148.047C168.536 147.616 167.203 147.91 166.011 148.35C164.818 148.79 163.657 149.38 162.394 149.534C161.131 149.688 159.56 149.437 158.597 150.344C157.303 151.549 158.042 153.864 157.043 155.311C156.375 156.288 155.116 156.631 154.153 157.309C153.552 157.744 153.065 158.316 152.732 158.979C152.399 159.641 152.23 160.373 152.239 161.115C152.269 162.716 153.119 163.874 154.324 164.798C155.596 165.774 156.744 166.962 158.333 167.473Z" fill="#FA7070"/>
<path opacity="0.3" d="M158.333 167.473C159.881 167.97 161.822 167.644 162.733 166.289C163.784 164.696 163.129 162.241 164.537 160.952C165.329 160.235 166.486 160.16 167.533 159.944C168.58 159.729 169.733 159.152 169.896 158.096C170.103 156.693 168.382 155.531 168.624 154.136C168.866 152.742 170.763 152.332 171.326 151.056C171.836 149.89 170.93 148.478 169.733 148.047C168.536 147.616 167.203 147.91 166.011 148.35C164.818 148.79 163.657 149.38 162.394 149.534C161.131 149.688 159.56 149.437 158.597 150.344C157.303 151.549 158.042 153.864 157.043 155.311C156.375 156.288 155.116 156.631 154.153 157.309C153.552 157.744 153.065 158.316 152.732 158.979C152.399 159.641 152.23 160.373 152.239 161.115C152.269 162.716 153.119 163.874 154.324 164.798C155.596 165.774 156.744 166.962 158.333 167.473Z" fill="black"/>
<path d="M159.034 156.512V156.486C159.267 156.152 159.505 155.822 159.76 155.505C162.051 152.668 165.16 150.606 168.665 149.6C168.728 149.582 168.795 149.59 168.852 149.621C168.908 149.652 168.951 149.705 168.969 149.767C168.978 149.798 168.98 149.831 168.976 149.863C168.972 149.895 168.962 149.926 168.946 149.955C168.93 149.983 168.909 150.008 168.883 150.027C168.858 150.047 168.829 150.062 168.797 150.071C165.398 151.052 162.382 153.055 160.16 155.808C160.09 155.896 160.028 155.989 159.962 156.077C162.73 155.056 165.555 155.637 167.064 156.851C167.104 156.883 167.134 156.926 167.148 156.976C167.162 157.025 167.161 157.078 167.144 157.126C167.127 157.175 167.095 157.217 167.053 157.246C167.011 157.276 166.961 157.291 166.91 157.291C166.853 157.291 166.798 157.271 166.756 157.234C165.264 156.033 162.184 155.5 159.39 156.851C157.646 159.416 156.623 162.402 156.429 165.497C156.425 165.559 156.397 165.618 156.351 165.66C156.305 165.703 156.245 165.726 156.183 165.726C156.15 165.724 156.119 165.716 156.09 165.702C156.061 165.688 156.035 165.668 156.014 165.644C155.992 165.62 155.976 165.592 155.966 165.561C155.955 165.531 155.951 165.498 155.954 165.466C156.15 162.258 157.215 159.163 159.034 156.512Z" fill="white"/>
<path d="M123.643 48.0304C123.845 47.9116 124.008 48.0304 124.008 48.2416V50.71C124.001 50.8363 123.964 50.9591 123.901 51.0685C123.837 51.1778 123.749 51.2706 123.643 51.3392C123.44 51.458 123.277 51.3392 123.277 51.1324V48.664C123.284 48.5371 123.321 48.4137 123.384 48.3036C123.448 48.1935 123.536 48.1 123.643 48.0304Z" fill="#FA7070"/>
<path d="M118.947 52.7207C118.989 52.6926 119.038 52.6775 119.088 52.6775C119.138 52.6775 119.187 52.6926 119.229 52.7207L120.615 53.8119C120.747 53.9175 120.725 54.1947 120.571 54.4323C120.513 54.5278 120.433 54.6078 120.338 54.6655C120.296 54.6943 120.247 54.7097 120.197 54.7097C120.147 54.7097 120.097 54.6943 120.056 54.6655L118.67 53.5743C118.538 53.4687 118.556 53.1915 118.714 52.9539C118.772 52.8589 118.852 52.779 118.947 52.7207Z" fill="#FA7070"/>
<path d="M117.317 55.9064C117.368 55.8836 117.424 55.8745 117.48 55.88L119.345 56.0428C119.521 56.0428 119.583 56.2804 119.482 56.54C119.42 56.7004 119.309 56.8374 119.165 56.9316C119.11 56.9669 119.045 56.9838 118.98 56.98L117.114 56.8216C116.943 56.8216 116.881 56.584 116.982 56.3244C117.042 56.1503 117.16 56.0024 117.317 55.9064Z" fill="#FA7070"/>
<path d="M119.195 62.04C119.323 61.9652 119.446 61.9696 119.512 62.0664C119.555 62.1761 119.565 62.2959 119.542 62.4114C119.518 62.527 119.462 62.6333 119.38 62.7175L117.523 65.0275C117.473 65.091 117.412 65.1447 117.343 65.1859C117.215 65.2607 117.092 65.2563 117.021 65.1595C116.979 65.0497 116.969 64.9301 116.993 64.8148C117.016 64.6995 117.072 64.5932 117.153 64.5084L119.01 62.1984C119.062 62.1347 119.124 62.081 119.195 62.04Z" fill="#FA7070"/>
<path d="M118.576 60.4339C118.752 60.3371 118.906 60.3899 118.937 60.5747C118.945 60.7004 118.922 60.8261 118.871 60.941C118.82 61.056 118.741 61.1567 118.642 61.2347L116.526 62.8847L116.464 62.9287C116.288 63.0299 116.134 62.9771 116.104 62.7879C116.095 62.6622 116.117 62.5361 116.168 62.421C116.22 62.3058 116.299 62.2052 116.398 62.1279L118.51 60.4779L118.576 60.4339Z" fill="#FA7070"/>
<path d="M128.37 47.2824C128.404 47.2586 128.443 47.2427 128.484 47.2359C128.525 47.229 128.568 47.2314 128.608 47.2428C128.762 47.3044 128.784 47.5552 128.656 47.8104L127.279 50.4988C127.216 50.6274 127.119 50.7357 126.997 50.8112C126.962 50.8339 126.923 50.8491 126.883 50.8559C126.842 50.8628 126.8 50.861 126.76 50.8508C126.606 50.7892 126.584 50.534 126.716 50.2788L128.088 47.5948C128.15 47.4653 128.248 47.3566 128.37 47.2824Z" fill="#FA7070"/>
<path d="M126.162 47.0799C126.201 47.0576 126.245 47.0427 126.29 47.0359C126.479 47.0051 126.576 47.1899 126.51 47.4495L125.779 50.1907C125.729 50.3868 125.606 50.5566 125.436 50.6659C125.398 50.6895 125.356 50.7059 125.313 50.7143C125.124 50.7451 125.022 50.5603 125.093 50.3007L125.819 47.5595C125.87 47.3628 125.992 47.1919 126.162 47.0799Z" fill="#FA7070"/>
<g opacity="0.2">
<path d="M123.643 48.0304C123.845 47.9116 124.008 48.0304 124.008 48.2416V50.71C124.001 50.8363 123.964 50.9591 123.901 51.0685C123.837 51.1778 123.749 51.2706 123.643 51.3392C123.44 51.458 123.277 51.3392 123.277 51.1324V48.664C123.284 48.5371 123.321 48.4137 123.384 48.3036C123.448 48.1935 123.536 48.1 123.643 48.0304Z" fill="black"/>
<path d="M118.947 52.7207C118.989 52.6926 119.038 52.6775 119.088 52.6775C119.138 52.6775 119.187 52.6926 119.229 52.7207L120.615 53.8119C120.747 53.9175 120.725 54.1947 120.571 54.4323C120.513 54.5278 120.433 54.6078 120.338 54.6655C120.296 54.6943 120.247 54.7097 120.197 54.7097C120.147 54.7097 120.097 54.6943 120.056 54.6655L118.67 53.5743C118.538 53.4687 118.556 53.1915 118.714 52.9539C118.772 52.8589 118.852 52.779 118.947 52.7207Z" fill="black"/>
<path d="M117.317 55.9064C117.368 55.8836 117.424 55.8745 117.48 55.88L119.345 56.0428C119.521 56.0428 119.583 56.2804 119.482 56.54C119.42 56.7004 119.309 56.8374 119.165 56.9316C119.11 56.9669 119.045 56.9838 118.98 56.98L117.114 56.8216C116.943 56.8216 116.881 56.584 116.982 56.3244C117.042 56.1503 117.16 56.0024 117.317 55.9064Z" fill="black"/>
<path d="M119.195 62.04C119.323 61.9652 119.446 61.9696 119.512 62.0664C119.555 62.1761 119.565 62.2959 119.542 62.4114C119.518 62.527 119.462 62.6333 119.38 62.7175L117.523 65.0275C117.473 65.091 117.412 65.1447 117.343 65.1859C117.215 65.2607 117.092 65.2563 117.021 65.1595C116.979 65.0497 116.969 64.9301 116.993 64.8148C117.016 64.6995 117.072 64.5932 117.153 64.5084L119.01 62.1984C119.062 62.1347 119.124 62.081 119.195 62.04Z" fill="black"/>
<path d="M118.576 60.4339C118.752 60.3371 118.906 60.3899 118.937 60.5747C118.945 60.7004 118.922 60.8261 118.871 60.941C118.82 61.056 118.741 61.1567 118.642 61.2347L116.526 62.8847L116.464 62.9287C116.288 63.0299 116.134 62.9771 116.104 62.7879C116.095 62.6622 116.117 62.5361 116.168 62.421C116.22 62.3058 116.299 62.2052 116.398 62.1279L118.51 60.4779L118.576 60.4339Z" fill="black"/>
<path d="M128.37 47.2824C128.404 47.2586 128.443 47.2427 128.484 47.2359C128.525 47.229 128.568 47.2314 128.608 47.2428C128.762 47.3044 128.784 47.5552 128.656 47.8104L127.279 50.4988C127.216 50.6274 127.119 50.7357 126.997 50.8112C126.962 50.8339 126.923 50.8491 126.883 50.8559C126.842 50.8628 126.8 50.861 126.76 50.8508C126.606 50.7892 126.584 50.534 126.716 50.2788L128.088 47.5948C128.15 47.4653 128.248 47.3566 128.37 47.2824Z" fill="black"/>
<path d="M126.162 47.0799C126.201 47.0576 126.245 47.0427 126.29 47.0359C126.479 47.0051 126.576 47.1899 126.51 47.4495L125.779 50.1907C125.729 50.3868 125.606 50.5566 125.436 50.6659C125.398 50.6895 125.356 50.7059 125.313 50.7143C125.124 50.7451 125.022 50.5603 125.093 50.3007L125.819 47.5595C125.87 47.3628 125.992 47.1919 126.162 47.0799Z" fill="black"/>
</g>
<path d="M124.803 170.993C125.352 171.535 126.009 171.956 126.732 172.228C127.454 172.5 128.225 172.617 128.996 172.572C130.531 172.467 132.033 172.077 133.427 171.424C134.848 170.826 136.626 169.154 138.161 169.184C139.661 169.173 141.158 169.069 142.645 168.872C142.699 166.778 142.484 164.686 142.007 162.646L134.848 162.452C132.916 165.167 129.159 167.424 126.316 168.269C125.876 168.401 125.48 168.65 125.17 168.99C124.86 169.329 124.648 169.746 124.556 170.196C124.554 170.212 124.554 170.229 124.556 170.245C124.607 170.503 124.69 170.755 124.803 170.993Z" fill="#455A64"/>
<path d="M138.16 169.184C136.624 169.154 134.847 170.826 133.425 171.424C132.032 172.077 130.53 172.467 128.995 172.572C128.224 172.617 127.453 172.5 126.73 172.228C126.008 171.956 125.351 171.535 124.801 170.993C124.689 170.754 124.606 170.503 124.555 170.245C124.553 170.229 124.553 170.212 124.555 170.196C124.487 170.518 124.487 170.851 124.555 171.173C124.606 171.432 124.689 171.683 124.801 171.921C125.35 172.464 126.007 172.886 126.73 173.158C127.452 173.43 128.224 173.547 128.995 173.501C130.53 173.396 132.032 173.009 133.425 172.357C134.847 171.758 136.624 170.086 138.16 170.117C139.631 170.128 141.101 170.04 142.56 169.853C142.595 169.528 142.617 169.198 142.63 168.872C141.148 169.068 139.655 169.172 138.16 169.184Z" fill="#37474F"/>
<path d="M156.969 171.446C156.975 172.194 156.903 172.94 156.754 173.672C156.527 174.966 155.818 176.125 154.769 176.915C153.814 177.483 152.726 177.786 151.615 177.795C150.643 177.899 149.66 177.794 148.733 177.487C148.023 177.225 147.426 176.726 147.043 176.075C147.043 176.075 147.043 176.101 147.043 176.114C147.177 176.591 147.424 177.028 147.762 177.388C148.101 177.749 148.521 178.023 148.988 178.187C149.917 178.495 150.901 178.598 151.874 178.49C152.982 178.49 154.07 178.194 155.025 177.632C156.076 176.843 156.786 175.681 157.009 174.385C157.158 173.654 157.23 172.909 157.225 172.163C157.227 171.655 157.332 171.152 157.532 170.685C157.732 170.218 158.024 169.796 158.391 169.444C158.569 169.275 158.738 169.096 158.897 168.907C159.011 168.774 159.097 168.619 159.151 168.452C159.204 168.286 159.224 168.11 159.209 167.935C159.209 167.798 159.183 167.662 159.165 167.53C158.905 167.847 158.285 168.595 158.127 168.744C157.764 169.096 157.476 169.515 157.277 169.979C157.078 170.443 156.974 170.942 156.969 171.446Z" fill="#37474F"/>
<path d="M151.498 163.68C151.729 165.213 151.53 166.781 150.922 168.208C150.32 169.612 149.538 170.931 148.594 172.132C148.13 172.7 147.721 173.31 147.371 173.954C147.032 174.599 146.911 175.337 147.028 176.057C147.411 176.709 148.008 177.208 148.717 177.47C149.645 177.777 150.628 177.882 151.599 177.778C152.71 177.769 153.799 177.465 154.754 176.898C155.803 176.107 156.512 174.948 156.738 173.655C156.887 172.922 156.959 172.176 156.954 171.428C156.957 170.921 157.061 170.418 157.26 169.951C157.46 169.484 157.751 169.062 158.116 168.709C158.274 168.56 158.894 167.829 159.154 167.495C159.013 166.385 158.649 165.315 158.085 164.349L151.498 163.68Z" fill="#455A64"/>
<path d="M132.293 98.12L132.834 135.986L134.594 162.492C138.994 165.352 142.206 163.016 142.206 163.016C143.883 150.458 144.107 142.736 143.196 137.496L144.032 117.062L146.523 138.292L150.747 164.3C155.274 167.31 158.473 164.3 158.473 164.3C158.473 154.673 159.309 143.911 156.713 136.968C158.539 115.518 155.494 98.516 155.494 98.516L132.293 98.12Z" fill="#37474F"/>
<path d="M143.088 109.274L144.012 117.08L143.62 126.65L141.922 110.915C137.962 109.336 137.469 107.114 137.469 107.114C139.125 108.304 141.06 109.048 143.088 109.274Z" fill="#263238"/>
<path d="M135.638 54.3532L134.631 53.8252H134.609H134.569C134.486 53.7871 134.395 53.7697 134.304 53.7743C134.213 53.7789 134.124 53.8054 134.046 53.8516L125.03 59.0568C124.853 59.1588 124.706 59.3057 124.604 59.4826C124.503 59.6595 124.449 59.8602 124.449 60.0644V64.4291C124.448 64.5203 124.469 64.6104 124.511 64.6916C124.552 64.7729 124.612 64.8429 124.687 64.8956C124.721 64.9189 124.758 64.9381 124.797 64.9528L125.774 65.472L125.725 64.6756L134.318 59.7168C134.496 59.6149 134.643 59.4682 134.746 59.2913C134.849 59.1144 134.903 58.9137 134.904 58.7091V54.9076L135.638 54.3532Z" fill="#455A64"/>
<path d="M135.353 60.2316L126.337 65.4368C126.248 65.4885 126.148 65.5159 126.045 65.5165C125.943 65.517 125.842 65.4905 125.752 65.4397C125.663 65.3889 125.589 65.3155 125.537 65.227C125.485 65.1384 125.458 65.0378 125.457 64.9352V60.566C125.458 60.3621 125.512 60.1619 125.614 59.9853C125.716 59.8086 125.862 59.6615 126.038 59.5584L135.08 54.3532C135.169 54.2998 135.27 54.2712 135.373 54.2702C135.477 54.2692 135.579 54.2958 135.669 54.3474C135.758 54.399 135.833 54.4737 135.884 54.5637C135.935 54.6536 135.961 54.7557 135.96 54.8592V59.224C135.958 59.4309 135.901 59.6335 135.794 59.8107C135.687 59.9879 135.535 60.1332 135.353 60.2316Z" fill="#455A64"/>
<path d="M126.043 60.5659C126.044 60.4643 126.071 60.3646 126.122 60.2767C126.173 60.1887 126.246 60.1155 126.333 60.0643L135.353 54.8591V59.2239C135.353 59.3263 135.327 59.4269 135.276 59.5157C135.225 59.6045 135.151 59.6784 135.063 59.7299L126.047 64.9307L126.043 60.5659Z" fill="#FA7070"/>
<path d="M131.432 67.0208C131.553 66.7345 131.757 66.4909 132.017 66.3211C132.782 65.8421 133.365 65.1223 133.676 64.2751C133.929 63.3705 134.068 62.4378 134.089 61.4988C134.115 60.5543 134.449 59.644 135.04 58.9072C133.438 58.2604 132.787 59.7168 132.206 62.0488L126.843 65.1288L126.917 65.3047C126.995 65.4761 127.036 65.6621 127.036 65.8504C127.036 66.0386 126.995 66.2246 126.917 66.3959L125.355 69.5683C126.112 70.1091 126.994 70.4475 127.918 70.5515C128.842 70.6555 129.778 70.5215 130.635 70.1624C130.837 69.1001 131.103 68.051 131.432 67.0208Z" fill="#FFA8A7"/>
<path d="M130.351 73.4448C130.633 72.3052 130.972 70.8048 131.192 69.4848C130.199 69.8311 129.141 69.9469 128.098 69.8234C127.054 69.6999 126.052 69.3403 125.168 68.772C124.532 69.8481 123.962 70.9619 123.461 72.1072C124.425 72.8526 125.551 73.3619 126.747 73.5942C127.944 73.8264 129.178 73.7753 130.351 73.4448Z" fill="#E0E0E0"/>
<path d="M129.854 75.3456C129.854 75.3456 130.074 74.5624 130.351 73.4448C129.177 73.7735 127.942 73.8225 126.745 73.5879C125.549 73.3534 124.424 72.8417 123.461 72.094C121.944 75.6086 121.006 79.3456 120.684 83.16C120.539 84.274 120.595 85.4049 120.847 86.4996C120.979 87.0469 121.226 87.5594 121.573 88.0027C121.92 88.446 122.358 88.8097 122.858 89.0692C124.279 89.7204 125.982 89.1572 127.258 88.2728C129.682 86.6096 131.218 83.9564 132.648 81.3956L136.551 67.4608C134.241 67.716 132.349 69.014 129.854 75.3456Z" fill="#F0F0F0"/>
<path opacity="0.1" d="M129.853 75.3456C128.938 78.584 127.508 83.754 127.508 83.754C130.764 80.4452 129.853 75.3456 129.853 75.3456Z" fill="black"/>
<path opacity="0.1" d="M135.986 69.52C134.797 70.3304 133.801 71.3925 133.068 72.6308C131.792 74.8308 131.418 77.3916 131.071 79.8996C130.824 81.6596 130.579 83.4196 130.336 85.1796C131.182 83.965 131.957 82.7031 132.659 81.4L135.986 69.52Z" fill="black"/>
<path d="M140.728 67.0339L136.565 67.4739C133.155 70.4791 131.395 76.7843 132.13 83.7539C132.562 88.5323 132.616 93.3374 132.293 98.1243C141.533 104.874 154.042 99.9723 155.507 98.5071L154.324 89.9491C154.25 88.988 154.41 88.0234 154.79 87.1375C155.67 85.1091 157.219 81.1227 157.43 78.0339C157.562 75.2819 156.988 72.5419 155.762 70.0743L149.712 67.4343L140.728 67.0339Z" fill="#F0F0F0"/>
<path opacity="0.1" d="M154.787 87.12C155.557 85.3336 156.855 82.0292 157.295 79.156C156.437 79.6752 155.535 80.1856 155.175 81.0392C154.034 83.7978 153.736 86.8321 154.317 89.76C154.271 88.8557 154.432 87.9528 154.787 87.12Z" fill="black"/>
<path d="M139.572 73.1016C136.087 81.114 136.145 89.3816 136.145 89.3816L137.856 93.0644L140.545 89.5444C140.336 84.1468 140.443 78.7418 140.866 73.3568L139.572 73.1016Z" fill="#FA7070"/>
<path d="M139.423 70.0743C139.35 71.0857 139.4 72.1023 139.573 73.1015C139.973 73.2995 140.421 73.3818 140.866 73.3391C141.685 72.6147 142.386 71.767 142.943 70.8267L140.866 70.0743H139.423Z" fill="#FA7070"/>
<path d="M140.867 70.0744C142.658 70.7344 144.251 73.9244 144.251 73.9244C148.959 69.9292 149.694 67.4344 149.694 67.4344C148.484 65.714 147.164 65.4368 147.164 65.4368L140.867 70.0744Z" fill="#E0E0E0"/>
<path d="M140.868 70.0744C139.5 70.114 138.29 72.0192 138.29 72.0192C138.07 68.684 140.868 66.1144 140.868 66.1144V70.0744Z" fill="#E0E0E0"/>
<path d="M147.274 61.7012L140.867 63.9892V66.3608C142.309 66.1566 143.692 65.6546 144.928 64.8868C146.035 64.1076 146.858 62.9895 147.274 61.7012Z" fill="#F28F8F"/>
<path d="M147.274 61.7012C146.858 62.9895 146.035 64.1077 144.928 64.8868C143.692 65.6546 142.309 66.1566 140.867 66.3608V70.0744C140.867 70.0744 147.639 67.034 147.639 65.604V61.5692L147.274 61.7012Z" fill="#FFA8A7"/>
<path d="M134.93 52.3072C134.218 52.3335 133.513 52.1625 132.891 51.8131C132.27 51.4637 131.758 50.9495 131.41 50.3272C131.365 50.2382 131.345 50.1382 131.354 50.0385C131.362 49.9389 131.398 49.8436 131.459 49.7637C131.519 49.6838 131.6 49.6225 131.694 49.5867C131.787 49.551 131.889 49.5423 131.987 49.5616C132.477 49.6496 132.979 49.6496 133.47 49.5616C132.905 48.8232 132.492 47.9804 132.255 47.0817C132.018 46.1831 131.961 45.2463 132.088 44.3256C132.104 44.2228 132.143 44.1252 132.204 44.0406C132.264 43.956 132.344 43.8867 132.436 43.8384C132.528 43.79 132.63 43.7639 132.734 43.7622C132.838 43.7604 132.94 43.7831 133.034 43.8284C135.074 44.8359 137.342 45.291 139.612 45.1484C140.822 45.0648 142.014 44.8052 143.224 44.7084C144.435 44.5621 145.663 44.7492 146.775 45.2496C147.326 45.5077 147.796 45.9098 148.137 46.4132C148.478 46.9166 148.676 47.5027 148.711 48.1096C148.85 47.9142 149.029 47.751 149.236 47.6311C149.443 47.5111 149.674 47.4372 149.912 47.4144C150.161 47.385 150.414 47.4065 150.654 47.4776C150.895 47.5487 151.118 47.6679 151.312 47.828C150.612 48.2152 149.93 48.6024 149.23 48.9852C149.948 48.73 150.85 49.2888 151.206 49.962C151.508 50.6632 151.64 51.4264 151.589 52.1884C151.632 53.198 151.586 54.2095 151.452 55.2112C151.32 56.2194 150.926 57.1754 150.308 57.9832C149.766 58.6472 149.041 59.1381 148.223 59.3956C147.111 59.7025 145.933 59.6641 144.844 59.2856C143.755 58.9095 142.72 58.3949 141.764 57.7544C139.325 56.1496 137.038 54.3263 134.93 52.3072Z" fill="#263238"/>
<path d="M134.778 50.292C134.075 54.4781 134.532 58.7769 136.098 62.722C136.459 63.6328 136.934 64.5744 137.783 65.0628C138.633 65.5512 139.781 65.4632 140.797 65.3092C142.445 65.1307 144.054 64.6849 145.558 63.9892C147.074 63.2753 148.255 62.003 148.854 60.4384C149.393 60.5484 149.952 60.5002 150.464 60.2996C150.976 60.0989 151.419 59.7544 151.74 59.3076C152.373 58.3792 152.701 57.2763 152.677 56.1528C152.677 55.44 152.545 54.5996 151.903 54.2872C151.261 53.9748 150.583 54.3224 150.077 54.7272C149.238 55.4208 148.625 56.3493 148.317 57.3936C147.846 55.66 147.111 53.9836 146.641 52.2456C146.456 51.5592 146.227 50.8156 145.629 50.4328C144.903 49.9664 143.952 50.2348 143.112 50.4328C140.367 51.0951 137.499 51.0467 134.778 50.292Z" fill="#FFA8A7"/>
<path d="M139.841 55.5632L137.809 58.9864L140.233 59.4396L139.841 55.5632Z" fill="#F28F8F"/>
<path d="M142.562 60.6188L140.719 61.4988C140.877 61.7083 141.099 61.8606 141.351 61.9328C141.604 62.0051 141.873 61.9933 142.118 61.8992C142.325 61.7665 142.481 61.5682 142.562 61.3359C142.642 61.1037 142.643 60.8511 142.562 60.6188Z" fill="#F28F8F"/>
<path opacity="0.3" d="M142.562 60.6188L140.719 61.4988C140.877 61.7083 141.099 61.8606 141.351 61.9328C141.604 62.0051 141.873 61.9933 142.118 61.8992C142.325 61.7665 142.481 61.5682 142.562 61.3359C142.642 61.1037 142.643 60.8511 142.562 60.6188Z" fill="black"/>
<path d="M141.484 61.9695C141.7 62.0135 141.923 61.9936 142.127 61.9123C142.295 61.8161 142.43 61.6726 142.517 61.4996C142.604 61.3267 142.638 61.1321 142.615 60.9399C142.353 60.9398 142.099 61.0282 141.894 61.1907C141.661 61.3875 141.515 61.6667 141.484 61.9695Z" fill="#F28F8F"/>
<path d="M143.351 55.6996C143.36 55.7906 143.351 55.8825 143.325 55.9702C143.299 56.0578 143.255 56.1394 143.198 56.2103C143.14 56.2811 143.069 56.3399 142.988 56.3833C142.908 56.4267 142.819 56.4538 142.728 56.463C142.637 56.4723 142.545 56.4635 142.458 56.4372C142.37 56.4109 142.289 56.3676 142.218 56.3098C142.147 56.252 142.088 56.1808 142.045 56.1002C142.001 56.0197 141.974 55.9314 141.965 55.8404C141.955 55.7496 141.964 55.6578 141.989 55.5702C142.015 55.4827 142.059 55.4012 142.116 55.3304C142.174 55.2596 142.245 55.2009 142.326 55.1578C142.406 55.1147 142.494 55.088 142.585 55.0792C142.769 55.0607 142.952 55.1155 143.096 55.2317C143.239 55.3479 143.331 55.5161 143.351 55.6996Z" fill="#263238"/>
<path d="M137.52 56.0648C137.533 56.2014 137.506 56.3388 137.441 56.4597C137.376 56.5806 137.277 56.6796 137.156 56.7443C137.035 56.809 136.897 56.8365 136.761 56.8232C136.624 56.81 136.495 56.7566 136.388 56.6699C136.282 56.5832 136.204 56.4669 136.164 56.3358C136.123 56.2047 136.123 56.0645 136.162 55.933C136.201 55.8015 136.278 55.6845 136.383 55.5968C136.489 55.5091 136.618 55.4545 136.754 55.44C136.939 55.4216 137.123 55.477 137.266 55.5941C137.41 55.7112 137.501 55.8805 137.52 56.0648Z" fill="#263238"/>
<path d="M136.562 53.3764L135.137 54.5908C135.051 54.4081 135.023 54.2036 135.057 54.0046C135.091 53.8057 135.185 53.6218 135.326 53.4776C135.502 53.3466 135.711 53.2676 135.93 53.2498C136.148 53.2319 136.367 53.2758 136.562 53.3764Z" fill="#263238"/>
<path d="M142.484 52.6944C143.03 52.998 143.576 53.3016 144.126 53.6008C144.173 53.404 144.159 53.1975 144.086 53.0088C144.013 52.8201 143.884 52.6583 143.716 52.5448C143.517 52.4537 143.297 52.4195 143.079 52.4459C142.862 52.4723 142.656 52.5583 142.484 52.6944Z" fill="#263238"/>
<path d="M169.895 85.1092L172.095 84.018C172.783 83.6773 173.357 83.1418 173.745 82.478L174.435 81.2944C174.913 80.4833 175.616 79.8288 176.459 79.4112C177.728 78.7881 178.911 78.0043 179.979 77.0792C180.203 77.4362 180.298 77.8594 180.246 78.2776C180.195 78.6959 180.001 79.0837 179.698 79.376C179.244 79.792 178.762 80.1757 178.255 80.5244L179.315 80.7928C180.081 80.9892 180.889 80.9399 181.625 80.652L184.652 79.4772C184.739 79.4442 184.833 79.4347 184.925 79.4496C185.017 79.4646 185.103 79.5035 185.175 79.5624C185.246 79.6214 185.301 79.6982 185.334 79.7852C185.367 79.8723 185.376 79.9664 185.361 80.058C185.081 81.4003 184.574 82.6846 183.86 83.8552C183.532 84.4153 183.087 84.8981 182.555 85.2708C182.024 85.6436 181.418 85.8976 180.78 86.0156C179.236 86.306 177.74 86.5348 176.891 86.6536C176.404 86.7263 175.932 86.8748 175.491 87.0936L172.244 88.7084L169.895 85.1092Z" fill="#FFA8A7"/>
<path d="M167.789 88.5104C167.404 87.6032 167.27 86.6093 167.401 85.6328L163.239 87.604C162.488 84.5754 161.9 81.5086 161.479 78.4168C160.986 74.2412 161.096 71.434 155.724 70.0568L155.156 81.0568C155.156 81.0568 155.816 94.4768 159.666 95.964C162.852 97.1916 165.1 94.16 169.962 91.0184C168.997 90.4263 168.237 89.5504 167.789 88.5104Z" fill="#F0F0F0"/>
<path opacity="0.1" d="M160.472 90.354C160.617 89.7292 161.643 88.2992 163.257 87.604C163.257 87.604 163.134 87.1156 162.954 86.3236C162.118 86.7372 160.059 88 160.472 90.354Z" fill="black"/>
<path d="M171.125 83.864L167.403 85.624C167.257 86.6756 167.424 87.747 167.882 88.7046C168.341 89.6622 169.071 90.4638 169.981 91.0096C171.076 90.3014 172.21 89.6564 173.378 89.078C173.378 89.078 171.398 87.494 171.125 83.864Z" fill="#E0E0E0"/>
<path d="M186.367 30.1136C186.367 30.0141 186.341 29.9164 186.291 29.8305C186.24 29.7447 186.168 29.6738 186.081 29.6252L183.538 28.2128H183.516C183.433 28.1653 183.339 28.1404 183.243 28.1404C183.147 28.1404 183.053 28.1653 182.97 28.2128L165.582 38.2536C165.324 38.404 165.11 38.6191 164.961 38.8776C164.812 39.1362 164.733 39.4292 164.732 39.7276V46.1912L158.713 52.4172C158.176 52.976 158.119 53.8164 158.537 53.9484L160.935 55.2684C160.978 55.3113 161.03 55.3433 161.087 55.3617C161.145 55.3801 161.206 55.3843 161.265 55.374L164.759 54.934V59.6772C164.758 59.7753 164.783 59.8718 164.831 59.9569C164.88 60.042 164.951 60.1126 165.036 60.1612L167.562 61.5648H167.597H167.623C167.705 61.6035 167.795 61.6217 167.885 61.6178C167.976 61.614 168.064 61.5882 168.142 61.5428L185.531 51.502C185.79 51.3534 186.006 51.1386 186.155 50.8797C186.304 50.6207 186.382 50.3268 186.38 50.028L186.367 30.1136ZM167.856 39.8904C167.876 39.8716 167.896 39.8539 167.918 39.8376C167.897 39.8468 167.876 39.8571 167.856 39.8684V39.8904Z" fill="#FA7070"/>
<path d="M180.402 36.3705C180.325 36.4094 180.256 36.4632 180.2 36.5288C180.155 36.5822 180.121 36.6433 180.099 36.7093C179.91 37.0904 179.748 37.4844 179.615 37.8885C179.469 38.2449 179.333 38.6013 179.21 38.9621C179.177 39.0262 179.152 39.0942 179.135 39.1645C179.093 39.2502 179.061 39.3402 179.038 39.4329C178.959 39.6353 178.88 39.8332 178.805 40.0356C178.774 40.0928 178.748 40.1457 178.721 40.2029C178.643 40.3703 178.578 40.544 178.528 40.7221C178.495 40.7983 178.482 40.8819 178.491 40.9645C178.501 41.0471 178.531 41.1259 178.581 41.1929C178.771 41.3729 179.004 41.5003 179.258 41.5624L179.324 41.5845L179.535 41.6417L179.901 41.8221L179.971 41.8661C179.993 41.8969 180.019 41.9232 180.041 41.9496C180.065 41.9821 180.084 42.0176 180.099 42.0553C180.113 42.1146 180.113 42.1763 180.099 42.2356C180.077 42.3236 180.055 42.416 180.037 42.504C180.019 42.592 179.927 42.8032 179.874 42.944L179.795 43.1377L179.522 43.7801C179.43 43.9869 179.364 44.1585 179.298 44.3301C179.234 44.4524 179.178 44.5788 179.131 44.7085L179.038 44.8977C178.963 45.0561 178.884 45.2144 178.809 45.3772L178.743 45.518L178.497 45.958L178.405 46.134L178.119 46.6356L178.044 46.7632L177.762 47.3001L177.674 47.4321L177.014 48.3913L176.75 48.7477L176.675 48.8488L175.87 49.8696L175.562 50.16C175.504 50.2301 175.434 50.2896 175.355 50.3361C175.306 50.3669 175.249 50.3832 175.19 50.3832C175.132 50.3832 175.075 50.3669 175.025 50.3361L174.827 50.2348C174.827 50.204 174.801 50.1997 174.779 50.1953C174.506 49.955 174.211 49.74 173.899 49.5529C173.841 49.5157 173.773 49.4959 173.703 49.4959C173.634 49.4959 173.566 49.5157 173.507 49.5529C173.471 49.5745 173.438 49.5996 173.406 49.6277C173.275 49.7373 173.16 49.8664 173.067 50.0105C173.033 50.0316 173.006 50.0643 172.993 50.1029C172.751 50.4417 172.482 50.7452 172.231 51.0708C171.981 51.3964 171.769 51.6121 171.545 51.8937C171.417 52.0389 171.294 52.1884 171.175 52.3337C171.057 52.4789 170.907 52.6636 170.779 52.844C170.728 52.9026 170.682 52.966 170.643 53.0332C170.578 53.1062 170.531 53.1925 170.503 53.2861C170.476 53.3797 170.469 53.4781 170.485 53.5744C170.485 53.6924 170.496 53.8101 170.515 53.9264C170.524 54.0769 170.556 54.2251 170.608 54.3664C170.621 54.4593 170.648 54.5497 170.687 54.6348C170.7 54.6622 170.715 54.6886 170.731 54.714C170.726 54.7343 170.726 54.7554 170.731 54.7756C170.745 54.8008 170.761 54.8244 170.779 54.8461C170.789 54.8778 170.806 54.9072 170.828 54.9322C170.85 54.9572 170.877 54.9773 170.907 54.9913C170.948 55.0467 171.003 55.0907 171.065 55.1188L171.175 55.1629H171.25L171.343 55.198H171.387C171.437 55.2091 171.49 55.2091 171.541 55.198C171.552 55.2046 171.565 55.2081 171.578 55.2081C171.591 55.2081 171.604 55.2046 171.615 55.198C171.679 55.2135 171.745 55.2135 171.809 55.198C171.879 55.2133 171.951 55.2133 172.02 55.198C172.09 55.2087 172.161 55.2087 172.231 55.198H172.359C172.459 55.1881 172.558 55.1675 172.654 55.1364H172.702L172.808 55.1101C172.835 55.1056 172.86 55.095 172.883 55.0793L172.993 55.0396C173.103 55.0075 173.21 54.9663 173.314 54.9164L173.402 54.8724L173.472 54.8329C173.535 54.7985 173.595 54.7603 173.653 54.7185C173.724 54.6767 173.793 54.6312 173.859 54.5821C173.939 54.5288 174.015 54.4715 174.088 54.4105C174.153 54.3665 174.219 54.3181 174.286 54.2653L174.365 54.1948L174.405 54.1596L174.515 54.0672C174.629 53.9689 174.738 53.8646 174.841 53.7548C174.926 53.6855 175.006 53.6089 175.078 53.5261C175.106 53.5065 175.128 53.4809 175.144 53.4513C175.301 53.3155 175.448 53.1684 175.584 53.0113C175.702 52.908 175.814 52.7978 175.919 52.6813C176.007 52.6028 176.09 52.5174 176.165 52.4261L176.301 52.2852C176.343 52.2546 176.377 52.2156 176.403 52.1708C176.424 52.1589 176.441 52.1404 176.451 52.118L176.526 52.0476C176.566 52.0027 176.605 51.9557 176.64 51.9068C176.72 51.8275 176.795 51.7437 176.865 51.656L176.935 51.568L177.005 51.48C177.145 51.3264 177.276 51.1648 177.397 50.996C177.462 50.9321 177.519 50.8596 177.564 50.7805C177.646 50.6879 177.721 50.5894 177.789 50.4856C177.902 50.3457 178.006 50.1987 178.101 50.0456C178.163 49.9664 178.189 49.9269 178.22 49.8917L178.299 49.7772C178.356 49.698 178.405 49.6189 178.457 49.5353L178.559 49.3988C178.591 49.352 178.62 49.3036 178.647 49.2537C178.713 49.1719 178.77 49.0834 178.818 48.9896C178.902 48.8774 178.979 48.7598 179.047 48.6377C179.073 48.6042 179.097 48.5689 179.117 48.5321C179.129 48.5154 179.14 48.4978 179.148 48.4793L179.179 48.4221L179.254 48.3164C179.324 48.2064 179.39 48.0965 179.452 47.9777L179.54 47.8324L179.817 47.3529C179.856 47.3069 179.887 47.2549 179.909 47.1988C179.98 47.0844 180.046 46.9701 180.112 46.8469C180.112 46.8073 180.151 46.7676 180.173 46.728C180.211 46.6744 180.241 46.6169 180.266 46.5564L180.503 46.1164C180.543 46.0328 180.587 45.9537 180.627 45.8701C180.694 45.7597 180.752 45.6433 180.798 45.5225C180.987 45.1748 181.155 44.8229 181.309 44.4621L181.379 44.2993C181.445 44.1732 181.501 44.0423 181.546 43.9077C181.727 43.5039 181.887 43.0913 182.026 42.6713L182.065 42.5656C182.157 42.3283 182.235 42.0859 182.299 41.8396C182.395 41.5404 182.475 41.2456 182.549 40.9596C182.576 40.8628 182.602 40.766 182.624 40.6648C182.645 40.6369 182.654 40.6025 182.651 40.568C182.652 40.5446 182.652 40.5211 182.651 40.4977L182.686 40.3656C182.794 40.0078 182.88 39.6433 182.941 39.2745V39.2172C182.949 39.1855 182.949 39.1522 182.941 39.1205C182.941 39.1205 182.941 39.0808 182.941 39.0632C182.941 39.0456 182.941 38.9929 182.941 38.9621C182.939 38.9254 182.939 38.8887 182.941 38.8521C182.969 38.6967 182.982 38.5391 182.981 38.3813C182.981 38.3197 182.981 38.2537 182.981 38.1877C182.992 38.1429 182.992 38.096 182.981 38.0513C182.981 38.0293 182.981 38.0028 182.981 37.9764C182.979 37.8386 182.955 37.7019 182.91 37.5716C182.875 37.3762 182.813 37.1866 182.725 37.0085C182.623 36.7197 182.461 36.4558 182.25 36.234C182.195 36.152 182.117 36.0878 182.026 36.0493C182.026 36.0493 182.004 36.0141 181.977 36.0185C181.904 35.9629 181.814 35.9349 181.722 35.9393C181.445 35.9284 181.17 35.9764 180.913 36.0801L180.82 36.1196C180.741 36.1394 180.664 36.169 180.591 36.2077L180.547 36.234C180.525 36.3 180.459 36.3265 180.402 36.3705Z" fill="white"/>
<path opacity="0.1" d="M167.335 61.1159C167.334 61.2123 167.359 61.3072 167.406 61.3913C167.453 61.4754 167.521 61.5458 167.604 61.5955L165.078 60.1919C164.993 60.1433 164.922 60.0728 164.874 59.9877C164.825 59.9026 164.8 59.806 164.801 59.7079V54.9647L167.34 54.6523L167.335 61.1159Z" fill="black"/>
<path opacity="0.2" d="M165.582 38.2536L182.976 28.2128C183.059 28.1653 183.153 28.1404 183.248 28.1404C183.344 28.1404 183.438 28.1653 183.521 28.2128H183.543L186.086 29.6252C186.001 29.5766 185.903 29.5511 185.805 29.5511C185.706 29.5511 185.609 29.5766 185.523 29.6252L168.13 39.666C167.807 39.8511 167.553 40.1371 167.408 40.48L164.883 39.0236C165.029 38.6997 165.274 38.4303 165.582 38.2536Z" fill="white"/>
<path opacity="0.1" d="M164.75 46.2001V39.7365C164.75 39.4967 164.801 39.2597 164.9 39.0413L167.408 40.4801C167.324 40.6884 167.28 40.911 167.28 41.1357V47.5993L164.75 46.2001Z" fill="white"/>
<path opacity="0.05" d="M158.733 52.4171L164.752 46.2L167.299 47.6168L161.28 53.8384C160.814 54.3224 160.708 55.0132 160.955 55.2816L158.557 53.9616C158.139 53.8164 158.196 52.9759 158.733 52.4171Z" fill="white"/>
<path d="M103.35 26.3164C103.015 25.0492 100.644 22.6336 98.2852 22.682C98.0568 22.6903 97.8318 22.7395 97.6208 22.8272L51.786 51.1676C51.0081 51.6604 50.3952 52.3744 50.026 53.218C49.7326 53.8771 49.5826 54.591 49.586 55.3124V163.086C49.586 165.832 52.4988 168.45 55.2356 167.191C55.2959 167.168 55.3546 167.142 55.4116 167.112L101.251 138.719C101.938 138.272 102.501 137.657 102.886 136.933C103.27 136.209 103.465 135.398 103.451 134.578V26.84C103.456 26.6602 103.421 26.4814 103.35 26.3164Z" fill="#37474F"/>
<path d="M55.9674 66.704C55.9613 66.2928 56.0599 65.8869 56.2539 65.5244C56.4479 65.1619 56.7308 64.8546 57.0762 64.6316L99.6374 38.3108C99.8104 38.2134 100.006 38.1647 100.205 38.1698C100.403 38.1748 100.597 38.2335 100.764 38.3395C100.932 38.4454 101.068 38.5948 101.158 38.7718C101.248 38.9488 101.288 39.1468 101.274 39.3448V126.254C101.28 126.664 101.181 127.069 100.987 127.431C100.793 127.793 100.51 128.099 100.165 128.322L57.6042 154.686C57.4313 154.784 57.2352 154.832 57.0368 154.827C56.8385 154.822 56.6451 154.764 56.4774 154.658C56.3096 154.552 56.1736 154.402 56.0838 154.225C55.9941 154.048 55.9538 153.85 55.9674 153.652V66.704Z" fill="#FA7070"/>
<path d="M49.5703 55.3124V163.086C49.5703 165.832 52.4831 168.45 55.2199 167.191C55.0479 167.25 54.8641 167.265 54.6846 167.236C54.5052 167.207 54.3356 167.135 54.1909 167.025C54.0461 166.915 53.9307 166.771 53.8546 166.606C53.7785 166.441 53.7442 166.259 53.7547 166.078V58.2912C53.7548 57.3595 54.0121 56.446 54.4983 55.6512L50.0279 53.24C49.7315 53.891 49.5756 54.5971 49.5703 55.3124Z" fill="#263238"/>
<path d="M98.2909 22.6776C98.0626 22.6859 97.8376 22.7351 97.6265 22.8228L51.7873 51.1676C51.0094 51.6604 50.3966 52.3744 50.0273 53.218L54.5153 55.6556C54.8807 55.0433 55.3858 54.5261 55.9893 54.1464L101.829 25.8016C101.96 25.7224 102.106 25.6728 102.258 25.6562C102.41 25.6396 102.564 25.6564 102.709 25.7054C102.854 25.7545 102.987 25.8345 103.098 25.94C103.208 26.0456 103.295 26.174 103.351 26.3164C103.021 25.0448 100.649 22.6292 98.2909 22.6776Z" fill="#455A64"/>
<path d="M84.2692 43.5952C84.5948 43.3928 84.8588 43.5512 84.8588 43.9516C84.8509 44.1679 84.7942 44.3796 84.6928 44.5709C84.5915 44.7621 84.4482 44.928 84.2736 45.056L75.28 50.7012C74.9588 50.9036 74.6992 50.732 74.6992 50.3316C74.7065 50.1179 74.7621 49.9087 74.8619 49.7197C74.9618 49.5307 75.1032 49.3668 75.2756 49.2404L84.2692 43.5952Z" fill="#263238"/>
<path d="M72.9685 50.688C73.2897 50.4856 73.5493 50.6484 73.5493 51.0488C73.5422 51.2642 73.4863 51.4752 73.3856 51.6657C73.285 51.8563 73.1424 52.0215 72.9685 52.1488C72.6473 52.3512 72.3833 52.1884 72.3789 51.7836C72.388 51.5683 72.4458 51.3579 72.5479 51.1681C72.65 50.9783 72.7938 50.8142 72.9685 50.688Z" fill="#263238"/>
<path d="M78.7251 42.7769C79.3675 42.3721 79.8867 42.6933 79.8867 43.4985C79.8729 43.9284 79.7621 44.3496 79.5624 44.7306C79.3628 45.1116 79.0795 45.4425 78.7339 45.6985C78.0871 46.0989 77.5547 45.7689 77.5547 44.9681C77.5709 44.538 77.6846 44.1172 77.8874 43.7376C78.0902 43.358 78.3766 43.0294 78.7251 42.7769Z" fill="#263238"/>
<path d="M78.7285 144.236C80.0485 143.414 81.0958 144.069 81.1002 145.706C81.1046 147.343 80.053 149.354 78.7418 150.176C77.4306 150.999 76.3481 150.326 76.3438 148.689C76.3794 147.815 76.6124 146.96 77.0254 146.189C77.4385 145.418 78.0207 144.75 78.7285 144.236Z" fill="#263238"/>
<path d="M83.053 83.5384C82.9386 83.6046 82.836 83.6894 82.7494 83.7892C82.6807 83.8742 82.6285 83.9712 82.5954 84.0752C82.3063 84.6778 82.0593 85.2997 81.8562 85.9364C81.6362 86.4952 81.4162 87.0584 81.2446 87.6216C81.1927 87.7233 81.1542 87.8313 81.1302 87.9428C81.0652 88.0839 81.015 88.2314 80.9806 88.3828L80.6242 89.3244C80.5846 89.4168 80.5406 89.5048 80.501 89.5928C80.3821 89.8573 80.285 90.131 80.2106 90.4112C80.1609 90.531 80.1417 90.6612 80.1547 90.7903C80.1678 90.9193 80.2127 91.043 80.2854 91.1504C80.5734 91.4296 80.9277 91.631 81.315 91.7356L81.4206 91.7664C81.5262 91.8016 81.6318 91.828 81.7374 91.8588L82.2918 92.1404L82.3974 92.2152C82.4364 92.2572 82.4731 92.3013 82.5074 92.3472C82.5453 92.3941 82.5737 92.4479 82.591 92.5056C82.6136 92.5996 82.6136 92.6976 82.591 92.7916L82.4986 93.2316C82.4194 93.4692 82.3358 93.7068 82.2522 93.94L82.1334 94.248C82.0102 94.578 81.8826 94.9124 81.755 95.2424C81.6274 95.5724 81.513 95.8408 81.4118 96.1224C81.3159 96.3141 81.2307 96.5109 81.1566 96.712C81.1126 96.8132 81.0642 96.9144 81.0202 97.0112C80.9014 97.262 80.787 97.5128 80.6726 97.7636L80.567 97.988L80.1974 98.7184C80.1534 98.8108 80.105 98.9032 80.0566 98.9956L79.6166 99.7876C79.5814 99.8536 79.5418 99.9196 79.5022 99.9856C79.3438 100.254 79.1854 100.527 79.0226 100.795L78.8906 101.002C78.5562 101.508 78.2218 102.014 77.883 102.52L77.487 103.079L77.377 103.233L76.1494 104.839L75.7358 105.31C75.647 105.418 75.5415 105.512 75.4234 105.587C75.351 105.638 75.2656 105.669 75.177 105.674C75.0883 105.679 74.9999 105.66 74.9218 105.618L74.6182 105.45C74.6182 105.406 74.5786 105.398 74.5478 105.393C74.1271 105.014 73.6719 104.675 73.1882 104.381C73.0997 104.324 72.9966 104.293 72.8912 104.293C72.7857 104.293 72.6826 104.324 72.5942 104.381C72.5395 104.415 72.4879 104.453 72.4402 104.496C72.2414 104.673 72.0668 104.876 71.921 105.098C71.8719 105.139 71.8352 105.192 71.8154 105.252C71.4458 105.785 71.041 106.26 70.6582 106.77C70.3018 107.188 69.9498 107.62 69.611 108.068C69.4174 108.297 69.2326 108.53 69.0566 108.786C68.8414 109.04 68.6401 109.306 68.4538 109.582C68.3734 109.675 68.3041 109.777 68.247 109.886C68.1474 110.002 68.0742 110.139 68.0324 110.286C67.9906 110.433 67.9813 110.588 68.005 110.739C68.0012 110.924 68.016 111.108 68.049 111.289C68.0659 111.513 68.1133 111.734 68.1898 111.945C68.2077 112.097 68.2493 112.245 68.313 112.385C68.3308 112.427 68.3514 112.468 68.3746 112.508C68.3767 112.541 68.3841 112.574 68.3966 112.605C68.4163 112.646 68.4415 112.685 68.4714 112.719C68.503 112.818 68.5726 112.9 68.665 112.948C68.7254 113.034 68.8074 113.102 68.9026 113.146C68.9582 113.173 69.0155 113.197 69.0742 113.216L69.1886 113.247C69.2335 113.271 69.2807 113.29 69.3294 113.304H69.3954C69.4725 113.318 69.5514 113.318 69.6286 113.304C69.6451 113.315 69.6642 113.32 69.6836 113.32C69.703 113.32 69.722 113.315 69.7386 113.304C69.8353 113.329 69.9366 113.329 70.0334 113.304C70.1395 113.324 70.2484 113.324 70.3546 113.304C70.464 113.311 70.5739 113.301 70.6802 113.274H70.8738C71.0232 113.253 71.1704 113.219 71.3138 113.172H71.3798C71.4365 113.164 71.4924 113.151 71.547 113.133C71.5844 113.122 71.6201 113.106 71.6526 113.084C71.7802 113.045 71.8022 113.032 71.8286 113.023C71.9928 112.97 72.1531 112.905 72.3082 112.829L72.449 112.759L72.5502 112.697C72.6457 112.643 72.7369 112.581 72.823 112.512L73.1442 112.301C73.2643 112.218 73.3776 112.125 73.483 112.024C73.5905 111.956 73.6934 111.881 73.791 111.8C73.8306 111.769 73.8702 111.729 73.9098 111.694L73.967 111.632L74.1342 111.487C74.3014 111.333 74.4686 111.175 74.627 110.999C74.7595 110.888 74.8817 110.766 74.9922 110.634C75.0343 110.605 75.0678 110.566 75.089 110.519C75.3181 110.31 75.5341 110.086 75.7358 109.85C75.9132 109.685 76.0821 109.51 76.2418 109.327C76.3774 109.204 76.5025 109.07 76.6158 108.926L76.8182 108.702C76.8808 108.653 76.9344 108.593 76.9766 108.526C77.0068 108.505 77.0311 108.476 77.047 108.442C77.0873 108.405 77.1255 108.365 77.1614 108.324C77.2258 108.257 77.2847 108.185 77.3374 108.108C77.4586 107.982 77.5731 107.85 77.6806 107.712L77.7862 107.571L77.8962 107.439C78.0986 107.188 78.301 106.946 78.4858 106.669C78.5849 106.569 78.6706 106.457 78.741 106.335C78.8661 106.189 78.9794 106.033 79.0798 105.868C79.2505 105.652 79.4092 105.425 79.555 105.191C79.6474 105.063 79.6914 105.006 79.731 104.944C79.7706 104.883 79.819 104.826 79.8586 104.764C79.8982 104.702 80.017 104.518 80.0918 104.39L80.2458 104.174C80.2969 104.099 80.3439 104.021 80.3866 103.941C80.4857 103.812 80.5726 103.673 80.6462 103.528C80.7724 103.349 80.887 103.162 80.9894 102.969C81.0325 102.919 81.0694 102.865 81.0994 102.806L81.1478 102.722C81.1642 102.693 81.1789 102.662 81.1918 102.63C81.2314 102.577 81.2666 102.52 81.3018 102.463C81.4132 102.293 81.5144 102.117 81.6054 101.935L81.7418 101.706L82.1818 100.949C82.2383 100.874 82.2841 100.791 82.3182 100.703C82.4282 100.527 82.5294 100.342 82.6262 100.153L82.7186 99.9636C82.7729 99.8782 82.82 99.7885 82.8594 99.6952L83.2202 99.0088C83.2818 98.8768 83.3478 98.7492 83.4094 98.6216C83.5114 98.4469 83.5997 98.2645 83.6734 98.076C83.9594 97.526 84.2102 96.9672 84.4434 96.404L84.549 96.1488C84.6493 95.9466 84.736 95.7378 84.8086 95.524C85.0814 94.8816 85.3278 94.2304 85.5346 93.5792C85.5346 93.522 85.5742 93.4692 85.5962 93.4164C85.7361 93.0413 85.8522 92.6578 85.9438 92.268C86.0978 91.7972 86.2166 91.3308 86.331 90.8688C86.3662 90.7104 86.4058 90.5564 86.4454 90.4024C86.4724 90.3541 86.486 90.2994 86.485 90.244C86.485 90.2088 86.507 90.1736 86.5158 90.1384L86.5686 89.9316C86.7349 89.3657 86.8643 88.7896 86.9558 88.2068V88.1188C86.9699 88.07 86.9699 88.0181 86.9558 87.9692V87.8768C86.9558 87.824 86.9558 87.7712 86.9778 87.714V87.5468C87.0214 87.3029 87.042 87.0554 87.0394 86.8076C87.0394 86.7064 87.0394 86.6008 87.0394 86.4996C87.0531 86.4284 87.0531 86.3552 87.0394 86.284C87.037 86.2445 87.037 86.2048 87.0394 86.1652C87.0348 85.9483 86.9977 85.7332 86.9294 85.5272C86.8784 85.2219 86.7835 84.9255 86.6478 84.6472C86.495 84.1947 86.2509 83.7783 85.9306 83.424C85.8469 83.2969 85.7275 83.1974 85.5874 83.138C85.5874 83.1116 85.5566 83.0764 85.5126 83.0896C85.403 83.0021 85.2656 82.9568 85.1254 82.962C84.7045 82.9441 84.285 83.0208 83.8978 83.1864L83.757 83.2436C83.6366 83.2786 83.5201 83.3258 83.4094 83.3844L83.3434 83.4284C83.2642 83.4284 83.1586 83.4768 83.053 83.5384Z" fill="white"/>
</svg>
