<svg width="24" height="18" viewBox="0 0 24 18" fill="none" xmlns="http://www.w3.org/2000/svg">
<g clip-path="url(#clip0_3178_35529)">
<path fill-rule="evenodd" clip-rule="evenodd" d="M9.15234 0.00991785H17.6738L19.6152 3.5195H23.6152C23.8281 3.5195 24.002 3.70192 24.002 3.9121V17.6094C24.002 17.8196 23.8242 18.002 23.6152 18.002H0.386719C0.179688 18 0 17.8235 0 17.6094V3.9121C0 3.69597 0.173828 3.5195 0.386719 3.5195H2.18555V2.26041H4.4082V3.5195H6.82227C7.32422 2.51223 7.82617 1.50694 8.32813 0.499673C8.63281 -0.113017 8.46484 0.00991785 9.15234 0.00991785ZM21.498 5.25447C22.1348 5.25447 22.6504 5.77793 22.6504 6.42433C22.6504 7.07072 22.1348 7.59419 21.498 7.59419C20.8613 7.59419 20.3457 7.07072 20.3457 6.42433C20.3477 5.77793 20.8633 5.25447 21.498 5.25447ZM13.0156 6.61666C14.9434 6.61666 16.5078 8.2049 16.5078 10.1619C16.5078 12.119 14.9434 13.7072 13.0156 13.7072C11.0879 13.7072 9.52344 12.119 9.52344 10.1619C9.52344 8.2049 11.0879 6.61666 13.0156 6.61666ZM13.0156 4.30866C16.2012 4.30866 18.7832 6.92994 18.7832 10.1639C18.7832 13.3959 16.2012 16.0192 13.0156 16.0192C9.83203 16.0192 7.24805 13.3959 7.24805 10.1639C7.25 6.92994 9.83203 4.30866 13.0156 4.30866Z" fill="#FA7070"/>
</g>
<defs>
<clipPath id="clip0_3178_35529">
<rect width="24" height="18" fill="white"/>
</clipPath>
</defs>
</svg>
