<svg width="24" height="24" viewBox="0 0 24 24" fill="none" xmlns="http://www.w3.org/2000/svg">
<path fill-rule="evenodd" clip-rule="evenodd" d="M17.2102 14.482L19.2743 19.3082L16.6865 19.2781L14.5598 21.0035L12.6944 16.4573C13.2337 16.3263 13.7675 16.0537 14.3064 15.6309L14.3713 15.5832L14.3702 15.5817L14.4054 15.5543L14.4038 15.5519C14.4722 15.4972 14.5426 15.4413 14.6052 15.3936C14.7354 15.4018 14.8762 15.4069 15.0518 15.3986C15.2939 15.3877 15.5536 15.3494 15.8406 15.2571C16.0932 15.1757 16.3275 15.076 16.5426 14.9571C16.7647 14.8349 16.9733 14.6898 17.1652 14.5242L17.1636 14.5222L17.2102 14.482ZM11.9197 2.00079C12.1782 1.99375 12.4093 2.03403 12.624 2.10795C12.8219 2.17599 13.0034 2.27337 13.1821 2.38678C13.3635 2.49941 13.5344 2.6445 13.7171 2.80093C13.8919 2.95032 14.0847 3.11457 14.2783 3.22525L14.2908 3.23268C14.3706 3.26318 14.5743 3.2714 14.7874 3.27883C15.5301 3.3062 16.3314 3.33592 16.9329 4.22875L16.9657 4.28154C17.3963 4.94324 17.4284 5.43874 17.4593 5.92367L17.4608 5.95769C17.4706 6.10708 17.4878 6.24748 17.5347 6.38631C17.5864 6.53296 17.6771 6.70191 17.8374 6.91426C18.2719 7.48836 18.5402 7.99168 18.6505 8.48013C18.7811 9.0597 18.6955 9.57592 18.4041 10.0953C18.1965 10.4644 17.9192 10.7022 17.6748 10.9114C17.5864 10.9869 17.5426 10.9721 17.525 11.0135L17.507 11.053C17.4651 11.177 17.4624 11.3295 17.4604 11.4848C17.4546 11.8837 17.4475 12.297 17.1675 12.8496C16.9919 13.1953 16.7624 13.4875 16.482 13.726C16.2067 13.963 15.8848 14.1394 15.5195 14.2571C15.1453 14.3775 14.8453 14.3564 14.5618 14.3361C14.4535 14.3287 14.3764 14.3099 14.3635 14.3154C14.1602 14.4034 13.9443 14.577 13.7413 14.7393L13.6944 14.7745C12.4277 15.7858 11.3061 15.7076 10.0981 14.7393C9.89548 14.577 9.67922 14.4037 9.47547 14.3185C9.45513 14.3095 9.30926 14.3337 9.27758 14.3361C8.99366 14.3564 8.69371 14.3775 8.31984 14.2571C7.95418 14.1394 7.63272 13.963 7.3574 13.7291C7.07857 13.4922 6.8494 13.1988 6.67185 12.8496C6.39106 12.2966 6.3848 11.8833 6.37893 11.4844C6.37659 11.3119 6.37346 11.1434 6.31753 11.0135C6.29798 10.9678 6.25613 10.9897 6.16462 10.9114C5.92059 10.7026 5.64254 10.4652 5.43488 10.0953C5.14352 9.57592 5.05827 9.0597 5.18889 8.48013C5.29878 7.99128 5.56706 7.48836 6.00154 6.91426C6.16189 6.70191 6.25301 6.53296 6.30345 6.38592L6.31323 6.35854C6.35351 6.2291 6.36916 6.09731 6.37776 5.95769L6.38128 5.90451C6.41296 5.41253 6.4505 4.90922 6.9061 4.23188C7.50718 3.33631 8.30889 3.3062 9.05193 3.27883C9.27837 3.27061 9.49424 3.26201 9.5619 3.22681C9.75509 3.11457 9.9475 2.95032 10.1231 2.80015L10.1708 2.76222C10.3354 2.6226 10.4907 2.49198 10.6546 2.38835C10.829 2.27533 11.0108 2.17795 11.215 2.10795C11.4297 2.03403 11.6596 1.99375 11.9197 2.00079ZM11.9201 2.68752C12.2455 2.67344 12.502 2.78685 12.7609 2.9515C13.0894 3.15994 13.4594 3.57135 13.9157 3.83259C14.5583 4.19942 15.7479 3.69297 16.3572 4.59831C16.7127 5.12588 16.7291 5.54002 16.7557 5.9487C16.7843 6.38983 16.8617 6.79538 17.313 7.39255C18.0604 8.3808 18.216 9.03858 17.8312 9.72414C17.5684 10.1915 17.0158 10.4511 16.8879 10.7472C16.6157 11.3768 16.9169 11.8516 16.5442 12.5856C16.2857 13.0952 15.8864 13.4308 15.3545 13.602C14.9063 13.7464 14.4566 13.5375 14.0976 13.6885C13.4668 13.9532 13.0014 14.5696 12.4997 14.7252C12.3061 14.785 12.1129 14.8148 11.9201 14.8136C11.7273 14.8148 11.5341 14.785 11.3405 14.7252C10.8384 14.5696 10.3734 13.9532 9.74257 13.6885C9.38356 13.5375 8.93383 13.7464 8.48526 13.602C7.95379 13.4308 7.5545 13.0952 7.296 12.5856C6.92331 11.8516 7.22444 11.3768 6.95225 10.7472C6.82437 10.4511 6.27139 10.1915 6.00897 9.72414C5.62377 9.03858 5.7798 8.3808 6.52676 7.39255C6.97806 6.79538 7.05549 6.38983 7.08404 5.9487C7.11063 5.54002 7.12745 5.12588 7.48255 4.59831C8.09184 3.69297 9.28189 4.19942 9.92403 3.83259C10.3808 3.57135 10.7504 3.15994 11.0793 2.9515C11.3382 2.78685 11.5947 2.67344 11.9201 2.68752ZM11.9952 7.00069L12.484 8.14537L13.7241 8.25643C13.7371 8.25752 13.7498 8.26116 13.7614 8.26716C13.773 8.27316 13.7833 8.2814 13.7917 8.2914C13.8001 8.30139 13.8064 8.31295 13.8103 8.32541C13.8142 8.33787 13.8156 8.35098 13.8145 8.36398C13.8122 8.38965 13.8002 8.41348 13.7808 8.43046L12.843 9.24937L13.1203 10.4637C13.1248 10.483 13.1233 10.5032 13.1162 10.5218C13.1091 10.5403 13.0966 10.5562 13.0803 10.5676C13.064 10.5789 13.0447 10.5852 13.0249 10.5855C13.005 10.5858 12.9856 10.5801 12.9689 10.5693L11.9033 9.93219L10.8345 10.5712C10.7871 10.5994 10.7261 10.5841 10.698 10.5368C10.6847 10.5149 10.6805 10.4886 10.6862 10.4637L10.9639 9.24937L10.0257 8.43046C10.0158 8.42188 10.0078 8.41143 10.002 8.39972C9.99615 8.38801 9.99271 8.37526 9.99184 8.36222C9.99097 8.34917 9.99268 8.33608 9.99688 8.3237C10.0011 8.31132 10.0077 8.29989 10.0163 8.29007C10.0347 8.26895 10.0601 8.25761 10.0859 8.25604L11.3225 8.14537L11.8118 6.99991C11.8333 6.94907 11.8915 6.9256 11.9424 6.94711C11.9674 6.95767 11.9854 6.97762 11.9952 7.00069ZM11.9033 4.92877C14.0557 4.92877 15.8011 6.67414 15.8011 8.82662C15.8011 10.9795 14.0557 12.7245 11.9033 12.7245C9.75039 12.7245 8.00541 10.9795 8.00541 8.82662C8.00541 6.67414 9.75039 4.92877 11.9033 4.92877ZM11.9033 5.58695C13.6924 5.58695 15.1429 7.03745 15.1429 8.82662C15.1429 10.6162 13.6924 12.0663 11.9033 12.0663C10.1137 12.0663 8.66359 10.6162 8.66359 8.82662C8.66359 7.03745 10.1137 5.58695 11.9033 5.58695ZM11.8904 16.5492L9.71441 22L7.58775 20.275L5 20.3047L7.25729 14.9356L7.29835 14.9587C7.51344 15.0764 7.7477 15.1765 7.99877 15.2571C8.28542 15.3494 8.5451 15.3877 8.78717 15.3986C8.96081 15.4069 9.10082 15.4018 9.23026 15.394C9.29401 15.4421 9.36753 15.5007 9.43792 15.5574L9.43949 15.5586C10.2248 16.1874 11.0132 16.5285 11.8497 16.5488L11.8904 16.5492Z" fill="black" fill-opacity="0.5"/>
</svg>
