<svg width="20" height="16" viewBox="0 0 20 16" fill="none" xmlns="http://www.w3.org/2000/svg">
<path d="M13.7844 7.09287C13.8527 7.13701 13.9238 7.19561 13.9996 7.26162L14.0043 7.2667C14.0996 7.34717 14.2051 7.43779 14.3223 7.50381C14.418 7.55771 14.5598 7.5624 14.7086 7.56982C15.3879 7.59365 15.6582 7.89365 15.6992 8.55029L15.702 8.57256C15.7066 8.66787 15.7188 8.7585 15.7531 8.85615C15.7875 8.95654 15.8461 9.06396 15.9438 9.19639C16.1273 9.43818 16.2375 9.64365 16.2789 9.83193C16.3641 10.2155 16.1824 10.4698 15.9098 10.7003C15.7129 10.8698 15.702 10.9351 15.702 11.2042C15.6992 11.3604 15.6969 11.5222 15.5941 11.7272L15.5918 11.7323C15.3949 12.1116 15.0629 12.3038 14.6379 12.2753C14.5473 12.2679 14.4641 12.2632 14.4008 12.2897L14.3934 12.2925C14.2613 12.3487 14.1414 12.4464 14.0266 12.537C13.4941 12.9663 13.1211 12.9112 12.6543 12.5347C12.5395 12.4413 12.4172 12.3437 12.2828 12.2874C12.2191 12.2604 12.1359 12.2679 12.0453 12.2729C11.7594 12.2921 11.5625 12.2386 11.3363 12.0503C11.2324 11.9594 11.1475 11.8488 11.0867 11.7249C10.984 11.5194 10.9816 11.3581 10.9793 11.2015C10.9766 11.0866 10.9766 10.9765 10.9254 10.8569L10.923 10.8542C10.9008 10.8081 10.8371 10.7542 10.7664 10.6929C10.4926 10.4604 10.3109 10.2151 10.3973 9.82725C10.4387 9.63896 10.5512 9.4335 10.7348 9.19131C10.8348 9.06162 10.891 8.95146 10.9254 8.85147C10.9594 8.75342 10.9719 8.66045 10.9766 8.56514L10.9793 8.54561C11.0195 7.88818 11.2898 7.59131 11.9672 7.56748C12.1164 7.5624 12.2605 7.55498 12.3563 7.50146L12.3586 7.49873C12.4734 7.43271 12.5785 7.34482 12.6742 7.26162C12.75 7.19561 12.8207 7.13467 12.8941 7.09053C13.1859 6.89639 13.4914 6.91514 13.7844 7.09287ZM0.931641 0.222168H19.0684C19.325 0.222168 19.5582 0.326855 19.727 0.495605C19.8135 0.582031 19.8822 0.68469 19.9291 0.797702C19.9759 0.910714 20 1.03186 20 1.1542V12.7546C20 13.0116 19.8953 13.2448 19.727 13.4132C19.5582 13.5819 19.325 13.6866 19.0684 13.6866H18.018C17.7645 13.1679 17.4855 12.6565 17.2199 12.1448L18.9852 10.3796V3.05146L17.1707 1.23701H2.8293L1.01484 3.05146V10.8569L2.8293 12.6718H9.18594L8.66055 13.6866H0.931641C0.675 13.6866 0.441797 13.5819 0.273047 13.4132C0.186429 13.3268 0.117721 13.2241 0.0708649 13.1111C0.0240091 12.9981 -7.29726e-05 12.8769 1.66095e-07 12.7546V1.1542C1.66095e-07 0.897559 0.104688 0.663965 0.273047 0.495605C0.441797 0.326855 0.675 0.222168 0.931641 0.222168ZM4.63828 4.93936L4.59297 5.50615H3.13828L3.17578 4.78818L3.13828 3.06123H3.90898L3.86719 4.7124L3.875 4.88623H4.59648L4.63828 4.93936ZM3.45938 10.7761C4.14688 9.87373 4.73359 10.2843 5.5543 10.8577C5.5957 10.8866 5.63711 10.9147 5.67812 10.944C5.79609 11.0253 5.91875 11.0104 6.04258 10.9499C6.17617 10.8831 6.31094 10.764 6.44453 10.6464L6.44687 10.6452C6.56719 10.5394 6.68516 10.4351 6.81133 10.355C6.8332 10.3413 6.86094 10.3476 6.87422 10.3694L7.06133 10.6632C7.07461 10.6851 7.06875 10.7132 7.04688 10.7265C6.94961 10.7886 6.84414 10.8819 6.73594 10.978L6.73359 10.9804C6.54648 11.1456 6.35469 11.3144 6.14336 11.4015C5.92461 11.4913 5.68906 11.4913 5.42695 11.3093L5.30195 11.2218C4.98594 11.0011 4.71523 10.8128 4.47227 10.753C4.23906 10.6972 4.02656 10.764 3.81172 11.046C3.79609 11.0663 3.7668 11.0702 3.74727 11.0542L3.46914 10.8417C3.44727 10.8261 3.44375 10.7968 3.45938 10.7761ZM3.29219 7.59678C3.25 7.59678 3.21133 7.57021 3.18359 7.52803C3.15547 7.48623 3.13828 7.42686 3.13828 7.36201C3.13828 7.29678 3.15547 7.23779 3.18359 7.19561C3.21133 7.15342 3.25 7.12686 3.29219 7.12686H6.54023C6.58242 7.12686 6.62148 7.15342 6.64922 7.19561C6.67695 7.23779 6.69453 7.29678 6.69453 7.36201C6.69453 7.42686 6.67695 7.48623 6.64922 7.52803C6.62148 7.57021 6.58242 7.59678 6.54023 7.59678H3.29219ZM3.29219 9.00342C3.25 9.00342 3.21133 8.97725 3.18359 8.93506C3.15547 8.89287 3.13828 8.8335 3.13828 8.76826C3.13828 8.70342 3.15547 8.64443 3.18359 8.60225C3.21133 8.56006 3.25 8.53389 3.29219 8.53389H7.77227C7.81445 8.53389 7.85312 8.56006 7.88125 8.60225C7.90898 8.64443 7.92617 8.70342 7.92617 8.76826C7.92617 8.8335 7.90898 8.89287 7.88125 8.93506C7.85312 8.97725 7.81445 9.00342 7.77227 9.00342H3.29219ZM5.61992 4.7124L5.65 5.50615H4.89062L4.92813 4.78818L4.89062 3.06123H5.66133L5.61992 4.7124ZM7.25469 3.01982C7.47148 3.01982 7.67539 3.05381 7.8668 3.12178L7.73867 3.72256L7.68945 3.75303C7.62383 3.71748 7.54844 3.68936 7.4625 3.66787C7.37695 3.64639 7.29766 3.63584 7.22461 3.63584C7.07109 3.63584 6.96016 3.68037 6.89219 3.76982C6.82422 3.85928 6.78984 4.0085 6.78984 4.21748C6.78984 4.46201 6.82891 4.64014 6.90703 4.75225C6.98516 4.86436 7.10742 4.92021 7.27383 4.92021C7.34414 4.92021 7.42305 4.91357 7.50977 4.89951C7.59688 4.88584 7.67305 4.86631 7.73867 4.84092L7.79883 4.87881L7.73867 5.47568C7.5875 5.52373 7.41211 5.54756 7.21328 5.54756C6.80781 5.54756 6.50234 5.4417 6.29727 5.23037C6.0918 5.01865 5.98906 4.71006 5.98906 4.30459C5.98906 3.89639 6.09922 3.58037 6.31992 3.35615C6.54023 3.13193 6.85156 3.01982 7.25469 3.01982ZM9.91211 4.93467L9.95391 4.9874L9.90859 5.50615H8.18555L8.22344 4.78818L8.18555 3.06123H9.93906L9.98047 3.11436L9.93125 3.63271L8.94141 3.61006L8.93398 3.9874L9.70078 3.97568L9.74258 4.02842L9.69688 4.58037L8.91875 4.56904L8.91484 4.7124L8.92227 4.95732L9.91211 4.93467ZM12.5262 4.70889L12.5566 5.50615H11.7328L11.0449 4.19873H10.9996L10.9957 4.62178L11.0262 5.50615H10.3383L10.3762 4.78818L10.3383 3.06123H11.1621L11.85 4.36865H11.8953L11.8727 3.08779L12.568 3.04639L12.5262 4.70889ZM13.9723 3.01592C14.2117 3.01592 14.4484 3.06006 14.6828 3.14834L14.5617 3.76436L14.4559 3.80967C14.3504 3.74404 14.2453 3.69248 14.1422 3.65459C14.0391 3.61709 13.9559 3.59795 13.893 3.59795C13.8352 3.59795 13.7883 3.61006 13.7551 3.63193C13.7219 3.65381 13.7043 3.68506 13.7043 3.72256C13.7043 3.77061 13.7309 3.8124 13.7816 3.84561C13.8324 3.87842 13.9199 3.92568 14.0402 3.97959C14.1801 4.04248 14.2984 4.10186 14.3879 4.15498C14.4777 4.2085 14.5582 4.28389 14.6262 4.37842C14.6941 4.47256 14.7281 4.58896 14.7281 4.72764C14.7281 4.88115 14.6848 5.02139 14.6016 5.14522C14.518 5.26904 14.3957 5.36943 14.2406 5.4417C14.0852 5.51396 13.9031 5.55146 13.6965 5.55146C13.4395 5.55146 13.1699 5.50342 12.8879 5.40771L12.9977 4.75029L13.073 4.70498C13.1891 4.79326 13.3141 4.86396 13.4453 4.91475C13.577 4.96553 13.6875 4.99209 13.7758 4.99209C13.8465 4.99209 13.898 4.9792 13.9289 4.95615C13.9594 4.93311 13.9762 4.90264 13.9762 4.86748C13.9762 4.81436 13.948 4.76904 13.8949 4.7335C13.8414 4.69795 13.7523 4.65107 13.6324 4.59912C13.4949 4.53936 13.3793 4.48037 13.2906 4.42725C13.202 4.37373 13.1234 4.29873 13.0582 4.2042C12.9926 4.11006 12.9598 3.99326 12.9598 3.85498C12.9598 3.69639 13.0035 3.55264 13.0883 3.42607C13.173 3.2999 13.2945 3.19795 13.4473 3.12568C13.6 3.05342 13.7758 3.01592 13.9723 3.01592ZM16.7938 4.93467L16.8355 4.9874L16.7902 5.50615H15.0672L15.1051 4.78818L15.0672 3.06123H16.8207L16.8621 3.11436L16.8129 3.63271L15.823 3.61006L15.8156 3.9874L16.5824 3.97568L16.6238 4.02842L16.5789 4.58037L15.8004 4.56904L15.7965 4.7124L15.8039 4.95732L16.7938 4.93467ZM16.323 15.0804L15.5867 14.9483L15.2176 15.6112C15.2152 15.6159 15.2125 15.621 15.2078 15.6233C15.0535 15.814 14.9117 15.8093 14.7895 15.7089C14.6574 15.6015 14.5691 15.3714 14.5129 15.2198L14.491 15.1636L13.7109 13.6913C13.6867 13.6448 13.7035 13.5886 13.75 13.5667C13.7551 13.564 13.7598 13.5616 13.7621 13.5616C13.843 13.5347 13.9336 13.4784 14.0312 13.4054C14.134 13.3292 14.2414 13.2339 14.3516 13.1362C14.3711 13.119 14.3957 13.1093 14.4227 13.1116C14.6328 13.1167 14.8383 13.0995 15.0219 13.0382C15.2027 12.9772 15.3691 12.8694 15.5109 12.6886C15.5426 12.6468 15.6016 12.6397 15.6406 12.6714C15.6504 12.6812 15.6602 12.6909 15.6648 12.703L16.5676 14.4444L16.6457 14.6132C16.6484 14.6183 16.6508 14.6233 16.6508 14.6276C16.6875 14.7577 16.6949 14.8702 16.6508 14.9554C16.6016 15.0511 16.5066 15.0999 16.3449 15.0878C16.3402 15.0851 16.3305 15.0827 16.323 15.0804ZM11.0965 14.9483L10.3602 15.0804C10.3531 15.0827 10.3457 15.0827 10.3359 15.0827C10.1746 15.0948 10.0789 15.0464 10.0301 14.9511C9.98633 14.8679 9.99336 14.755 10.0301 14.6233L10.0352 14.6085L10.1133 14.4397L11.016 12.6983C11.0207 12.6862 11.0305 12.6765 11.0402 12.6667C11.082 12.6347 11.1383 12.6421 11.1699 12.6835C11.3094 12.862 11.4758 12.9698 11.659 13.0335C11.8449 13.0968 12.048 13.1116 12.2582 13.1065C12.2828 13.1042 12.307 13.1116 12.3293 13.1312C12.4391 13.2292 12.5469 13.3245 12.6496 13.4003C12.7473 13.4737 12.8379 13.53 12.9187 13.5569L12.9309 13.5616C12.9773 13.5862 12.9945 13.6425 12.9699 13.6866L12.1898 15.1585L12.1676 15.2147C12.1113 15.3663 12.0234 15.5964 11.8914 15.7038C11.7691 15.8019 11.6297 15.8093 11.473 15.6183C11.4707 15.6136 11.466 15.6112 11.4633 15.6062L11.0965 14.9483ZM14.4789 8.75107C14.1879 8.46006 13.7867 8.27881 13.3418 8.27881C12.8969 8.27881 12.4957 8.46006 12.2043 8.75107C11.9133 9.04209 11.7324 9.44326 11.7324 9.88818C11.7324 10.3335 11.9133 10.7347 12.2043 11.0257C12.4957 11.3163 12.8969 11.4976 13.3418 11.4976C13.7867 11.4976 14.1879 11.3163 14.4789 11.0257C14.7699 10.7347 14.9508 10.3335 14.9508 9.88818C14.9484 9.44561 14.7699 9.04209 14.4789 8.75107Z" fill="black" fill-opacity="0.35"/>
</svg>
