<svg width="344" height="281" viewBox="0 0 344 281" fill="none" xmlns="http://www.w3.org/2000/svg">
<path d="M11.3457 129.056V131.964" stroke="#D2D8DF" stroke-width="2.921" stroke-linecap="round"/>
<path d="M4.78906 130.632L7.17409 133.078" stroke="#D2D8DF" stroke-width="2.921" stroke-linecap="round"/>
<path d="M2 137.145H5.3724" stroke="#D2D8DF" stroke-width="2.921" stroke-linecap="round"/>
<path d="M4.51562 143.772L6.90066 141.326" stroke="#D2D8DF" stroke-width="2.921" stroke-linecap="round"/>
<path d="M11.3457 144.567V141.659" stroke="#D2D8DF" stroke-width="2.921" stroke-linecap="round"/>
<path d="M16.2104 142.629L14.2637 140.69" stroke="#D2D8DF" stroke-width="2.921" stroke-linecap="round"/>
<path d="M20.1023 137.781H17.1836" stroke="#D2D8DF" stroke-width="2.921" stroke-linecap="round"/>
<path d="M18.1576 130.995L16.2109 132.935" stroke="#D2D8DF" stroke-width="2.921" stroke-linecap="round"/>
<path d="M167.984 2.06055V4.00026" stroke="#D2D8DF" stroke-width="2.921" stroke-linecap="round"/>
<path d="M162.148 7.8772H164.095" stroke="#D2D8DF" stroke-width="2.921" stroke-linecap="round"/>
<path d="M167.984 13.6944V11.7546" stroke="#D2D8DF" stroke-width="2.921" stroke-linecap="round"/>
<path d="M172.849 7.8772H170.902" stroke="#D2D8DF" stroke-width="2.921" stroke-linecap="round"/>
<path d="M55.125 83.4927V86.401" stroke="#D2D8DF" stroke-width="2.921" stroke-linecap="round"/>
<path d="M46.3711 92.2178H49.2898" stroke="#D2D8DF" stroke-width="2.921" stroke-linecap="round"/>
<path d="M55.125 99.9732V97.0649" stroke="#D2D8DF" stroke-width="2.921" stroke-linecap="round"/>
<path d="M62.907 92.2178H59.9883" stroke="#D2D8DF" stroke-width="2.921" stroke-linecap="round"/>
<path d="M264.551 189.199C266.876 189.199 268.761 191.078 268.761 193.396C268.761 195.714 266.876 197.593 264.551 197.593C262.226 197.593 260.34 195.714 260.34 193.396" stroke="#D2D8DF" stroke-width="2.921" stroke-linecap="round"/>
<path fill-rule="evenodd" clip-rule="evenodd" d="M283.82 151.124C286.321 150.347 290.153 147.3 291.04 144.022C291.845 146.919 295.217 150.347 298.26 150.606C294.835 151.814 291.56 155.404 291.04 158.225C290.687 155.35 286.157 151.543 283.82 151.124Z" fill="#EBECEE"/>
<path fill-rule="evenodd" clip-rule="evenodd" d="M27.1758 187.906C28.4263 187.517 30.3417 185.994 30.7852 184.355C31.1875 185.803 32.8733 187.517 34.3947 187.647C32.6825 188.251 31.0454 190.046 30.7852 191.456C30.6085 190.019 28.3437 188.115 27.1758 187.906Z" fill="#EBECEE"/>
<path fill-rule="evenodd" clip-rule="evenodd" d="M50.3777 53.0499C50.3777 54.8478 48.9158 56.3041 47.1127 56.3041C45.3088 56.3041 43.8477 54.8478 43.8477 53.0499C43.8477 51.2528 45.3088 49.7957 47.1127 49.7957C48.9158 49.7957 50.3777 51.2528 50.3777 53.0499Z" fill="#D1D8DF"/>
<path fill-rule="evenodd" clip-rule="evenodd" d="M268.407 61.7882C268.407 64.7921 265.963 67.2272 262.95 67.2272C259.935 67.2272 257.492 64.7921 257.492 61.7882C257.492 58.7842 259.935 56.3491 262.95 56.3491C265.963 56.3491 268.407 58.7842 268.407 61.7882Z" fill="#EBECEE"/>
<path fill-rule="evenodd" clip-rule="evenodd" d="M344.001 47.0516C344.001 49.4348 342.063 51.3661 339.673 51.3661C337.281 51.3661 335.344 49.4348 335.344 47.0516C335.344 44.6683 337.281 42.7371 339.673 42.7371C342.063 42.7371 344.001 44.6683 344.001 47.0516Z" fill="#EBECEE"/>
<path fill-rule="evenodd" clip-rule="evenodd" d="M111.402 248.556C111.402 250.059 110.181 251.276 108.673 251.276C107.167 251.276 105.945 250.059 105.945 248.556C105.945 247.054 107.167 245.836 108.673 245.836C110.181 245.836 111.402 247.054 111.402 248.556Z" stroke="#D2D8DF" stroke-width="2.921" stroke-linecap="round"/>
<path fill-rule="evenodd" clip-rule="evenodd" d="M109.776 32.1436C109.776 33.9415 108.314 35.3978 106.511 35.3978C104.708 35.3978 103.246 33.9415 103.246 32.1436C103.246 30.3465 104.708 28.8894 106.511 28.8894C108.314 28.8894 109.776 30.3465 109.776 32.1436Z" stroke="#D2D8DF" stroke-width="2.921" stroke-linecap="round"/>
<path fill-rule="evenodd" clip-rule="evenodd" d="M193.062 278.675C190.976 279.466 188.641 278.421 187.847 276.343C187.054 274.263 188.101 271.935 190.188 271.145C192.274 270.354 194.609 271.398 195.402 273.477C196.197 275.556 195.149 277.884 193.062 278.675Z" stroke="#D2D8DF" stroke-width="2.921" stroke-linecap="round"/>
</svg>
