<svg width="16" height="16" viewBox="0 0 16 16" fill="none" xmlns="http://www.w3.org/2000/svg">
<path d="M7.9987 15.1668C4.04536 15.1668 0.832031 11.9535 0.832031 8.00016C0.832031 4.04683 4.04536 0.833496 7.9987 0.833496C11.952 0.833496 15.1654 4.04683 15.1654 8.00016C15.1654 11.9535 11.952 15.1668 7.9987 15.1668ZM7.9987 1.8335C4.5987 1.8335 1.83203 4.60016 1.83203 8.00016C1.83203 11.4002 4.5987 14.1668 7.9987 14.1668C11.3987 14.1668 14.1654 11.4002 14.1654 8.00016C14.1654 4.60016 11.3987 1.8335 7.9987 1.8335Z" fill="black" fill-opacity="0.5"/>
<path d="M10.4751 10.6202C10.3884 10.6202 10.3017 10.6002 10.2217 10.5468L8.15505 9.3135C7.64172 9.00684 7.26172 8.3335 7.26172 7.74017V5.00684C7.26172 4.7335 7.48839 4.50684 7.76172 4.50684C8.03505 4.50684 8.26172 4.7335 8.26172 5.00684V7.74017C8.26172 7.98017 8.46172 8.3335 8.66839 8.4535L10.7351 9.68684C10.9751 9.82684 11.0484 10.1335 10.9084 10.3735C10.8084 10.5335 10.6417 10.6202 10.4751 10.6202Z" fill="black" fill-opacity="0.5"/>
</svg>
