<svg width="18" height="20" viewBox="0 0 18 20" fill="none" xmlns="http://www.w3.org/2000/svg">
<path fill-rule="evenodd" clip-rule="evenodd" d="M15.8921 12.1931L17.5707 13.5135C17.6773 13.5981 17.7461 13.7213 17.7623 13.8564C17.7784 13.9915 17.7406 14.1274 17.657 14.2348L16.9244 15.1644L14.4382 13.2107L15.1709 12.281C15.2557 12.1747 15.379 12.1062 15.5141 12.0904C15.6492 12.0745 15.785 12.1126 15.8921 12.1964V12.1931ZM4.38612 13.5135C4.33235 13.517 4.27845 13.5094 4.22774 13.4912C4.17703 13.473 4.13059 13.4446 4.0913 13.4077C4.052 13.3709 4.02067 13.3264 3.99926 13.2769C3.97784 13.2275 3.96679 13.1742 3.96679 13.1203C3.96679 13.0664 3.97784 13.0131 3.99926 12.9637C4.02067 12.9143 4.052 12.8698 4.0913 12.8329C4.13059 12.7961 4.17703 12.7677 4.22774 12.7495C4.27845 12.7313 4.33235 12.7237 4.38612 12.7271H12.6749L12.066 13.5135H4.38612ZM4.85828 10.4787V7.13774C4.70346 7.20365 4.53012 7.21174 4.36984 7.16053C4.26443 7.12643 4.17151 7.06184 4.10282 6.97493C4.03738 6.88765 3.99737 6.78396 3.98722 6.67535C3.97893 6.57456 3.99079 6.47314 4.02209 6.37698C4.0534 6.28082 4.10354 6.19186 4.16958 6.11527C4.16958 6.11527 4.18586 6.09736 4.19563 6.08922L8.53786 2.7027C8.56573 2.67776 8.60134 2.66317 8.6387 2.66139C8.67606 2.65961 8.71289 2.67075 8.743 2.69293L13.0852 6.07294L13.1048 6.09085C13.1913 6.17481 13.2552 6.2793 13.2905 6.39459C13.3258 6.50988 13.3314 6.63223 13.3067 6.75024C13.2835 6.84844 13.2359 6.93918 13.1683 7.014C13.1015 7.08828 13.0169 7.14432 12.9224 7.17682C12.8384 7.20547 12.7495 7.2172 12.6609 7.21133C12.5724 7.20546 12.4858 7.18211 12.4063 7.14262V10.4722H11.9814V6.96027C11.9814 6.88375 8.99862 4.52784 8.66974 4.2706C8.32132 4.53598 5.28159 6.87398 5.28159 6.9733V10.4836L4.85828 10.4787ZM8.65346 6.69326C9.14027 6.69369 9.60707 6.88704 9.95161 7.23097C10.2961 7.57489 10.4903 8.04135 10.4916 8.52817V10.4819H6.81855V8.52817C6.81984 8.04192 7.01357 7.57595 7.35741 7.23212C7.70124 6.88828 8.16721 6.69455 8.65346 6.69326ZM8.81627 7.01889V8.53142H10.166C10.1653 8.15719 10.0266 7.79637 9.77629 7.51815C9.52601 7.23993 9.18183 7.06388 8.80976 7.02377L8.81627 7.01889ZM8.81627 8.85054V10.1628H10.166V8.85217L8.81627 8.85054ZM8.49064 10.1628V8.85217H7.13766V10.1644L8.49064 10.1628ZM8.49064 8.53468V7.02051C8.11885 7.06132 7.77508 7.23756 7.52494 7.51564C7.27479 7.79371 7.13578 8.15414 7.13441 8.52817L8.49064 8.53468ZM11.1119 2.98274H12.4144V4.74601L11.1119 3.88473V2.98274ZM4.43659 15.705C4.33541 15.6985 4.2405 15.6538 4.17113 15.5798C4.10177 15.5059 4.06317 15.4083 4.06317 15.3069C4.06317 15.2055 4.10177 15.1079 4.17113 15.034C4.2405 14.9601 4.33541 14.9153 4.43659 14.9088H10.9882L10.3711 15.705H4.43659ZM9.58149 18.9613C9.6102 18.9588 9.63907 18.9588 9.66778 18.9613V18.9759L9.6515 19.1729C9.62708 19.4985 9.60592 19.7623 9.60592 20H1.45222C1.13035 20 0.821572 19.8726 0.593368 19.6456C0.365164 19.4186 0.236096 19.1105 0.234375 18.7887L0.234375 1.21784C0.234375 0.894852 0.362683 0.585088 0.591073 0.356698C0.819463 0.128308 1.12923 0 1.45222 0L15.9947 0C16.3174 0.000431431 16.6268 0.12893 16.8548 0.357273C17.0828 0.585617 17.2109 0.895134 17.2109 1.21784V10.3354C17.2126 10.4411 17.2017 10.5465 17.1784 10.6496L17.1084 10.5926C16.8334 10.3761 16.5098 10.2297 16.1657 10.1661V1.21133C16.1646 1.16772 16.1473 1.12606 16.1172 1.09447C16.0871 1.06288 16.0464 1.0436 16.0029 1.04038H1.45222C1.40686 1.0409 1.36332 1.05832 1.33011 1.08922C1.29901 1.12244 1.28106 1.16585 1.27964 1.21133V18.787C1.27996 18.8096 1.28472 18.8318 1.29366 18.8525C1.3026 18.8732 1.31554 18.8919 1.33174 18.9075C1.36433 18.9396 1.40813 18.9577 1.45385 18.958L9.58149 18.9613ZM14.1647 18.7235C13.5851 18.9808 13.1194 19.1094 12.5366 19.3748C11.3024 19.7981 11.3464 20.0847 11.4392 18.8619L11.6834 16.7698L14.0735 13.6763L16.5597 15.6301L14.1663 18.7235H14.1647ZM12.1084 17.0954L13.7365 18.3816L12.5968 18.888C11.7013 19.2836 11.729 19.4741 11.8755 18.551L12.1084 17.0954Z" fill="black" fill-opacity="0.35"/>
</svg>
