<svg width="24" height="24" viewBox="0 0 24 24" fill="none" xmlns="http://www.w3.org/2000/svg">
<mask id="path-1-inside-1_2741_27431" fill="white">
<path fill-rule="evenodd" clip-rule="evenodd" d="M11.1747 2.49673C11.1819 2.6826 11.2499 2.86097 11.3683 3.00444C11.5132 3.2046 11.6938 3.31851 11.7263 3.57724C11.7589 3.83598 11.6694 4.16307 11.6303 4.39089C10.8723 4.42654 10.1241 4.57631 9.41072 4.83513C9.28054 4.69682 9.01692 4.31929 9.00065 4.15656C8.99372 4.04556 9.0115 3.9344 9.05272 3.8311C9.14548 3.57562 9.24149 3.15903 9.11781 2.90192C8.82653 2.29983 7.26922 2.96701 7.50355 3.59189C7.58264 3.76031 7.71544 3.89768 7.88108 3.98244C8.09262 4.10937 8.29929 4.14517 8.43598 4.3681C8.57267 4.59104 8.61335 4.92626 8.67519 5.1492C8.02373 5.46852 7.42102 5.87891 6.88518 6.36804C6.71269 6.29155 6.32051 6.04258 6.24403 5.89775C6.19493 5.79613 6.16829 5.68513 6.16592 5.57229C6.15453 5.30216 6.08456 4.8807 5.87138 4.69031C5.37181 4.24606 4.18877 5.45676 4.64441 5.94494C4.78205 6.06993 4.95708 6.146 5.14236 6.16137C5.38482 6.19717 5.58986 6.15161 5.80141 6.3062C6.01296 6.46079 6.18057 6.75696 6.31726 6.94409C5.83151 7.48642 5.42549 8.09517 5.11144 8.75201C4.9243 8.75201 4.46053 8.66576 4.34174 8.56161C4.25789 8.48738 4.19125 8.39575 4.14646 8.29311C4.03255 8.04576 3.80636 7.68288 3.53623 7.5885C2.90647 7.36881 2.27346 8.93914 2.88532 9.21578C3.06008 9.27788 3.25032 9.28131 3.4272 9.22554C3.66641 9.16696 3.83728 9.04492 4.09276 9.10675C4.34824 9.16859 4.61349 9.37688 4.81039 9.49893C4.57296 10.1853 4.43487 10.902 4.40032 11.6274C4.22457 11.6941 3.77219 11.7901 3.61434 11.7462C3.50845 11.7094 3.41183 11.65 3.33119 11.5721C3.12778 11.3898 2.78117 11.1392 2.49151 11.1555C1.82596 11.1929 1.8406 12.8869 2.50941 12.9113C2.69471 12.9019 2.87185 12.8322 3.01387 12.7128C3.2124 12.568 3.32468 12.3874 3.58342 12.3499C3.84216 12.3125 4.16924 12.402 4.39706 12.4378C4.43773 13.1633 4.58297 13.8791 4.82829 14.563C4.68997 14.6932 4.31082 14.9552 4.14809 14.9715C4.03698 14.9777 3.92586 14.9593 3.82263 14.9178C3.56878 14.8234 3.15219 14.7258 2.89345 14.8511C2.29136 15.1391 2.95366 16.698 3.58017 16.467C3.74795 16.387 3.88507 16.2544 3.97071 16.0894C4.09927 15.8795 4.13344 15.6728 4.35801 15.5361C4.58257 15.3995 4.91779 15.3604 5.14399 15.3067C5.46078 15.9581 5.86902 16.5608 6.35631 17.0967C6.2782 17.2692 6.03086 17.6581 5.88277 17.7346C5.78144 17.7843 5.67018 17.8105 5.55732 17.8111C5.28719 17.8225 4.86409 17.8908 4.6737 18.104C4.22783 18.5922 5.43364 19.7882 5.92508 19.3359C6.04955 19.1979 6.12555 19.023 6.14151 18.8379C6.18057 18.5938 6.13337 18.3904 6.28959 18.1789C6.44581 17.9673 6.74035 17.8013 6.92749 17.6663C7.4691 18.1513 8.07736 18.5562 8.73377 18.8688C8.73377 19.0576 8.64427 19.51 8.54013 19.6353C8.46596 19.7195 8.37358 19.7857 8.27 19.8289C8.02428 19.9428 7.65977 20.1674 7.56538 20.4375C7.34245 21.0673 8.91277 21.7036 9.19267 21.0982C9.25614 20.9232 9.26015 20.7322 9.20406 20.5547C9.1471 20.3155 9.02506 20.1446 9.08852 19.8891C9.15199 19.6336 9.35865 19.3717 9.4807 19.1764C10.1673 19.416 10.8846 19.5562 11.6108 19.593C11.6775 19.7703 11.7735 20.2195 11.7263 20.3757C11.6895 20.482 11.6295 20.5787 11.5506 20.6588C11.3651 20.8574 11.1161 21.204 11.1308 21.4904C11.1666 22.1576 12.8589 22.1413 12.8866 21.479C12.8772 21.2932 12.8075 21.1155 12.6881 20.9729C12.5449 20.7744 12.3626 20.6621 12.3268 20.4017C12.291 20.1414 12.3805 19.8192 12.4179 19.5881C13.1446 19.5488 13.8619 19.4058 14.5481 19.1634C14.6766 19.3033 14.9353 19.6792 14.95 19.8403C14.9565 19.9514 14.9381 20.0626 14.8963 20.1658C14.8019 20.4213 14.7026 20.8362 14.8263 21.0949C15.1144 21.6987 16.6749 21.0413 16.4438 20.4147C16.3657 20.2464 16.2341 20.1085 16.0696 20.0226C15.8596 19.894 15.653 19.8598 15.5163 19.632C15.3796 19.4042 15.3471 19.0836 15.2917 18.8656C15.9477 18.5505 16.5554 18.1433 17.0964 17.6565C17.2689 17.7362 17.6545 17.982 17.7294 18.13C17.7791 18.2314 17.8052 18.3426 17.8059 18.4555C17.8156 18.7273 17.8824 19.1487 18.0955 19.3407C18.5837 19.7882 19.783 18.5857 19.3306 18.0942C19.1964 17.9695 19.0249 17.8923 18.8425 17.8746C18.5984 17.8355 18.3933 17.8746 18.1818 17.7248C17.9702 17.5751 17.8091 17.2757 17.6741 17.087C18.1614 16.5464 18.5686 15.9387 18.8831 15.2823C19.0735 15.2904 19.521 15.375 19.6463 15.4776C19.7302 15.5527 19.7964 15.6455 19.84 15.7493C19.9523 15.995 20.1768 16.3596 20.447 16.4556C21.0751 16.6801 21.7162 15.1131 21.1109 14.8283C20.9365 14.765 20.7462 14.7604 20.569 14.8153C20.3298 14.8722 20.1573 14.9926 19.9018 14.9292C19.6463 14.8657 19.3876 14.659 19.1907 14.5354C19.4307 13.8511 19.5709 13.1359 19.6073 12.4118C19.7863 12.3467 20.2338 12.249 20.3884 12.3011C20.4946 12.3379 20.5914 12.398 20.6715 12.4769C20.8701 12.6624 21.2167 12.913 21.5014 12.8983C22.1686 12.8658 22.1637 11.1718 21.5014 11.1441C21.3154 11.1518 21.137 11.2204 20.9937 11.3394C20.7952 11.4826 20.6813 11.6648 20.4226 11.699C20.1638 11.7332 19.8416 11.6437 19.6089 11.6063C19.5726 10.8793 19.4317 10.1613 19.1907 9.47452C19.3306 9.34596 19.7082 9.08885 19.8693 9.07421C19.9805 9.06836 20.0917 9.08726 20.1947 9.12954C20.4486 9.22392 20.8652 9.32481 21.1239 9.20276C21.7276 8.91636 21.0751 7.35417 20.447 7.57548C20.2789 7.65416 20.1412 7.78558 20.0548 7.94976C19.9246 8.15968 19.8921 8.36471 19.6626 8.49978C19.4332 8.63484 19.1045 8.67227 18.8799 8.72434C18.5673 8.06754 18.1618 7.4592 17.6757 6.91806C17.7554 6.74557 18.0012 6.3599 18.1525 6.28504C18.2539 6.23585 18.3652 6.21026 18.4779 6.21019C18.7497 6.20043 19.1728 6.13533 19.3648 5.92216C19.8139 5.43397 18.6146 4.23304 18.1216 4.6838C17.9953 4.82047 17.9176 4.99488 17.9003 5.18012C17.8612 5.42258 17.9003 5.62762 17.7489 5.83103C17.5976 6.03444 17.2965 6.20531 17.1094 6.33874C16.5701 5.85115 15.9641 5.44293 15.3096 5.12642C15.3096 4.93765 15.4024 4.48527 15.5065 4.36159C15.5816 4.27771 15.6745 4.21157 15.7783 4.16795C16.0256 4.05567 16.3901 3.83436 16.4878 3.56423C16.714 2.93609 15.1485 2.28844 14.8605 2.89379C14.7991 3.07245 14.7985 3.26641 14.8589 3.44543C14.9158 3.68465 15.0346 3.85714 14.9712 4.11099C14.9077 4.36485 14.6961 4.62684 14.566 4.82374C13.8814 4.57896 13.165 4.43427 12.4391 4.39414C12.374 4.21677 12.2764 3.76438 12.3284 3.60816C12.3659 3.50232 12.4265 3.40616 12.5058 3.32664C12.6913 3.12811 12.9436 2.78313 12.9305 2.49673C12.9061 1.83442 11.2056 1.83442 11.1747 2.49673ZM12.9647 6.1988C13.1991 6.19848 13.4283 6.26768 13.6233 6.39766C13.8183 6.52763 13.9704 6.71254 14.0604 6.92898C14.1503 7.14542 14.174 7.38367 14.1284 7.61358C14.0829 7.84349 13.9702 8.05473 13.8046 8.22057C13.639 8.38641 13.4279 8.4994 13.1981 8.54524C12.9682 8.59108 12.7299 8.56772 12.5134 8.4781C12.2968 8.38848 12.1117 8.23664 11.9814 8.04179C11.8512 7.84694 11.7817 7.61783 11.7817 7.38346C11.7817 7.06955 11.9063 6.76847 12.1281 6.54635C12.3499 6.32423 12.6508 6.19923 12.9647 6.1988ZM15.9654 8.62671C16.0254 8.62671 16.0839 8.6445 16.1337 8.67783C16.1836 8.71116 16.2223 8.75853 16.2452 8.81393C16.2681 8.86933 16.274 8.93027 16.2622 8.98903C16.2503 9.04779 16.2214 9.10172 16.1789 9.14398C16.1364 9.18624 16.0823 9.21494 16.0235 9.22644C15.9646 9.23793 15.9037 9.2317 15.8485 9.20855C15.7932 9.18539 15.746 9.14634 15.713 9.09635C15.6799 9.04636 15.6624 8.98768 15.6627 8.92775C15.6632 8.84776 15.6953 8.77119 15.752 8.71478C15.8087 8.65837 15.8854 8.6267 15.9654 8.62671ZM13.2869 17.1878C13.3468 17.1878 13.4053 17.2056 13.4551 17.2389C13.5048 17.2721 13.5436 17.3194 13.5665 17.3747C13.5895 17.43 13.5954 17.4909 13.5838 17.5496C13.5721 17.6083 13.5433 17.6622 13.5009 17.7045C13.4586 17.7469 13.4047 17.7757 13.346 17.7874C13.2872 17.7991 13.2264 17.7931 13.1711 17.7702C13.1158 17.7472 13.0685 17.7084 13.0352 17.6587C13.002 17.6089 12.9842 17.5504 12.9842 17.4905C12.9842 17.4102 13.0161 17.3333 13.0729 17.2765C13.1297 17.2197 13.2066 17.1878 13.2869 17.1878ZM8.23094 15.2497C8.29081 15.2497 8.34933 15.2675 8.3991 15.3008C8.44887 15.334 8.48767 15.3813 8.51058 15.4366C8.53349 15.4919 8.53948 15.5528 8.5278 15.6115C8.51612 15.6702 8.4873 15.7241 8.44497 15.7664C8.40264 15.8088 8.3487 15.8376 8.28999 15.8493C8.23128 15.861 8.17042 15.855 8.11511 15.8321C8.05981 15.8091 8.01254 15.7704 7.97928 15.7206C7.94602 15.6708 7.92827 15.6123 7.92827 15.5524C7.9287 15.4723 7.96072 15.3955 8.01739 15.3389C8.07406 15.2822 8.1508 15.2502 8.23094 15.2497ZM15.9296 14.6688C15.9895 14.6688 16.048 14.6866 16.0978 14.7198C16.1476 14.7531 16.1863 14.8003 16.2093 14.8557C16.2322 14.911 16.2382 14.9718 16.2265 15.0305C16.2148 15.0892 16.186 15.1432 16.1436 15.1855C16.1013 15.2278 16.0474 15.2567 15.9887 15.2683C15.93 15.28 15.8691 15.274 15.8138 15.2511C15.7585 15.2282 15.7112 15.1894 15.678 15.1396C15.6447 15.0899 15.6269 15.0313 15.6269 14.9715C15.6269 14.8912 15.6588 14.8142 15.7156 14.7575C15.7724 14.7007 15.8493 14.6688 15.9296 14.6688ZM14.3609 15.2937C14.4718 15.2934 14.5802 15.326 14.6725 15.3873C14.7648 15.4487 14.8368 15.5361 14.8794 15.6385C14.922 15.7409 14.9332 15.8535 14.9117 15.9623C14.8901 16.071 14.8368 16.1709 14.7584 16.2493C14.68 16.3277 14.5801 16.381 14.4714 16.4026C14.3626 16.4241 14.2499 16.4129 14.1476 16.3703C14.0452 16.3278 13.9578 16.2558 13.8964 16.1635C13.835 16.0711 13.8024 15.9627 13.8028 15.8518C13.8032 15.7039 13.8621 15.5622 13.9667 15.4576C14.0713 15.3531 14.213 15.2941 14.3609 15.2937ZM11.0266 14.48C11.1788 14.48 11.3277 14.5252 11.4542 14.6098C11.5808 14.6943 11.6795 14.8145 11.7377 14.9552C11.796 15.0958 11.8112 15.2506 11.7815 15.3999C11.7518 15.5492 11.6785 15.6864 11.5709 15.794C11.4632 15.9017 11.3261 15.975 11.1768 16.0047C11.0275 16.0344 10.8727 16.0191 10.7321 15.9609C10.5914 15.9026 10.4712 15.804 10.3866 15.6774C10.3021 15.5508 10.2569 15.402 10.2569 15.2497C10.2569 15.0456 10.338 14.8498 10.4824 14.7055C10.6267 14.5611 10.8225 14.48 11.0266 14.48ZM11.0136 12.3792C11.0736 12.3789 11.1323 12.3964 11.1824 12.4296C11.2324 12.4627 11.2714 12.5099 11.2945 12.5653C11.3177 12.6207 11.3238 12.6817 11.3122 12.7405C11.3005 12.7994 11.2717 12.8535 11.2292 12.8959C11.1868 12.9383 11.1327 12.9672 11.0739 12.9788C11.015 12.9905 10.954 12.9843 10.8986 12.9612C10.8433 12.9381 10.796 12.8991 10.7629 12.849C10.7297 12.799 10.7122 12.7403 10.7126 12.6803C10.7126 12.6407 10.7203 12.6016 10.7355 12.5651C10.7506 12.5285 10.7728 12.4953 10.8007 12.4674C10.8287 12.4394 10.8619 12.4173 10.8984 12.4021C10.9349 12.387 10.9741 12.3792 11.0136 12.3792ZM6.18707 8.9424C6.24694 8.9424 6.30546 8.96015 6.35523 8.99341C6.40501 9.02667 6.4438 9.07394 6.46671 9.12924C6.48962 9.18455 6.49561 9.24541 6.48393 9.30412C6.47225 9.36283 6.44343 9.41677 6.4011 9.4591C6.35877 9.50143 6.30484 9.53025 6.24612 9.54193C6.18741 9.55361 6.12655 9.54762 6.07125 9.52471C6.01594 9.5018 5.96867 9.463 5.93541 9.41323C5.90215 9.36346 5.8844 9.30494 5.8844 9.24507C5.8844 9.1648 5.91629 9.08781 5.97305 9.03105C6.02981 8.97429 6.1068 8.9424 6.18707 8.9424ZM9.72804 9.64538C9.78798 9.64539 9.84656 9.66318 9.89637 9.69651C9.94618 9.72984 9.98497 9.77721 10.0078 9.83261C10.0307 9.88801 10.0366 9.94895 10.0248 10.0077C10.013 10.0665 9.98398 10.1204 9.94148 10.1627C9.89899 10.2049 9.84491 10.2336 9.78609 10.2451C9.72727 10.2566 9.66636 10.2504 9.61108 10.2272C9.55581 10.2041 9.50865 10.165 9.47559 10.115C9.44252 10.065 9.42505 10.0064 9.42537 9.94643C9.42537 9.90676 9.43321 9.86748 9.44844 9.83085C9.46367 9.79422 9.48599 9.76096 9.51412 9.73298C9.54225 9.70501 9.57562 9.68286 9.61234 9.66783C9.64905 9.6528 9.68837 9.64517 9.72804 9.64538ZM12.3952 9.97084C12.504 9.97084 12.6104 10.0031 12.7009 10.0637C12.7914 10.1242 12.8619 10.2102 12.9035 10.3108C12.945 10.4114 12.9558 10.522 12.9345 10.6288C12.9131 10.7355 12.8606 10.8335 12.7835 10.9104C12.7064 10.9872 12.6083 11.0395 12.5015 11.0605C12.3947 11.0816 12.284 11.0704 12.1835 11.0285C12.0831 10.9867 11.9973 10.9159 11.937 10.8253C11.8768 10.7346 11.8448 10.6281 11.8451 10.5192C11.8456 10.3736 11.9037 10.2342 12.0068 10.1314C12.1099 10.0286 12.2496 9.97084 12.3952 9.97084ZM17.5732 10.1612C17.682 10.1612 17.7883 10.1935 17.8788 10.2539C17.9692 10.3144 18.0397 10.4003 18.0813 10.5008C18.123 10.6013 18.1339 10.7119 18.1126 10.8186C18.0914 10.9253 18.039 11.0233 17.9621 11.1002C17.8852 11.1771 17.7872 11.2295 17.6805 11.2507C17.5738 11.2719 17.4632 11.261 17.3627 11.2194C17.2622 11.1778 17.1763 11.1073 17.1158 11.0168C17.0554 10.9264 17.0232 10.82 17.0232 10.7113C17.0232 10.5654 17.0811 10.4255 17.1843 10.3223C17.2874 10.2192 17.4273 10.1612 17.5732 10.1612ZM14.8735 11.162C15.0226 11.1617 15.1685 11.2055 15.2928 11.288C15.417 11.3705 15.514 11.488 15.5716 11.6255C15.6292 11.7631 15.6448 11.9146 15.6163 12.061C15.5879 12.2074 15.5168 12.3421 15.4119 12.4481C15.307 12.5541 15.1731 12.6267 15.027 12.6567C14.8809 12.6867 14.7292 12.6728 14.5911 12.6167C14.4529 12.5606 14.3344 12.4648 14.2506 12.3414C14.1668 12.2181 14.1214 12.0727 14.1201 11.9236C14.1201 11.7236 14.1994 11.5318 14.3407 11.3902C14.4819 11.2487 14.6735 11.169 14.8735 11.1685V11.162ZM7.3278 11.1441C7.56217 11.1441 7.79128 11.2136 7.98613 11.3439C8.18098 11.4741 8.33282 11.6592 8.42244 11.8758C8.51206 12.0924 8.53542 12.3306 8.48958 12.5605C8.44374 12.7903 8.33075 13.0014 8.16491 13.167C7.99907 13.3326 7.78783 13.4453 7.55792 13.4909C7.32801 13.5364 7.08976 13.5127 6.87332 13.4228C6.65688 13.3329 6.47197 13.1808 6.342 12.9858C6.21202 12.7907 6.14282 12.5615 6.14314 12.3271C6.14357 12.0132 6.26857 11.7123 6.49069 11.4905C6.71281 11.2687 7.01389 11.1441 7.3278 11.1441ZM9.25776 7.18981C9.41013 7.18949 9.55917 7.2344 9.686 7.31885C9.81282 7.40331 9.91173 7.5235 9.97019 7.66421C10.0286 7.80492 10.044 7.95982 10.0144 8.10928C9.98473 8.25874 9.91139 8.39604 9.80365 8.50378C9.6959 8.61152 9.55861 8.68486 9.40915 8.71451C9.25969 8.74416 9.10479 8.72878 8.96408 8.67032C8.82337 8.61186 8.70317 8.51295 8.61872 8.38613C8.53427 8.2593 8.48936 8.11026 8.48968 7.95789C8.48968 7.75418 8.5706 7.55882 8.71465 7.41478C8.85869 7.27074 9.05405 7.18981 9.25776 7.18981Z"/>
</mask>
<path fill-rule="evenodd" clip-rule="evenodd" d="M11.1747 2.49673C11.1819 2.6826 11.2499 2.86097 11.3683 3.00444C11.5132 3.2046 11.6938 3.31851 11.7263 3.57724C11.7589 3.83598 11.6694 4.16307 11.6303 4.39089C10.8723 4.42654 10.1241 4.57631 9.41072 4.83513C9.28054 4.69682 9.01692 4.31929 9.00065 4.15656C8.99372 4.04556 9.0115 3.9344 9.05272 3.8311C9.14548 3.57562 9.24149 3.15903 9.11781 2.90192C8.82653 2.29983 7.26922 2.96701 7.50355 3.59189C7.58264 3.76031 7.71544 3.89768 7.88108 3.98244C8.09262 4.10937 8.29929 4.14517 8.43598 4.3681C8.57267 4.59104 8.61335 4.92626 8.67519 5.1492C8.02373 5.46852 7.42102 5.87891 6.88518 6.36804C6.71269 6.29155 6.32051 6.04258 6.24403 5.89775C6.19493 5.79613 6.16829 5.68513 6.16592 5.57229C6.15453 5.30216 6.08456 4.8807 5.87138 4.69031C5.37181 4.24606 4.18877 5.45676 4.64441 5.94494C4.78205 6.06993 4.95708 6.146 5.14236 6.16137C5.38482 6.19717 5.58986 6.15161 5.80141 6.3062C6.01296 6.46079 6.18057 6.75696 6.31726 6.94409C5.83151 7.48642 5.42549 8.09517 5.11144 8.75201C4.9243 8.75201 4.46053 8.66576 4.34174 8.56161C4.25789 8.48738 4.19125 8.39575 4.14646 8.29311C4.03255 8.04576 3.80636 7.68288 3.53623 7.5885C2.90647 7.36881 2.27346 8.93914 2.88532 9.21578C3.06008 9.27788 3.25032 9.28131 3.4272 9.22554C3.66641 9.16696 3.83728 9.04492 4.09276 9.10675C4.34824 9.16859 4.61349 9.37688 4.81039 9.49893C4.57296 10.1853 4.43487 10.902 4.40032 11.6274C4.22457 11.6941 3.77219 11.7901 3.61434 11.7462C3.50845 11.7094 3.41183 11.65 3.33119 11.5721C3.12778 11.3898 2.78117 11.1392 2.49151 11.1555C1.82596 11.1929 1.8406 12.8869 2.50941 12.9113C2.69471 12.9019 2.87185 12.8322 3.01387 12.7128C3.2124 12.568 3.32468 12.3874 3.58342 12.3499C3.84216 12.3125 4.16924 12.402 4.39706 12.4378C4.43773 13.1633 4.58297 13.8791 4.82829 14.563C4.68997 14.6932 4.31082 14.9552 4.14809 14.9715C4.03698 14.9777 3.92586 14.9593 3.82263 14.9178C3.56878 14.8234 3.15219 14.7258 2.89345 14.8511C2.29136 15.1391 2.95366 16.698 3.58017 16.467C3.74795 16.387 3.88507 16.2544 3.97071 16.0894C4.09927 15.8795 4.13344 15.6728 4.35801 15.5361C4.58257 15.3995 4.91779 15.3604 5.14399 15.3067C5.46078 15.9581 5.86902 16.5608 6.35631 17.0967C6.2782 17.2692 6.03086 17.6581 5.88277 17.7346C5.78144 17.7843 5.67018 17.8105 5.55732 17.8111C5.28719 17.8225 4.86409 17.8908 4.6737 18.104C4.22783 18.5922 5.43364 19.7882 5.92508 19.3359C6.04955 19.1979 6.12555 19.023 6.14151 18.8379C6.18057 18.5938 6.13337 18.3904 6.28959 18.1789C6.44581 17.9673 6.74035 17.8013 6.92749 17.6663C7.4691 18.1513 8.07736 18.5562 8.73377 18.8688C8.73377 19.0576 8.64427 19.51 8.54013 19.6353C8.46596 19.7195 8.37358 19.7857 8.27 19.8289C8.02428 19.9428 7.65977 20.1674 7.56538 20.4375C7.34245 21.0673 8.91277 21.7036 9.19267 21.0982C9.25614 20.9232 9.26015 20.7322 9.20406 20.5547C9.1471 20.3155 9.02506 20.1446 9.08852 19.8891C9.15199 19.6336 9.35865 19.3717 9.4807 19.1764C10.1673 19.416 10.8846 19.5562 11.6108 19.593C11.6775 19.7703 11.7735 20.2195 11.7263 20.3757C11.6895 20.482 11.6295 20.5787 11.5506 20.6588C11.3651 20.8574 11.1161 21.204 11.1308 21.4904C11.1666 22.1576 12.8589 22.1413 12.8866 21.479C12.8772 21.2932 12.8075 21.1155 12.6881 20.9729C12.5449 20.7744 12.3626 20.6621 12.3268 20.4017C12.291 20.1414 12.3805 19.8192 12.4179 19.5881C13.1446 19.5488 13.8619 19.4058 14.5481 19.1634C14.6766 19.3033 14.9353 19.6792 14.95 19.8403C14.9565 19.9514 14.9381 20.0626 14.8963 20.1658C14.8019 20.4213 14.7026 20.8362 14.8263 21.0949C15.1144 21.6987 16.6749 21.0413 16.4438 20.4147C16.3657 20.2464 16.2341 20.1085 16.0696 20.0226C15.8596 19.894 15.653 19.8598 15.5163 19.632C15.3796 19.4042 15.3471 19.0836 15.2917 18.8656C15.9477 18.5505 16.5554 18.1433 17.0964 17.6565C17.2689 17.7362 17.6545 17.982 17.7294 18.13C17.7791 18.2314 17.8052 18.3426 17.8059 18.4555C17.8156 18.7273 17.8824 19.1487 18.0955 19.3407C18.5837 19.7882 19.783 18.5857 19.3306 18.0942C19.1964 17.9695 19.0249 17.8923 18.8425 17.8746C18.5984 17.8355 18.3933 17.8746 18.1818 17.7248C17.9702 17.5751 17.8091 17.2757 17.6741 17.087C18.1614 16.5464 18.5686 15.9387 18.8831 15.2823C19.0735 15.2904 19.521 15.375 19.6463 15.4776C19.7302 15.5527 19.7964 15.6455 19.84 15.7493C19.9523 15.995 20.1768 16.3596 20.447 16.4556C21.0751 16.6801 21.7162 15.1131 21.1109 14.8283C20.9365 14.765 20.7462 14.7604 20.569 14.8153C20.3298 14.8722 20.1573 14.9926 19.9018 14.9292C19.6463 14.8657 19.3876 14.659 19.1907 14.5354C19.4307 13.8511 19.5709 13.1359 19.6073 12.4118C19.7863 12.3467 20.2338 12.249 20.3884 12.3011C20.4946 12.3379 20.5914 12.398 20.6715 12.4769C20.8701 12.6624 21.2167 12.913 21.5014 12.8983C22.1686 12.8658 22.1637 11.1718 21.5014 11.1441C21.3154 11.1518 21.137 11.2204 20.9937 11.3394C20.7952 11.4826 20.6813 11.6648 20.4226 11.699C20.1638 11.7332 19.8416 11.6437 19.6089 11.6063C19.5726 10.8793 19.4317 10.1613 19.1907 9.47452C19.3306 9.34596 19.7082 9.08885 19.8693 9.07421C19.9805 9.06836 20.0917 9.08726 20.1947 9.12954C20.4486 9.22392 20.8652 9.32481 21.1239 9.20276C21.7276 8.91636 21.0751 7.35417 20.447 7.57548C20.2789 7.65416 20.1412 7.78558 20.0548 7.94976C19.9246 8.15968 19.8921 8.36471 19.6626 8.49978C19.4332 8.63484 19.1045 8.67227 18.8799 8.72434C18.5673 8.06754 18.1618 7.4592 17.6757 6.91806C17.7554 6.74557 18.0012 6.3599 18.1525 6.28504C18.2539 6.23585 18.3652 6.21026 18.4779 6.21019C18.7497 6.20043 19.1728 6.13533 19.3648 5.92216C19.8139 5.43397 18.6146 4.23304 18.1216 4.6838C17.9953 4.82047 17.9176 4.99488 17.9003 5.18012C17.8612 5.42258 17.9003 5.62762 17.7489 5.83103C17.5976 6.03444 17.2965 6.20531 17.1094 6.33874C16.5701 5.85115 15.9641 5.44293 15.3096 5.12642C15.3096 4.93765 15.4024 4.48527 15.5065 4.36159C15.5816 4.27771 15.6745 4.21157 15.7783 4.16795C16.0256 4.05567 16.3901 3.83436 16.4878 3.56423C16.714 2.93609 15.1485 2.28844 14.8605 2.89379C14.7991 3.07245 14.7985 3.26641 14.8589 3.44543C14.9158 3.68465 15.0346 3.85714 14.9712 4.11099C14.9077 4.36485 14.6961 4.62684 14.566 4.82374C13.8814 4.57896 13.165 4.43427 12.4391 4.39414C12.374 4.21677 12.2764 3.76438 12.3284 3.60816C12.3659 3.50232 12.4265 3.40616 12.5058 3.32664C12.6913 3.12811 12.9436 2.78313 12.9305 2.49673C12.9061 1.83442 11.2056 1.83442 11.1747 2.49673ZM12.9647 6.1988C13.1991 6.19848 13.4283 6.26768 13.6233 6.39766C13.8183 6.52763 13.9704 6.71254 14.0604 6.92898C14.1503 7.14542 14.174 7.38367 14.1284 7.61358C14.0829 7.84349 13.9702 8.05473 13.8046 8.22057C13.639 8.38641 13.4279 8.4994 13.1981 8.54524C12.9682 8.59108 12.7299 8.56772 12.5134 8.4781C12.2968 8.38848 12.1117 8.23664 11.9814 8.04179C11.8512 7.84694 11.7817 7.61783 11.7817 7.38346C11.7817 7.06955 11.9063 6.76847 12.1281 6.54635C12.3499 6.32423 12.6508 6.19923 12.9647 6.1988ZM15.9654 8.62671C16.0254 8.62671 16.0839 8.6445 16.1337 8.67783C16.1836 8.71116 16.2223 8.75853 16.2452 8.81393C16.2681 8.86933 16.274 8.93027 16.2622 8.98903C16.2503 9.04779 16.2214 9.10172 16.1789 9.14398C16.1364 9.18624 16.0823 9.21494 16.0235 9.22644C15.9646 9.23793 15.9037 9.2317 15.8485 9.20855C15.7932 9.18539 15.746 9.14634 15.713 9.09635C15.6799 9.04636 15.6624 8.98768 15.6627 8.92775C15.6632 8.84776 15.6953 8.77119 15.752 8.71478C15.8087 8.65837 15.8854 8.6267 15.9654 8.62671ZM13.2869 17.1878C13.3468 17.1878 13.4053 17.2056 13.4551 17.2389C13.5048 17.2721 13.5436 17.3194 13.5665 17.3747C13.5895 17.43 13.5954 17.4909 13.5838 17.5496C13.5721 17.6083 13.5433 17.6622 13.5009 17.7045C13.4586 17.7469 13.4047 17.7757 13.346 17.7874C13.2872 17.7991 13.2264 17.7931 13.1711 17.7702C13.1158 17.7472 13.0685 17.7084 13.0352 17.6587C13.002 17.6089 12.9842 17.5504 12.9842 17.4905C12.9842 17.4102 13.0161 17.3333 13.0729 17.2765C13.1297 17.2197 13.2066 17.1878 13.2869 17.1878ZM8.23094 15.2497C8.29081 15.2497 8.34933 15.2675 8.3991 15.3008C8.44887 15.334 8.48767 15.3813 8.51058 15.4366C8.53349 15.4919 8.53948 15.5528 8.5278 15.6115C8.51612 15.6702 8.4873 15.7241 8.44497 15.7664C8.40264 15.8088 8.3487 15.8376 8.28999 15.8493C8.23128 15.861 8.17042 15.855 8.11511 15.8321C8.05981 15.8091 8.01254 15.7704 7.97928 15.7206C7.94602 15.6708 7.92827 15.6123 7.92827 15.5524C7.9287 15.4723 7.96072 15.3955 8.01739 15.3389C8.07406 15.2822 8.1508 15.2502 8.23094 15.2497ZM15.9296 14.6688C15.9895 14.6688 16.048 14.6866 16.0978 14.7198C16.1476 14.7531 16.1863 14.8003 16.2093 14.8557C16.2322 14.911 16.2382 14.9718 16.2265 15.0305C16.2148 15.0892 16.186 15.1432 16.1436 15.1855C16.1013 15.2278 16.0474 15.2567 15.9887 15.2683C15.93 15.28 15.8691 15.274 15.8138 15.2511C15.7585 15.2282 15.7112 15.1894 15.678 15.1396C15.6447 15.0899 15.6269 15.0313 15.6269 14.9715C15.6269 14.8912 15.6588 14.8142 15.7156 14.7575C15.7724 14.7007 15.8493 14.6688 15.9296 14.6688ZM14.3609 15.2937C14.4718 15.2934 14.5802 15.326 14.6725 15.3873C14.7648 15.4487 14.8368 15.5361 14.8794 15.6385C14.922 15.7409 14.9332 15.8535 14.9117 15.9623C14.8901 16.071 14.8368 16.1709 14.7584 16.2493C14.68 16.3277 14.5801 16.381 14.4714 16.4026C14.3626 16.4241 14.2499 16.4129 14.1476 16.3703C14.0452 16.3278 13.9578 16.2558 13.8964 16.1635C13.835 16.0711 13.8024 15.9627 13.8028 15.8518C13.8032 15.7039 13.8621 15.5622 13.9667 15.4576C14.0713 15.3531 14.213 15.2941 14.3609 15.2937ZM11.0266 14.48C11.1788 14.48 11.3277 14.5252 11.4542 14.6098C11.5808 14.6943 11.6795 14.8145 11.7377 14.9552C11.796 15.0958 11.8112 15.2506 11.7815 15.3999C11.7518 15.5492 11.6785 15.6864 11.5709 15.794C11.4632 15.9017 11.3261 15.975 11.1768 16.0047C11.0275 16.0344 10.8727 16.0191 10.7321 15.9609C10.5914 15.9026 10.4712 15.804 10.3866 15.6774C10.3021 15.5508 10.2569 15.402 10.2569 15.2497C10.2569 15.0456 10.338 14.8498 10.4824 14.7055C10.6267 14.5611 10.8225 14.48 11.0266 14.48ZM11.0136 12.3792C11.0736 12.3789 11.1323 12.3964 11.1824 12.4296C11.2324 12.4627 11.2714 12.5099 11.2945 12.5653C11.3177 12.6207 11.3238 12.6817 11.3122 12.7405C11.3005 12.7994 11.2717 12.8535 11.2292 12.8959C11.1868 12.9383 11.1327 12.9672 11.0739 12.9788C11.015 12.9905 10.954 12.9843 10.8986 12.9612C10.8433 12.9381 10.796 12.8991 10.7629 12.849C10.7297 12.799 10.7122 12.7403 10.7126 12.6803C10.7126 12.6407 10.7203 12.6016 10.7355 12.5651C10.7506 12.5285 10.7728 12.4953 10.8007 12.4674C10.8287 12.4394 10.8619 12.4173 10.8984 12.4021C10.9349 12.387 10.9741 12.3792 11.0136 12.3792ZM6.18707 8.9424C6.24694 8.9424 6.30546 8.96015 6.35523 8.99341C6.40501 9.02667 6.4438 9.07394 6.46671 9.12924C6.48962 9.18455 6.49561 9.24541 6.48393 9.30412C6.47225 9.36283 6.44343 9.41677 6.4011 9.4591C6.35877 9.50143 6.30484 9.53025 6.24612 9.54193C6.18741 9.55361 6.12655 9.54762 6.07125 9.52471C6.01594 9.5018 5.96867 9.463 5.93541 9.41323C5.90215 9.36346 5.8844 9.30494 5.8844 9.24507C5.8844 9.1648 5.91629 9.08781 5.97305 9.03105C6.02981 8.97429 6.1068 8.9424 6.18707 8.9424ZM9.72804 9.64538C9.78798 9.64539 9.84656 9.66318 9.89637 9.69651C9.94618 9.72984 9.98497 9.77721 10.0078 9.83261C10.0307 9.88801 10.0366 9.94895 10.0248 10.0077C10.013 10.0665 9.98398 10.1204 9.94148 10.1627C9.89899 10.2049 9.84491 10.2336 9.78609 10.2451C9.72727 10.2566 9.66636 10.2504 9.61108 10.2272C9.55581 10.2041 9.50865 10.165 9.47559 10.115C9.44252 10.065 9.42505 10.0064 9.42537 9.94643C9.42537 9.90676 9.43321 9.86748 9.44844 9.83085C9.46367 9.79422 9.48599 9.76096 9.51412 9.73298C9.54225 9.70501 9.57562 9.68286 9.61234 9.66783C9.64905 9.6528 9.68837 9.64517 9.72804 9.64538ZM12.3952 9.97084C12.504 9.97084 12.6104 10.0031 12.7009 10.0637C12.7914 10.1242 12.8619 10.2102 12.9035 10.3108C12.945 10.4114 12.9558 10.522 12.9345 10.6288C12.9131 10.7355 12.8606 10.8335 12.7835 10.9104C12.7064 10.9872 12.6083 11.0395 12.5015 11.0605C12.3947 11.0816 12.284 11.0704 12.1835 11.0285C12.0831 10.9867 11.9973 10.9159 11.937 10.8253C11.8768 10.7346 11.8448 10.6281 11.8451 10.5192C11.8456 10.3736 11.9037 10.2342 12.0068 10.1314C12.1099 10.0286 12.2496 9.97084 12.3952 9.97084ZM17.5732 10.1612C17.682 10.1612 17.7883 10.1935 17.8788 10.2539C17.9692 10.3144 18.0397 10.4003 18.0813 10.5008C18.123 10.6013 18.1339 10.7119 18.1126 10.8186C18.0914 10.9253 18.039 11.0233 17.9621 11.1002C17.8852 11.1771 17.7872 11.2295 17.6805 11.2507C17.5738 11.2719 17.4632 11.261 17.3627 11.2194C17.2622 11.1778 17.1763 11.1073 17.1158 11.0168C17.0554 10.9264 17.0232 10.82 17.0232 10.7113C17.0232 10.5654 17.0811 10.4255 17.1843 10.3223C17.2874 10.2192 17.4273 10.1612 17.5732 10.1612ZM14.8735 11.162C15.0226 11.1617 15.1685 11.2055 15.2928 11.288C15.417 11.3705 15.514 11.488 15.5716 11.6255C15.6292 11.7631 15.6448 11.9146 15.6163 12.061C15.5879 12.2074 15.5168 12.3421 15.4119 12.4481C15.307 12.5541 15.1731 12.6267 15.027 12.6567C14.8809 12.6867 14.7292 12.6728 14.5911 12.6167C14.4529 12.5606 14.3344 12.4648 14.2506 12.3414C14.1668 12.2181 14.1214 12.0727 14.1201 11.9236C14.1201 11.7236 14.1994 11.5318 14.3407 11.3902C14.4819 11.2487 14.6735 11.169 14.8735 11.1685V11.162ZM7.3278 11.1441C7.56217 11.1441 7.79128 11.2136 7.98613 11.3439C8.18098 11.4741 8.33282 11.6592 8.42244 11.8758C8.51206 12.0924 8.53542 12.3306 8.48958 12.5605C8.44374 12.7903 8.33075 13.0014 8.16491 13.167C7.99907 13.3326 7.78783 13.4453 7.55792 13.4909C7.32801 13.5364 7.08976 13.5127 6.87332 13.4228C6.65688 13.3329 6.47197 13.1808 6.342 12.9858C6.21202 12.7907 6.14282 12.5615 6.14314 12.3271C6.14357 12.0132 6.26857 11.7123 6.49069 11.4905C6.71281 11.2687 7.01389 11.1441 7.3278 11.1441ZM9.25776 7.18981C9.41013 7.18949 9.55917 7.2344 9.686 7.31885C9.81282 7.40331 9.91173 7.5235 9.97019 7.66421C10.0286 7.80492 10.044 7.95982 10.0144 8.10928C9.98473 8.25874 9.91139 8.39604 9.80365 8.50378C9.6959 8.61152 9.55861 8.68486 9.40915 8.71451C9.25969 8.74416 9.10479 8.72878 8.96408 8.67032C8.82337 8.61186 8.70317 8.51295 8.61872 8.38613C8.53427 8.2593 8.48936 8.11026 8.48968 7.95789C8.48968 7.75418 8.5706 7.55882 8.71465 7.41478C8.85869 7.27074 9.05405 7.18981 9.25776 7.18981Z" stroke="black" stroke-opacity="0.35" stroke-width="2" mask="url(#path-1-inside-1_2741_27431)"/>
</svg>
