<svg width="24" height="24" viewBox="0 0 24 24" fill="none" xmlns="http://www.w3.org/2000/svg">
<g clip-path="url(#clip0_3491_24388)">
<path fill-rule="evenodd" clip-rule="evenodd" d="M12 0C18.627 0 24 5.37305 24 12C24 18.627 18.627 24 12 24C5.37305 24 0 18.627 0 12C0 5.37305 5.37305 0 12 0ZM7.71094 11.0918C8.60938 11.6094 9.19336 12.0391 9.89062 12.8066C11.6953 9.90039 13.6562 8.29102 16.2031 6.00391L16.4531 5.9082H19.2422C15.5039 10.0605 12.6035 13.4844 10.0078 18.4922C8.65625 15.6035 7.45117 13.6094 4.75781 11.7598L7.71094 11.0918Z" fill="#3AAF3C"/>
</g>
<defs>
<clipPath id="clip0_3491_24388">
<rect width="24" height="24" fill="white"/>
</clipPath>
</defs>
</svg>
