<svg width="12" height="12" viewBox="0 0 12 12" fill="none" xmlns="http://www.w3.org/2000/svg">
<g clip-path="url(#clip0_4288_1394)">
<path fill-rule="evenodd" clip-rule="evenodd" d="M6 0C9.31348 0 12 2.68652 12 6C12 9.31348 9.31348 12 6 12C2.68652 12 0 9.31348 0 6C0 2.68652 2.68652 0 6 0ZM3.85547 5.5459C4.30469 5.80469 4.59668 6.01953 4.94531 6.40332C5.84766 4.9502 6.82812 4.14551 8.10156 3.00195L8.22656 2.9541H9.62109C7.75195 5.03027 6.30176 6.74219 5.00391 9.24609C4.32812 7.80176 3.72559 6.80469 2.37891 5.87988L3.85547 5.5459Z" fill="#10A64A" fill-opacity="0.5"/>
</g>
<defs>
<clipPath id="clip0_4288_1394">
<rect width="12" height="12" fill="white"/>
</clipPath>
</defs>
</svg>
