<svg width="24" height="26" viewBox="0 0 24 26" fill="none" xmlns="http://www.w3.org/2000/svg">
<path fill-rule="evenodd" clip-rule="evenodd" d="M5.96442 9.77029C5.80396 10.6929 6.60103 11.3958 7.1016 11.3487C7.09811 11.1255 7.10334 10.904 7.1016 10.686C6.48592 10.5063 6.4022 9.41623 7.09811 9.1581V9.43891C7.09985 9.38833 7.09985 9.33949 7.1016 9.29066V11.34C7.1016 12.5557 7.54984 13.3789 8.28935 14.237C7.5603 14.9713 7.17659 15.1405 6.39871 15.4876C5.10805 16.0614 4.18191 16.5428 3.30287 17.7305C2.67672 18.5747 2.24941 19.7311 2 20.9188C2.91044 22.0211 4.65283 22.717 6.7423 23.1042C6.60103 22.6176 6.52429 22.1048 6.52429 21.5729C6.52429 18.5503 8.9748 16.098 11.9991 16.098C15.0217 16.098 17.474 18.5485 17.474 21.5729C17.474 22.0595 17.4094 22.5321 17.2908 22.9821C19.9367 22.506 21.8762 21.7403 22 20.9049C21.7 19.6334 21.1872 18.47 20.507 17.6241C19.8251 16.7765 18.9774 16.1207 18.0094 15.6044C18.0024 15.6009 17.9972 15.5975 17.9902 15.5957C17.7966 15.519 17.5838 15.4387 17.3972 15.369C16.6385 15.0847 16.363 14.9818 15.6618 14.2928C16.431 13.4277 16.8984 12.5818 16.8984 11.34V9.1302C16.9019 9.23136 16.9036 9.336 16.9054 9.43891V9.1581C17.6013 9.41623 17.5141 10.5063 16.8984 10.686C16.8967 10.9057 16.9001 11.1255 16.8984 11.3487C17.399 11.3958 18.1995 10.6929 18.0408 9.77029C20.8279 -0.978813 3.0395 -0.193952 5.96442 9.77029ZM7.89518 23.2804C8.43237 23.3484 8.98352 23.3972 9.54513 23.4321C9.32362 23.1827 9.13875 22.8932 8.9748 22.5705C8.59458 21.9583 7.51496 22.274 7.85855 23.2036C7.8725 23.228 7.88471 23.2542 7.89518 23.2804ZM14.5525 23.3449C15.1089 23.2943 15.6531 23.2315 16.1781 23.1583C16.4728 22.2635 15.4211 21.9688 15.0461 22.5705C14.9031 22.8565 14.7427 23.1164 14.5525 23.3449ZM11.9765 21.5851C12.1334 21.5851 12.259 21.7124 12.259 21.8676C12.259 22.0246 12.1317 22.1502 11.9765 22.1502C11.8195 22.1502 11.6939 22.0228 11.6939 21.8676C11.6922 21.7124 11.8195 21.5851 11.9765 21.5851ZM11.9782 20.8438C12.5433 20.8438 13.0003 21.3008 13.0003 21.8659C13.0003 22.431 12.5433 22.8879 11.9782 22.8879C11.4131 22.8879 10.9561 22.431 10.9561 21.8659C10.9561 21.3025 11.4148 20.8438 11.9782 20.8438ZM7.84285 20.0694C8.23877 18.9724 9.04805 18.0462 10.0614 17.5736C11.455 16.9247 13.145 16.8829 14.577 17.9433C15.4211 18.5677 15.7298 19.0805 16.1502 19.9892C16.4693 20.795 16.2077 21.0549 15.1822 20.6031C13.0631 19.5549 10.9195 19.602 8.75678 20.6031C7.95797 21.1229 7.51147 20.6886 7.84285 20.0694ZM13.6456 7.30234C13.5305 7.30234 13.4363 7.20816 13.438 7.09305C13.438 6.97793 13.5322 6.88375 13.6473 6.88549C13.9927 6.88724 14.3101 6.95177 14.5944 7.08607C14.8804 7.22037 15.1316 7.42269 15.3444 7.69826C15.4159 7.78896 15.3984 7.92151 15.306 7.99128C15.2153 8.06104 15.0828 8.04534 15.013 7.9529C14.8421 7.7314 14.6415 7.56919 14.4165 7.4628C14.1898 7.35467 13.9316 7.30234 13.6456 7.30234ZM11.0311 13.6632C10.9439 13.6161 10.9108 13.508 10.9561 13.4208C11.0032 13.3336 11.1114 13.3004 11.1986 13.3458C11.4759 13.4923 11.748 13.5673 12.0148 13.569C12.2817 13.569 12.5503 13.4958 12.8189 13.3475C12.9061 13.3004 13.0142 13.3318 13.0631 13.419C13.1101 13.5062 13.0787 13.6144 12.9915 13.6632C12.6706 13.8411 12.3445 13.9283 12.0148 13.9283C11.6869 13.9248 11.359 13.8359 11.0311 13.6632ZM13.6613 12.8086C13.4816 12.8696 13.2968 12.9219 13.1049 12.9621C12.9096 13.0161 12.7282 13.0493 12.5677 13.0528C12.3846 13.0562 12.2276 13.0231 12.102 12.9394C12.0637 12.9132 12.0288 12.8871 11.9991 12.8574C11.9695 12.8871 11.9346 12.9132 11.8962 12.9394C11.7706 13.0231 11.6137 13.0562 11.4305 13.0528C11.2701 13.0493 11.0904 13.0161 10.8933 12.9621C10.7032 12.9202 10.5184 12.8696 10.337 12.8086C10.1573 12.7475 9.98291 12.6778 9.81198 12.5975C9.73001 12.5592 9.69687 12.4667 9.73873 12.3917C9.76315 12.3464 9.80849 12.3167 9.85907 12.3098C9.94977 12.2958 10.023 12.2853 10.091 12.2766H10.0963C10.316 12.247 10.4852 12.2225 10.691 12.1406C10.7486 12.1179 10.8061 12.0917 10.8637 12.0656C11.1933 11.9138 11.5526 11.7464 11.9119 12.0324C11.9433 12.0569 11.9712 12.083 11.9974 12.1092C12.0235 12.083 12.0515 12.0569 12.0828 12.0324C12.4421 11.7464 12.8014 11.9138 13.1311 12.0656C13.1886 12.0917 13.2444 12.1179 13.302 12.1406C13.5078 12.2225 13.677 12.247 13.8967 12.2766H13.902C13.97 12.2853 14.0433 12.2958 14.1339 12.3098C14.1845 12.3185 14.2299 12.3464 14.2543 12.3917C14.2962 12.4667 14.263 12.5592 14.181 12.5975C14.0153 12.6778 13.8409 12.7475 13.6613 12.8086ZM11.5683 11.2772C11.4968 11.2162 11.4864 11.1098 11.5474 11.0365C11.6084 10.965 11.7166 10.9546 11.7881 11.0156C11.8735 11.0871 11.9555 11.1255 12.034 11.1255C12.1125 11.1272 12.198 11.0906 12.2904 11.0139C12.3637 10.9546 12.47 10.965 12.5311 11.0365C12.5904 11.1098 12.5799 11.2162 12.5084 11.2772C12.3514 11.4063 12.191 11.4673 12.0305 11.4656C11.8666 11.4638 11.7131 11.3993 11.5683 11.2772ZM9.1963 8.54417C9.12828 8.57033 9.05328 8.53021 9.02887 8.45173C9.00445 8.37324 9.04107 8.28952 9.11084 8.26162C9.37595 8.15871 9.6428 8.10988 9.90791 8.11162C10.173 8.11337 10.4381 8.16569 10.7015 8.25987C10.7695 8.28429 10.8079 8.36801 10.787 8.4465C10.766 8.52498 10.691 8.56858 10.623 8.54417C10.5358 8.51277 10.4486 8.48661 10.3596 8.46568C10.3684 8.49708 10.3736 8.53021 10.3736 8.5651C10.3736 8.76916 10.2096 8.93311 10.0056 8.93311C9.80152 8.93311 9.63757 8.76742 9.63757 8.5651C9.63757 8.51452 9.64803 8.46742 9.66547 8.42382C9.5085 8.44475 9.35327 8.48312 9.1963 8.54417ZM13.4712 8.43429C13.4555 8.4744 13.445 8.44126 13.445 8.5651C13.445 8.68893 13.609 8.93311 13.813 8.93311C14.0171 8.93311 14.181 8.76742 14.181 8.5651C14.181 8.5058 14.1671 8.45173 14.1427 8.40289C14.3031 8.42033 14.4653 8.45522 14.6293 8.50928C14.699 8.53196 14.7723 8.48661 14.7915 8.40638C14.8107 8.32789 14.7706 8.24417 14.7008 8.2215C14.4357 8.13429 14.1706 8.09244 13.9055 8.09244C13.6421 8.09244 13.3787 8.13604 13.1189 8.22325C13.0491 8.24592 13.009 8.32789 13.0299 8.40812C13.0508 8.48661 13.1224 8.53196 13.1921 8.50928C13.2828 8.47789 13.3787 8.45347 13.4712 8.43429ZM10.3457 6.92561C10.4608 6.92038 10.5585 7.00933 10.5637 7.12618C10.5689 7.2413 10.48 7.33897 10.3631 7.3442C10.0422 7.3599 9.76838 7.42443 9.5399 7.53431C9.31665 7.64245 9.13526 7.79593 8.99049 7.99128C8.92247 8.08371 8.78992 8.1029 8.69748 8.03488C8.60504 7.96686 8.58586 7.8343 8.65388 7.74186C8.83875 7.49245 9.07247 7.29537 9.35851 7.15758C9.63757 7.02154 9.96547 6.94305 10.3457 6.92561ZM11.9991 4.15767C9.6585 4.15767 7.74344 6.07447 7.74344 8.41336V11.3383C7.74344 12.5086 8.22307 13.2795 8.99398 14.0521C9.76489 14.8231 10.8288 15.3027 11.9991 15.3027C13.1694 15.3027 14.2334 14.8231 15.0043 14.0521C15.7752 13.2812 16.2548 12.5086 16.2548 11.3383V8.4151C16.2548 6.07447 14.3398 4.15767 11.9991 4.15767Z" fill="black" fill-opacity="0.5"/>
</svg>
