<svg width="151" height="151" viewBox="0 0 151 151" fill="none" xmlns="http://www.w3.org/2000/svg">
<g clip-path="url(#clip0_3691_33148)">
<path d="M135.417 27.9209H18.4064C16.8278 27.9219 15.3141 28.5494 14.1979 29.6657C13.0816 30.7819 12.4541 32.2956 12.4531 33.8742V141.232C12.4541 142.811 13.0816 144.325 14.1979 145.441C15.3141 146.557 16.8278 147.185 18.4064 147.186H135.417C136.996 147.185 138.509 146.557 139.626 145.441C140.742 144.325 141.37 142.811 141.371 141.232V33.8742C141.37 32.2955 140.742 30.7817 139.626 29.6654C138.509 28.5492 136.996 27.9217 135.417 27.9209Z" fill="#FA7070"/>
<path d="M127.713 109.879H26.1095C22.8218 109.879 20.1562 107.214 20.1562 103.926V9.06949C20.1562 5.78178 22.8218 3.11621 26.1095 3.11621H127.713C131.001 3.11621 133.666 5.78178 133.666 9.06949V103.926C133.666 107.214 131.001 109.879 127.713 109.879Z" fill="#FBF2CF"/>
<path d="M22.0411 105.81V10.9543C22.0411 7.66662 24.7067 5.00105 27.9944 5.00105H129.598C130.759 5.00105 131.839 5.33855 132.754 5.91334C131.702 4.23506 129.84 3.11621 127.713 3.11621H26.1095C22.8218 3.11621 20.1562 5.78178 20.1562 9.06949V103.926C20.1562 106.054 21.2751 107.915 22.9534 108.968C22.3786 108.052 22.0411 106.972 22.0411 105.811V105.81Z" fill="url(#paint0_linear_3691_33148)"/>
<path d="M115.213 23.1577H38.6133V27.5231H115.213V23.1577ZM115.213 39.8262H38.6133V44.1915H115.213V39.8262ZM115.213 56.4983H38.6133V60.8637H115.213V56.4983ZM115.213 73.1667H38.6133V77.5327H115.213V73.1667Z" fill="white"/>
<path d="M47.7383 59.0767L66.9869 78.3258H47.7383V59.0767Z" fill="url(#paint1_linear_3691_33148)"/>
<path d="M141.371 79.9137V35.625L133.668 27.9209V79.9131H141.371V79.9137Z" fill="#FA7070"/>
<path d="M150.393 83.9195L142.094 142.673C141.679 145.61 139.165 147.793 136.199 147.793H17.6238C14.6576 147.793 12.1438 145.61 11.7289 142.673L0.512697 63.2828C0.00675467 59.6988 2.7879 56.4966 6.40757 56.4966H43.026C45.9922 56.4966 48.5059 58.6796 48.9209 61.6163L50.3908 72.013C50.8057 74.9503 53.3195 77.1333 56.2856 77.1333H144.5C148.118 77.1333 150.9 80.3355 150.394 83.9195H150.393Z" fill="url(#paint2_linear_3691_33148)"/>
<path d="M120.986 121.587H32.8374C32.3542 121.587 31.8877 121.41 31.5252 121.091C31.1627 120.771 30.9292 120.331 30.8683 119.851L29.7654 111.12C29.7304 110.84 29.7552 110.557 29.8381 110.288C29.921 110.018 30.0602 109.77 30.2464 109.559C30.4326 109.348 30.6616 109.179 30.9181 109.063C31.1747 108.947 31.453 108.887 31.7345 108.887H122.089C122.371 108.887 122.649 108.947 122.906 109.063C123.162 109.179 123.391 109.348 123.577 109.559C123.764 109.77 123.903 110.018 123.986 110.288C124.069 110.557 124.093 110.84 124.058 111.12L122.955 119.851C122.895 120.331 122.661 120.771 122.298 121.091C121.936 121.41 121.47 121.587 120.986 121.587Z" fill="#FA7070"/>
</g>
<defs>
<linearGradient id="paint0_linear_3691_33148" x1="80.4022" y1="59.9822" x2="5.11322" y2="-15.3074" gradientUnits="userSpaceOnUse">
<stop stop-color="white"/>
</linearGradient>
<linearGradient id="paint1_linear_3691_33148" x1="60.4557" y1="81.4144" x2="37.1891" y2="58.1484" gradientUnits="userSpaceOnUse">
<stop stop-color="#C2CECE" stop-opacity="0"/>
<stop offset="0.179" stop-color="#AFBCBC" stop-opacity="0.179"/>
<stop offset="1" stop-color="#5B6A6A"/>
</linearGradient>
<linearGradient id="paint2_linear_3691_33148" x1="2.20751" y1="107.851" x2="99.9145" y2="37.5798" gradientUnits="userSpaceOnUse">
<stop offset="0.00923049" stop-color="#FA7070" stop-opacity="0.8"/>
<stop offset="1" stop-color="#FBF2CF"/>
</linearGradient>
<clipPath id="clip0_3691_33148">
<rect width="150" height="150" fill="white" transform="translate(0.453125 0.45459)"/>
</clipPath>
</defs>
</svg>
