<svg width="24" height="24" viewBox="0 0 24 24" fill="none" xmlns="http://www.w3.org/2000/svg">
<path d="M23.492 9.70762L23.4815 9.75799V9.80944C23.4815 9.83895 23.4737 9.86534 23.4617 9.88546C23.451 9.90363 23.4343 9.92124 23.4051 9.93528L23.3358 9.96861L23.2797 10.0212L18.3635 14.6329L18.1648 14.8193L18.2137 15.0874L19.412 21.6547C19.4121 21.6553 19.4122 21.6559 19.4123 21.6566C19.4774 22.0379 19.229 22.3671 18.8913 22.4528H18.891H18.8905H18.89H18.8895H18.889H18.8885H18.888H18.8875H18.8871H18.8866H18.8861H18.8856H18.8851H18.8847H18.8842H18.8837H18.8833H18.8828H18.8823H18.8819H18.8814H18.8809H18.8805H18.88H18.8796H18.8791H18.8787H18.8782H18.8777H18.8773H18.8769H18.8764H18.876H18.8755H18.8751H18.8746H18.8742H18.8738H18.8733H18.8729H18.8724H18.872H18.8716H18.8711H18.8707H18.8703H18.8699H18.8694H18.869H18.8686H18.8682H18.8678H18.8673H18.8669H18.8665H18.8661H18.8657H18.8653H18.8648H18.8644H18.864H18.8636H18.8632H18.8628H18.8624H18.862H18.8616H18.8612H18.8608H18.8604H18.86H18.8596H18.8592H18.8588H18.8584H18.858H18.8576H18.8572H18.8568H18.8564H18.856H18.8557H18.8553H18.8549H18.8545H18.8541H18.8537H18.8533H18.853H18.8526H18.8522H18.8518H18.8514H18.8511H18.8507H18.8503H18.8499H18.8496H18.8492H18.8488H18.8484H18.8481H18.8477H18.8473H18.8469H18.8466H18.8462H18.8458H18.8455H18.8451H18.8447H18.8444H18.844H18.8436H18.8433H18.8429H18.8425H18.8422H18.8418H18.8414H18.8411H18.8407H18.8404H18.84H18.8396H18.8393H18.8389H18.8386H18.8382H18.8379H18.8375H18.8371H18.8368H18.8364H18.8361H18.8357H18.8354H18.835H18.8346H18.8343H18.8339H18.8336H18.8332H18.8329H18.8325H18.8322H18.8318H18.8315H18.8311H18.8308H18.8304H18.83H18.8297H18.8293H18.829H18.8286H18.8283H18.8279H18.8276H18.8272H18.8269H18.8265H18.8262H18.8258H18.8255H18.8251H18.8248H18.8244H18.8241H18.8237H18.8234H18.823H18.8227H18.8223H18.822H18.8216H18.8213H18.8209H18.8206H18.8202H18.8199H18.8195H18.8191H18.8188H18.8184H18.8181H18.8177H18.8174H18.817H18.8167H18.8163H18.816H18.8156H18.8152H18.8149H18.8145H18.8142H18.8138H18.8135H18.8131H18.8127H18.8124H18.812H18.8117H18.8113H18.811H18.8106H18.8102H18.8099H18.8095H18.8091H18.8088H18.8084H18.8081H18.8077H18.8073H18.807H18.8066H18.8062H18.8059H18.8055H18.8051H18.8048H18.8044H18.804H18.8036H18.8033H18.8029H18.8025H18.8022H18.8018H18.8014H18.801H18.8007H18.8003H18.7999H18.7995H18.7991H18.7988H18.7984H18.798H18.7976H18.7972H18.7968H18.7965H18.7961H18.7957H18.7953H18.7949H18.7945H18.7941H18.7937H18.7933H18.793H18.7926H18.7922H18.7918H18.7914H18.791H18.7906H18.7902H18.7898H18.7894H18.789H18.7886H18.7882H18.7878H18.7873H18.7869H18.7865H18.7861H18.7857H18.7853H18.7849H18.7845H18.784H18.7836H18.7832H18.7828H18.7824H18.7819H18.7815H18.7811H18.7807H18.7802H18.7798H18.7794H18.7789H18.7785H18.7781H18.7776H18.7772H18.7768H18.7763H18.7759H18.7754H18.775H18.7746H18.7741H18.7737H18.7732H18.7728H18.7723H18.7719H18.7714H18.7709H18.7705H18.77H18.7696H18.7691H18.7686H18.7682H18.7677H18.7672H18.7668H18.7663H18.7658H18.7653H18.7649H18.7644H18.7639H18.7634H18.7629H18.7624H18.762H18.7615H18.761H18.7605H18.76H18.7595H18.759H18.7585H18.758H18.7575H18.757H18.7565H18.756H18.7555H18.7549H18.7544H18.7539H18.7534H18.7529H18.7523H18.7518H18.7513H18.7508H18.7502H18.7497H18.7492H18.7486H18.7481H18.7476H18.747H18.7465H18.7459H18.7454H18.7448H18.7443H18.7437H18.7432H18.7426H18.7421H18.7415H18.7409H18.7404H18.7398H18.7392H18.7386H18.7381H18.7375H18.7369H18.7363H18.7357H18.7352H18.7346H18.734H18.7334H18.7328H18.7322H18.7316H18.731H18.7304H18.7298H18.7292H18.7286H18.7279H18.7273H18.7267H18.7261H18.7255H18.7248H18.7242H18.7236H18.7229H18.7223H18.7217H18.721H18.7204H18.7197H18.7191H18.7184H18.7178H18.7171H18.7165H18.7158H18.7151H18.7145H18.7138H18.7131H18.7125H18.7118H18.7111H18.7104H18.7097H18.7091H18.7084H18.7077H18.707H18.7063H18.7056C18.5768 22.4528 18.4933 22.4519 18.4289 22.443C18.4236 22.4423 18.419 22.4416 18.415 22.4409L18.399 22.4256L18.3329 22.3919L12.2176 19.279L11.9908 19.1635L11.7639 19.279L5.64865 22.3919L5.63697 22.3978L5.62561 22.4044C5.29315 22.5962 4.86971 22.4918 4.63227 22.1293C4.58701 22.0336 4.57797 21.9302 4.57696 21.7292L5.76781 15.2026L5.81671 14.9346L5.61801 14.7482L0.704304 10.1389C0.431244 9.87459 0.4319 9.51134 0.706272 9.24753L0.765452 9.19062L0.803328 9.11779C0.812135 9.10085 0.821197 9.09032 0.846157 9.07832C0.879038 9.06252 0.949266 9.04123 1.07917 9.04123H1.11275L1.14604 9.03673L7.98076 8.1144L8.24284 8.07903L8.36111 7.8425L11.3471 1.87059C11.5846 1.50818 12.008 1.40382 12.3404 1.59561L12.3567 1.605L12.3736 1.61314C12.4642 1.65667 12.5042 1.68691 12.5285 1.71028C12.5523 1.73316 12.5824 1.76999 12.6263 1.85436L15.7439 7.84957L15.8636 8.0797L16.1206 8.1144L22.9554 9.03673L22.9887 9.04123H23.0222C23.1229 9.04123 23.2565 9.10238 23.3686 9.25505C23.4813 9.40858 23.5177 9.58374 23.492 9.70762Z" fill="#FA7070" stroke="#FA7070"/>
</svg>
