<svg width="17" height="16" viewBox="0 0 17 16" fill="none" xmlns="http://www.w3.org/2000/svg">
<path d="M8.50065 15.1667C4.54732 15.1667 1.33398 11.9533 1.33398 8C1.33398 4.04667 4.54732 0.833336 8.50065 0.833336C12.454 0.833336 15.6673 4.04667 15.6673 8C15.6673 11.9533 12.454 15.1667 8.50065 15.1667ZM8.50065 1.83334C5.10065 1.83334 2.33398 4.6 2.33398 8C2.33398 11.4 5.10065 14.1667 8.50065 14.1667C11.9007 14.1667 14.6673 11.4 14.6673 8C14.6673 4.6 11.9007 1.83334 8.50065 1.83334Z" fill="black" fill-opacity="0.5"/>
<path d="M6.50016 14.5H5.83349C5.56016 14.5 5.33349 14.2733 5.33349 14C5.33349 13.7267 5.54682 13.5067 5.82016 13.5C4.77349 9.92667 4.77349 6.07333 5.82016 2.5C5.54682 2.49333 5.33349 2.27333 5.33349 2C5.33349 1.72667 5.56016 1.5 5.83349 1.5H6.50016C6.66016 1.5 6.81349 1.58 6.90682 1.70667C7.00016 1.84 7.02682 2.00667 6.97349 2.16C5.72016 5.92667 5.72016 10.0733 6.97349 13.8467C7.02682 14 7.00016 14.1667 6.90682 14.3C6.81349 14.42 6.66016 14.5 6.50016 14.5Z" fill="black" fill-opacity="0.5"/>
<path d="M10.4996 14.5C10.4463 14.5 10.3929 14.4933 10.3396 14.4733C10.0796 14.3867 9.93295 14.1 10.0263 13.84C11.2796 10.0733 11.2796 5.92667 10.0263 2.15333C9.93961 1.89333 10.0796 1.60667 10.3396 1.52C10.6063 1.43333 10.8863 1.57333 10.9729 1.83333C12.2996 5.80667 12.2996 10.18 10.9729 14.1467C10.9063 14.3667 10.7063 14.5 10.4996 14.5Z" fill="black" fill-opacity="0.5"/>
<path d="M8.5 11.4667C6.64 11.4667 4.78667 11.2067 3 10.68C2.99333 10.9467 2.77333 11.1667 2.5 11.1667C2.22667 11.1667 2 10.94 2 10.6667V10C2 9.84 2.08 9.68666 2.20667 9.59333C2.34 9.5 2.50667 9.47333 2.66 9.52666C6.42667 10.78 10.58 10.78 14.3467 9.52666C14.5 9.47333 14.6667 9.5 14.8 9.59333C14.9333 9.68666 15.0067 9.84 15.0067 10V10.6667C15.0067 10.94 14.78 11.1667 14.5067 11.1667C14.2333 11.1667 14.0133 10.9533 14.0067 10.68C12.2133 11.2067 10.36 11.4667 8.5 11.4667Z" fill="black" fill-opacity="0.5"/>
<path d="M14.5005 6.5C14.4472 6.5 14.3938 6.49334 14.3405 6.47334C10.5738 5.22 6.42051 5.22 2.65384 6.47334C2.38717 6.56 2.10717 6.42 2.02051 6.16C1.94051 5.89334 2.08051 5.61334 2.34051 5.52667C6.31384 4.2 10.6872 4.2 14.6538 5.52667C14.9138 5.61334 15.0605 5.9 14.9672 6.16C14.9072 6.36667 14.7072 6.5 14.5005 6.5Z" fill="black" fill-opacity="0.5"/>
</svg>
