<svg width="32" height="32" viewBox="0 0 32 32" fill="none" xmlns="http://www.w3.org/2000/svg">
<circle cx="16" cy="16" r="16" fill="#F4F4F4"/>
<path d="M21.3333 19.5156C20.6578 19.5156 20.0533 19.7822 19.5911 20.2L13.2533 16.5111C13.2978 16.3067 13.3333 16.1022 13.3333 15.8889C13.3333 15.6756 13.2978 15.4711 13.2533 15.2667L19.52 11.6133C20 12.0578 20.6311 12.3333 21.3333 12.3333C22.8089 12.3333 24 11.1422 24 9.66667C24 8.19111 22.8089 7 21.3333 7C19.8578 7 18.6667 8.19111 18.6667 9.66667C18.6667 9.88 18.7022 10.0844 18.7467 10.2889L12.48 13.9422C12 13.4978 11.3689 13.2222 10.6667 13.2222C9.19111 13.2222 8 14.4133 8 15.8889C8 17.3644 9.19111 18.5556 10.6667 18.5556C11.3689 18.5556 12 18.28 12.48 17.8356L18.8089 21.5333C18.7644 21.72 18.7378 21.9156 18.7378 22.1111C18.7378 23.5422 19.9022 24.7067 21.3333 24.7067C22.7644 24.7067 23.9289 23.5422 23.9289 22.1111C23.9289 20.68 22.7644 19.5156 21.3333 19.5156ZM21.3333 8.77778C21.8222 8.77778 22.2222 9.17778 22.2222 9.66667C22.2222 10.1556 21.8222 10.5556 21.3333 10.5556C20.8444 10.5556 20.4444 10.1556 20.4444 9.66667C20.4444 9.17778 20.8444 8.77778 21.3333 8.77778ZM10.6667 16.7778C10.1778 16.7778 9.77778 16.3778 9.77778 15.8889C9.77778 15.4 10.1778 15 10.6667 15C11.1556 15 11.5556 15.4 11.5556 15.8889C11.5556 16.3778 11.1556 16.7778 10.6667 16.7778ZM21.3333 23.0178C20.8444 23.0178 20.4444 22.6178 20.4444 22.1289C20.4444 21.64 20.8444 21.24 21.3333 21.24C21.8222 21.24 22.2222 21.64 22.2222 22.1289C22.2222 22.6178 21.8222 23.0178 21.3333 23.0178Z" fill="#FA7070"/>
</svg>
