<svg width="20" height="16" viewBox="0 0 20 16" fill="none" xmlns="http://www.w3.org/2000/svg">
<path fill-rule="evenodd" clip-rule="evenodd" d="M7.62695 0.619604H13.5576C14.2806 0.619604 14.9474 1.00986 15.3014 1.6403L15.7728 2.47977C16.1269 3.11021 16.7936 3.50046 17.5167 3.50046H19.6794C19.8568 3.50046 20.0016 3.6502 20.0016 3.82273V15.0662C20.0016 15.2387 19.8535 15.3885 19.6794 15.3885H0.322266C0.14974 15.3869 0 15.242 0 15.0662V3.82273C0 3.64532 0.144857 3.50046 0.322266 3.50046H1.30452C1.58993 3.50046 1.82129 3.2691 1.82129 2.9837C1.82129 2.6983 2.05265 2.46693 2.33805 2.46693H3.15674C3.44214 2.46693 3.6735 2.6983 3.6735 2.9837C3.6735 3.2691 3.90487 3.50046 4.19027 3.50046H4.91932C5.38908 3.50046 5.8189 3.23621 6.03109 2.8171C6.3341 2.21864 6.6371 1.62056 6.9401 1.02162C7.19401 0.518692 7.05404 0.619604 7.62695 0.619604ZM17.915 4.92462C18.4456 4.92462 18.8753 5.3543 18.8753 5.8849C18.8753 6.4155 18.4456 6.84519 17.915 6.84519C17.3844 6.84519 16.9548 6.4155 16.9548 5.8849C16.9564 5.3543 17.3861 4.92462 17.915 4.92462ZM10.8464 6.04278C12.4528 6.04278 13.7565 7.34649 13.7565 8.95294C13.7565 10.5594 12.4528 11.8631 10.8464 11.8631C9.23991 11.8631 7.9362 10.5594 7.9362 8.95294C7.9362 7.34649 9.23991 6.04278 10.8464 6.04278ZM10.8464 4.14825C13.501 4.14825 15.6527 6.29994 15.6527 8.95456C15.6527 11.6076 13.501 13.7609 10.8464 13.7609C8.19336 13.7609 6.04004 11.6076 6.04004 8.95456C6.04167 6.29994 8.19336 4.14825 10.8464 4.14825Z" fill="#FA7070"/>
</svg>
