<svg width="32" height="32" viewBox="0 0 32 32" fill="none" xmlns="http://www.w3.org/2000/svg">
<circle cx="16" cy="16" r="16" fill="#F4F4F4"/>
<path d="M20.7987 6.66675C18.9427 6.66675 17.1614 7.53075 15.9987 8.89608C14.836 7.53075 13.0547 6.66675 11.1987 6.66675C7.91336 6.66675 5.33203 9.24808 5.33203 12.5334C5.33203 16.5654 8.9587 19.8507 14.452 24.8428L15.9987 26.2401L17.5454 24.8321C23.0387 19.8507 26.6654 16.5654 26.6654 12.5334C26.6654 9.24808 24.084 6.66675 20.7987 6.66675ZM16.1054 23.2534L15.9987 23.3601L15.892 23.2534C10.8147 18.6561 7.46536 15.6161 7.46536 12.5334C7.46536 10.4001 9.06536 8.80008 11.1987 8.80008C12.8414 8.80008 14.4414 9.85608 15.0067 11.3174H17.0014C17.556 9.85608 19.156 8.80008 20.7987 8.80008C22.932 8.80008 24.532 10.4001 24.532 12.5334C24.532 15.6161 21.1827 18.6561 16.1054 23.2534Z" fill="#FA7070"/>
</svg>
