<svg width="24" height="21" viewBox="0 0 24 21" fill="none" xmlns="http://www.w3.org/2000/svg">
<path fill-rule="evenodd" clip-rule="evenodd" d="M6.08692 17.249V10.9372H8.92709C10.1364 11.1504 11.3343 11.8014 12.5387 12.5648H14.7441C15.7435 12.625 16.266 13.6374 15.2959 14.3014C14.5228 14.8695 13.5055 14.8369 12.4541 14.7441C11.7331 14.7083 11.7022 15.6751 12.4541 15.68C12.7161 15.7012 13.001 15.6393 13.2484 15.6393C14.5505 15.6393 15.6296 15.3887 16.2871 14.3568L16.6126 13.5853L19.9004 11.9577C21.5427 11.4173 22.7113 13.1344 21.5003 14.3291C19.2113 16.0019 16.7623 17.444 14.1891 18.6341C12.3776 19.736 10.5661 19.6986 8.75944 18.6341L6.08692 17.249ZM10.2373 2L20.8363 5.19987L19.2428 10.763L18.4974 10.6491L19.6367 6.58008L19.653 6.528C19.7034 6.34239 19.6783 6.14437 19.5832 5.97723C19.488 5.81008 19.3305 5.68742 19.1452 5.63607L18.7871 5.53841V5.52702L17.1009 5.08106L9.99642 2.83822L10.2373 2ZM8.48438 3.12305L19.0898 6.32129L17.4899 11.8844L6.89095 8.6862L8.48438 3.12305ZM12.1774 6.66471C12.3558 6.47481 12.5866 6.34211 12.8405 6.28342C13.0944 6.22474 13.36 6.24271 13.6036 6.33505C13.8473 6.42739 14.0581 6.58996 14.2093 6.80216C14.3606 7.01437 14.4454 7.26668 14.4532 7.52715C14.4609 7.78761 14.3912 8.04452 14.2529 8.26535C14.1146 8.48618 13.9138 8.661 13.6761 8.76767C13.4383 8.87435 13.1743 8.90808 12.9173 8.86461C12.6604 8.82113 12.4222 8.7024 12.2327 8.52344C11.9794 8.28405 11.8313 7.95395 11.8209 7.60552C11.8105 7.25709 11.9387 6.91876 12.1774 6.66471ZM10.0306 4.48047L17.044 6.65495C16.9819 6.87206 17.0082 7.10488 17.117 7.30273C17.2258 7.50057 17.4084 7.6474 17.625 7.71126L17.0033 9.91179C16.8953 9.88098 16.7824 9.87174 16.6709 9.8846C16.5593 9.89746 16.4515 9.93216 16.3534 9.98672C16.2553 10.0413 16.1689 10.1146 16.0992 10.2026C16.0294 10.2906 15.9777 10.3914 15.9469 10.4994L8.93197 8.32487C8.99386 8.10732 8.96715 7.87412 8.85767 7.6762C8.74819 7.47829 8.56484 7.33173 8.34766 7.26856L8.97591 5.06803C9.08396 5.09909 9.19707 5.10851 9.30876 5.09577C9.42046 5.08304 9.52854 5.04838 9.62682 4.9938C9.7251 4.93922 9.81164 4.86578 9.88149 4.77769C9.95133 4.68961 10.0031 4.5886 10.0339 4.48047H10.0306ZM2 10.3366H5.23242V17.8838H2V10.3366Z" fill="black" fill-opacity="0.35"/>
</svg>
