<svg width="16" height="16" viewBox="0 0 16 16" fill="none" xmlns="http://www.w3.org/2000/svg">
<path d="M5.52856 2.52353L6.37967 2.7802L6.35198 2.96302L5.94615 2.84764C5.93954 2.87087 5.92842 2.89257 5.91341 2.9115L6.2991 3.21733L5.91341 2.9115C5.8984 2.93042 5.87981 2.9462 5.85869 2.95793C5.83758 2.96966 5.81435 2.9771 5.79035 2.97984C5.76636 2.98258 5.74205 2.98055 5.71884 2.97388L5.42386 2.8891L5.52856 2.52353ZM4.52918 6.0127L4.64467 5.60948L4.93847 5.69494C4.98537 5.70859 5.02497 5.74024 5.04861 5.78298C5.07226 5.82573 5.07803 5.87609 5.06466 5.92308L4.99884 6.15442L4.52918 6.0127ZM12.0514 8.28254L11.5803 8.14039L11.6384 7.93648C11.645 7.91328 11.6561 7.89161 11.6711 7.87271L11.2793 7.56208L11.6711 7.87271C11.6861 7.85381 11.7047 7.83805 11.7257 7.82633L11.4827 7.38938L11.7257 7.82633C11.7468 7.81461 11.77 7.80715 11.794 7.80439C11.8179 7.80162 11.8422 7.80361 11.8654 7.81023L12.1628 7.89513L12.0514 8.28254ZM12.5159 4.86129L12.5766 4.64897L13.0549 4.79322L12.9441 5.17867L12.6414 5.08943C12.5946 5.07563 12.5552 5.04392 12.5317 5.0012C12.5082 4.95847 12.5025 4.90818 12.5159 4.86129ZM8.16333 9.87415L8.28589 9.95183H8.43099H10.1784C10.4162 9.97025 10.5192 10.0912 10.5411 10.1473C10.5507 10.1719 10.5526 10.1964 10.5401 10.2293C10.5262 10.2659 10.4829 10.3405 10.3543 10.4286L10.3474 10.4333L10.3407 10.4382C9.89444 10.7661 9.27134 10.7735 8.40723 10.6973L8.39767 10.6964L8.38808 10.6959C8.12729 10.683 7.88076 10.7614 7.69566 10.9328C7.51541 11.0996 7.42508 11.3263 7.42146 11.5493C7.41782 11.773 7.50108 12.0027 7.67641 12.1765C7.85114 12.3497 8.08663 12.4379 8.34091 12.4437C8.48709 12.4537 8.62768 12.4418 8.73269 12.4318C8.75463 12.4298 8.77496 12.4278 8.79394 12.4259C8.88306 12.4172 8.9424 12.4115 8.9987 12.4115C10.0865 12.4115 11.1822 12.2042 11.8514 11.1541L11.874 11.1186L11.8904 11.0798L12.0785 10.6339L14.5077 9.43128C14.9496 9.29815 15.2618 9.46717 15.4022 9.67456C15.5354 9.87123 15.5669 10.1762 15.2729 10.4832C13.4776 11.7919 11.5579 12.9208 9.54141 13.8535L9.51568 13.8654L9.49147 13.8801C8.83446 14.2797 8.19961 14.4604 7.58055 14.4572C6.96022 14.454 6.32234 14.2659 5.66137 13.8765L5.64968 13.8696L5.63763 13.8634L3.76953 12.8952V8.64974H5.49654C6.3469 8.80963 7.22093 9.27687 8.16333 9.87415ZM8.50632 5.07414C8.58131 4.99433 8.6783 4.93856 8.785 4.91389C8.8917 4.88923 9.00332 4.89678 9.10573 4.93559C9.20814 4.9744 9.29673 5.04272 9.36028 5.13191C9.42384 5.22109 9.45951 5.32713 9.46277 5.4366C9.46603 5.54606 9.43673 5.65403 9.37859 5.74684C9.32045 5.83965 9.23609 5.91312 9.13617 5.95796C9.03625 6.00279 8.92528 6.01697 8.8173 5.99869C8.70932 5.98042 8.60919 5.93052 8.52958 5.85531C8.42309 5.7547 8.36085 5.61597 8.35649 5.46953C8.35213 5.3231 8.40601 5.18091 8.50632 5.07414ZM0.5 8.16927H2.08594V13.207H0.5V8.16927Z" stroke="black" stroke-opacity="0.5"/>
</svg>
