<svg width="14" height="14" viewBox="0 0 14 14" fill="none" xmlns="http://www.w3.org/2000/svg">
<g clip-path="url(#clip0_3689_23216)">
<path d="M4.24093 6.90102C4.18395 6.91697 4.1181 6.91355 4.06112 6.88621C3.82306 6.77455 3.63059 6.69708 3.43178 6.68683C3.23424 6.67657 3.0253 6.73012 2.74799 6.88051C2.69227 6.91127 2.62769 6.91811 2.56818 6.90444C2.50866 6.89077 2.45548 6.85773 2.42129 6.80759C2.3871 6.75746 2.3795 6.69936 2.3947 6.64581C2.40989 6.59226 2.44661 6.54441 2.50233 6.51365C2.65302 6.43162 2.8037 6.37465 2.95439 6.33705C3.10508 6.3006 3.25577 6.28465 3.40772 6.28806C3.55588 6.29148 3.70276 6.31313 3.84839 6.34959C3.99274 6.38718 4.1371 6.44073 4.27892 6.50795C4.33717 6.5353 4.37769 6.58087 4.39542 6.63328C4.41315 6.68455 4.40935 6.74379 4.37896 6.79506C4.34983 6.84861 4.29918 6.88507 4.24093 6.90102ZM11.1472 1.44252C11.4638 1.1406 11.7272 0.89337 12.2616 0.837543C12.5705 0.805642 12.8719 0.861469 13.1353 0.979959C13.362 1.0825 13.5608 1.23175 13.7102 1.4129C13.8609 1.59519 13.9609 1.81053 13.99 2.04067C14.0204 2.27423 13.9761 2.52374 13.8381 2.77097C13.7596 2.91111 13.6443 3.0615 13.5063 3.21531C13.3708 3.36684 13.2125 3.52293 13.0467 3.67674C12.8187 3.88865 12.5769 4.09715 12.3603 4.28399C12.2337 4.39337 12.1147 4.49591 12.0146 4.58478L11.2587 5.25925L11.1523 5.35496L11.0447 5.26153L10.4204 4.72036C10.3064 4.62123 10.1735 4.513 10.0367 4.40021C9.29213 3.78953 8.39433 3.05353 8.35761 2.14093C8.35635 2.11814 8.35635 2.09536 8.35635 2.07143C8.36141 1.70571 8.52476 1.40265 8.77928 1.18959C9.03127 0.97768 9.37444 0.853494 9.74419 0.842101C9.76952 0.840961 9.79611 0.840961 9.82397 0.840961C10.4685 0.848937 10.7635 1.10301 11.1472 1.44252ZM5.04249 12.8528C5.04376 12.9121 5.04376 12.9725 5.04122 13.0317C5.03869 13.1035 5.03363 13.1753 5.02603 13.2459C5.0159 13.3428 5.0007 13.4396 4.98171 13.5353C4.96271 13.631 4.93865 13.7256 4.9108 13.819C4.8918 13.8839 4.84495 13.9363 4.78417 13.9671C4.72465 13.9979 4.65121 14.0093 4.57903 13.9922C4.50685 13.9751 4.44987 13.9329 4.41441 13.8794C4.38022 13.8258 4.36756 13.7597 4.38656 13.6948V13.6925C4.41062 13.6105 4.43214 13.5285 4.4486 13.4476C4.46507 13.3655 4.47899 13.2835 4.48659 13.2015C4.49166 13.1582 4.49419 13.1149 4.49672 13.0705L4.49926 12.9998C4.38276 13.0283 4.26626 13.0534 4.15229 13.0773C4.01047 13.1058 3.86991 13.132 3.73316 13.1536C3.45077 13.1992 3.17852 13.2265 2.924 13.2334C2.67834 13.2402 2.44915 13.2265 2.24401 13.1924C2.08066 13.165 1.93124 13.1229 1.79954 13.0659C1.67038 13.0101 1.55895 12.9406 1.46525 12.8563C1.36268 12.7617 1.28417 12.6523 1.23605 12.5247C1.1892 12.4039 1.1702 12.2672 1.1816 12.1146C1.1892 12.0075 1.21326 11.8913 1.25251 11.7671C1.2905 11.6509 1.34242 11.5278 1.4108 11.3979C1.3956 11.3318 1.38167 11.2646 1.36901 11.1963C1.35508 11.1245 1.34242 11.0493 1.33229 10.9718C1.31962 10.8841 1.30949 10.7986 1.30063 10.7132C1.29303 10.6289 1.2867 10.5412 1.2829 10.4511C1.2829 10.4432 1.2791 10.4306 1.2791 10.4215C1.26264 10.2632 1.25251 10.1059 1.24745 9.94871C1.24111 9.79262 1.23858 9.63653 1.23732 9.47817L1.23985 9.43715C1.07017 9.42804 0.890354 9.42348 0.723205 9.40981C0.651027 9.40753 0.581382 9.39614 0.518068 9.37905C0.450955 9.36082 0.388907 9.33461 0.331925 9.30157C0.278741 9.26967 0.229356 9.23207 0.187569 9.18878C0.145781 9.14549 0.110325 9.09763 0.081201 9.04409C0.0533428 8.99282 0.031816 8.93813 0.017887 8.87888C0.00522415 8.82306 -0.00110726 8.76267 0.000159026 8.70001C0.00269159 8.61 0.0204195 8.5143 0.0571417 8.41518C0.0913313 8.3229 0.141982 8.22833 0.209095 8.13377L0.787786 7.06964C0.929609 6.80987 0.999255 6.6629 1.03091 6.54897C1.06257 6.43731 1.05877 6.353 1.05244 6.2197V6.21856C1.04737 6.09552 1.03978 5.93601 1.04864 5.69903C1.0537 5.55548 1.0651 5.41648 1.0841 5.28318C1.10309 5.14874 1.12842 5.01658 1.16387 4.8867C1.1892 4.79441 1.21832 4.70327 1.25251 4.6144C1.28037 4.54034 1.31203 4.4697 1.34622 4.40021L0.325593 3.99916C0.257214 3.97182 0.207829 3.92283 0.182503 3.86472C0.157178 3.80662 0.157178 3.74054 0.186302 3.67901L0.200231 3.65509C0.205297 3.64825 0.210362 3.64028 0.215427 3.63344L0.216693 3.6323C1.40193 2.17853 2.65935 1.21922 3.91043 0.652973C5.32994 0.0103951 6.74057 -0.124045 8.02711 0.10382C8.08283 0.114073 8.13981 0.124327 8.19806 0.13686C8.25251 0.148253 8.30949 0.160786 8.36901 0.174458C8.39307 0.180154 8.40826 0.198383 8.40826 0.22003V0.626769C8.40826 0.652973 8.38547 0.673481 8.35635 0.673481C8.32469 0.673481 8.17653 0.632465 8.13348 0.623351C8.06257 0.60854 7.99292 0.594868 7.92328 0.582335C6.76716 0.377257 5.49708 0.495747 4.21181 1.06313C3.08355 1.56101 1.94263 2.40411 0.853632 3.67674C1.174 3.80206 1.55642 3.9308 1.86033 4.07436C2.17056 4.17348 2.53779 4.1655 2.9316 4.10512C3.33301 4.0436 3.75848 3.92625 4.17509 3.81231C4.48026 3.72801 4.78164 3.64597 5.06908 3.58559C5.35779 3.52407 5.63511 3.48419 5.89596 3.48533C5.91369 3.48419 5.93142 3.48419 5.94915 3.48647C5.96687 3.48875 5.98334 3.49217 6.00106 3.49672C6.07198 3.51723 6.12643 3.5628 6.15808 3.61863C6.18974 3.67446 6.19734 3.74054 6.17328 3.80434C6.03652 4.1769 5.97574 4.50047 5.97827 4.78188C5.9808 5.06215 6.04538 5.30255 6.15935 5.51219C6.27458 5.7241 6.44426 5.90867 6.6532 6.07501C6.8634 6.24249 7.11539 6.3906 7.39397 6.52846C7.45982 6.56036 7.50414 6.61391 7.5244 6.67315C7.54339 6.7324 7.53833 6.79962 7.50287 6.85772C7.46742 6.91697 7.4079 6.95685 7.34206 6.97508C7.27621 6.99217 7.2015 6.98761 7.13692 6.95571C6.81402 6.79734 6.52277 6.62302 6.27458 6.4225C6.02512 6.22084 5.82125 5.99298 5.67563 5.72752C5.5452 5.4894 5.46416 5.22394 5.44263 4.92543C5.42237 4.6463 5.4553 4.33868 5.549 3.99689C5.37805 4.01967 5.19571 4.05727 5.0083 4.1017C4.78923 4.15411 4.56257 4.21564 4.33337 4.2783C3.9041 4.39565 3.46597 4.51642 3.0405 4.58364C2.62643 4.64972 2.22375 4.66453 1.85146 4.58022C1.8198 4.6406 1.79195 4.70213 1.76662 4.76593C1.73623 4.84226 1.7109 4.92088 1.68938 5.00177C1.66025 5.11114 1.63746 5.22735 1.621 5.34698C1.60454 5.46775 1.59441 5.5908 1.58934 5.71498C1.58174 5.93259 1.58808 6.08299 1.59314 6.1992V6.20375C1.60074 6.38377 1.6058 6.4977 1.56528 6.64695C1.52603 6.79392 1.44119 6.97394 1.27277 7.28497L0.681418 8.37302L0.670022 8.39125C0.626968 8.45164 0.595311 8.50746 0.573784 8.56101C0.552257 8.6157 0.540861 8.66697 0.539595 8.71254C0.539595 8.73533 0.540861 8.75698 0.545926 8.77748C0.549725 8.79799 0.557323 8.81622 0.566187 8.83103C0.573784 8.8447 0.582648 8.8561 0.592778 8.86749L0.595311 8.86977C0.605441 8.87888 0.616838 8.888 0.629501 8.89597C0.644696 8.90509 0.662424 8.91306 0.681418 8.91762C0.701679 8.92332 0.723205 8.92674 0.744732 8.92674C0.958734 8.9256 1.21199 8.95066 1.42979 8.96206C1.43992 8.95978 1.45005 8.9575 1.46018 8.95522C1.47284 8.95294 1.48677 8.9518 1.50197 8.9518C1.70204 8.9518 1.9477 8.98256 2.1503 8.99965C2.22375 9.00535 2.28833 9.03725 2.33265 9.0851C2.37697 9.13295 2.40229 9.19562 2.39596 9.26284C2.38963 9.33006 2.35418 9.38816 2.30099 9.42918C2.24781 9.46905 2.17816 9.49184 2.10345 9.48614C1.99708 9.47817 1.88818 9.47475 1.78182 9.46905V9.47817C1.78435 9.61831 1.78561 9.75844 1.79068 9.89858C1.79448 10.0273 1.80208 10.1583 1.81347 10.2905C1.88438 10.3201 1.9553 10.3441 2.02494 10.3623C2.10219 10.3828 2.17816 10.3976 2.25287 10.4033C2.33771 10.4113 2.42129 10.409 2.5036 10.3976C2.5859 10.3862 2.66695 10.3646 2.74799 10.3327C2.81637 10.3053 2.88981 10.3065 2.95439 10.3281C3.01897 10.3509 3.07469 10.3953 3.10381 10.4568L3.10508 10.458C3.1342 10.5195 3.1342 10.5856 3.10888 10.6426C3.08355 10.7007 3.03417 10.7508 2.96579 10.777H2.96452C2.84169 10.826 2.71633 10.859 2.58844 10.8773C2.46054 10.8955 2.33138 10.8978 2.19969 10.8864C2.13131 10.8807 2.06166 10.8704 1.99329 10.8556C1.95023 10.8465 1.90591 10.8362 1.86286 10.8248L1.87425 10.9114C1.88565 10.9855 1.89831 11.0618 1.91351 11.1416C1.9287 11.2191 1.94643 11.2977 1.96543 11.3774L1.96669 11.3808C1.97302 11.4116 1.97429 11.4412 1.96796 11.4697C1.96289 11.4993 1.95023 11.5289 1.9325 11.554C1.86919 11.6702 1.8198 11.7773 1.78688 11.8742C1.75269 11.9744 1.73243 12.0644 1.72737 12.1453C1.72103 12.2262 1.7299 12.2969 1.75269 12.3572C1.77422 12.4188 1.81094 12.4712 1.85779 12.5145C1.90971 12.5612 1.97556 12.6011 2.05533 12.6341C2.14017 12.6683 2.23894 12.6956 2.35038 12.7138C2.52259 12.7435 2.7176 12.7537 2.93033 12.7469C3.1532 12.74 3.39379 12.7161 3.64452 12.6751C3.89144 12.6352 4.15483 12.5828 4.41948 12.5167C4.65881 12.4575 4.8994 12.388 5.13113 12.3071C5.33627 12.2353 5.53254 12.1556 5.71488 12.0667C5.88203 11.9847 6.03525 11.897 6.16821 11.8012C6.29991 11.7067 6.39741 11.5802 6.47465 11.4435L6.47719 11.4401C6.55443 11.3034 6.61268 11.1553 6.66586 11.0185L6.71905 10.8818L6.7507 10.8032C6.81782 10.6369 6.91025 10.409 7.02295 10.1959C7.13818 9.97833 7.27621 9.77553 7.43449 9.6673C7.49401 9.62628 7.56492 9.61033 7.6333 9.6183C7.70168 9.62628 7.76753 9.65818 7.81311 9.71059C7.8587 9.76414 7.87643 9.82794 7.86756 9.88946C7.8587 9.95099 7.82324 10.0102 7.76499 10.0512C7.67255 10.115 7.57632 10.2711 7.48768 10.4455C7.39651 10.6255 7.31673 10.8248 7.25721 10.9707C7.22809 11.0379 7.20023 11.1108 7.17364 11.178C7.10906 11.3432 7.03941 11.5233 6.93685 11.6964C6.83301 11.8719 6.69752 12.0405 6.50378 12.1806C6.34929 12.2923 6.17328 12.3937 5.98207 12.4883C5.77693 12.5885 5.55533 12.6785 5.32614 12.7594C5.27549 12.7765 5.22357 12.7947 5.17038 12.8118L5.04249 12.8528ZM13.505 5.97475C13.5329 6.94887 13.2733 7.93666 12.6541 8.84698C12.0957 9.66957 11.2435 10.4295 10.0481 11.0595C10.0316 11.0675 10.0152 11.0755 9.99745 11.0801L9.98985 11.0823C9.99112 11.2236 9.99618 11.3649 10.0063 11.505C10.0164 11.6543 10.0316 11.8035 10.0519 11.9505C10.0912 12.2365 10.1469 12.5133 10.2203 12.7811C10.2938 13.0488 10.3837 13.3086 10.4888 13.5604C10.5154 13.623 10.5103 13.6902 10.4824 13.7461C10.4533 13.803 10.4014 13.8497 10.3317 13.8737C10.2621 13.8976 10.1874 13.893 10.1253 13.868C10.062 13.8418 10.0101 13.7951 9.98352 13.7324C9.87082 13.4624 9.77331 13.1832 9.69481 12.8961C9.6163 12.609 9.55551 12.3128 9.51373 12.0097C9.47321 11.7067 9.45041 11.3945 9.44788 11.0698C9.44535 10.7462 9.46434 10.4136 9.5036 10.0706C9.51119 10.0034 9.54792 9.94643 9.60237 9.90655C9.65555 9.86782 9.72646 9.84617 9.80117 9.85301H9.80244C9.87588 9.85984 9.9392 9.89288 9.98225 9.94073C10.0253 9.98858 10.0494 10.0524 10.0418 10.1196C10.0329 10.1994 10.024 10.2803 10.0177 10.3623L10.0063 10.5127C11.0168 9.94073 11.7411 9.26739 12.2198 8.54506C12.763 7.72589 12.9897 6.84177 12.9631 5.97133C12.9618 5.94513 12.9846 5.92348 13.0137 5.92348H13.4531C13.4823 5.92348 13.505 5.94513 13.505 5.97019V5.97475ZM8.72483 7.5379C8.73876 7.60398 8.72104 7.66892 8.68178 7.72019C8.64253 7.77146 8.58174 7.80906 8.5083 7.82159C8.43486 7.83413 8.36268 7.81817 8.3057 7.78286C8.24871 7.74754 8.20693 7.69285 8.193 7.62677C8.17907 7.55841 8.174 7.49119 8.17653 7.42739C8.17907 7.36017 8.19173 7.29523 8.21072 7.2337C8.23732 7.14939 8.27784 7.07078 8.32849 7.00014C8.38167 6.92722 8.44625 6.86114 8.52096 6.80418C8.59188 6.75063 8.67165 6.70392 8.75649 6.6686C8.84133 6.63328 8.93124 6.60593 9.02494 6.59112C9.10472 6.57859 9.18703 6.57289 9.26933 6.57631C9.34911 6.57973 9.43015 6.59112 9.50866 6.61049C9.7252 6.66518 9.88221 6.74379 9.98858 6.8395C10.0987 6.93862 10.157 7.05483 10.1773 7.18699C10.195 7.29978 10.1798 7.41599 10.1431 7.53562C10.1076 7.65297 10.0519 7.7726 9.98732 7.89451C9.9316 8.00047 9.79484 8.25567 9.6201 8.54734C9.44408 8.83901 9.22881 9.16599 9.01481 9.41551C8.70584 9.77439 8.3956 10.0182 8.14361 9.98061C7.88782 9.94301 7.70421 9.62514 7.65863 8.86407V8.86293C7.65483 8.79571 7.68142 8.73419 7.72827 8.68862L7.73207 8.6852C7.77766 8.64077 7.8435 8.61228 7.91568 8.60886H7.92075C7.99292 8.60659 8.06004 8.63051 8.11069 8.67153C8.16261 8.71254 8.19553 8.77293 8.19933 8.83901V8.84243C8.21706 9.13637 8.26897 9.26398 8.33735 9.28676C8.39813 9.30727 8.49057 9.23207 8.58934 9.11814C8.78561 8.89028 8.98569 8.5838 9.15157 8.30808C9.31745 8.03237 9.44661 7.78741 9.50106 7.68601C9.54792 7.59715 9.58844 7.51284 9.61503 7.43764C9.64036 7.36586 9.65302 7.30206 9.64415 7.25193C9.63909 7.22117 9.62009 7.19155 9.58084 7.1642C9.53525 7.1323 9.46561 7.10268 9.36431 7.07761C9.32505 7.06736 9.28453 7.06166 9.24528 7.06052C9.20475 7.05939 9.16297 7.06166 9.12371 7.0685C9.07686 7.07648 9.03127 7.08901 8.98822 7.10724C8.94643 7.12547 8.90591 7.14825 8.87046 7.1756C8.83627 7.2018 8.80714 7.23142 8.78308 7.26332C8.76029 7.29409 8.74256 7.32827 8.73117 7.36472C8.7223 7.39207 8.71724 7.42055 8.71597 7.45017C8.71724 7.47752 8.7185 7.50714 8.72483 7.5379Z" fill="black" fill-opacity="0.35"/>
</g>
<defs>
<clipPath id="clip0_3689_23216">
<rect width="14" height="14" fill="white"/>
</clipPath>
</defs>
</svg>
