<svg width="24" height="24" viewBox="0 0 24 24" fill="none" xmlns="http://www.w3.org/2000/svg">
<path d="M10.0693 2.82003L3.13929 8.37002C2.35929 8.99002 1.85929 10.3 2.02929 11.28L3.35929 19.24C3.59929 20.66 4.95928 21.81 6.39928 21.81H17.5993C19.0293 21.81 20.3993 20.65 20.6393 19.24L21.9693 11.28C22.1293 10.3 21.6293 8.99002 20.8593 8.37002L13.9293 2.83004C12.8593 1.97004 11.1293 1.97003 10.0693 2.82003Z" stroke="black" stroke-opacity="0.35" stroke-width="1.5" stroke-linecap="round" stroke-linejoin="round"/>
<path d="M12 15.5C13.3807 15.5 14.5 14.3807 14.5 13C14.5 11.6193 13.3807 10.5 12 10.5C10.6193 10.5 9.5 11.6193 9.5 13C9.5 14.3807 10.6193 15.5 12 15.5Z" stroke="black" stroke-opacity="0.35" stroke-width="1.5" stroke-linecap="round" stroke-linejoin="round"/>
</svg>
