<svg width="24" height="25" viewBox="0 0 24 25" fill="none" xmlns="http://www.w3.org/2000/svg">
<path d="M10.0693 3.32009L3.13929 8.87009C2.35929 9.49009 1.85929 10.8001 2.02929 11.7801L3.35929 19.7401C3.59929 21.1601 4.95929 22.3101 6.39929 22.3101H17.5993C19.0293 22.3101 20.3993 21.1501 20.6393 19.7401L21.9693 11.7801C22.1293 10.8001 21.6293 9.49009 20.8593 8.87009L13.9293 3.33009C12.8593 2.47009 11.1293 2.47009 10.0693 3.32009V3.32009Z" stroke="white" stroke-width="1.5" stroke-linecap="round" stroke-linejoin="round"/>
<path d="M12 16C12.663 16 13.2989 15.7366 13.7678 15.2678C14.2366 14.7989 14.5 14.163 14.5 13.5C14.5 12.837 14.2366 12.2011 13.7678 11.7322C13.2989 11.2634 12.663 11 12 11C11.337 11 10.7011 11.2634 10.2322 11.7322C9.76339 12.2011 9.5 12.837 9.5 13.5C9.5 14.163 9.76339 14.7989 10.2322 15.2678C10.7011 15.7366 11.337 16 12 16Z" stroke="white" stroke-width="1.5" stroke-linecap="round" stroke-linejoin="round"/>
</svg>
