<svg width="24" height="24" viewBox="0 0 24 24" fill="none" xmlns="http://www.w3.org/2000/svg">
<path fill-rule="evenodd" clip-rule="evenodd" d="M14.8662 15.6557C14.1379 16.4592 13.2982 17.1542 12.3727 17.7195C12.3153 17.7624 12.2462 17.7867 12.1746 17.789C12.103 17.7913 12.0324 17.7716 11.9723 17.7326C10.6547 16.8997 9.4848 15.8535 8.51042 14.6369C7.23763 13.0516 6.44173 11.2938 6.16992 9.60105C5.89323 7.88393 6.15202 6.23191 7.00651 4.88914C7.35489 4.34621 7.79106 3.86494 8.2972 3.46498C9.50326 2.49819 10.8786 1.99037 12.2539 2.00014C13.6495 2.02369 14.9855 2.57027 15.9974 3.53171C16.387 3.88873 16.724 4.29917 16.9984 4.75079C17.9163 6.26446 18.1149 8.1948 17.7113 10.1512C17.2641 12.2049 16.2801 14.1032 14.8597 15.6525L14.8662 15.6557ZM6.12109 14.2381C6.20031 14.2339 6.27955 14.2459 6.35399 14.2733C6.42842 14.3008 6.49649 14.3431 6.55404 14.3977C6.6116 14.4523 6.65743 14.518 6.68876 14.5909C6.72008 14.6638 6.73623 14.7423 6.73623 14.8216C6.73623 14.9009 6.72008 14.9794 6.68876 15.0523C6.65743 15.1252 6.6116 15.1909 6.55404 15.2455C6.49649 15.3001 6.42842 15.3424 6.35399 15.3698C6.27955 15.3973 6.20031 15.4093 6.12109 15.4051H5.02409L3.5804 20.0665H20.3789L18.8115 15.4002H17.9049C17.8257 15.4044 17.7465 15.3924 17.6721 15.365C17.5976 15.3375 17.5296 15.2952 17.472 15.2406C17.4144 15.186 17.3686 15.1203 17.3373 15.0474C17.306 14.9745 17.2898 14.896 17.2898 14.8167C17.2898 14.7374 17.306 14.6589 17.3373 14.586C17.3686 14.5131 17.4144 14.4474 17.472 14.3928C17.5296 14.3382 17.5976 14.2959 17.6721 14.2684C17.7465 14.241 17.8257 14.229 17.9049 14.2332H19.6465L22 21.2319H2L4.16797 14.2332L6.12109 14.2381ZM11.9902 4.7573L8.52507 8.04506L9.33887 8.47475L11.9674 5.83477L14.6351 8.47475L15.4489 8.04506L11.9902 4.7573ZM9.63184 8.9435L11.9935 6.58184L14.3486 8.9435V11.2612H12.6283V9.6336H11.3376V11.2612H9.63184V8.9435Z" fill="black" fill-opacity="0.35"/>
</svg>
