<svg width="24" height="24" viewBox="0 0 24 24" fill="none" xmlns="http://www.w3.org/2000/svg">
<path d="M20.8593 8.37009L13.9293 2.83009C12.8593 1.97009 11.1293 1.97009 10.0693 2.82009L3.13929 8.37009C2.35929 8.99009 1.85929 10.3001 2.02929 11.2801L3.35929 19.2401C3.59929 20.6601 4.95929 21.8101 6.39929 21.8101H17.5993C19.0293 21.8101 20.3993 20.6501 20.6393 19.2401L21.9693 11.2801C22.1293 10.3001 21.6293 8.99009 20.8593 8.37009ZM11.9993 15.5001C10.6193 15.5001 9.49929 14.3801 9.49929 13.0001C9.49929 11.6201 10.6193 10.5001 11.9993 10.5001C13.3793 10.5001 14.4993 11.6201 14.4993 13.0001C14.4993 14.3801 13.3793 15.5001 11.9993 15.5001Z" fill="#FA7070"/>
</svg>
