<svg width="20" height="14" viewBox="0 0 20 14" fill="none" xmlns="http://www.w3.org/2000/svg">
<g clip-path="url(#clip0_2723_27468)">
<path fill-rule="evenodd" clip-rule="evenodd" d="M0.699382 0H19.3005C19.6854 0 20 0.317057 20 0.70459V13.0409H0V0.70459C0 0.317057 0.314453 0 0.699382 0ZM1.85059 1.63949H15.3018V3.6001H1.85059V1.63949ZM13.5788 7.76807H18.1494V8.854H13.5788V7.76807ZM10.0876 7.76807H12.6458V8.854H10.0876V7.76807ZM10.0876 10.2142H18.1494V11.2998H10.0876V10.2142ZM9.89632 5.32243H18.1494V6.4082H9.89632V5.32243ZM1.85059 11.4015V10.2882C2.44629 10.0231 4.27002 9.53174 4.35645 8.80208C4.37565 8.63737 3.9873 7.99756 3.89844 7.69678C3.78662 7.51807 3.7264 7.45459 3.72933 7.23454C3.73079 7.11051 3.73275 6.98877 3.75033 6.86963C3.77327 6.71761 3.76839 6.71257 3.84814 6.59017C3.93115 6.46289 3.89551 5.99772 3.89551 5.82243C3.89551 4.0765 6.95459 4.07617 6.95459 5.82243C6.95459 6.04313 6.90397 6.44873 7.02393 6.62223C7.08219 6.70687 7.07145 6.71663 7.09115 6.81999C7.11702 6.95508 7.11881 7.09375 7.12109 7.23454C7.12402 7.45459 7.0638 7.51807 6.95199 7.69678C6.84342 8.01302 6.43115 8.61068 6.46631 8.78971C6.59733 9.45573 8.28923 9.90332 8.82194 10.1401V11.4015H1.85059ZM16.1263 1.63949H18.1494V3.6001H16.1263V1.63949Z" fill="black" fill-opacity="0.35"/>
</g>
<defs>
<clipPath id="clip0_2723_27468">
<rect width="20" height="13.0409" fill="white"/>
</clipPath>
</defs>
</svg>
