<svg width="24" height="24" viewBox="0 0 24 24" fill="none" xmlns="http://www.w3.org/2000/svg">
<g clip-path="url(#clip0_2628_22740)">
<path d="M12.0075 0.181763C7.07274 0.181763 5.62951 0.186853 5.34897 0.210125C4.33628 0.294305 3.70611 0.453754 3.01959 0.795562C2.49051 1.05828 2.07325 1.36282 1.66145 1.78971C0.911471 2.56824 0.456939 3.52602 0.292399 4.66454C0.212401 5.21725 0.189129 5.32997 0.184402 8.15316C0.182584 9.09422 0.184402 10.3327 0.184402 11.9939C0.184402 16.9247 0.189856 18.3665 0.213492 18.6465C0.295308 19.6319 0.449848 20.2519 0.777111 20.93C1.40255 22.2282 2.59706 23.2027 4.00429 23.5663C4.49154 23.6918 5.02971 23.7609 5.7206 23.7936C6.01332 23.8063 8.99686 23.8154 11.9822 23.8154C14.9676 23.8154 17.953 23.8118 18.2384 23.7972C19.0384 23.7596 19.5029 23.6972 20.0165 23.5645C21.4328 23.1991 22.6055 22.2391 23.2437 20.9228C23.5646 20.261 23.7273 19.6174 23.801 18.6834C23.817 18.4798 23.8237 15.2331 23.8237 11.9909C23.8237 8.74805 23.8164 5.50742 23.8004 5.30379C23.7259 4.35473 23.5631 3.71656 23.2319 3.04204C22.9601 2.48987 22.6583 2.07752 22.2201 1.6559C21.4381 0.909013 20.4818 0.454482 19.3422 0.290123C18.79 0.210307 18.68 0.186672 15.8547 0.181763H12.0075Z" fill="url(#paint0_radial_2628_22740)"/>
<path d="M12.0075 0.181763C7.07274 0.181763 5.62951 0.186853 5.34897 0.210125C4.33628 0.294305 3.70611 0.453754 3.01959 0.795562C2.49051 1.05828 2.07325 1.36282 1.66145 1.78971C0.911471 2.56824 0.456939 3.52602 0.292399 4.66454C0.212401 5.21725 0.189129 5.32997 0.184402 8.15316C0.182584 9.09422 0.184402 10.3327 0.184402 11.9939C0.184402 16.9247 0.189856 18.3665 0.213492 18.6465C0.295308 19.6319 0.449848 20.2519 0.777111 20.93C1.40255 22.2282 2.59706 23.2027 4.00429 23.5663C4.49154 23.6918 5.02971 23.7609 5.7206 23.7936C6.01332 23.8063 8.99686 23.8154 11.9822 23.8154C14.9676 23.8154 17.953 23.8118 18.2384 23.7972C19.0384 23.7596 19.5029 23.6972 20.0165 23.5645C21.4328 23.1991 22.6055 22.2391 23.2437 20.9228C23.5646 20.261 23.7273 19.6174 23.801 18.6834C23.817 18.4798 23.8237 15.2331 23.8237 11.9909C23.8237 8.74805 23.8164 5.50742 23.8004 5.30379C23.7259 4.35473 23.5631 3.71656 23.2319 3.04204C22.9601 2.48987 22.6583 2.07752 22.2201 1.6559C21.4381 0.909013 20.4818 0.454482 19.3422 0.290123C18.79 0.210307 18.68 0.186672 15.8547 0.181763H12.0075Z" fill="url(#paint1_radial_2628_22740)"/>
<path d="M12.0012 3.27258C9.63106 3.27258 9.33362 3.28295 8.40274 3.32531C7.47367 3.36785 6.83951 3.51494 6.28462 3.73075C5.71064 3.95365 5.22374 4.25183 4.73867 4.73708C4.25323 5.22216 3.95505 5.70905 3.73142 6.28286C3.51507 6.83793 3.3678 7.47227 3.32598 8.40097C3.28435 9.33185 3.27344 9.62948 3.27344 11.9996C3.27344 14.3697 3.28398 14.6662 3.32616 15.5971C3.36889 16.5262 3.51598 17.1603 3.73161 17.7152C3.95469 18.2892 4.25286 18.7761 4.73812 19.2612C5.22301 19.7466 5.70991 20.0455 6.28353 20.2684C6.83878 20.4842 7.47313 20.6313 8.40201 20.6739C9.33289 20.7162 9.63015 20.7266 12.0001 20.7266C14.3704 20.7266 14.6669 20.7162 15.5978 20.6739C16.5269 20.6313 17.1617 20.4842 17.717 20.2684C18.2908 20.0455 18.777 19.7466 19.2619 19.2612C19.7473 18.7761 20.0455 18.2892 20.2691 17.7154C20.4836 17.1603 20.6309 16.526 20.6745 15.5973C20.7164 14.6664 20.7273 14.3697 20.7273 11.9996C20.7273 9.62948 20.7164 9.33204 20.6745 8.40116C20.6309 7.47209 20.4836 6.83793 20.2691 6.28304C20.0455 5.70905 19.7473 5.22216 19.2619 4.73708C18.7764 4.25164 18.291 3.95347 17.7165 3.73075C17.1601 3.51494 16.5256 3.36785 15.5965 3.32531C14.6656 3.28295 14.3693 3.27258 11.9984 3.27258H12.0012ZM11.2183 4.84526C11.4506 4.8449 11.7099 4.84526 12.0012 4.84526C14.3313 4.84526 14.6075 4.85363 15.5276 4.89544C16.3785 4.93435 16.8403 5.07653 17.1479 5.19598C17.5552 5.35416 17.8455 5.54324 18.1508 5.84869C18.4563 6.15413 18.6453 6.44503 18.8039 6.85229C18.9233 7.15956 19.0657 7.62136 19.1044 8.47224C19.1462 9.39222 19.1553 9.66857 19.1553 11.9976C19.1553 14.3266 19.1462 14.603 19.1044 15.5229C19.0655 16.3738 18.9233 16.8356 18.8039 17.1429C18.6457 17.5502 18.4563 17.8401 18.1508 18.1454C17.8454 18.4509 17.5554 18.6399 17.1479 18.7981C16.8407 18.9181 16.3785 19.0599 15.5276 19.0988C14.6076 19.1406 14.3313 19.1497 12.0012 19.1497C9.67088 19.1497 9.39471 19.1406 8.47473 19.0988C7.62385 19.0596 7.16205 18.9174 6.85424 18.7979C6.44698 18.6398 6.15608 18.4507 5.85063 18.1452C5.54519 17.8398 5.3561 17.5496 5.19756 17.1422C5.07811 16.8349 4.93575 16.3731 4.89702 15.5222C4.85521 14.6022 4.84684 14.3259 4.84684 11.9954C4.84684 9.66494 4.85521 9.39003 4.89702 8.47006C4.93593 7.61918 5.07811 7.15737 5.19756 6.84975C5.35574 6.44249 5.54519 6.15159 5.85063 5.84614C6.15608 5.5407 6.44698 5.35161 6.85424 5.19307C7.16186 5.07307 7.62385 4.93126 8.47473 4.89217C9.2798 4.85581 9.59179 4.8449 11.2183 4.84308V4.84526ZM16.6596 6.29431C16.0814 6.29431 15.6123 6.76284 15.6123 7.34119C15.6123 7.91935 16.0814 8.38843 16.6596 8.38843C17.2377 8.38843 17.7068 7.91935 17.7068 7.34119C17.7068 6.76302 17.2377 6.29395 16.6596 6.29395V6.29431ZM12.0012 7.51791C9.52616 7.51791 7.51949 9.52458 7.51949 11.9996C7.51949 14.4746 9.52616 16.4804 12.0012 16.4804C14.4762 16.4804 16.4821 14.4746 16.4821 11.9996C16.4821 9.52458 14.476 7.51791 12.001 7.51791H12.0012ZM12.0012 9.09059C13.6077 9.09059 14.9102 10.3929 14.9102 11.9996C14.9102 13.6061 13.6077 14.9086 12.0012 14.9086C10.3945 14.9086 9.09217 13.6061 9.09217 11.9996C9.09217 10.3929 10.3945 9.09059 12.0012 9.09059Z" fill="white"/>
</g>
<rect x="0.5" y="0.5" width="23" height="22.9993" stroke="#EDEDED"/>
<defs>
<radialGradient id="paint0_radial_2628_22740" cx="0" cy="0" r="1" gradientUnits="userSpaceOnUse" gradientTransform="translate(6.46302 25.6357) rotate(-90) scale(23.4227 21.7909)">
<stop stop-color="#FFDD55"/>
<stop offset="0.1" stop-color="#FFDD55"/>
<stop offset="0.5" stop-color="#FF543E"/>
<stop offset="1" stop-color="#C837AB"/>
</radialGradient>
<radialGradient id="paint1_radial_2628_22740" cx="0" cy="0" r="1" gradientUnits="userSpaceOnUse" gradientTransform="translate(-3.77625 1.88429) rotate(78.6776) scale(10.4701 43.1693)">
<stop stop-color="#3771C8"/>
<stop offset="0.128" stop-color="#3771C8"/>
<stop offset="1" stop-color="#6600FF" stop-opacity="0"/>
</radialGradient>
<clipPath id="clip0_2628_22740">
<rect width="24" height="23.9993" fill="white"/>
</clipPath>
</defs>
</svg>
