<svg width="24" height="24" viewBox="0 0 24 24" fill="none" xmlns="http://www.w3.org/2000/svg">
<path fill-rule="evenodd" clip-rule="evenodd" d="M12 4C14.2091 4 16.2094 4.89563 17.6569 6.34313C19.1044 7.79063 20 9.79094 20 12C20 14.2091 19.1044 16.2094 17.6569 17.6569C16.2094 19.1044 14.2091 20 12 20C9.79094 20 7.79063 19.1044 6.34313 17.6569C4.89563 16.2094 4 14.2091 4 12C4 9.79094 4.89563 7.79063 6.34313 6.34313C7.79063 4.89563 9.79094 4 12 4ZM11.6813 9.99625C11.4603 9.99469 11.2716 9.91719 11.1125 9.76C10.9541 9.60344 10.8762 9.41281 10.8762 9.18969C10.8762 8.97063 10.9541 8.78156 11.1125 8.62469C11.2716 8.46781 11.4603 8.38875 11.6813 8.38875C11.8984 8.38875 12.0875 8.46781 12.2463 8.62469C12.4069 8.78156 12.4859 8.97063 12.4859 9.18969C12.4859 9.33719 12.4484 9.47312 12.3747 9.59406C12.3009 9.71687 12.2044 9.815 12.0837 9.88688C11.9628 9.95875 11.8284 9.99469 11.6813 9.99625ZM12.5544 14.6953H13.4653V15.6116H10.5344V14.6953H11.4331V11.8097H10.5344V10.8934H12.5544V14.6953Z" fill="#FA7070"/>
</svg>
