<svg width="24" height="24" viewBox="0 0 24 24" fill="none" xmlns="http://www.w3.org/2000/svg">
<path fill-rule="evenodd" clip-rule="evenodd" d="M12 2C14.7613 2 17.2617 3.11953 19.0711 4.92891C20.8805 6.73828 22 9.23867 22 12C22 14.7613 20.8805 17.2617 19.0711 19.0711C17.2617 20.8805 14.7613 22 12 22C9.23867 22 6.73828 20.8805 4.92891 19.0711C3.11953 17.2617 2 14.7613 2 12C2 9.23867 3.11953 6.73828 4.92891 4.92891C6.73828 3.11953 9.23867 2 12 2ZM11.6016 9.49531C11.3254 9.49336 11.0895 9.39648 10.8906 9.2C10.6926 9.0043 10.5953 8.76602 10.5953 8.48711C10.5953 8.21328 10.6926 7.97695 10.8906 7.78086C11.0895 7.58477 11.3254 7.48594 11.6016 7.48594C11.873 7.48594 12.1094 7.58477 12.3078 7.78086C12.5086 7.97695 12.6074 8.21328 12.6074 8.48711C12.6074 8.67148 12.5605 8.84141 12.4684 8.99258C12.3762 9.14609 12.2555 9.26875 12.1047 9.35859C11.9535 9.44844 11.7855 9.49336 11.6016 9.49531ZM12.693 15.3691H13.8316V16.5145H10.168V15.3691H11.2914V11.7621H10.168V10.6168H12.693V15.3691Z" fill="black" fill-opacity="0.35"/>
<circle cx="19" cy="5" r="3" fill="#FA7070"/>
</svg>
