<svg width="342" height="342" viewBox="0 0 342 342" fill="none" xmlns="http://www.w3.org/2000/svg">
<path d="M342 261.562H0V261.733H342V261.562Z" fill="#EBEBEB"/>
<path d="M307.731 272.567H292.902V272.738H307.731V272.567Z" fill="#EBEBEB"/>
<path d="M235.753 269.024H212.422V269.195H235.753V269.024Z" fill="#EBEBEB"/>
<path d="M301.724 266.22H271.266V266.391H301.724V266.22Z" fill="#EBEBEB"/>
<path d="M118.346 269.667H110.727V269.838H118.346V269.667Z" fill="#EBEBEB"/>
<path d="M104.63 269.667H78.3711V269.838H104.63V269.667Z" fill="#EBEBEB"/>
<path d="M64.3023 266.781H45.3555V266.952H64.3023V266.781Z" fill="#EBEBEB"/>
<path d="M162.109 231.055H30.0355C29.0009 231.053 28.0092 230.641 27.2782 229.909C26.5473 229.177 26.1367 228.184 26.1367 227.15V41.4914C26.1457 40.4627 26.5602 39.4791 27.2902 38.7542C28.0202 38.0293 29.0068 37.6218 30.0355 37.62H162.109C163.145 37.62 164.138 38.0315 164.871 38.7639C165.603 39.4964 166.015 40.4898 166.015 41.5256V227.15C166.015 228.185 165.603 229.179 164.871 229.911C164.138 230.644 163.145 231.055 162.109 231.055ZM30.0355 37.7568C29.0462 37.7586 28.0981 38.1529 27.3992 38.8531C26.7002 39.5532 26.3077 40.5021 26.3077 41.4914V227.15C26.3077 228.139 26.7002 229.088 27.3992 229.788C28.0981 230.488 29.0462 230.882 30.0355 230.884H162.109C163.099 230.882 164.048 230.488 164.748 229.788C165.448 229.088 165.842 228.139 165.844 227.15V41.4914C165.842 40.5015 165.448 39.5526 164.748 38.8526C164.048 38.1527 163.099 37.7586 162.109 37.7568H30.0355Z" fill="#EBEBEB"/>
<path d="M310.064 231.055H177.984C176.948 231.053 175.956 230.641 175.224 229.909C174.492 229.177 174.08 228.185 174.078 227.15V41.4914C174.089 40.4621 174.505 39.4785 175.236 38.7538C175.967 38.0291 176.954 37.6217 177.984 37.62H310.064C311.092 37.6236 312.077 38.0319 312.805 38.7566C313.534 39.4813 313.947 40.4639 313.956 41.4914V227.15C313.956 228.183 313.547 229.174 312.817 229.906C312.088 230.638 311.098 231.052 310.064 231.055ZM177.984 37.7568C176.994 37.7586 176.045 38.1527 175.345 38.8526C174.645 39.5526 174.251 40.5015 174.249 41.4914V227.15C174.251 228.139 174.645 229.088 175.345 229.788C176.045 230.488 176.994 230.882 177.984 230.884H310.064C311.054 230.882 312.003 230.488 312.703 229.788C313.403 229.088 313.797 228.139 313.799 227.15V41.4914C313.797 40.5015 313.403 39.5526 312.703 38.8526C312.003 38.1527 311.054 37.7586 310.064 37.7568H177.984Z" fill="#EBEBEB"/>
<path d="M78.6602 119.447C82.4535 119.447 86.0913 117.94 88.7736 115.258C91.4558 112.576 92.9627 108.938 92.9627 105.144C92.9627 101.351 91.4558 97.7134 88.7736 95.0311C86.0913 92.3489 82.4535 90.842 78.6602 90.842H76.9023V119.447H78.6602Z" fill="#E0E0E0"/>
<path d="M76.8884 119.447C84.7874 119.447 91.1908 113.044 91.1908 105.144C91.1908 97.2455 84.7874 90.842 76.8884 90.842C68.9894 90.842 62.5859 97.2455 62.5859 105.144C62.5859 113.044 68.9894 119.447 76.8884 119.447Z" fill="#F5F5F5"/>
<path d="M76.2301 106.937C71.1507 106.937 66.2793 104.919 62.6876 101.327C59.0959 97.7354 57.0781 92.864 57.0781 87.7846V76.3549C57.0781 75.8778 57.2677 75.4203 57.605 75.0829C57.9424 74.7456 58.3999 74.556 58.877 74.556C59.3542 74.556 59.8117 74.7456 60.1491 75.0829C60.4864 75.4203 60.676 75.8778 60.676 76.3549V87.7914C60.6796 91.9144 62.3185 95.8675 65.2333 98.7835C68.148 101.699 72.1004 103.34 76.2233 103.346C76.4684 103.33 76.714 103.366 76.945 103.449C77.176 103.532 77.3874 103.662 77.5664 103.83C77.7453 103.999 77.8879 104.202 77.9853 104.427C78.0828 104.653 78.1331 104.896 78.1331 105.141C78.1331 105.387 78.0828 105.63 77.9853 105.855C77.8879 106.08 77.7453 106.284 77.5664 106.452C77.3874 106.62 77.176 106.75 76.945 106.833C76.714 106.917 76.4684 106.952 76.2233 106.937H76.2301Z" fill="#E0E0E0"/>
<path d="M42.9751 86.4234H74.7948C75.3036 86.4234 75.8057 86.3067 76.2624 86.0821C76.719 85.8575 77.118 85.5311 77.4286 85.128C77.7392 84.7249 77.9531 84.2559 78.0538 83.7571C78.1545 83.2583 78.1394 82.743 78.0096 82.251L75.2394 71.82C75.0524 71.1113 74.6365 70.4844 74.0563 70.0366C73.4761 69.5888 72.7643 69.3453 72.0314 69.3439H45.7384C45.0047 69.3449 44.2918 69.5882 43.7105 70.0359C43.1292 70.4836 42.712 71.1108 42.5236 71.82L39.7876 82.2373C39.6545 82.7281 39.6359 83.2429 39.7334 83.742C39.8309 84.2411 40.0418 84.7111 40.3499 85.1157C40.658 85.5203 41.055 85.8486 41.5101 86.0754C41.9653 86.3021 42.4666 86.4212 42.9751 86.4234Z" fill="#F5F5F5"/>
<path d="M280.633 119.447C284.426 119.447 288.064 117.94 290.746 115.258C293.428 112.576 294.935 108.938 294.935 105.144C294.935 101.351 293.428 97.7134 290.746 95.0311C288.064 92.3489 284.426 90.842 280.633 90.842H278.875V119.447H280.633Z" fill="#E0E0E0"/>
<path d="M278.873 119.447C286.772 119.447 293.175 113.044 293.175 105.144C293.175 97.2455 286.772 90.842 278.873 90.842C270.974 90.842 264.57 97.2455 264.57 105.144C264.57 113.044 270.974 119.447 278.873 119.447Z" fill="#F5F5F5"/>
<path d="M278.218 106.937C273.139 106.937 268.268 104.919 264.676 101.327C261.084 97.7354 259.066 92.864 259.066 87.7846V76.3549C259.066 75.8778 259.256 75.4203 259.593 75.0829C259.931 74.7456 260.388 74.556 260.865 74.556C261.342 74.556 261.8 74.7456 262.137 75.0829C262.475 75.4203 262.664 75.8778 262.664 76.3549V87.7914C262.668 91.9144 264.307 95.8675 267.222 98.7835C270.136 101.699 274.089 103.34 278.212 103.346C278.457 103.33 278.702 103.366 278.933 103.449C279.164 103.532 279.376 103.662 279.555 103.83C279.734 103.999 279.876 104.202 279.974 104.427C280.071 104.653 280.121 104.896 280.121 105.141C280.121 105.387 280.071 105.63 279.974 105.855C279.876 106.08 279.734 106.284 279.555 106.452C279.376 106.62 279.164 106.75 278.933 106.833C278.702 106.917 278.457 106.952 278.212 106.937H278.218Z" fill="#E0E0E0"/>
<path d="M244.96 86.4233H276.779C277.288 86.4234 277.79 86.3067 278.247 86.0821C278.704 85.8575 279.103 85.5311 279.413 85.128C279.724 84.7249 279.938 84.2559 280.038 83.7571C280.139 83.2583 280.124 82.743 279.994 82.2509L277.258 71.8336C277.071 71.125 276.655 70.498 276.075 70.0502C275.495 69.6024 274.783 69.3589 274.05 69.3575H247.723C246.989 69.3586 246.276 69.6018 245.695 70.0496C245.114 70.4973 244.697 71.1245 244.508 71.8336L241.772 82.2509C241.642 82.7408 241.625 83.2542 241.724 83.7515C241.822 84.2488 242.034 84.717 242.341 85.1199C242.649 85.5228 243.045 85.8498 243.499 86.0757C243.953 86.3017 244.453 86.4206 244.96 86.4233Z" fill="#F5F5F5"/>
<path d="M91.6432 216.048H102.047V175.74H91.6432V216.048Z" fill="#E6E6E6"/>
<path d="M63.4414 216.041H97.9629L103.175 168.866H68.6535L63.4414 216.041Z" fill="#F0F0F0"/>
<path d="M59.6992 216.041H95.363L100.575 168.866H64.9181L59.6992 216.041Z" fill="#F5F5F5"/>
<path d="M92.7833 212.327L97.1745 172.587H67.4889L63.0977 212.327H92.7833Z" fill="white"/>
<path d="M86.6549 202.69L86.867 201.096C87.9682 191.123 81.7438 182.238 73.6589 182.238L73.4742 183.859C72.373 193.825 78.5974 202.71 86.6891 202.71L86.6549 202.69Z" fill="#F5F5F5"/>
<path d="M40.4193 261.562H71.0898V216.041H40.4193L40.4193 261.562Z" fill="#E6E6E6"/>
<path d="M43.495 261.562H40.4102V252.786H46.7303L43.495 261.562Z" fill="#F0F0F0"/>
<path d="M126.376 261.562H157.047V216.041H126.376V261.562Z" fill="#E6E6E6"/>
<path d="M40.4093 256.178H129.062V216.048H40.4093V256.178Z" fill="#F0F0F0"/>
<path d="M125.978 261.562H129.062V252.786H122.742L125.978 261.562Z" fill="#F0F0F0"/>
<path d="M42.8066 234.749H126.672V218.552H42.8066V234.749Z" fill="#E6E6E6"/>
<path d="M79.1463 229.14H90.3297C92.7342 229.141 95.1136 228.651 97.3223 227.701C99.531 226.751 101.523 225.36 103.175 223.613H66.3008C67.9541 225.359 69.9459 226.749 72.1544 227.699C74.363 228.65 76.742 229.14 79.1463 229.14Z" fill="#F0F0F0"/>
<path d="M42.8066 253.559H126.672V237.362H42.8066V253.559Z" fill="#E6E6E6"/>
<path d="M79.1463 247.923H90.3297C92.7342 247.924 95.1136 247.434 97.3223 246.484C99.531 245.533 101.523 244.142 103.175 242.396H66.3008C67.9541 244.141 69.9459 245.532 72.1544 246.482C74.363 247.432 76.742 247.922 79.1463 247.923Z" fill="#F0F0F0"/>
<path d="M123.447 214.188H124.24C124.24 212.553 124.24 208.415 124.322 198.928C124.466 181.725 124.74 180.679 124.74 180.679L122.852 188.62C121.655 197.409 123.201 206.247 123.447 214.188Z" fill="#E6E6E6"/>
<path d="M121.88 187.416C119.144 184.181 113.364 183.237 107.427 182.43C105.095 182.115 113.549 187.443 117.687 191.226C120.902 194.167 122.954 194.981 123.843 197.909C124.295 194.256 124.219 190.227 121.88 187.416Z" fill="#E6E6E6"/>
<path d="M125.486 193.216C128.222 189.981 134.002 189.044 139.939 188.237C142.272 187.922 133.783 193.251 129.679 197.033C126.464 199.974 124.412 200.788 123.523 203.716C123.072 200.063 123.12 196.007 125.486 193.216Z" fill="#E6E6E6"/>
<path d="M124.323 179.892C126.375 176.02 131.478 172.368 137.23 171C139.487 170.46 131.997 178.141 129.152 183.1C126.943 186.944 124.015 191.472 123.557 194.728C122.873 188.312 122.285 183.784 124.323 179.892Z" fill="#E6E6E6"/>
<path d="M124.078 216.041C121.657 216.041 119.653 214.831 119.509 213.271L119.105 210.617H129.058L128.647 213.271C128.51 214.831 126.541 216.041 124.078 216.041Z" fill="#F0F0F0"/>
<path d="M129.7 211.636H118.462L118.141 208.675H130.022L129.7 211.636Z" fill="#F0F0F0"/>
<path d="M115.967 155.076H225.551V55.1235L115.967 55.1235L115.967 155.076Z" fill="#E6E6E6"/>
<path d="M113.504 155.076H224.477V55.1235L113.504 55.1235L113.504 155.076Z" fill="#F5F5F5"/>
<path d="M220.043 150.603V59.6038L117.922 59.6038V150.603H220.043Z" fill="#FAFAFA"/>
<path d="M207.52 150.603L167.328 59.6038H153.676L193.868 150.603H207.52Z" fill="white"/>
<path d="M189.996 150.603L149.804 59.6038H140.406L180.598 150.603H189.996Z" fill="white"/>
<path d="M155.844 150.596V59.5969H150.563V150.596H155.844Z" fill="#E6E6E6"/>
<path d="M190.945 150.596V59.5969H185.665V150.596H190.945Z" fill="#E6E6E6"/>
<path d="M154.891 153.442V56.2727H148.215V153.442H154.891Z" fill="#F5F5F5"/>
<path d="M189.996 153.442V56.2727H183.32V153.442H189.996Z" fill="#F5F5F5"/>
<path d="M118.402 150.603V59.6038H117.93V150.603H118.402Z" fill="#E6E6E6"/>
<path d="M111.641 49.3643H230.356C230.508 49.366 230.653 49.4271 230.76 49.5345C230.868 49.6419 230.929 49.787 230.931 49.9388C230.929 50.09 230.867 50.2344 230.76 50.3407C230.652 50.447 230.507 50.5065 230.356 50.5065H111.641C111.49 50.5065 111.345 50.447 111.237 50.3407C111.13 50.2344 111.068 50.09 111.066 49.9388C111.068 49.787 111.129 49.6419 111.237 49.5345C111.344 49.4271 111.489 49.366 111.641 49.3643Z" fill="#E6E6E6"/>
<path d="M225.55 53.1331C225.754 53.1313 225.949 53.0491 226.092 52.9043C226.236 52.7596 226.316 52.564 226.316 52.3602V50.7049C226.317 50.6037 226.298 50.5034 226.26 50.4097C226.222 50.3159 226.166 50.2307 226.094 50.1588C226.023 50.0869 225.938 50.0299 225.845 49.991C225.752 49.952 225.651 49.932 225.55 49.932C225.346 49.932 225.151 50.0125 225.006 50.156C224.861 50.2994 224.779 50.4943 224.777 50.6981V52.3534C224.777 52.559 224.859 52.7563 225.003 52.9023C225.148 53.0484 225.345 53.1313 225.55 53.1331Z" fill="#E6E6E6"/>
<path d="M120.247 53.1331C120.451 53.1313 120.647 53.0493 120.791 52.9048C120.936 52.7602 121.018 52.5646 121.019 52.3602V50.7049C121.019 50.4999 120.938 50.3033 120.793 50.1584C120.648 50.0134 120.452 49.932 120.247 49.932C120.043 49.932 119.849 50.0127 119.705 50.1564C119.561 50.3001 119.48 50.4949 119.48 50.6981V52.3534C119.48 52.4549 119.499 52.5556 119.537 52.6497C119.575 52.7438 119.631 52.8295 119.702 52.9019C119.773 52.9743 119.858 53.032 119.951 53.0717C120.045 53.1114 120.145 53.1322 120.247 53.1331Z" fill="#E6E6E6"/>
<path opacity="0.6" d="M111.822 128.209H222.719V49.932L111.822 49.932L111.822 128.209Z" fill="#E0E0E0"/>
<path d="M232.758 177.819H213.633C211.601 177.819 209.953 179.467 209.953 181.499V190.35C209.953 192.383 211.601 194.03 213.633 194.03H232.758C234.79 194.03 236.438 192.383 236.438 190.35V181.499C236.438 179.467 234.79 177.819 232.758 177.819Z" fill="#FAFAFA"/>
<path d="M235.2 174.824H211.191C210.507 174.824 209.953 175.378 209.953 176.062V177.06C209.953 177.744 210.507 178.298 211.191 178.298H235.2C235.883 178.298 236.438 177.744 236.438 177.06V176.062C236.438 175.378 235.883 174.824 235.2 174.824Z" fill="#E6E6E6"/>
<path d="M210.344 212.04C210.344 212.04 210.693 223.442 223.976 223.442C237.259 223.442 237.608 212.04 237.608 212.04H210.344Z" fill="#F0F0F0"/>
<path d="M240.633 212.04C240.633 212.04 240.982 223.442 254.265 223.442C267.548 223.442 267.897 212.04 267.897 212.04H240.633Z" fill="#F0F0F0"/>
<path d="M261.315 170.48H235.05C232.254 170.48 229.988 172.746 229.988 175.542V188.975C229.988 191.771 232.254 194.037 235.05 194.037H261.315C264.111 194.037 266.377 191.771 266.377 188.975V175.542C266.377 172.746 264.111 170.48 261.315 170.48Z" fill="#F0F0F0"/>
<path d="M264.681 166.363H231.685C230.748 166.363 229.988 167.122 229.988 168.059V169.441C229.988 170.377 230.748 171.137 231.685 171.137H264.681C265.618 171.137 266.377 170.377 266.377 169.441V168.059C266.377 167.122 265.618 166.363 264.681 166.363Z" fill="#F5F5F5"/>
<path d="M200.338 261.562H203.785V205.036H200.338V261.562Z" fill="#E6E6E6"/>
<path d="M299.881 194.03H281.215V205.029H299.881V194.03Z" fill="#E6E6E6"/>
<path d="M188.402 205.036H281.207V194.037H188.402V205.036Z" fill="#F5F5F5"/>
<path d="M299.881 223.408H281.215V234.407H299.881V223.408Z" fill="#E6E6E6"/>
<path d="M188.402 234.407H281.207V223.408H188.402V234.407Z" fill="#F5F5F5"/>
<path d="M293.142 261.562H296.59V205.036H293.142V261.562Z" fill="#E6E6E6"/>
<path d="M277.767 261.562H281.215V205.036H277.767V261.562Z" fill="#F5F5F5"/>
<path d="M188.4 261.562H191.848V205.036H188.4V261.562Z" fill="#F5F5F5"/>
<path d="M171 292.451C244.244 292.451 303.62 288.984 303.62 284.708C303.62 280.432 244.244 276.965 171 276.965C97.7552 276.965 38.3789 280.432 38.3789 284.708C38.3789 288.984 97.7552 292.451 171 292.451Z" fill="#F5F5F5"/>
<path d="M178.12 250.002H90.8618C89.4586 249.982 88.1148 249.432 87.1 248.463C86.0851 247.494 85.4742 246.177 85.3898 244.776L77.5648 93.236C77.5214 92.5619 77.6178 91.8862 77.8478 91.2511C78.0777 90.616 78.4365 90.0353 78.9014 89.5453C79.3663 89.0553 79.9275 88.6666 80.5496 88.4037C81.1718 88.1407 81.8416 88.0091 82.517 88.0171H169.775C171.177 88.0352 172.521 88.5834 173.536 89.5515C174.551 90.5196 175.162 91.8359 175.247 93.236L183.058 244.776C183.101 245.449 183.005 246.124 182.776 246.759C182.547 247.393 182.19 247.974 181.727 248.464C181.263 248.954 180.704 249.344 180.083 249.609C179.463 249.873 178.794 250.007 178.12 250.002Z" fill="#407BFF"/>
<path opacity="0.8" d="M178.12 250.002H90.8618C89.4586 249.982 88.1148 249.432 87.1 248.463C86.0851 247.494 85.4742 246.177 85.3898 244.776L77.5648 93.236C77.5214 92.5619 77.6178 91.8862 77.8478 91.2511C78.0777 90.616 78.4365 90.0353 78.9014 89.5453C79.3663 89.0553 79.9275 88.6666 80.5496 88.4037C81.1718 88.1407 81.8416 88.0091 82.517 88.0171H169.775C171.177 88.0352 172.521 88.5834 173.536 89.5515C174.551 90.5196 175.162 91.8359 175.247 93.236L183.058 244.776C183.101 245.449 183.005 246.124 182.776 246.759C182.547 247.393 182.19 247.974 181.727 248.464C181.263 248.954 180.704 249.344 180.083 249.609C179.463 249.873 178.794 250.007 178.12 250.002Z" fill="white"/>
<path d="M161.163 83.0786H151.512V83.7626H161.163V83.0786Z" fill="#407BFF"/>
<path d="M148.169 83.0786H144.633V83.7626H148.169V83.0786Z" fill="#407BFF"/>
<path d="M181.875 240.385H98.4274C97.0836 240.372 95.7946 239.85 94.8199 238.925C93.8452 238 93.2572 236.74 93.1743 235.399L85.705 90.459C85.6635 89.8139 85.7557 89.1672 85.9759 88.5594C86.1961 87.9517 86.5395 87.396 86.9845 86.9271C87.4296 86.4583 87.9667 86.0865 88.5622 85.8351C89.1577 85.5836 89.7987 85.4579 90.4451 85.4658H173.893C175.237 85.4806 176.525 86.004 177.498 86.9304C178.472 87.8569 179.058 89.1177 179.139 90.459L186.609 235.399C186.65 236.043 186.558 236.689 186.338 237.296C186.118 237.902 185.776 238.457 185.331 238.926C184.887 239.394 184.35 239.765 183.756 240.016C183.161 240.267 182.521 240.393 181.875 240.385Z" fill="#FA7070"/>
<path d="M181.875 237.054H98.4268C97.9375 237.037 97.4713 236.841 97.117 236.503C96.7626 236.165 96.5448 235.709 96.5048 235.221L89.0287 90.288C89.0118 90.0952 89.0359 89.901 89.0996 89.7183C89.1633 89.5355 89.265 89.3683 89.398 89.2278C89.5315 89.0876 89.6931 88.9773 89.8724 88.9042C90.0516 88.8311 90.2443 88.7968 90.4377 88.8037H173.886C174.374 88.8222 174.838 89.0189 175.191 89.3567C175.544 89.6945 175.761 90.1499 175.801 90.6368L183.311 235.57C183.328 235.762 183.303 235.955 183.24 236.137C183.176 236.319 183.075 236.486 182.943 236.626C182.81 236.766 182.65 236.877 182.472 236.95C182.293 237.024 182.102 237.059 181.909 237.054H181.875ZM90.4377 88.9747C90.2677 88.9692 90.0983 88.9992 89.9405 89.0628C89.7827 89.1264 89.6399 89.2222 89.5212 89.3441C89.407 89.4704 89.3196 89.6186 89.2643 89.7797C89.2091 89.9407 89.1871 90.1113 89.1997 90.2812L96.669 235.214C96.707 235.658 96.906 236.072 97.2285 236.38C97.551 236.687 97.9748 236.866 98.42 236.883H181.868C182.037 236.89 182.206 236.86 182.363 236.796C182.52 236.733 182.661 236.636 182.778 236.514C182.895 236.389 182.984 236.241 183.039 236.08C183.095 235.918 183.115 235.746 183.099 235.576L175.637 90.6437C175.6 90.2004 175.403 89.7858 175.081 89.4783C174.76 89.1708 174.337 88.9916 173.893 88.9747H90.4377Z" fill="white"/>
<path opacity="0.3" d="M152.685 141.626C162.176 131.886 161.558 115.891 151.304 105.898C141.05 95.9063 125.044 95.7015 115.553 105.441C106.061 115.181 106.679 131.177 116.933 141.169C127.187 151.161 143.193 151.366 152.685 141.626Z" fill="#F9F9F9"/>
<path d="M154.583 123.537C154.774 126.899 154.098 130.253 152.62 133.277C151.019 136.522 148.535 139.248 145.453 141.142C142.37 143.036 138.816 144.02 135.198 143.982C131.45 143.948 127.773 142.945 124.527 141.069C121.282 139.193 118.577 136.509 116.676 133.277C114.904 130.322 113.885 126.978 113.707 123.537C113.538 120.899 113.916 118.253 114.817 115.767C115.717 113.281 117.121 111.008 118.941 109.09C120.761 107.171 122.956 105.649 125.391 104.618C127.826 103.587 130.448 103.07 133.092 103.099C138.594 103.157 143.871 105.297 147.859 109.089C151.847 112.882 154.249 118.044 154.583 123.537Z" fill="white"/>
<path d="M152.6 133.277C151 136.522 148.515 139.248 145.433 141.142C142.351 143.036 138.796 144.02 135.179 143.982C131.43 143.948 127.754 142.945 124.508 141.069C121.262 139.193 118.557 136.509 116.656 133.277C121.854 129.688 128.028 127.778 134.344 127.805C140.83 127.83 147.171 129.73 152.6 133.277Z" fill="#FA7070"/>
<path d="M140.458 123.062C143.877 119.553 143.653 113.789 139.957 110.187C136.262 106.586 130.494 106.511 127.074 110.02C123.655 113.529 123.879 119.293 127.574 122.895C131.27 126.496 137.038 126.571 140.458 123.062Z" fill="#FA7070"/>
<path d="M169.913 183.996H104.571C104.002 183.99 103.456 183.769 103.043 183.377C102.631 182.984 102.382 182.451 102.348 181.882L101.855 172.306C101.838 172.034 101.878 171.761 101.971 171.505C102.065 171.248 102.21 171.014 102.398 170.816C102.586 170.618 102.813 170.461 103.064 170.355C103.316 170.249 103.587 170.196 103.86 170.2H169.202C169.77 170.205 170.315 170.426 170.727 170.817C171.14 171.207 171.389 171.74 171.425 172.306L171.918 181.882C171.935 182.155 171.897 182.429 171.804 182.686C171.711 182.944 171.566 183.179 171.378 183.377C171.189 183.576 170.962 183.733 170.71 183.84C170.458 183.946 170.187 183.999 169.913 183.996Z" fill="white"/>
<path opacity="0.3" d="M149.906 164.912H122.614C122.043 164.908 121.494 164.687 121.08 164.293C120.666 163.899 120.417 163.362 120.384 162.792L120.282 160.74C120.264 160.467 120.302 160.193 120.395 159.936C120.488 159.679 120.633 159.443 120.822 159.245C121.01 159.046 121.237 158.889 121.489 158.783C121.741 158.676 122.012 158.623 122.286 158.626H149.57C150.14 158.632 150.685 158.854 151.098 159.246C151.51 159.638 151.759 160.172 151.793 160.74L151.903 162.792C151.92 163.064 151.881 163.337 151.788 163.594C151.695 163.851 151.55 164.086 151.363 164.285C151.176 164.483 150.95 164.641 150.7 164.749C150.449 164.857 150.179 164.913 149.906 164.912Z" fill="black"/>
<path opacity="0.3" d="M160.054 230.036H119.171C118.203 230.024 117.275 229.647 116.574 228.979C115.872 228.312 115.449 227.404 115.389 226.438L115.149 221.719C115.125 221.255 115.196 220.791 115.357 220.355C115.518 219.919 115.766 219.521 116.086 219.184C116.406 218.848 116.791 218.58 117.218 218.397C117.645 218.214 118.105 218.12 118.569 218.121H159.438C160.406 218.133 161.334 218.51 162.036 219.177C162.737 219.845 163.16 220.752 163.221 221.719L163.46 226.438C163.484 226.901 163.414 227.364 163.254 227.798C163.094 228.233 162.847 228.631 162.528 228.967C162.21 229.304 161.826 229.572 161.401 229.756C160.975 229.939 160.517 230.035 160.054 230.036Z" fill="black"/>
<path d="M171.108 207.156H105.758C105.19 207.149 104.645 206.927 104.233 206.535C103.821 206.143 103.572 205.61 103.535 205.043L103.043 195.467C103.026 195.194 103.065 194.921 103.159 194.664C103.252 194.407 103.397 194.172 103.585 193.974C103.773 193.776 104 193.618 104.251 193.511C104.503 193.405 104.774 193.351 105.047 193.353H170.39C170.959 193.359 171.504 193.58 171.917 193.972C172.329 194.365 172.578 194.899 172.613 195.467L173.112 205.043C173.128 205.315 173.088 205.588 172.994 205.844C172.9 206.101 172.755 206.335 172.567 206.533C172.379 206.731 172.153 206.889 171.902 206.996C171.651 207.103 171.381 207.158 171.108 207.156Z" fill="white"/>
<path d="M112.859 177.094C112.878 177.397 112.834 177.7 112.731 177.984C112.627 178.269 112.466 178.529 112.257 178.749C112.049 178.968 111.797 179.142 111.518 179.26C111.239 179.378 110.939 179.437 110.636 179.434C110.007 179.426 109.404 179.181 108.948 178.747C108.493 178.313 108.218 177.722 108.18 177.094C108.161 176.793 108.203 176.49 108.306 176.205C108.409 175.921 108.569 175.66 108.777 175.441C108.986 175.221 109.237 175.047 109.515 174.929C109.794 174.811 110.094 174.752 110.397 174.755C111.026 174.763 111.63 175.008 112.087 175.442C112.544 175.875 112.819 176.466 112.859 177.094Z" fill="#263238"/>
<path d="M120.063 177.094C120.083 177.396 120.04 177.699 119.937 177.984C119.835 178.268 119.674 178.529 119.466 178.748C119.258 178.968 119.007 179.142 118.728 179.26C118.45 179.378 118.15 179.437 117.847 179.434C117.217 179.428 116.613 179.183 116.158 178.749C115.702 178.314 115.428 177.723 115.391 177.094C115.372 176.793 115.414 176.49 115.517 176.205C115.62 175.921 115.78 175.66 115.988 175.441C116.197 175.221 116.448 175.047 116.726 174.929C117.005 174.811 117.305 174.752 117.608 174.755C118.237 174.761 118.841 175.006 119.297 175.44C119.753 175.875 120.027 176.466 120.063 177.094Z" fill="#263238"/>
<path d="M127.222 177.094C127.242 177.396 127.199 177.699 127.096 177.984C126.993 178.268 126.833 178.529 126.625 178.748C126.417 178.968 126.166 179.142 125.887 179.26C125.608 179.378 125.308 179.437 125.006 179.434C124.376 179.426 123.772 179.181 123.315 178.747C122.859 178.313 122.583 177.723 122.543 177.094C122.524 176.792 122.568 176.489 122.672 176.205C122.775 175.92 122.936 175.66 123.145 175.44C123.354 175.221 123.605 175.047 123.884 174.929C124.163 174.811 124.463 174.752 124.766 174.755C125.395 174.763 125.998 175.008 126.454 175.442C126.91 175.876 127.184 176.466 127.222 177.094Z" fill="#263238"/>
<path d="M134.441 177.094C134.459 177.396 134.416 177.698 134.313 177.983C134.21 178.267 134.049 178.527 133.841 178.746C133.633 178.966 133.383 179.14 133.104 179.258C132.826 179.376 132.527 179.436 132.224 179.434C131.595 179.426 130.991 179.181 130.534 178.747C130.078 178.314 129.802 177.723 129.762 177.094C129.743 176.793 129.787 176.49 129.89 176.206C129.993 175.922 130.154 175.662 130.361 175.443C130.569 175.223 130.82 175.049 131.098 174.931C131.376 174.813 131.676 174.753 131.978 174.755C132.608 174.763 133.212 175.008 133.669 175.442C134.125 175.875 134.401 176.466 134.441 177.094Z" fill="#263238"/>
<path d="M114.07 200.241C114.089 200.543 114.047 200.846 113.944 201.13C113.841 201.415 113.681 201.675 113.473 201.895C113.264 202.115 113.013 202.289 112.735 202.407C112.456 202.525 112.156 202.584 111.853 202.58C111.224 202.573 110.62 202.328 110.163 201.894C109.706 201.46 109.431 200.87 109.391 200.241C109.372 199.939 109.416 199.636 109.519 199.351C109.623 199.067 109.784 198.806 109.993 198.587C110.201 198.367 110.453 198.193 110.732 198.075C111.011 197.957 111.311 197.898 111.614 197.902C112.243 197.909 112.846 198.155 113.302 198.589C113.757 199.023 114.032 199.613 114.07 200.241Z" fill="#263238"/>
<path d="M121.257 200.241C121.276 200.543 121.233 200.845 121.13 201.129C121.027 201.413 120.866 201.673 120.658 201.893C120.45 202.112 120.199 202.286 119.921 202.405C119.643 202.523 119.344 202.583 119.041 202.58C118.411 202.573 117.808 202.328 117.351 201.894C116.894 201.46 116.619 200.87 116.579 200.241C116.559 199.939 116.602 199.636 116.705 199.352C116.807 199.067 116.968 198.807 117.176 198.587C117.384 198.368 117.635 198.193 117.914 198.075C118.193 197.957 118.493 197.898 118.795 197.902C119.425 197.909 120.029 198.154 120.485 198.588C120.942 199.022 121.218 199.612 121.257 200.241Z" fill="#263238"/>
<path d="M128.449 200.241C128.468 200.543 128.424 200.846 128.32 201.131C128.217 201.415 128.056 201.676 127.847 201.895C127.639 202.115 127.387 202.289 127.108 202.407C126.829 202.525 126.529 202.584 126.226 202.58C125.596 202.574 124.992 202.33 124.536 201.895C124.081 201.461 123.807 200.87 123.77 200.241C123.751 199.939 123.793 199.636 123.896 199.352C123.999 199.067 124.159 198.807 124.367 198.587C124.575 198.368 124.827 198.193 125.105 198.075C125.384 197.957 125.684 197.898 125.987 197.902C126.616 197.909 127.22 198.154 127.677 198.588C128.133 199.022 128.409 199.612 128.449 200.241Z" fill="#263238"/>
<path d="M135.628 200.241C135.648 200.543 135.605 200.846 135.502 201.13C135.4 201.415 135.239 201.675 135.031 201.895C134.823 202.115 134.572 202.289 134.293 202.407C134.015 202.525 133.715 202.584 133.412 202.58C132.782 202.573 132.178 202.328 131.722 201.894C131.265 201.46 130.989 200.87 130.95 200.241C130.931 199.939 130.974 199.636 131.078 199.351C131.182 199.067 131.343 198.806 131.551 198.587C131.76 198.367 132.012 198.193 132.29 198.075C132.569 197.957 132.87 197.898 133.173 197.902C133.802 197.908 134.406 198.153 134.862 198.587C135.318 199.021 135.592 199.612 135.628 200.241Z" fill="#263238"/>
<path d="M142.82 200.241C142.839 200.543 142.797 200.846 142.694 201.13C142.591 201.415 142.431 201.675 142.223 201.895C142.014 202.114 141.763 202.289 141.485 202.407C141.206 202.525 140.906 202.584 140.603 202.58C139.974 202.573 139.37 202.328 138.913 201.894C138.456 201.46 138.181 200.87 138.141 200.241C138.122 199.939 138.166 199.637 138.269 199.353C138.372 199.069 138.532 198.809 138.74 198.589C138.948 198.37 139.199 198.196 139.477 198.077C139.755 197.959 140.055 197.899 140.357 197.902C140.987 197.909 141.591 198.154 142.047 198.588C142.504 199.022 142.78 199.612 142.82 200.241Z" fill="#263238"/>
<path d="M150.007 200.241C150.026 200.543 149.983 200.846 149.879 201.131C149.776 201.415 149.614 201.676 149.406 201.895C149.197 202.115 148.946 202.289 148.667 202.407C148.388 202.525 148.087 202.584 147.784 202.58C147.155 202.573 146.552 202.327 146.097 201.893C145.641 201.459 145.367 200.869 145.329 200.241C145.309 199.939 145.352 199.636 145.455 199.352C145.557 199.067 145.718 198.807 145.926 198.587C146.134 198.368 146.385 198.193 146.664 198.075C146.943 197.957 147.243 197.898 147.545 197.902C148.175 197.909 148.779 198.154 149.235 198.588C149.692 199.022 149.968 199.612 150.007 200.241Z" fill="#263238"/>
<path d="M227.772 120.808C227.943 121.068 228.032 121.205 228.142 121.39L228.449 121.896C228.648 122.238 228.826 122.58 228.997 122.915C229.339 123.599 229.681 124.283 229.954 124.967C230.528 126.325 231.021 127.716 231.432 129.132C232.26 131.93 232.805 134.803 233.059 137.71L233.107 138.25C233.113 138.359 233.113 138.469 233.107 138.578V138.941C233.119 139.417 233.091 139.892 233.025 140.364C232.894 141.237 232.665 142.093 232.341 142.915C231.74 144.383 230.944 145.764 229.975 147.019C228.166 149.335 226.019 151.367 223.607 153.045L221.719 150.836C223.437 148.896 224.958 146.79 226.261 144.55C226.847 143.533 227.306 142.449 227.629 141.321C227.759 140.844 227.835 140.352 227.854 139.858C227.875 139.646 227.875 139.433 227.854 139.221V139.078C227.861 139.014 227.861 138.95 227.854 138.886L227.772 138.407C227.332 135.858 226.711 133.344 225.912 130.883C225.515 129.659 225.029 128.476 224.544 127.32C224.304 126.738 224.031 126.171 223.757 125.623L223.333 124.816L223.121 124.44L222.943 124.139L227.772 120.808Z" fill="#803E3C"/>
<path d="M221.41 153.059L223.886 158.291L225.849 153.866C225.849 153.866 224.105 150.035 221.745 150.391L221.41 153.059Z" fill="#7F3E3B"/>
<path d="M225.658 158.551L227.628 155.323L225.85 153.866L223.887 158.291L225.658 158.551Z" fill="#7F3E3B"/>
<path d="M214.519 279.222C215.031 279.21 215.541 279.141 216.038 279.017C216.063 279.01 216.086 278.995 216.104 278.976C216.122 278.957 216.134 278.933 216.14 278.908C216.144 278.881 216.141 278.855 216.13 278.83C216.119 278.806 216.101 278.785 216.079 278.771C215.88 278.641 214.143 277.519 213.473 277.82C213.398 277.855 213.335 277.909 213.288 277.976C213.241 278.043 213.213 278.122 213.206 278.203C213.185 278.327 213.195 278.454 213.234 278.573C213.274 278.692 213.341 278.8 213.432 278.887C213.742 279.127 214.128 279.246 214.519 279.222ZM215.648 278.819C214.656 279.024 213.904 278.99 213.596 278.723C213.533 278.661 213.487 278.584 213.462 278.499C213.437 278.414 213.433 278.324 213.452 278.237C213.452 278.121 213.521 278.087 213.568 278.066C213.938 277.902 214.943 278.388 215.648 278.819Z" fill="#B0C7FC"/>
<path d="M216.005 279.017H216.074C216.094 279.004 216.111 278.986 216.123 278.964C216.135 278.943 216.142 278.919 216.142 278.894C216.142 278.826 216.142 277.177 215.513 276.623C215.435 276.554 215.344 276.502 215.245 276.471C215.146 276.441 215.041 276.432 214.938 276.445C214.83 276.446 214.726 276.484 214.643 276.553C214.559 276.621 214.502 276.716 214.48 276.822C214.35 277.471 215.39 278.703 215.937 279.017H216.005ZM215.027 276.699C215.082 276.697 215.138 276.706 215.189 276.726C215.241 276.746 215.288 276.776 215.328 276.815C215.689 277.347 215.875 277.978 215.862 278.621C215.314 278.183 214.665 277.253 214.747 276.863C214.747 276.801 214.795 276.719 214.966 276.699H215.027Z" fill="#B0C7FC"/>
<path d="M208.062 276.432C208.079 276.412 208.089 276.388 208.093 276.362C208.096 276.337 208.093 276.311 208.083 276.287C208.073 276.263 208.057 276.243 208.037 276.227C208.016 276.212 207.992 276.202 207.967 276.199C207.686 276.199 205.231 276.083 204.67 276.685V276.726C204.623 276.785 204.593 276.855 204.583 276.93C204.572 277.004 204.581 277.08 204.608 277.15C204.645 277.267 204.709 277.374 204.796 277.461C204.883 277.548 204.99 277.613 205.108 277.649C205.901 277.896 207.303 277 208.069 276.445L208.062 276.432ZM204.875 276.863C205.183 276.534 206.537 276.445 207.549 276.459C206.489 277.184 205.607 277.526 205.162 277.389C205.085 277.366 205.014 277.324 204.957 277.266C204.9 277.209 204.857 277.139 204.834 277.061C204.82 277.035 204.813 277.005 204.813 276.976C204.813 276.946 204.82 276.916 204.834 276.89L204.875 276.863Z" fill="#B0C7FC"/>
<path d="M208.064 276.432C208.074 276.41 208.08 276.387 208.08 276.363C208.08 276.34 208.074 276.316 208.064 276.295C208.03 276.24 207.264 274.927 206.361 274.653C206.231 274.615 206.095 274.604 205.961 274.621C205.827 274.637 205.698 274.681 205.581 274.749C205.253 274.941 205.232 275.166 205.273 275.31C205.451 275.946 207.195 276.507 207.948 276.5C207.971 276.5 207.995 276.493 208.015 276.481C208.035 276.469 208.052 276.452 208.064 276.432ZM205.609 275.064C205.647 275.026 205.691 274.994 205.738 274.968C205.823 274.914 205.918 274.879 206.017 274.866C206.117 274.853 206.218 274.862 206.313 274.893C206.908 275.05 207.462 275.816 207.715 276.192C206.901 276.103 205.663 275.604 205.561 275.221C205.552 275.192 205.552 275.161 205.56 275.132C205.569 275.103 205.586 275.077 205.609 275.057V275.064Z" fill="#B0C7FC"/>
<path d="M215.594 100.774C214.91 104.194 213.433 111.588 215.806 113.859C215.806 113.859 214.876 117.279 208.563 117.279C201.613 117.279 205.246 113.859 205.246 113.859C209.035 112.956 208.939 110.138 208.276 107.497L215.594 100.774Z" fill="#7F3E3B"/>
<path d="M204.021 92.7572C204.06 92.7635 204.099 92.7635 204.138 92.7572C204.17 92.7412 204.199 92.7189 204.223 92.6917C204.247 92.6644 204.265 92.6326 204.276 92.5983C204.288 92.5639 204.292 92.5276 204.29 92.4915C204.287 92.4554 204.277 92.4202 204.261 92.3879C204.077 91.9977 203.802 91.6574 203.459 91.3955C203.116 91.1337 202.716 90.9579 202.291 90.8831C202.22 90.8771 202.149 90.8986 202.093 90.9431C202.037 90.9875 202 91.0517 201.99 91.1225C201.982 91.194 202.003 91.2658 202.048 91.3221C202.093 91.3784 202.158 91.4148 202.229 91.4234C202.565 91.4878 202.88 91.6312 203.149 91.8418C203.417 92.0523 203.632 92.3239 203.775 92.6341C203.802 92.6745 203.838 92.7073 203.882 92.7289C203.925 92.7505 203.973 92.7603 204.021 92.7572Z" fill="#263238"/>
<path d="M201.95 95.76C201.412 96.7585 200.74 97.6789 199.953 98.496C200.166 98.6909 200.419 98.8372 200.694 98.9246C200.969 99.012 201.26 99.0385 201.547 99.0022L201.95 95.76Z" fill="#630F0F"/>
<path d="M202.464 94.987C202.409 95.4453 202.115 95.7873 201.821 95.7531C201.527 95.7189 201.321 95.3153 201.376 94.8571C201.431 94.3988 201.725 94.0568 202.06 94.091C202.395 94.1252 202.511 94.5287 202.464 94.987Z" fill="#263238"/>
<path d="M202.147 94.1321L201.094 93.708C201.094 93.708 201.538 94.6109 202.147 94.1321Z" fill="#263238"/>
<path d="M214.103 275.132L208.522 276.432L205.129 263.6L210.71 262.3L214.103 275.132Z" fill="#7F3E3B"/>
<path d="M222.666 278.88H216.941L217.386 265.618H223.118L222.666 278.88Z" fill="#7F3E3B"/>
<path d="M216.484 278.217H222.921C223.032 278.216 223.141 278.256 223.225 278.329C223.309 278.402 223.364 278.503 223.379 278.614L224.111 283.703C224.125 283.831 224.113 283.962 224.073 284.085C224.033 284.208 223.968 284.322 223.882 284.418C223.795 284.514 223.689 284.591 223.571 284.644C223.452 284.696 223.324 284.723 223.194 284.722C220.951 284.688 219.87 284.551 217.038 284.551C215.294 284.551 212.75 284.735 210.349 284.735C207.948 284.735 207.811 282.355 208.817 282.143C213.304 281.172 214.015 279.845 215.527 278.573C215.794 278.344 216.133 278.218 216.484 278.217Z" fill="#263238"/>
<path d="M208.031 275.577L213.879 272.889C213.978 272.841 214.091 272.832 214.197 272.862C214.303 272.892 214.394 272.96 214.453 273.053L217.251 277.376C217.316 277.487 217.358 277.611 217.372 277.739C217.387 277.867 217.374 277.997 217.336 278.12C217.297 278.243 217.233 278.357 217.148 278.454C217.062 278.55 216.958 278.628 216.841 278.682C214.789 279.585 213.749 279.92 211.177 281.104C209.597 281.829 206.389 283.498 204.214 284.524C202.039 285.55 200.917 283.422 201.738 282.807C205.411 280.071 206.464 278.108 207.306 276.322C207.448 275.993 207.706 275.728 208.031 275.577Z" fill="#263238"/>
<path opacity="0.2" d="M205.129 263.6L206.948 270.481L212.461 268.915L210.717 262.3L205.129 263.6Z" fill="black"/>
<path opacity="0.2" d="M223.118 265.618H217.386L217.16 272.458H222.892L223.118 265.618Z" fill="black"/>
<path d="M225.718 115.158C228.099 115.685 230.643 124.242 230.643 124.242L223.912 131.403C223.912 131.403 218.324 123.359 219.466 120.405C220.622 117.32 222.88 114.543 225.718 115.158Z" fill="#263238"/>
<path opacity="0.4" d="M221.915 120.61C220.711 119.508 219.897 119.837 219.343 120.712C218.796 123.257 222.038 128.585 223.344 130.603C223.946 128.195 224.637 123.12 221.915 120.61Z" fill="black"/>
<path d="M195.559 115.329C195.559 115.329 192.823 116.287 198.295 149.905H221.551C221.161 140.439 221.147 134.597 225.655 115.158C222.396 114.486 219.093 114.052 215.771 113.859C212.255 113.605 208.726 113.605 205.21 113.859C200.703 114.276 195.559 115.329 195.559 115.329Z" fill="#263238"/>
<path opacity="0.4" d="M195.348 128.229C195.498 129.864 195.696 131.704 195.956 133.784C197.865 132.067 199.424 127.183 198.85 124.338C197.486 125.444 196.305 126.757 195.348 128.229Z" fill="black"/>
<path d="M197.837 123.12C196.582 126.278 195.169 129.372 193.603 132.388C192.055 135.513 190.223 138.49 188.131 141.28L187.693 141.821L187.474 142.087C187.399 142.176 187.337 142.258 187.221 142.381C186.809 142.83 186.351 143.234 185.853 143.585C184.973 144.194 184.01 144.673 182.994 145.008C181.221 145.574 179.381 145.901 177.522 145.979C174.04 146.118 170.555 145.807 167.152 145.056L167.529 142.183C169.102 142.183 170.75 142.183 172.317 142.053C173.89 141.976 175.457 141.802 177.009 141.533C178.45 141.308 179.86 140.913 181.209 140.357C181.753 140.124 182.262 139.816 182.72 139.44C182.895 139.294 183.053 139.129 183.192 138.948C183.192 138.948 183.274 138.838 183.329 138.763L183.486 138.537L183.808 138.086C185.524 135.435 187.053 132.667 188.384 129.803C189.752 126.896 191.12 123.879 192.371 120.911L197.837 123.12Z" fill="#803E3C"/>
<path d="M195.561 115.329C192.709 116.013 189.207 123.838 189.207 123.838L195.117 132.525C195.117 132.525 202.99 122.614 202.053 119.591C201.095 116.437 199.043 114.481 195.561 115.329Z" fill="#263238"/>
<path d="M169.17 142.621L164.239 140.343L163.746 145.247C163.746 145.247 167.85 146.458 169.902 145.247L169.17 142.621Z" fill="#7F3E3B"/>
<path d="M161.292 139.851L160.82 143.585L163.748 145.247L164.24 140.343L161.292 139.851Z" fill="#7F3E3B"/>
<path d="M218.072 95.3222C217.025 100.91 216.704 103.304 213.502 105.842C208.714 109.659 202.045 107.155 201.402 101.369C200.814 96.1566 202.62 87.8939 208.413 86.3207C209.69 85.9686 211.035 85.9494 212.321 86.2647C213.606 86.58 214.79 87.2195 215.758 88.1221C216.727 89.0248 217.448 90.1604 217.853 91.4208C218.258 92.6812 218.333 94.0244 218.072 95.3222Z" fill="#7F3E3B"/>
<path d="M205.794 96.4987C205.473 99.351 205.35 106.759 211.615 106.991C219.283 107.272 221.581 100.719 220.897 98.0993C224.892 94.8503 225.466 89.262 220.979 84.987C216.492 80.712 206.615 83.0991 203.879 87.2647C200.411 92.4289 205.794 96.4987 205.794 96.4987Z" fill="#263238"/>
<path d="M213.476 86.6491C213.107 83.6395 213.394 81.567 216.212 81.567C219.03 81.567 222.874 82.5862 224.283 85.4658C225.692 88.3455 225.809 92.853 221.876 92.3947C217.943 91.9365 213.921 90.247 213.476 86.6491Z" fill="#B0C7FC"/>
<path d="M217.84 85.9241C217.156 82.3399 220.364 72.2441 228.154 71.5601C231.766 71.2523 233.435 75.1374 231.574 75.7803C234.994 75.7393 237.183 80.2605 233.996 80.9377C236.513 82.5519 235.89 85.8625 232.299 87.4904C229.625 88.7216 218.763 90.8899 217.84 85.9241Z" fill="#263238"/>
<path d="M226.162 89.775C223.652 89.775 221.032 89.4056 219.404 88.3181C218.949 88.0437 218.566 87.6648 218.287 87.2128C218.007 86.7608 217.839 86.2487 217.797 85.7189C217.795 85.6739 217.81 85.6298 217.839 85.5956C217.869 85.5613 217.91 85.5394 217.954 85.5342C217.977 85.5313 218 85.5332 218.022 85.5398C218.044 85.5463 218.064 85.5573 218.081 85.5721C218.099 85.5869 218.113 85.6052 218.123 85.6257C218.133 85.6463 218.138 85.6687 218.139 85.6915C218.18 86.1696 218.334 86.6312 218.587 87.0389C218.84 87.4466 219.186 87.7887 219.596 88.0377C222.694 90.0897 229.856 89.4057 232.086 88.7217C234.015 88.0924 235.321 86.868 235.581 85.459C235.662 84.9419 235.598 84.4125 235.397 83.9295C235.195 83.4466 234.863 83.0289 234.439 82.723C234.422 82.7076 234.409 82.6891 234.4 82.6685C234.392 82.6479 234.387 82.6257 234.387 82.6033C234.387 82.5808 234.392 82.5586 234.4 82.5381C234.409 82.5175 234.422 82.4989 234.439 82.4836C234.471 82.4522 234.514 82.4347 234.558 82.4347C234.603 82.4347 234.646 82.4522 234.678 82.4836C235.156 82.8319 235.527 83.3062 235.75 83.8534C235.974 84.4006 236.041 84.9991 235.944 85.5821C235.663 87.1211 234.275 88.4344 232.223 89.1047C230.243 89.6038 228.204 89.8293 226.162 89.775Z" fill="#263238"/>
<path d="M204.051 95.76C203.414 96.6535 203.151 97.7605 203.319 98.8449C203.545 100.281 204.94 100.377 205.952 99.4605C206.965 98.5439 207.847 96.8886 207.101 95.6985C206.936 95.4414 206.707 95.231 206.437 95.0873C206.167 94.9436 205.865 94.8714 205.559 94.8776C205.253 94.8837 204.954 94.9681 204.69 95.1225C204.426 95.277 204.206 95.4965 204.051 95.76Z" fill="#7F3E3B"/>
<path d="M204.438 149.905C204.438 149.905 207.762 189.229 211.216 211.39C214 229.29 216.202 271.131 216.202 271.131H224.014C224.014 271.131 226.791 230.542 225.382 212.84C221.804 168.038 229.787 164.386 221.572 149.912L204.438 149.905Z" fill="#B0C7FC"/>
<path opacity="0.4" d="M214.275 164.769C211.179 168.018 208.681 171.787 206.895 175.904C207.804 184.742 208.885 194.55 210.034 203.141C214.749 190.934 216.211 177.711 214.275 164.769Z" fill="black"/>
<path d="M198.973 149.659C198.973 149.659 191.757 192.608 190.621 211.965C193.453 229.865 205.04 267.704 205.04 267.704L212.147 265.125C212.147 265.125 208.214 223.866 203.939 212.573C213.562 180.172 220.635 171.978 218.576 149.905C213.645 149.905 198.973 149.659 198.973 149.659Z" fill="#B0C7FC"/>
<path d="M204.092 269.592L213.695 266.986L213.148 263.155L202.867 265.939L204.092 269.592Z" fill="#263238"/>
<path d="M215.129 271.288H225.081L225.601 267.8L215.074 267.444L215.129 271.288Z" fill="#263238"/>
<path d="M221.914 148.537L222.96 150.624C223.042 150.788 222.851 150.952 222.584 150.952H198.179C197.974 150.952 197.796 150.849 197.782 150.712L197.57 148.66C197.57 148.517 197.741 148.394 197.967 148.394H221.531C221.602 148.384 221.674 148.392 221.74 148.417C221.807 148.442 221.867 148.484 221.914 148.537Z" fill="#B0C7FC"/>
<path opacity="0.5" d="M221.914 148.537L222.96 150.624C223.042 150.788 222.851 150.952 222.584 150.952H198.179C197.974 150.952 197.796 150.849 197.782 150.712L197.57 148.66C197.57 148.517 197.741 148.394 197.967 148.394H221.531C221.602 148.384 221.674 148.392 221.74 148.417C221.807 148.442 221.867 148.484 221.914 148.537Z" fill="black"/>
<path d="M218.748 151.164H219.377C219.507 151.164 219.603 151.096 219.596 151.02L219.295 148.284C219.295 148.202 219.179 148.141 219.056 148.141H218.419C218.296 148.141 218.201 148.202 218.207 148.284L218.502 151.02C218.515 151.109 218.625 151.164 218.748 151.164Z" fill="#B0C7FC"/>
<path d="M210.28 131.246C210.204 131.245 210.131 131.22 210.071 131.174C210.011 131.129 209.966 131.065 209.945 130.993C207.715 122.744 203.105 115.945 200.868 114.919C200.694 114.812 200.485 114.778 200.287 114.823C200.245 114.845 200.2 114.858 200.153 114.861C200.107 114.865 200.06 114.859 200.016 114.844C199.972 114.829 199.931 114.805 199.897 114.773C199.862 114.742 199.835 114.703 199.815 114.661C199.796 114.618 199.786 114.572 199.785 114.526C199.784 114.479 199.793 114.433 199.811 114.389C199.829 114.346 199.856 114.307 199.889 114.275C199.923 114.242 199.962 114.217 200.006 114.201C200.193 114.132 200.393 114.105 200.591 114.121C200.79 114.138 200.982 114.198 201.155 114.296C203.522 115.418 208.2 122.121 210.54 130.555C212.216 130.555 214.801 130.329 215.43 130.275C216.21 129.344 221.942 122.176 219.801 114.331C219.789 114.287 219.785 114.242 219.791 114.198C219.796 114.153 219.81 114.11 219.833 114.071C219.855 114.032 219.885 113.998 219.921 113.971C219.956 113.944 219.997 113.924 220.041 113.913C220.128 113.89 220.22 113.902 220.298 113.947C220.376 113.992 220.434 114.066 220.458 114.153C222.845 122.881 215.923 130.753 215.848 130.829C215.821 130.862 215.788 130.889 215.75 130.909C215.712 130.929 215.671 130.941 215.629 130.945C215.595 130.945 212.181 131.246 210.28 131.246Z" fill="#B0C7FC"/>
<path d="M221.613 136.075C217.885 129.091 216.36 128.599 215.697 126.355C216.199 125.101 216.917 123.943 217.817 122.935C217.366 122.805 216.394 122.614 215.765 122.497C215.833 122.19 215.909 121.889 215.977 121.595C215.292 121.518 214.6 121.55 213.925 121.69V121.006C213.056 120.817 212.164 120.76 211.278 120.835C211.355 121.159 211.431 121.487 211.504 121.82C210.82 121.95 209.78 122.162 209.281 122.306C210.251 123.405 210.964 124.706 211.367 126.116C209.356 129.57 201.545 151.773 214.253 153.476C226.962 155.179 225.334 143.065 221.613 136.075Z" fill="#B0C7FC"/>
<path opacity="0.4" d="M221.613 136.075C217.885 129.091 216.36 128.599 215.697 126.355C216.199 125.101 216.917 123.943 217.817 122.935C217.366 122.805 216.394 122.614 215.765 122.497C215.833 122.19 215.909 121.889 215.977 121.595C215.292 121.518 214.6 121.55 213.925 121.69V121.006C213.056 120.817 212.164 120.76 211.278 120.835C211.355 121.159 211.431 121.487 211.504 121.82C210.82 121.95 209.78 122.162 209.281 122.306C210.251 123.405 210.964 124.706 211.367 126.116C209.356 129.57 201.545 151.773 214.253 153.476C226.962 155.179 225.334 143.065 221.613 136.075Z" fill="white"/>
<path d="M210.847 125.452C210.768 125.805 210.733 126.165 210.744 126.526C210.744 126.779 211.428 126.95 212.187 127.026C212.947 127.101 216.134 127.224 216.032 126.868C215.929 126.513 216.189 126.027 216.203 125.726C216.216 125.425 214.937 125.411 213.863 125.452C212.789 125.493 211.059 125.069 210.847 125.452Z" fill="#B0C7FC"/>
<path d="M203.454 151.164H204.083C204.206 151.164 204.302 151.096 204.295 151.02L204.001 148.284C204.001 148.202 203.885 148.141 203.755 148.141H203.146C203.023 148.141 202.927 148.202 202.934 148.284L203.228 151.02C203.214 151.109 203.324 151.164 203.454 151.164Z" fill="#B0C7FC"/>
</svg>
