<svg width="24" height="24" viewBox="0 0 24 24" fill="none" xmlns="http://www.w3.org/2000/svg">
<path fill-rule="evenodd" clip-rule="evenodd" d="M9.55046 13.4856C9.03776 13.0298 8.63249 12.7011 8.54622 11.7538H8.49089C8.36368 11.755 8.23844 11.7224 8.12793 11.6594C7.94512 11.5443 7.80462 11.3729 7.72754 11.1711C7.54199 10.7463 7.40202 9.63139 7.861 9.31238L7.77474 9.25379L7.76497 9.13009C7.74707 8.90548 7.74219 8.64181 7.7373 8.34884C7.72103 7.30066 7.69987 6.02787 6.85514 5.77397L6.49382 5.66492L6.73145 5.36869C7.35617 4.5789 8.06571 3.86007 8.84733 3.22514C9.64974 2.58712 10.4831 2.16394 11.2904 2.03862C11.7115 1.96955 12.1427 1.99334 12.5538 2.10832C12.9648 2.22331 13.3457 2.42671 13.6699 2.70431C13.9036 2.89543 14.1174 3.10974 14.3079 3.34396C14.6857 3.38543 15.0505 3.50599 15.3786 3.69781C15.7067 3.88962 15.9908 4.14838 16.2122 4.45724C16.4932 4.83335 16.7033 5.25747 16.8324 5.70886C16.9662 6.16941 17.0212 6.64925 16.9951 7.12813C16.9696 7.99233 16.6164 8.81448 16.0072 9.42794C16.1143 9.43008 16.2196 9.45681 16.3148 9.50606C16.6663 9.69487 16.6777 10.1034 16.585 10.4468C16.4938 10.7317 16.3783 11.0653 16.2692 11.3436C16.1357 11.7212 15.9437 11.7912 15.5661 11.7505C15.5465 12.6815 15.1152 12.9387 14.5358 13.4856C14.5602 14.8886 9.51628 14.7242 9.5472 13.4856H9.55046ZM9.28841 14.6428L10.7891 18.9787L11.5426 16.4348L11.1748 16.0311C10.8965 15.6242 10.9925 15.1636 11.5003 15.0806C11.6858 15.062 11.8725 15.0582 12.0586 15.0692C12.2634 15.0563 12.4689 15.0639 12.6722 15.092C13.1507 15.1978 13.2012 15.6617 12.9619 16.0311L12.5924 16.4348L13.346 18.9787L14.7116 14.6428C15.6882 15.5233 19.1403 15.7007 20.2194 16.3029C21.7135 17.1395 21.6729 20.3361 22 21.8368H2C2.32552 20.354 2.29134 17.1314 3.7806 16.3029C5.1071 15.564 8.2028 15.621 9.28841 14.6428Z" fill="black" fill-opacity="0.35"/>
</svg>
