<svg width="24" height="24" viewBox="0 0 24 24" fill="none" xmlns="http://www.w3.org/2000/svg">
<path d="M16.3077 8.66474C16.3077 8.81301 16.187 8.93373 16.0387 8.93373C15.8904 8.93373 15.7697 8.81301 15.7697 8.66474V7.61636C15.7697 7.20566 15.6634 6.78578 15.4797 6.40265C15.2882 6.00376 15.0153 5.64162 14.6912 5.36738C13.9997 4.78086 13.093 4.48564 12.1811 4.47514C11.2573 4.46464 10.3323 4.74675 9.62113 5.31358C9.27735 5.58782 8.96375 5.94603 8.74463 6.34754C8.55437 6.69656 8.43628 7.07839 8.43628 7.46284V8.67524L8.44415 8.67261L8.6869 8.97309C8.66853 8.49154 8.6659 7.97457 8.6869 7.51926C8.70264 7.36312 8.73282 7.20698 8.77612 7.05083C9.16844 5.64686 10.7705 4.82679 12.164 4.90289C13.2426 4.96194 14.2555 5.35689 14.8959 6.0943C15.7881 7.12694 15.5572 8.39969 15.527 9.65933C15.7277 9.721 15.8563 9.84696 15.9088 10.053C15.9665 10.2813 15.9036 10.6014 15.7107 11.0397C15.7067 11.0476 15.7028 11.0554 15.6989 11.0633L14.8749 12.42C14.5573 12.9423 14.2345 13.4671 13.8055 13.8699L13.7924 13.8817C13.8422 13.9591 13.8973 14.0471 13.9537 14.1402C14.0876 14.3567 14.2385 14.5982 14.3841 14.8042C15.2882 15.4851 17.6041 15.6413 18.4845 16.132C18.7732 16.2934 19.0343 16.4981 19.2429 16.775C19.7612 17.4599 19.8019 18.4072 20 19.2431C19.9541 19.7364 19.6746 20.0198 19.1235 20.0618H4.8765C4.32672 20.0198 4.04724 19.7364 4 19.2431C4.19813 18.4072 4.23749 17.4599 4.75709 16.775C4.96703 16.4981 5.22683 16.2934 5.5155 16.132C6.39724 15.64 8.71445 15.4838 9.61719 14.8028C9.7589 14.4879 9.90586 13.9985 9.9977 13.6954L9.99902 13.6889L10.0358 13.5721C10.0397 13.5576 10.0463 13.5458 10.0528 13.5327C9.79433 13.2244 9.57126 12.878 9.35739 12.5381L8.65016 11.4136C8.59636 11.4097 8.54387 11.4005 8.49139 11.3835C7.92455 11.205 7.45481 9.94537 7.54666 9.35098C7.59915 9.01377 7.71855 8.89305 7.91143 8.81957C7.90225 8.79202 7.897 8.76315 7.897 8.73297V7.46284C7.897 6.98523 8.04002 6.5168 8.27227 6.09167C8.52682 5.62456 8.89027 5.20862 9.28522 4.89371C10.0935 4.24814 11.1419 3.92799 12.1837 3.93848C13.2176 3.95029 14.2477 4.28619 15.0376 4.95669C15.4181 5.27947 15.7395 5.70329 15.9639 6.17171C16.1817 6.62833 16.309 7.12694 16.309 7.61767V8.66474H16.3077ZM13.5326 14.0956C13.1389 14.3843 12.6639 14.564 12.059 14.5627C11.3584 14.5614 10.8309 14.2937 10.3979 13.8975C10.3664 13.8686 10.3349 13.8397 10.3047 13.8096C10.1853 14.2071 9.97409 14.9078 9.77596 15.2096C10.0043 16.5217 10.5121 17.4599 10.9752 18.4584L11.6129 16.2449C11.5316 16.1071 11.4935 15.9864 11.4883 15.8827C11.1616 16.0664 10.8099 16.1884 10.4438 16.2698C10.0449 15.8158 10.0108 15.3421 10.4438 14.8396C10.9332 14.9629 11.3833 15.1729 11.7966 15.4563C11.895 15.4235 12.0066 15.4156 12.1142 15.4327C12.5537 15.1164 13.1179 14.9918 13.61 14.7556C14.1939 15.3238 14.1309 15.8473 13.5575 16.3341C13.2111 16.254 12.8831 16.1281 12.5708 15.9628C12.5668 16.0467 12.5458 16.1412 12.5052 16.2449L13.1429 18.4584C13.6362 17.4205 14.1493 16.3905 14.266 15.2122C14.0705 14.9603 13.8632 14.6296 13.6848 14.341C13.631 14.2544 13.5798 14.1717 13.5326 14.0956ZM9.04248 9.92569L9.35608 10.7851C9.39019 10.8849 9.40069 10.9714 9.38626 11.0462L9.38888 11.0436C9.87961 11.5881 10.4845 11.9818 11.2127 12.2127C11.2495 12.1287 11.3006 12.0553 11.3754 11.9975C11.5972 11.8256 12.248 11.8414 12.4487 12.008C12.6167 12.1471 12.6193 12.4673 12.4947 12.6339C12.2349 12.9816 11.1537 12.689 10.7915 12.5722C10.2142 12.3859 9.68804 11.9385 9.20912 11.537L9.70116 12.319C9.99114 12.7796 10.2942 13.2493 10.6721 13.5944C11.0356 13.9263 11.4752 14.1507 12.0577 14.152C12.6889 14.1533 13.1494 13.9198 13.5247 13.5695C13.9144 13.2047 14.2214 12.7048 14.5245 12.2062L15.338 10.8652C15.4902 10.5188 15.5454 10.2865 15.5099 10.1514C15.4889 10.07 15.3997 10.0307 15.2475 10.0228C15.2147 10.0215 15.1819 10.0215 15.1478 10.0215C15.111 10.0228 15.073 10.0254 15.0336 10.028C15.0113 10.0293 14.9903 10.028 14.9706 10.0241C14.8985 10.028 14.8237 10.0228 14.7476 10.0123L15.0271 8.7789C12.9578 9.1043 11.4109 7.56912 9.22486 8.47186L9.38232 9.92569C9.29441 9.92963 9.21043 9.927 9.13302 9.91519C9.10284 9.92044 9.07135 9.92307 9.04248 9.92569Z" fill="#FA7070"/>
</svg>
