<svg width="20" height="20" viewBox="0 0 20 20" fill="none" xmlns="http://www.w3.org/2000/svg">
<path fill-rule="evenodd" clip-rule="evenodd" d="M10.5143 11.9043C10.471 11.9368 10.4187 11.9552 10.3645 11.957C10.3103 11.9587 10.2569 11.9437 10.2116 11.9141C9.21164 11.2844 8.3238 10.4923 7.58464 9.57031C6.67983 8.47072 6.07135 7.15795 5.81706 5.75684C5.6071 4.45638 5.80729 3.20638 6.45833 2.18913C6.72118 1.77591 7.05125 1.40953 7.4349 1.10514C8.27436 0.404256 9.32967 0.0139763 10.4232 0C11.4821 0.0170836 12.4961 0.430585 13.265 1.15885C13.5603 1.42956 13.8156 1.74083 14.0234 2.08333C14.7184 3.22266 14.8682 4.6875 14.5622 6.17188C14.3058 7.34979 13.8154 8.46419 13.12 9.44891C12.4247 10.4336 11.5386 11.2686 10.5143 11.9043ZM7.42188 12.0247V16.5527L12.3291 18.6686V12.8369C12.6987 12.5548 13.0494 12.2487 13.3789 11.9206V18.623L17.4479 16.5739V7.45931L15.8838 8.06152C16.0409 7.64684 16.1703 7.22218 16.2712 6.79037L17.7848 6.20606C17.914 6.15891 18.0565 6.1644 18.1816 6.22133C18.3067 6.27827 18.4045 6.38209 18.4538 6.51042C18.4774 6.57056 18.4895 6.6346 18.4896 6.69922V16.9043C18.49 17.0088 18.4593 17.1111 18.4013 17.1981C18.3433 17.2851 18.2607 17.3528 18.1641 17.3926L13.0859 19.943C13.0123 19.9804 12.9309 19.9998 12.8483 19.9998C12.7657 19.9998 12.6843 19.9804 12.6107 19.943L6.91406 17.474L2.01172 19.943C1.95028 19.9742 1.8833 19.9929 1.81461 19.9982C1.74593 20.0034 1.67688 19.995 1.61143 19.9736C1.54597 19.9521 1.48539 19.918 1.43315 19.8731C1.38091 19.8282 1.33803 19.7734 1.30697 19.7119C1.2701 19.6387 1.25061 19.5579 1.25 19.4759V8.66537C1.24997 8.55175 1.28675 8.44119 1.35482 8.35023C1.42289 8.25927 1.5186 8.19281 1.6276 8.16081L4.29362 7.13216C4.39261 7.46768 4.50998 7.79749 4.64518 8.12012L2.30143 9.02344V18.6263L6.37044 16.5771V10.9196C6.69794 11.3092 7.04908 11.6783 7.42188 12.0247ZM10.2262 2.31283C10.6679 2.31283 11.0996 2.44379 11.4669 2.68917C11.8341 2.93454 12.1203 3.2833 12.2893 3.69134C12.4583 4.09938 12.5026 4.54838 12.4164 4.98155C12.3302 5.41472 12.1176 5.81262 11.8053 6.12492C11.493 6.43722 11.0951 6.6499 10.6619 6.73606C10.2287 6.82223 9.77972 6.77801 9.37168 6.60899C8.96364 6.43997 8.61488 6.15375 8.3695 5.78653C8.12413 5.4193 7.99316 4.98756 7.99316 4.5459C7.99316 3.95365 8.22843 3.38566 8.64722 2.96688C9.066 2.54809 9.63399 2.31283 10.2262 2.31283Z" fill="#FA7070"/>
</svg>
