<svg width="42" height="42" viewBox="0 0 42 42" fill="none" xmlns="http://www.w3.org/2000/svg">
<path fill-rule="evenodd" clip-rule="evenodd" d="M16.6708 31.0048C17.9297 33.01 19.2911 35.4395 20.6355 37.8006C21.1339 38.6722 21.5839 38.8032 22.182 37.7693C23.4808 35.5164 24.7568 33.1837 26.1011 31.0077C30.1826 24.4027 36.8616 17.963 31.5497 9.07374C26.8331 1.18139 14.0049 2.02446 10.1683 9.3728C5.77072 17.7949 12.6377 24.585 16.6708 31.0048Z" fill="#FA7070"/>
<path fill-rule="evenodd" clip-rule="evenodd" d="M21.1302 10.7881C23.7819 10.7881 25.9322 12.9385 25.9322 15.5901C25.9322 18.2418 23.7819 20.3922 21.1302 20.3922C18.4785 20.3922 16.3281 18.2418 16.3281 15.5901C16.3281 12.9385 18.4785 10.7881 21.1302 10.7881Z" fill="#F6F7FA"/>
</svg>
