<svg width="24" height="24" viewBox="0 0 24 24" fill="none" xmlns="http://www.w3.org/2000/svg">
<path fill-rule="evenodd" clip-rule="evenodd" d="M9.52615 17.7171C10.2455 18.8628 11.0235 20.2511 11.7917 21.6004C12.0765 22.0984 12.3337 22.1733 12.6754 21.5825C13.4176 20.2951 14.1467 18.9621 14.9149 17.7187C17.2472 13.9444 21.0638 10.2645 18.0284 5.18499C15.3332 0.67508 8.00277 1.15683 5.81048 5.35589C3.29755 10.1685 7.22155 14.0486 9.52615 17.7171Z" fill="black" fill-opacity="0.35"/>
<path fill-rule="evenodd" clip-rule="evenodd" d="M12.0722 6.16504C13.5874 6.16504 14.8162 7.39383 14.8162 8.90907C14.8162 10.4243 13.5874 11.6531 12.0722 11.6531C10.5569 11.6531 9.32812 10.4243 9.32812 8.90907C9.32812 7.39383 10.5569 6.16504 12.0722 6.16504Z" fill="#F6F7FA"/>
</svg>
