<svg width="24" height="24" viewBox="0 0 24 24" fill="none" xmlns="http://www.w3.org/2000/svg">
<path d="M22 10.1668V12.9168C22 16.5835 20 18.4168 16 18.4168H15.5C15.19 18.4168 14.89 18.5543 14.7 18.7835L13.2 20.6168C12.54 21.4235 11.46 21.4235 10.8 20.6168L9.3 18.7835C9.14 18.5818 8.77 18.4168 8.5 18.4168H8C4 18.4168 2 17.5002 2 12.9168V8.3335C2 4.66683 4 2.8335 8 2.8335H14" stroke="#FA7070" stroke-width="1.5" stroke-miterlimit="10" stroke-linecap="round" stroke-linejoin="round"/>
<path d="M19.5 7.41683C20.163 7.41683 20.7989 7.17539 21.2678 6.74562C21.7366 6.31584 22 5.73295 22 5.12516C22 4.51737 21.7366 3.93448 21.2678 3.50471C20.7989 3.07494 20.163 2.8335 19.5 2.8335C18.837 2.8335 18.2011 3.07494 17.7322 3.50471C17.2634 3.93448 17 4.51737 17 5.12516C17 5.73295 17.2634 6.31584 17.7322 6.74562C18.2011 7.17539 18.837 7.41683 19.5 7.41683V7.41683Z" stroke="#FA7070" stroke-width="1.5" stroke-linecap="round" stroke-linejoin="round"/>
<path d="M15.9971 10.0835H16.0071M11.9961 10.0835H12.0061M7.99609 10.0835H8.00409" stroke="#FA7070" stroke-width="2" stroke-linecap="round" stroke-linejoin="round"/>
</svg>
