<svg width="24" height="24" viewBox="0 0 24 24" fill="none" xmlns="http://www.w3.org/2000/svg">
<path d="M22 4C22 5.10457 21.1046 6 20 6C18.8954 6 18 5.10457 18 4C18 2.89543 18.8954 2 20 2C21.1046 2 22 2.89543 22 4Z" fill="#FA7070" stroke="#FA7070" stroke-width="1.5"/>
<path d="M18.8813 8.88301L18.8837 8.88353C19.5923 9.03455 20.2803 9.03467 20.9318 8.91832L20.9319 8.9184L20.9425 8.91634C21.1199 8.882 21.25 9.01172 21.25 9.15V13.96C21.25 16.3058 19.3558 18.2 17.01 18.2H15.5C14.938 18.2 14.43 18.4657 14.1029 18.8962L14.1011 18.8986L12.6011 20.8886L12.6 20.89C12.3908 21.1689 12.1663 21.25 12 21.25C11.8337 21.25 11.6092 21.1689 11.4 20.89L11.3989 20.8886L9.90204 18.9027C9.73201 18.6717 9.49641 18.5047 9.28041 18.3967C9.06119 18.2871 8.78581 18.2 8.5 18.2H7C4.65421 18.2 2.75 16.2958 2.75 13.95V7C2.75 4.65421 4.65421 2.75 7 2.75H14.85C15.0055 2.75 15.12 2.8839 15.086 3.04609L15.0859 3.04608L15.0841 3.05544C14.9528 3.7237 14.9673 4.41642 15.1165 5.11633L15.117 5.11874C15.5192 6.97621 17.0238 8.48075 18.8813 8.88301ZM6.25 11C6.25 11.9593 7.0209 12.75 8 12.75C8.9791 12.75 9.75 11.9593 9.75 11C9.75 10.0358 8.96421 9.25 8 9.25C7.0209 9.25 6.25 10.0407 6.25 11ZM10.25 11C10.25 11.9593 11.0209 12.75 12 12.75C12.9791 12.75 13.75 11.9593 13.75 11C13.75 10.0358 12.9642 9.25 12 9.25C11.0209 9.25 10.25 10.0407 10.25 11ZM14.25 11C14.25 11.9593 15.0209 12.75 16 12.75C16.9791 12.75 17.75 11.9593 17.75 11C17.75 10.0358 16.9642 9.25 16 9.25C15.0209 9.25 14.25 10.0407 14.25 11Z" fill="#FA7070" stroke="#FA7070" stroke-width="1.5"/>
</svg>
