<svg width="342" height="342" viewBox="0 0 342 342" fill="none" xmlns="http://www.w3.org/2000/svg">
<path d="M70.4521 113.004C70.4521 113.004 42.3397 153.134 39.3574 193.086C36.3752 233.039 58.8651 270.084 97.8873 285.502C136.91 300.919 179.666 272.868 227.047 270.317C274.428 267.766 313.799 241.589 310.639 194.208C307.479 146.827 272.916 147.224 244.14 106.02C215.364 64.8159 139.338 22.873 70.4521 113.004Z" fill="url(#paint0_linear_1215_9373)"/>
<path opacity="0.7" d="M70.4521 113.004C70.4521 113.004 42.3397 153.134 39.3574 193.086C36.3752 233.039 58.8651 270.084 97.8873 285.502C136.91 300.919 179.666 272.868 227.047 270.317C274.428 267.766 313.799 241.589 310.639 194.208C307.479 146.827 272.916 147.224 244.14 106.02C215.364 64.8159 139.338 22.873 70.4521 113.004Z" fill="white"/>
<path d="M162.329 51.9841C153.593 54.8307 145.368 59.054 137.965 64.4944L138.512 69.0225C145.916 63.5773 154.14 59.3473 162.876 56.4916C179.966 50.7817 198.33 50.0698 215.811 54.4396L215.264 49.9047C197.78 45.5471 179.417 46.2685 162.329 51.9841Z" fill="#B8B8B8" stroke="#A6A6A6" stroke-linecap="round" stroke-linejoin="round"/>
<path d="M162.876 56.4916C154.14 59.3472 145.916 63.5773 138.512 69.0224L139.052 73.5574C146.458 68.1109 154.685 63.8808 163.423 61.0265C180.513 55.3199 198.877 54.6081 216.358 58.9745L215.811 54.4464C198.331 50.0744 179.966 50.7839 162.876 56.4916Z" fill="white" stroke="#A6A6A6" stroke-linecap="round" stroke-linejoin="round"/>
<path d="M163.422 61.0265C154.683 63.8809 146.456 68.111 139.051 73.5574L139.598 78.0855C147.005 72.6417 155.232 68.4118 163.969 65.5546C181.059 59.8447 199.423 59.1328 216.904 63.5026L216.356 58.9677C198.875 54.6035 180.511 55.3177 163.422 61.0265Z" fill="#B8B8B8" stroke="#A6A6A6" stroke-linecap="round" stroke-linejoin="round"/>
<path d="M163.969 65.5546C155.231 68.4117 147.005 72.6416 139.598 78.0854L140.145 82.6135C147.551 77.1693 155.778 72.9415 164.516 70.0895C181.605 64.3795 199.97 63.6676 217.451 68.0375L216.903 63.4957C199.422 59.1281 181.058 59.8424 163.969 65.5546Z" fill="white" stroke="#A6A6A6" stroke-linecap="round" stroke-linejoin="round"/>
<path d="M164.515 70.0896C155.777 72.9416 147.55 77.1694 140.145 82.6136L140.692 87.1485C148.095 81.7022 156.32 77.472 165.056 74.6177C182.148 68.9109 200.514 68.1991 217.997 72.5657L217.45 68.0444C199.97 63.6724 181.606 64.3819 164.515 70.0896Z" fill="#B8B8B8" stroke="#A6A6A6" stroke-linecap="round" stroke-linejoin="round"/>
<path d="M232.931 55.404L228.779 61.7858C228.617 62.0367 228.517 62.3235 228.49 62.6214C228.463 62.9192 228.508 63.2193 228.622 63.4958L231.522 70.5341C231.655 70.852 231.695 71.2007 231.639 71.5405C231.583 71.8803 231.433 72.1976 231.206 72.4563C230.979 72.715 230.683 72.9047 230.353 73.0038C230.024 73.103 229.673 73.1075 229.34 73.017L221.987 71.0403C221.698 70.9637 221.395 70.958 221.103 71.0234C220.812 71.0889 220.54 71.2237 220.312 71.4165L214.518 76.355C214.256 76.5791 213.936 76.7252 213.594 76.7767C213.253 76.8281 212.904 76.7829 212.587 76.6462C212.27 76.5095 211.998 76.2867 211.801 76.0031C211.605 75.7195 211.491 75.3864 211.474 75.0417L211.084 67.4424C211.068 67.1438 210.98 66.8535 210.828 66.5962C210.676 66.3389 210.463 66.1224 210.209 65.965L203.725 61.9773C203.431 61.7972 203.194 61.5387 203.04 61.2309C202.885 60.9231 202.82 60.5783 202.851 60.2354C202.883 59.8925 203.009 59.5652 203.217 59.2905C203.424 59.0157 203.704 58.8044 204.025 58.6804L211.139 55.9444C211.411 55.8438 211.656 55.6806 211.853 55.4679C212.05 55.2552 212.195 54.999 212.275 54.72L214.094 47.2918C214.175 46.9571 214.347 46.6517 214.592 46.4099C214.837 46.1682 215.145 45.9997 215.481 45.9236C215.817 45.8475 216.167 45.8668 216.492 45.9792C216.818 46.0916 217.105 46.2928 217.322 46.5599L222.11 52.4834C222.298 52.7171 222.541 52.9016 222.816 53.0208C223.091 53.1399 223.391 53.1903 223.69 53.1674L231.276 52.586C231.612 52.5703 231.946 52.6468 232.242 52.8071C232.537 52.9674 232.784 53.2054 232.954 53.4954C233.125 53.7855 233.213 54.1166 233.208 54.4529C233.204 54.7893 233.109 55.1182 232.931 55.404Z" fill="#FA7070" stroke="#A6A6A6" stroke-linecap="round" stroke-linejoin="round"/>
<path d="M227.089 87.2443L224.511 90.2881C224.411 90.4079 224.341 90.55 224.308 90.7024C224.274 90.8548 224.278 91.013 224.319 91.1636L225.379 94.9872C225.429 95.1602 225.429 95.3438 225.379 95.5168C225.329 95.6898 225.231 95.8452 225.097 95.9652C224.963 96.0852 224.797 96.1649 224.62 96.1951C224.442 96.2254 224.26 96.205 224.093 96.1363L220.413 94.6588C220.27 94.5985 220.113 94.575 219.958 94.5905C219.802 94.606 219.653 94.6601 219.524 94.7478L216.221 96.9366C216.071 97.0376 215.896 97.0944 215.716 97.1004C215.536 97.1065 215.358 97.0616 215.202 96.9708C215.046 96.88 214.919 96.7472 214.836 96.5874C214.752 96.4277 214.715 96.2476 214.729 96.0679L214.996 92.1144C215.009 91.9589 214.983 91.8027 214.921 91.6595C214.859 91.5164 214.763 91.3907 214.64 91.2936L211.528 88.8243C211.387 88.713 211.28 88.5642 211.22 88.395C211.159 88.2257 211.148 88.0429 211.186 87.8674C211.225 87.6919 211.312 87.5307 211.438 87.4024C211.564 87.2741 211.723 87.1837 211.898 87.1417L215.742 86.1772C215.896 86.1405 216.039 86.0664 216.159 85.9615C216.278 85.8565 216.37 85.7239 216.426 85.5753L217.794 81.8612C217.857 81.6934 217.965 81.5465 218.107 81.437C218.249 81.3275 218.419 81.2597 218.597 81.2412C218.775 81.2227 218.955 81.2543 219.117 81.3324C219.278 81.4105 219.414 81.5321 219.511 81.6834L221.61 85.0486C221.694 85.1813 221.809 85.2916 221.945 85.3703C222.081 85.4489 222.233 85.4934 222.39 85.5001L226.351 85.6711C226.533 85.6701 226.713 85.7214 226.867 85.819C227.022 85.9165 227.145 86.0562 227.223 86.2217C227.3 86.3871 227.329 86.5712 227.305 86.7525C227.282 86.9337 227.207 87.1043 227.089 87.2443Z" fill="#FA7070" stroke="#A6A6A6" stroke-linecap="round" stroke-linejoin="round"/>
<path d="M144.503 73.4343C144.008 73.4373 143.514 73.4785 143.025 73.5574C143.025 73.2223 143.073 72.8734 143.073 72.5383C143.078 69.442 141.883 66.4644 139.738 64.2314C137.593 61.9984 134.666 60.6839 131.572 60.5644C128.478 60.4448 125.458 61.5294 123.148 63.5902C120.837 65.651 119.415 68.5275 119.181 71.6149C117.428 71.1699 115.59 71.1917 113.848 71.6781C112.106 72.1644 110.522 73.0984 109.254 74.387C107.985 75.6756 107.076 77.274 106.617 79.023C106.158 80.7721 106.164 82.6109 106.637 84.3565C107.109 86.102 108.03 87.6935 109.308 88.9726C110.586 90.2517 112.177 91.1738 113.923 91.6471C115.668 92.1203 117.507 92.1284 119.256 91.6703C121.005 91.2123 122.604 90.3042 123.894 89.0363C124.74 89.8891 125.75 90.5615 126.863 91.013C127.977 91.4646 129.17 91.6858 130.371 91.6635C131.572 91.6411 132.756 91.3755 133.852 90.8829C134.948 90.3902 135.932 89.6806 136.746 88.7969C137.723 90.124 139.024 91.1786 140.525 91.86C142.025 92.5414 143.675 92.827 145.317 92.6894C146.96 92.5519 148.539 91.9959 149.905 91.0744C151.272 90.1528 152.379 88.8966 153.122 87.4255C153.865 85.9544 154.218 84.3175 154.148 82.671C154.079 81.0245 153.588 79.4233 152.724 78.0202C151.859 76.6171 150.65 75.4589 149.211 74.6561C147.772 73.8533 146.151 73.4326 144.503 73.4343Z" fill="white" stroke="#A6A6A6" stroke-linecap="round" stroke-linejoin="round"/>
<path d="M101.074 192.464V137.388C101.074 134.76 102.118 132.239 103.977 130.38C105.836 128.521 108.357 127.477 110.985 127.477C113.615 127.477 116.136 128.521 117.996 130.38C119.856 132.238 120.902 134.759 120.903 137.388V141.814" stroke="#263238" stroke-width="4" stroke-linecap="round" stroke-linejoin="round"/>
<path d="M120.664 143.243V165.227" stroke="#263238" stroke-linecap="round" stroke-linejoin="round"/>
<path d="M110.391 159.249V170.001" stroke="#263238" stroke-linecap="round" stroke-linejoin="round"/>
<path d="M134.283 148.743L110.391 159.249" stroke="#263238" stroke-width="4" stroke-linecap="round" stroke-linejoin="round"/>
<path d="M134.281 160.925V148.743" stroke="#263238" stroke-linecap="round" stroke-linejoin="round"/>
<path d="M123.292 143.243C123.292 142.724 123.138 142.216 122.85 141.784C122.561 141.352 122.151 141.015 121.671 140.817C121.191 140.618 120.663 140.566 120.153 140.667C119.644 140.769 119.176 141.019 118.808 141.386C118.441 141.753 118.191 142.221 118.09 142.731C117.988 143.24 118.04 143.768 118.239 144.248C118.438 144.728 118.774 145.139 119.206 145.427C119.638 145.716 120.146 145.87 120.666 145.87C121.362 145.87 122.03 145.593 122.523 145.101C123.015 144.608 123.292 143.94 123.292 143.243Z" fill="#FA7070" stroke="#263238" stroke-linecap="round" stroke-linejoin="round"/>
<path d="M118.242 173.722L114.877 177.744L116.279 182.799L111.416 180.843L107.045 183.736L107.401 178.503L103.297 175.248L108.386 173.968L110.219 169.057L113.003 173.503L118.242 173.722Z" fill="#FA7070" stroke="#263238" stroke-linecap="round" stroke-linejoin="round"/>
<path d="M117.191 169.919C118.649 169.919 119.831 168.737 119.831 167.279C119.831 165.821 118.649 164.639 117.191 164.639C115.733 164.639 114.551 165.821 114.551 167.279C114.551 168.737 115.733 169.919 117.191 169.919Z" fill="white" stroke="#263238" stroke-linecap="round" stroke-linejoin="round"/>
<path d="M120.868 168.004C122.549 168.004 123.912 166.641 123.912 164.96C123.912 163.279 122.549 161.917 120.868 161.917C119.187 161.917 117.824 163.279 117.824 164.96C117.824 166.641 119.187 168.004 120.868 168.004Z" fill="white" stroke="#263238" stroke-linecap="round" stroke-linejoin="round"/>
<path d="M124.284 170.097C125.64 170.097 126.739 168.998 126.739 167.642C126.739 166.285 125.64 165.186 124.284 165.186C122.928 165.186 121.828 166.285 121.828 167.642C121.828 168.998 122.928 170.097 124.284 170.097Z" fill="white" stroke="#263238" stroke-linecap="round" stroke-linejoin="round"/>
<path d="M122.917 167.58C122.915 168.029 122.781 168.467 122.531 168.84C122.28 169.212 121.925 169.502 121.51 169.673C121.095 169.844 120.639 169.888 120.199 169.8C119.759 169.711 119.355 169.494 119.038 169.176C118.721 168.859 118.505 168.454 118.418 168.014C118.331 167.573 118.376 167.117 118.549 166.703C118.721 166.288 119.012 165.934 119.385 165.684C119.758 165.435 120.197 165.302 120.646 165.302C120.945 165.302 121.241 165.361 121.516 165.476C121.792 165.59 122.043 165.758 122.254 165.97C122.465 166.181 122.632 166.433 122.746 166.709C122.86 166.985 122.918 167.281 122.917 167.58Z" fill="white" stroke="#263238" stroke-linecap="round" stroke-linejoin="round"/>
<path d="M131.833 159.235C131.332 159.237 130.834 159.299 130.348 159.42C131.446 159.987 132.344 160.875 132.924 161.965C133.504 163.056 133.739 164.297 133.596 165.523C133.453 166.75 132.941 167.905 132.126 168.833C131.311 169.761 130.233 170.419 129.035 170.72C129.853 171.142 130.756 171.373 131.676 171.395C132.596 171.417 133.509 171.231 134.346 170.849C135.183 170.467 135.923 169.9 136.51 169.191C137.096 168.482 137.514 167.649 137.732 166.755C137.95 165.861 137.962 164.929 137.767 164.03C137.572 163.13 137.176 162.287 136.608 161.563C136.04 160.839 135.315 160.253 134.488 159.85C133.661 159.447 132.753 159.237 131.833 159.235Z" fill="white" stroke="#263238" stroke-linecap="round" stroke-linejoin="round"/>
<path d="M105.479 242.136H242.409C244.466 242.136 246.439 242.953 247.894 244.408C249.349 245.862 250.166 247.835 250.166 249.893V261.835H97.7227V249.858C97.7317 247.807 98.5529 245.843 100.007 244.396C101.46 242.948 103.428 242.136 105.479 242.136Z" fill="#FA7070" stroke="#263238" stroke-linecap="round" stroke-linejoin="round"/>
<path d="M123.311 242.136H101.697C100.675 242.107 99.6834 242.483 98.9386 243.183C98.1938 243.883 97.7566 244.849 97.7227 245.871V261.835H123.311V242.136Z" fill="white" stroke="#263238" stroke-linecap="round" stroke-linejoin="round"/>
<path d="M104.734 193.435H101.93V261.507H104.734V193.435Z" fill="white" stroke="#263238" stroke-linecap="round" stroke-linejoin="round"/>
<path d="M112.523 193.435H109.719V261.507H112.523V193.435Z" fill="white" stroke="#263238" stroke-linecap="round" stroke-linejoin="round"/>
<path d="M120.308 193.435H117.504V261.507H120.308V193.435Z" fill="white" stroke="#263238" stroke-linecap="round" stroke-linejoin="round"/>
<path d="M128.101 193.435H125.297V261.507H128.101V193.435Z" fill="white" stroke="#263238" stroke-linecap="round" stroke-linejoin="round"/>
<path d="M135.883 193.435H133.078V261.507H135.883V193.435Z" fill="white" stroke="#263238" stroke-linecap="round" stroke-linejoin="round"/>
<path d="M143.675 193.435H140.871V261.507H143.675V193.435Z" fill="white" stroke="#263238" stroke-linecap="round" stroke-linejoin="round"/>
<path d="M151.465 193.435H148.66V261.507H151.465V193.435Z" fill="white" stroke="#263238" stroke-linecap="round" stroke-linejoin="round"/>
<path d="M159.25 193.435H156.445V261.507H159.25V193.435Z" fill="white" stroke="#263238" stroke-linecap="round" stroke-linejoin="round"/>
<path d="M167.039 193.435H164.234V261.507H167.039V193.435Z" fill="white" stroke="#263238" stroke-linecap="round" stroke-linejoin="round"/>
<path d="M174.824 193.435H172.02V261.507H174.824V193.435Z" fill="white" stroke="#263238" stroke-linecap="round" stroke-linejoin="round"/>
<path d="M182.613 193.435H179.809V261.507H182.613V193.435Z" fill="white" stroke="#263238" stroke-linecap="round" stroke-linejoin="round"/>
<path d="M190.398 193.435H187.594V261.507H190.398V193.435Z" fill="white" stroke="#263238" stroke-linecap="round" stroke-linejoin="round"/>
<path d="M198.187 193.435H195.383V261.507H198.187V193.435Z" fill="white" stroke="#263238" stroke-linecap="round" stroke-linejoin="round"/>
<path d="M205.972 193.435H203.168V261.507H205.972V193.435Z" fill="white" stroke="#263238" stroke-linecap="round" stroke-linejoin="round"/>
<path d="M213.765 193.435H210.961V261.507H213.765V193.435Z" fill="white" stroke="#263238" stroke-linecap="round" stroke-linejoin="round"/>
<path d="M221.547 193.435H218.742V261.507H221.547V193.435Z" fill="white" stroke="#263238" stroke-linecap="round" stroke-linejoin="round"/>
<path d="M229.34 193.435H226.535V261.507H229.34V193.435Z" fill="white" stroke="#263238" stroke-linecap="round" stroke-linejoin="round"/>
<path d="M237.129 193.435H234.324V261.507H237.129V193.435Z" fill="white" stroke="#263238" stroke-linecap="round" stroke-linejoin="round"/>
<path d="M244.914 193.435H242.109V261.507H244.914V193.435Z" fill="white" stroke="#263238" stroke-linecap="round" stroke-linejoin="round"/>
<path d="M250.166 192.45H97.7227V195.084H250.166V192.45Z" fill="white" stroke="#263238" stroke-linecap="round" stroke-linejoin="round"/>
<path d="M250.166 259.865H97.7227V269.4H250.166V259.865Z" fill="white" stroke="#263238" stroke-linecap="round" stroke-linejoin="round"/>
<path d="M97.73 167.122H93.5234V296.035H97.73V167.122Z" fill="white" stroke="#263238" stroke-linecap="round" stroke-linejoin="round"/>
<path d="M97.73 178.695H93.5234V296.035H97.73V178.695Z" fill="white" stroke="#263238" stroke-linecap="round" stroke-linejoin="round"/>
<path d="M253.675 167.122H249.469V296.035H253.675V167.122Z" fill="white" stroke="#263238" stroke-linecap="round" stroke-linejoin="round"/>
<path d="M253.675 178.695H249.469V296.035H253.675V178.695Z" fill="white" stroke="#263238" stroke-linecap="round" stroke-linejoin="round"/>
<path d="M46.5117 296.035H308.484" stroke="#263238" stroke-linecap="round" stroke-linejoin="round"/>
<path d="M173.051 307.116C191.183 307.116 205.883 304.871 205.883 302.102C205.883 299.333 191.183 297.089 173.051 297.089C154.918 297.089 140.219 299.333 140.219 302.102C140.219 304.871 154.918 307.116 173.051 307.116Z" fill="#FA7070"/>
<path opacity="0.5" d="M173.051 307.116C191.183 307.116 205.883 304.871 205.883 302.102C205.883 299.333 191.183 297.089 173.051 297.089C154.918 297.089 140.219 299.333 140.219 302.102C140.219 304.871 154.918 307.116 173.051 307.116Z" fill="white"/>
<path d="M156.777 162.936C156.777 162.936 152.536 167.648 150.963 168.907C149.39 170.165 149.862 171.424 150.888 172.443C151.914 173.462 154.185 174.878 155.676 175.904C157.167 176.93 158.747 176.294 158.898 175.904C159.048 175.514 156.62 171.424 156.62 171.424L156.387 170.562C157.761 169.054 159.23 167.635 160.785 166.315C162.516 164.947 164.089 164.194 163.378 161.759C162.666 159.324 160.156 158.455 159.212 158.927C158.268 159.399 156.777 162.936 156.777 162.936Z" fill="white" stroke="#263238" stroke-linecap="round" stroke-linejoin="round"/>
<path d="M156.545 130.794C153.188 133.869 150.649 137.731 149.158 142.033C146.881 148.948 147.038 154.057 150.964 157.279C154.89 160.501 158.276 159.372 158.276 159.372L161.34 162.676C159.77 164.783 158.525 167.114 157.647 169.591C156.149 173.757 154.186 174.536 154.11 175.638C154.035 176.739 154.74 177.997 156.621 179.413C158.502 180.829 158.823 181.376 160.157 181.534C161.491 181.691 162.749 181.376 162.893 181.062C163.037 180.747 162.421 179.646 162.031 179.01C161.641 178.373 160.458 175.159 160.458 175.159C163.361 172.826 165.928 170.103 168.085 167.067C170.992 162.669 172.011 159.68 171.149 156.301C170.287 152.922 165.882 150.329 165.882 150.329C165.882 150.329 168.085 144.857 168.002 142.121C167.92 139.385 164.391 133.797 162.031 131.985C159.671 130.172 157.961 129.775 156.545 130.794Z" fill="white" stroke="#263238" stroke-linecap="round" stroke-linejoin="round"/>
<path d="M167.66 151.622C167.101 151.164 166.511 150.744 165.896 150.364C165.896 150.364 168.098 144.892 168.016 142.156C167.934 139.42 164.405 133.831 162.045 132.019C159.685 130.206 157.941 129.741 156.573 130.76C153.215 133.835 150.676 137.697 149.186 141.998C146.908 148.914 147.065 154.023 150.991 157.245C153.83 159.57 156.374 159.646 157.571 159.502C159.179 157.033 162.359 152.915 166.272 151.978C166.741 151.883 167.204 151.765 167.66 151.622Z" fill="#FA7070" stroke="#263238" stroke-linecap="round" stroke-linejoin="round"/>
<path d="M150.957 166.93C153.794 166.93 156.094 164.471 156.094 161.438C156.094 158.404 153.794 155.945 150.957 155.945C148.12 155.945 145.82 158.404 145.82 161.438C145.82 164.471 148.12 166.93 150.957 166.93Z" fill="#B8B8B8" stroke="#263238" stroke-linecap="round" stroke-linejoin="round"/>
<path d="M148.918 155.788C149.821 154.579 150.611 153.29 151.278 151.937C151.75 150.911 155.601 149.105 155.833 149.502C156.066 149.899 155.991 150.521 155.286 151.465C154.582 152.409 153.084 153.353 153.009 153.585C152.933 153.818 152.454 156.102 152.454 156.102C153.747 154.615 155.117 153.198 156.558 151.855C157.892 150.754 159.855 149.577 160.095 149.803C160.275 150.114 160.383 150.463 160.409 150.822C160.409 150.822 162.215 150.138 162.461 151.054C162.537 151.314 162.545 151.589 162.487 151.853C162.428 152.117 162.304 152.362 162.126 152.566C162.126 152.566 164.117 152.628 163.72 154.201C163.499 155.125 163.068 155.986 162.461 156.718C162.483 157.78 162.249 158.831 161.777 159.782C160.991 161.273 159.725 163.476 157.379 164.338C155.033 165.2 150.382 165.022 148.576 164.023C146.77 163.024 147.714 160.644 148.104 158.838C148.313 157.806 148.584 156.787 148.918 155.788Z" fill="white" stroke="#263238" stroke-linecap="round" stroke-linejoin="round"/>
<path d="M160.397 150.836C160.397 150.836 156.703 155.001 155.992 155.706C155.28 156.41 154.973 156.807 154.973 156.807" fill="white"/>
<path d="M160.397 150.836C160.397 150.836 156.703 155.001 155.992 155.706C155.28 156.41 154.973 156.807 154.973 156.807" stroke="#263238" stroke-linecap="round" stroke-linejoin="round"/>
<path d="M162.1 152.58L157.723 158.141" stroke="#263238" stroke-linecap="round" stroke-linejoin="round"/>
<path d="M162.435 156.732L160.082 159.639" stroke="#263238" stroke-linecap="round" stroke-linejoin="round"/>
<path d="M155.129 116.663C155.866 115.228 156.931 113.988 158.239 113.044C159.547 112.1 161.059 111.479 162.653 111.232C167.681 110.548 170.827 112.019 172.633 114.139C174.438 116.259 174.049 120.295 174.206 120.979C174.336 121.567 175.15 121.971 175.512 122.409C177.318 124.618 175.389 128.565 173.727 130.35C172.719 131.378 171.503 132.18 170.161 132.702C168.819 133.224 167.381 133.456 165.943 133.38C162.851 133.257 158.932 132.375 156.661 130.145C153.009 126.54 152.831 120.876 155.129 116.663Z" fill="white" stroke="#263238" stroke-linecap="round" stroke-linejoin="round"/>
<path d="M165.738 123.12C165.738 123.12 166.84 121.622 168.173 122.176" stroke="#263238" stroke-linecap="round" stroke-linejoin="round"/>
<path d="M167.578 118.934C167.074 118.809 166.543 118.849 166.063 119.047C165.583 119.245 165.179 119.591 164.91 120.035" stroke="#263238" stroke-linecap="round" stroke-linejoin="round"/>
<path d="M171.32 121.287C171.579 121.017 171.911 120.829 172.276 120.745C172.64 120.661 173.021 120.685 173.372 120.815" stroke="#263238" stroke-linecap="round" stroke-linejoin="round"/>
<path d="M170.848 118.694C170.977 118.473 171.149 118.28 171.355 118.127C171.561 117.974 171.796 117.865 172.046 117.806C172.296 117.747 172.555 117.74 172.807 117.784C173.06 117.829 173.301 117.924 173.515 118.065" stroke="#263238" stroke-linecap="round" stroke-linejoin="round"/>
<path d="M171.637 123.489C171.757 123.697 171.82 123.933 171.82 124.173C171.82 124.413 171.757 124.649 171.637 124.857C171.469 125.149 171.193 125.362 170.869 125.45C170.545 125.539 170.199 125.495 169.906 125.329" stroke="#263238" stroke-linecap="round" stroke-linejoin="round"/>
<path d="M167.312 126.478C167.742 126.809 168.244 127.031 168.778 127.127C169.311 127.222 169.86 127.187 170.377 127.026" stroke="#263238" stroke-linecap="round" stroke-linejoin="round"/>
<path d="M202.915 96.6013C202.915 96.6013 208.9 96.3345 211.691 102.853C214.481 109.372 212.224 113.489 210.364 116.013C208.503 118.537 210.097 119.474 213.291 120.671C216.486 121.868 221.397 130.637 217.676 136.492C213.955 142.347 208.1 141.54 208.1 144.338C208.1 147.135 208.784 152.546 202.252 155.104C195.719 157.662 189.221 154.174 188.428 149.119C187.634 144.064 192.682 132.901 192.149 128.113C191.615 123.325 188.955 118.674 186.964 118.277C184.974 117.881 179.385 118.674 178.852 114.953C178.318 111.232 180.849 104.317 179.782 100.329C178.715 96.3414 174.864 93.4138 172.47 93.4138C170.076 93.4138 175.528 89.4261 182.73 91.0198C189.933 92.6136 197.484 97.0048 199.878 97.4016C202.272 97.7983 202.915 96.6013 202.915 96.6013Z" fill="#263238" stroke="#263238" stroke-linecap="round" stroke-linejoin="round"/>
<path d="M166.893 83.0443C166.893 83.0443 163.302 82.2441 158.781 84.768C154.26 87.292 155.457 94.7407 159.048 97.0048C162.639 99.2688 166.626 98.2018 167.823 97.1347C169.02 96.0677 166.36 90.753 168.09 88.2427C169.821 85.7325 169.28 83.571 166.893 83.0443Z" fill="#263238" stroke="#263238" stroke-linecap="round" stroke-linejoin="round"/>
<path d="M165.425 92.3399C165.158 92.7435 164.741 98.5917 165.555 100.452C166.369 102.313 168.216 104.043 167.819 105.767C167.422 107.491 166.219 109.625 166.889 110.425C167.559 111.225 170.309 111.622 170.309 111.622C170.309 111.622 170.309 113.879 170.706 114.146C171.038 114.334 171.398 114.468 171.773 114.543C171.773 114.543 171.506 115.343 172.169 115.61C172.639 115.778 173.134 115.869 173.633 115.876C173.633 115.876 175.63 117.34 177.224 117.203C177.888 117.13 178.52 116.883 179.057 116.487C179.594 116.09 180.017 115.559 180.282 114.946C180.678 114.016 183.209 104.043 181.875 98.0582C180.542 92.0732 172.566 90.4794 169.509 90.6162C166.451 90.753 165.425 92.3399 165.425 92.3399Z" fill="white" stroke="#263238" stroke-linecap="round" stroke-linejoin="round"/>
<path d="M170.344 102.456L170.877 104.18" stroke="#263238" stroke-linecap="round" stroke-linejoin="round"/>
<path d="M170.211 104.317C170.211 104.317 171.271 105.001 173.002 103.516" stroke="#263238" stroke-linecap="round" stroke-linejoin="round"/>
<path d="M168.482 100.459C168.482 100.459 167.682 98.7285 171.143 99.1321" stroke="#263238" stroke-linecap="round" stroke-linejoin="round"/>
<path d="M169.541 83.5711C169.541 83.5711 166.217 81.1771 162.496 85.4316C158.775 89.686 162.893 92.4836 165.157 93.4138C167.421 94.3441 171.408 93.0103 171.408 93.0103C171.408 93.0103 174.329 97.6683 176.593 98.3318C178.857 98.9953 180.177 99.1321 178.85 104.18C177.523 109.228 176.326 113.072 177.653 116.28C178.98 119.488 182.441 123.729 195.075 120.801C207.708 117.874 209.829 106.437 206.771 100.329C203.714 94.2209 199.042 97.0048 198.392 92.6135C197.742 88.2223 198.796 82.3536 191.217 78.6531C183.638 74.9527 173.536 76.1292 169.541 83.5711Z" fill="#263238" stroke="#263238" stroke-linecap="round" stroke-linejoin="round"/>
<path d="M211.907 137.518C211.452 138.085 210.895 138.563 210.266 138.927" stroke="#B8B8B8" stroke-linecap="round" stroke-linejoin="round"/>
<path d="M186.691 101.061C190.706 101.027 194.551 100.035 198.484 105.014C203.921 111.909 200.659 113.359 200.474 117.532C200.289 121.704 203.744 123.872 208.634 125.329C212.191 126.376 214.216 131.444 213.046 135.316" stroke="#B8B8B8" stroke-linecap="round" stroke-linejoin="round"/>
<path d="M177.078 93.0239C177.078 93.0239 176.175 97.9145 181.976 100.274C182.399 100.445 182.833 100.587 183.275 100.698" stroke="#B8B8B8" stroke-linecap="round" stroke-linejoin="round"/>
<path d="M182.625 83.9473C184.452 84.7218 185.918 86.1586 186.729 87.9692C190.361 95.0417 189.814 98.4891 199.041 100.281C208.268 102.073 210.464 106.807 209.739 112.067C209.014 117.326 205.026 118.961 207.386 121.499C209.746 124.037 215.546 122.039 216.996 128.387" stroke="#B8B8B8" stroke-linecap="round" stroke-linejoin="round"/>
<path d="M176.539 84.3439C177.275 83.9902 178.058 83.7438 178.865 83.6121" stroke="#B8B8B8" stroke-linecap="round" stroke-linejoin="round"/>
<path d="M185.932 203.08C185.932 203.08 185.049 214.92 184.612 224.126C184.174 233.333 184.502 236.185 185.822 239.694C187.143 243.203 188.23 243.531 189.106 250.323C189.981 257.116 186.588 272.362 186.26 278.169C185.932 283.976 182.97 291.541 182.751 293.518C182.532 295.495 182.861 298.121 181.547 299.544C180.234 300.967 178.811 300.748 174.42 299.872C170.029 298.997 169.051 298.45 165.432 299.106C161.814 299.763 157.224 299.872 155.781 298.887C154.338 297.902 153.811 296.151 155.015 296.035C158.765 295.547 162.34 294.155 165.432 291.979C169.926 288.798 171.787 285.734 173.64 280.351C175.494 274.968 174.735 258.867 174.735 254.263C174.735 249.66 168.264 239.797 167.06 229.379C165.856 218.962 166.732 205.487 166.732 198.798C166.732 192.108 167.717 176.547 167.717 176.547L189.092 174.133C189.092 174.133 191.725 180.056 189.974 188.278C188.904 193.283 187.555 198.225 185.932 203.08Z" fill="#FA7070"/>
<mask id="mask0_1215_9373" style="mask-type:luminance" maskUnits="userSpaceOnUse" x="154" y="174" width="37" height="127">
<path d="M185.932 203.08C185.932 203.08 185.049 214.92 184.612 224.126C184.174 233.333 184.502 236.185 185.822 239.694C187.143 243.203 188.23 243.531 189.106 250.323C189.981 257.116 186.588 272.362 186.26 278.169C185.932 283.976 182.97 291.541 182.751 293.518C182.532 295.495 182.861 298.121 181.547 299.544C180.234 300.967 178.811 300.748 174.42 299.872C170.029 298.997 169.051 298.45 165.432 299.106C161.814 299.763 157.224 299.872 155.781 298.887C154.338 297.902 153.811 296.151 155.015 296.035C158.765 295.547 162.34 294.155 165.432 291.979C169.926 288.798 171.787 285.734 173.64 280.351C175.494 274.968 174.735 258.867 174.735 254.263C174.735 249.66 168.264 239.797 167.06 229.379C165.856 218.962 166.732 205.487 166.732 198.798C166.732 192.108 167.717 176.547 167.717 176.547L189.092 174.133C189.092 174.133 191.725 180.056 189.974 188.278C188.904 193.283 187.555 198.225 185.932 203.08Z" fill="white"/>
</mask>
<g mask="url(#mask0_1215_9373)">
<path opacity="0.31" d="M185.932 203.08C185.932 203.08 185.049 214.92 184.612 224.126C184.174 233.333 184.502 236.185 185.822 239.694C187.143 243.203 188.23 243.531 189.106 250.323C189.981 257.116 186.588 272.362 186.26 278.169C185.932 283.976 182.97 291.541 182.751 293.518C182.532 295.495 182.861 298.121 181.547 299.544C180.234 300.967 178.811 300.748 174.42 299.872C170.029 298.997 169.051 298.45 165.432 299.106C161.814 299.763 157.224 299.872 155.781 298.887C154.338 297.902 153.811 296.151 155.015 296.035C158.765 295.547 162.34 294.155 165.432 291.979C169.926 288.798 171.787 285.734 173.64 280.351C175.494 274.968 174.735 258.867 174.735 254.263C174.735 249.66 168.264 239.797 167.06 229.379C165.856 218.962 166.732 205.487 166.732 198.798C166.732 192.108 167.717 176.547 167.717 176.547L189.092 174.133C189.092 174.133 191.725 180.056 189.974 188.278C188.904 193.283 187.555 198.225 185.932 203.08Z" fill="black"/>
</g>
<path d="M185.932 203.08C185.932 203.08 185.049 214.92 184.612 224.126C184.174 233.333 184.502 236.185 185.822 239.694C187.143 243.203 188.23 243.531 189.106 250.323C189.981 257.116 186.588 272.362 186.26 278.169C185.932 283.976 182.97 291.541 182.751 293.518C182.532 295.495 182.861 298.121 181.547 299.544C180.234 300.967 178.811 300.748 174.42 299.872C170.029 298.997 169.051 298.45 165.432 299.106C161.814 299.763 157.224 299.872 155.781 298.887C154.338 297.902 153.811 296.151 155.015 296.035C158.765 295.547 162.34 294.155 165.432 291.979C169.926 288.798 171.787 285.734 173.64 280.351C175.494 274.968 174.735 258.867 174.735 254.263C174.735 249.66 168.264 239.797 167.06 229.379C165.856 218.962 166.732 205.487 166.732 198.798C166.732 192.108 167.717 176.547 167.717 176.547L189.092 174.133C189.092 174.133 191.725 180.056 189.974 188.278C188.904 193.283 187.555 198.225 185.932 203.08Z" stroke="#263238" stroke-linecap="round" stroke-linejoin="round"/>
<path d="M156.8 300.488C156.8 300.488 155.891 300.775 156.732 301.692C157.573 302.608 158.633 303.45 164.345 304.229C170.056 305.009 175.344 304.229 178.305 303.942C181.267 303.655 184.646 303.593 186.199 302.814C187.751 302.034 187.464 301.48 187.184 300.912L186.903 300.351C186.903 300.351 188.271 302.041 176.684 302.109C165.097 302.177 160.679 301.617 159.625 301.336C158.572 301.056 156.8 300.488 156.8 300.488Z" stroke="#263238" stroke-linecap="round" stroke-linejoin="round"/>
<path d="M175.06 290.016C172.654 292.02 169.999 293.703 167.16 295.023C162.16 297.417 157.714 298.265 156.448 298.894C155.183 299.524 156.729 301.22 158.425 302.068C160.121 302.916 164.41 303.833 169.068 303.689C173.22 303.518 177.36 303.119 181.469 302.492C185.067 302 186.9 302.492 187.249 299.954C187.598 297.417 185.771 293.47 185.347 292.43C185.053 291.565 184.865 290.667 184.786 289.756L175.06 290.016Z" fill="white" stroke="#263238" stroke-linecap="round" stroke-linejoin="round"/>
<path d="M170.241 303.614C169.092 301.562 167.67 299.428 166.753 298.108C166.206 297.321 165.659 296.569 165.152 295.891C163.955 296.391 162.813 296.801 161.773 297.15C162.95 298.662 164.756 301.206 166.24 303.621C167.15 303.675 168.1 303.689 169.072 303.662L170.241 303.614Z" fill="#263238"/>
<path d="M180.316 302.622C181.45 299.681 182.733 296.8 184.16 293.99C184.721 293.894 185.282 293.771 185.864 293.614C185.645 293.073 185.453 292.643 185.351 292.383C185.31 292.287 185.275 292.177 185.241 292.068C181.386 293.004 177.33 292.658 173.688 291.083C173.264 291.404 172.745 291.767 172.129 292.177C174.869 293.547 177.889 294.263 180.953 294.27C181.363 294.27 181.78 294.27 182.204 294.223C180.799 297.028 179.557 299.913 178.483 302.861L180.316 302.622Z" fill="#263238"/>
<path d="M196.404 114.816C196.404 114.816 199.461 115.617 198.798 124.125C198.134 132.634 198.798 138.086 192.416 147.662C189.057 152.689 185.364 156.698 186.732 162.792C188.1 168.886 193.51 173.565 194.174 182.737C194.837 191.91 190.986 195.501 188.592 199.359C186.198 203.216 182.211 215.713 181.677 223.422C181.143 231.13 181.814 234.591 182.744 237.916C183.674 241.24 188.989 246.808 189.522 254.934C189.964 262.693 189.338 270.477 187.662 278.067C186.198 284.585 185.405 290.83 185.405 290.83C183.481 291.483 181.448 291.754 179.42 291.63C175.699 291.5 174.235 290.7 174.235 290.7C174.235 290.7 174.632 272.916 173.551 265.707C172.47 258.497 170.357 250.659 168.36 243.901C166.362 237.143 160.507 226.404 160.24 216.144C159.974 205.884 162.792 189.14 162.792 185.549C162.792 181.958 162.395 174.646 164.119 170.131C165.842 165.617 170.5 149.652 170.5 146.191C170.5 142.73 167.443 139.543 170.241 133.825C173.038 128.106 182.867 118.777 187.122 116.273C191.376 113.77 194.543 113.886 196.404 114.816Z" fill="#FA7070"/>
<mask id="mask1_1215_9373" style="mask-type:luminance" maskUnits="userSpaceOnUse" x="160" y="114" width="39" height="178">
<path d="M196.404 114.816C196.404 114.816 199.461 115.617 198.798 124.125C198.134 132.634 198.798 138.086 192.416 147.662C189.057 152.689 185.364 156.698 186.732 162.792C188.1 168.886 193.51 173.565 194.174 182.737C194.837 191.91 190.986 195.501 188.592 199.359C186.198 203.216 182.211 215.713 181.677 223.422C181.143 231.13 181.814 234.591 182.744 237.916C183.674 241.24 188.989 246.808 189.522 254.934C189.964 262.693 189.338 270.477 187.662 278.067C186.198 284.585 185.405 290.83 185.405 290.83C183.481 291.483 181.448 291.754 179.42 291.63C175.699 291.5 174.235 290.7 174.235 290.7C174.235 290.7 174.632 272.916 173.551 265.707C172.47 258.497 170.357 250.659 168.36 243.901C166.362 237.143 160.507 226.404 160.24 216.144C159.974 205.884 162.792 189.14 162.792 185.549C162.792 181.958 162.395 174.646 164.119 170.131C165.842 165.617 170.5 149.652 170.5 146.191C170.5 142.73 167.443 139.543 170.241 133.825C173.038 128.106 182.867 118.777 187.122 116.273C191.376 113.77 194.543 113.886 196.404 114.816Z" fill="white"/>
</mask>
<g mask="url(#mask1_1215_9373)">
<path opacity="0.2" d="M181.383 291.623C182.743 291.566 184.087 291.305 185.371 290.851C185.371 290.851 186.164 284.606 187.628 278.087C189.297 270.497 189.916 262.713 189.468 254.954C188.934 246.842 183.62 241.274 182.69 237.936C181.759 234.598 181.089 231.158 181.622 223.442C182.156 215.727 186.144 203.237 188.538 199.379C190.932 195.521 194.789 191.93 194.119 182.758C193.449 173.586 188.025 168.948 186.732 162.792C185.439 156.636 189.092 152.669 192.45 147.641C198.832 138.065 198.168 132.593 198.832 124.105C199.495 115.617 196.438 114.796 196.438 114.796C195.445 114.331 194.352 114.122 193.257 114.187C191.062 121.622 186.91 138.223 186.91 138.223C186.91 138.223 182.122 151.998 178.196 160.152C174.269 168.305 178.757 174.516 181.287 183.203C183.818 191.889 177.915 199.229 175.665 208.784C173.415 218.34 172.573 227.341 176.226 235.207C179.878 243.073 183.818 247.861 183.257 259.667C182.833 267.8 181.944 282.937 181.383 291.623Z" fill="black"/>
</g>
<path d="M196.404 114.816C196.404 114.816 199.461 115.617 198.798 124.125C198.134 132.634 198.798 138.086 192.416 147.662C189.057 152.689 185.364 156.698 186.732 162.792C188.1 168.886 193.51 173.565 194.174 182.737C194.837 191.91 190.986 195.501 188.592 199.359C186.198 203.216 182.211 215.713 181.677 223.422C181.143 231.13 181.814 234.591 182.744 237.916C183.674 241.24 188.989 246.808 189.522 254.934C189.964 262.693 189.338 270.477 187.662 278.067C186.198 284.585 185.405 290.83 185.405 290.83C183.481 291.483 181.448 291.754 179.42 291.63C175.699 291.5 174.235 290.7 174.235 290.7C174.235 290.7 174.632 272.916 173.551 265.707C172.47 258.497 170.357 250.659 168.36 243.901C166.362 237.143 160.507 226.404 160.24 216.144C159.974 205.884 162.792 189.14 162.792 185.549C162.792 181.958 162.395 174.646 164.119 170.131C165.842 165.617 170.5 149.652 170.5 146.191C170.5 142.73 167.443 139.543 170.241 133.825C173.038 128.106 182.867 118.777 187.122 116.273C191.376 113.77 194.543 113.886 196.404 114.816Z" stroke="#263238" stroke-linecap="round" stroke-linejoin="round"/>
<path d="M172.366 178.374C172.366 178.374 172.762 180.097 172.099 186.082C171.435 192.067 170.238 198.449 170.238 199.379" stroke="#263238" stroke-linecap="round" stroke-linejoin="round"/>
<path d="M188.025 180.097L177.922 182.758C177.922 182.758 178.319 189.543 179.516 193.127C180.713 196.712 184.174 196.718 186.164 195.391" stroke="#263238" stroke-linecap="round" stroke-linejoin="round"/>
<path d="M181.852 285.686C181.524 287.978 181.25 289.599 181.25 289.599" stroke="#263238" stroke-linecap="round" stroke-linejoin="round"/>
<path d="M170.095 206.048C170.095 206.048 168.795 214.092 172.694 225.768C176.593 237.444 179.958 247.827 181.511 250.939C183.063 254.051 183.07 275.563 182.55 280.262C182.482 280.857 182.413 281.459 182.338 282.047" stroke="#263238" stroke-linecap="round" stroke-linejoin="round"/>
<path d="M198.797 124.125C199.481 115.616 196.403 114.816 196.403 114.816C194.542 113.886 191.348 113.756 187.093 116.28C182.839 118.804 173.003 128.113 170.212 133.831C167.422 139.55 170.472 142.723 170.472 146.198C170.472 149.673 165.821 165.61 164.091 170.138C163.495 171.856 163.118 173.641 162.969 175.453C167.21 176.932 171.713 177.512 176.19 177.156C181.502 176.889 186.708 175.578 191.512 173.298C189.686 169.488 187.476 166.397 186.724 162.792C185.397 156.677 189.084 152.669 192.442 147.641C198.797 138.086 198.133 132.634 198.797 124.125Z" fill="#B8B8B8"/>
<mask id="mask2_1215_9373" style="mask-type:luminance" maskUnits="userSpaceOnUse" x="162" y="114" width="37" height="64">
<path d="M198.797 124.125C199.481 115.616 196.403 114.816 196.403 114.816C194.542 113.886 191.348 113.756 187.093 116.28C182.839 118.804 173.003 128.113 170.212 133.831C167.422 139.55 170.472 142.723 170.472 146.198C170.472 149.673 165.821 165.61 164.091 170.138C163.495 171.856 163.118 173.641 162.969 175.453C167.21 176.932 171.713 177.512 176.19 177.156C181.502 176.889 186.708 175.578 191.512 173.298C189.686 169.488 187.476 166.397 186.724 162.792C185.397 156.677 189.084 152.669 192.442 147.641C198.797 138.086 198.133 132.634 198.797 124.125Z" fill="white"/>
</mask>
<g mask="url(#mask2_1215_9373)">
<path opacity="0.2" d="M179.083 176.91C183.397 176.401 187.598 175.188 191.518 173.319C189.692 169.509 187.483 166.417 186.73 162.812C185.403 156.697 189.09 152.689 192.449 147.662C198.83 138.086 198.167 132.614 198.83 124.125C199.494 115.637 196.436 114.816 196.436 114.816C195.443 114.352 194.35 114.142 193.256 114.207C191.06 121.642 186.908 138.243 186.908 138.243C186.908 138.243 182.12 152.019 178.194 160.172C175.239 166.212 176.963 171.191 179.083 176.91Z" fill="black"/>
</g>
<path d="M198.797 124.125C199.481 115.616 196.403 114.816 196.403 114.816C194.542 113.886 191.348 113.756 187.093 116.28C182.839 118.804 173.003 128.113 170.212 133.831C167.422 139.55 170.472 142.723 170.472 146.198C170.472 149.673 165.821 165.61 164.091 170.138C163.495 171.856 163.118 173.641 162.969 175.453C167.21 176.932 171.713 177.512 176.19 177.156C181.502 176.889 186.708 175.578 191.512 173.298C189.686 169.488 187.476 166.397 186.724 162.792C185.397 156.677 189.084 152.669 192.442 147.641C198.797 138.086 198.133 132.634 198.797 124.125Z" stroke="#263238" stroke-linecap="round" stroke-linejoin="round"/>
<path d="M167.858 137.792C167.858 137.792 166.053 134.488 164.09 131.581C162.126 128.674 159.842 128.202 157.879 129.146C157.065 129.502 156.421 130.161 156.084 130.983C155.747 131.805 155.743 132.726 156.073 133.551C156.62 135.199 160.471 139.912 161.655 141.246C162.838 142.58 163.536 143.92 165.656 144.153C167.776 144.386 169.507 142.819 169.432 140.152C169.356 137.484 167.858 137.792 167.858 137.792Z" fill="#FA7070" stroke="#263238" stroke-linecap="round" stroke-linejoin="round"/>
<path d="M176.976 125.452C175.657 126.739 174.423 128.11 173.282 129.556C171.866 131.437 171.791 132.224 171.552 132.292C171.312 132.361 167.386 137.005 166.21 138.106C165.033 139.208 163.932 140.309 164.089 141.643C164.247 142.976 166.6 144.707 168.255 144.078C169.91 143.448 172.024 140.227 172.968 138.106C173.64 136.405 174.139 134.641 174.459 132.84C174.459 132.84 176.032 132.292 176.511 131.109C176.99 129.926 177.058 127.73 177.373 127.34C177.687 126.95 178.741 125.692 178.474 125.288C178.207 124.885 177.448 125.062 176.976 125.452Z" fill="white" stroke="#263238" stroke-linecap="round" stroke-linejoin="round"/>
<path d="M155.183 133.961C154.926 133.497 154.78 132.979 154.757 132.448C154.735 131.917 154.836 131.389 155.054 130.904C155.847 129.44 159.971 125.856 160.101 124.522C160.231 123.188 159.575 121.731 159.835 118.804C160.095 115.876 159.575 115.35 158.378 116.943C157.181 118.537 157.311 121.335 157.311 121.731V122.128C157.311 122.128 155.847 120.931 155.717 119.741C155.587 118.551 155.45 116.417 155.033 116.15C154.616 115.883 153.569 116.547 153.166 117.607C152.859 118.459 152.724 119.363 152.769 120.268C152.769 121.068 151.305 122.128 150.779 124.372C150.293 126.912 150.203 129.512 150.512 132.08C150.779 134.208 151.038 135.541 151.709 136.738C152.379 137.935 155.183 133.961 155.183 133.961Z" fill="white" stroke="#263238" stroke-linecap="round" stroke-linejoin="round"/>
<path d="M196.531 124.255C196.531 124.255 194.937 129.043 191.88 135.829C188.822 142.614 176.189 161.622 174.595 162.019C173.001 162.416 166.387 158.031 162.098 152.58C157.81 147.128 150.662 139.283 150.799 137.286C150.936 135.288 153.719 132.901 154.787 133.031C155.854 133.161 159.171 136.492 163.159 140.083C165.648 142.273 168.605 143.864 171.804 144.734L182.707 119.474C182.707 119.474 186.045 113.489 190.149 112.86C194.253 112.231 198.528 114.987 197.995 119.638" fill="#B8B8B8"/>
<mask id="mask3_1215_9373" style="mask-type:luminance" maskUnits="userSpaceOnUse" x="150" y="112" width="49" height="51">
<path d="M196.531 124.255C196.531 124.255 194.937 129.043 191.88 135.829C188.822 142.614 176.189 161.622 174.595 162.019C173.001 162.416 166.387 158.031 162.098 152.58C157.81 147.128 150.662 139.283 150.799 137.286C150.936 135.288 153.719 132.901 154.787 133.031C155.854 133.161 159.171 136.492 163.159 140.083C165.648 142.273 168.605 143.864 171.804 144.734L182.707 119.474C182.707 119.474 186.045 113.489 190.149 112.86C194.253 112.231 198.528 114.987 197.995 119.638" fill="white"/>
</mask>
<g mask="url(#mask3_1215_9373)">
<path opacity="0.2" d="M194.636 113.482C193.405 116.43 181.64 144.447 178.719 149.769C175.627 155.391 177.112 156.568 167.659 151.622C163.699 149.57 159.813 147.518 156.633 145.89C158.507 148.168 160.504 150.542 162.105 152.58C166.359 158.052 173.008 162.416 174.601 162.019C176.195 161.622 188.829 142.607 191.886 135.829C194.944 129.05 196.537 124.255 196.537 124.255L198.001 119.604C198.172 118.358 197.938 117.089 197.331 115.986C196.725 114.884 195.78 114.006 194.636 113.482Z" fill="black"/>
<path d="M171.805 144.734C171.805 144.734 175.792 147.395 175.129 151.246" stroke="#263238" stroke-linecap="round" stroke-linejoin="round"/>
</g>
<path d="M196.531 124.255C196.531 124.255 194.937 129.043 191.88 135.829C188.822 142.614 176.189 161.622 174.595 162.019C173.001 162.416 166.387 158.031 162.098 152.58C157.81 147.128 150.662 139.283 150.799 137.286C150.936 135.288 153.719 132.901 154.787 133.031C155.854 133.161 159.171 136.492 163.159 140.083C165.648 142.273 168.605 143.864 171.804 144.734L182.707 119.474C182.707 119.474 186.045 113.489 190.149 112.86C194.253 112.231 198.528 114.987 197.995 119.638" stroke="#263238" stroke-linecap="round" stroke-linejoin="round"/>
<defs>
<linearGradient id="paint0_linear_1215_9373" x1="170.709" y1="-22.9248" x2="170.709" y2="290.104" gradientUnits="userSpaceOnUse">
<stop stop-color="#FF9191" stop-opacity="0.8"/>
<stop offset="1" stop-color="#F9F9F9"/>
</linearGradient>
</defs>
</svg>
