<svg width="24" height="24" viewBox="0 0 24 24" fill="none" xmlns="http://www.w3.org/2000/svg">
<path d="M12 0C5.376 0 0 5.376 0 12C0 18.624 5.376 24 12 24C18.624 24 24 18.624 24 12C24 5.376 18.624 0 12 0ZM2.4 12C2.4 11.268 2.496 10.548 2.652 9.864L8.388 15.6V16.8C8.388 18.12 9.468 19.2 10.788 19.2V21.516C6.072 20.916 2.4 16.884 2.4 12ZM19.068 18.48C18.756 17.508 17.868 16.8 16.788 16.8H15.588V13.2C15.588 12.54 15.048 12 14.388 12H7.188V9.6H9.588C10.248 9.6 10.788 9.06 10.788 8.4V6H13.188C14.508 6 15.588 4.92 15.588 3.6V3.108C19.104 4.524 21.6 7.98 21.6 12C21.6 14.496 20.628 16.776 19.068 18.48Z" fill="black" fill-opacity="0.35"/>
</svg>
