<svg width="200" height="221" viewBox="0 0 200 221" fill="none" xmlns="http://www.w3.org/2000/svg">
<g filter="url(#filter0_f_2625_25140)">
<ellipse cx="97.2446" cy="181.496" rx="72.8345" ry="16.9291" fill="#FFEBE7"/>
</g>
<path d="M98.1905 194.804C148.07 194.804 188.506 154.369 188.506 104.489C188.506 54.6087 148.07 14.1731 98.1905 14.1731C48.3106 14.1731 7.875 54.6087 7.875 104.489C7.875 154.369 48.3106 194.804 98.1905 194.804Z" fill="url(#paint0_linear_2625_25140)"/>
<path d="M142.975 25.9843H52.0323C48.6485 25.9843 45.4032 27.3285 43.0104 29.7212C40.6177 32.114 39.2734 35.3593 39.2734 38.7431V142.374H39.4294V178.765C39.4293 180.17 39.7892 181.552 40.475 182.778C41.1607 184.005 42.1493 185.035 43.3464 185.771C44.5435 186.506 45.9092 186.923 47.3131 186.981C48.7171 187.039 50.1124 186.736 51.366 186.101L93.3144 164.836C94.4573 164.263 95.7182 163.965 96.9968 163.965C98.2753 163.965 99.5362 164.263 100.679 164.836L143.918 186.257C145.172 186.879 146.564 187.17 147.963 187.102C149.361 187.035 150.719 186.612 151.908 185.873C153.097 185.134 154.078 184.104 154.757 182.88C155.437 181.656 155.792 180.278 155.79 178.878L155.677 142.374V38.7077C155.668 35.3398 154.327 32.1121 151.948 29.7287C149.568 27.3452 146.343 25.9992 142.975 25.9843Z" fill="url(#paint1_linear_2625_25140)"/>
<path d="M200.001 59.5469C200.004 62.305 199.004 64.9701 197.187 67.0452C195.37 69.1202 192.86 70.4636 190.126 70.8249C189.626 70.8887 189.123 70.9214 188.619 70.923H150.778C149.957 70.9211 149.138 70.8535 148.328 70.7208C144.85 70.1206 141.716 68.2551 139.531 65.4832C137.346 62.7113 136.263 59.2291 136.491 55.7068C136.719 52.1844 138.242 48.871 140.767 46.4042C143.291 43.9374 146.639 42.4916 150.166 42.3451C151.993 38.3762 155.062 35.1093 158.909 33.0373C162.756 30.9652 167.173 30.2003 171.492 30.8579C175.812 31.5155 179.801 33.56 182.857 36.6829C185.913 39.8059 187.871 43.8379 188.435 48.1709H188.606C190.102 48.1685 191.583 48.461 192.966 49.0316C194.348 49.6022 195.604 50.4398 196.662 51.4964C197.721 52.553 198.56 53.8079 199.133 55.1893C199.706 56.5707 200.001 58.0515 200.001 59.5469Z" fill="url(#paint2_linear_2625_25140)"/>
<path d="M7.57812 37.2661C7.57813 39.5408 8.48171 41.7222 10.0901 43.3306C11.6985 44.939 13.8799 45.8426 16.1546 45.8426H44.6283C47.4338 45.8277 50.1226 44.7181 52.122 42.75C54.1214 40.7819 55.2733 38.1109 55.3324 35.306C55.3915 32.5012 54.3531 29.784 52.4384 27.7335C50.5237 25.6829 47.884 24.461 45.0816 24.328C43.6995 21.351 41.389 18.9026 38.4971 17.3504C35.6051 15.7983 32.2876 15.226 29.0428 15.7197C25.7979 16.2133 22.8007 17.7462 20.5011 20.0881C18.2015 22.4301 16.7236 25.4548 16.2893 28.7081H16.1607C13.8882 28.7065 11.708 29.6068 10.0988 31.2114C8.48957 32.816 7.58299 34.9937 7.57812 37.2661Z" fill="url(#paint3_linear_2625_25140)"/>
<g filter="url(#filter1_f_2625_25140)">
<ellipse cx="101.27" cy="122.188" rx="41.0552" ry="8.79754" fill="#FF7C86" fill-opacity="0.39"/>
</g>
<path d="M100.875 46.2991L110.969 66.7488C111.268 67.3551 111.71 67.8796 112.257 68.2771C112.804 68.6747 113.44 68.9335 114.109 69.0312L136.671 72.2847C137.435 72.4017 138.151 72.7285 138.741 73.2287C139.33 73.7288 139.769 74.3827 140.008 75.1176C140.248 75.8524 140.279 76.6393 140.097 77.3906C139.916 78.1419 139.53 78.8282 138.982 79.373L122.679 95.2861C122.194 95.7579 121.831 96.3409 121.623 96.9844C121.414 97.6279 121.365 98.3126 121.481 98.9791L125.337 121.449C125.469 122.217 125.383 123.007 125.09 123.729C124.796 124.451 124.306 125.077 123.676 125.535C123.045 125.993 122.299 126.266 121.521 126.321C120.744 126.377 119.966 126.214 119.276 125.851L99.0959 115.218C98.4967 114.904 97.8303 114.74 97.1537 114.74C96.4772 114.74 95.8107 114.904 95.2116 115.218L75.0312 125.851C74.3418 126.212 73.565 126.374 72.7887 126.317C72.0123 126.26 71.2673 125.987 70.6377 125.53C70.0081 125.072 69.5191 124.447 69.2258 123.726C68.9325 123.005 68.8466 122.216 68.9779 121.449L72.8268 98.9791C72.9424 98.3126 72.8937 97.6279 72.685 96.9844C72.4762 96.3409 72.1137 95.7579 71.6289 95.2861L55.3259 79.373C54.7776 78.8282 54.3914 78.1419 54.2102 77.3906C54.0289 76.6393 54.0598 75.8524 54.2994 75.1176C54.5389 74.3827 54.9777 73.7288 55.5669 73.2287C56.1562 72.7285 56.8727 72.4017 57.6366 72.2847L80.1986 69.0099C80.8677 68.9122 81.5031 68.6535 82.0501 68.2559C82.597 67.8583 83.0393 67.3338 83.3387 66.7275L93.4324 46.2778C93.7836 45.5921 94.3178 45.0169 94.9758 44.6159C95.6337 44.215 96.3898 44.0039 97.1603 44.0061C97.9308 44.0083 98.6856 44.2237 99.3413 44.6284C99.9969 45.0331 100.528 45.6113 100.875 46.2991Z" fill="url(#paint4_linear_2625_25140)"/>
<path d="M1.49025e-05 146.92C-0.00134316 149.667 0.995911 152.32 2.80596 154.386C4.61601 156.452 7.11539 157.789 9.83841 158.149C10.3337 158.218 10.8331 158.253 11.3332 158.253H49.0082C49.8291 158.252 50.6486 158.184 51.4586 158.051C54.9418 157.471 58.0854 155.618 60.2795 152.851C62.4736 150.085 63.5618 146.602 63.3328 143.078C63.1038 139.554 61.5741 136.241 59.0404 133.782C56.5067 131.322 53.1498 129.891 49.6208 129.767C47.7984 125.818 44.7418 122.567 40.9115 120.506C37.0812 118.445 32.6847 117.684 28.3845 118.339C24.0843 118.993 20.1133 121.028 17.0699 124.135C14.0264 127.243 12.0754 131.256 11.5108 135.569H11.3332C9.84332 135.569 8.3681 135.862 6.9919 136.433C5.6157 137.004 4.36553 137.84 3.31291 138.894C2.26029 139.949 1.42588 141.2 0.857419 142.577C0.288957 143.955 -0.00240105 145.43 1.49025e-05 146.92Z" fill="url(#paint5_linear_2625_25140)"/>
<path d="M169.852 84.8784C169.538 83.6437 170.677 82.5312 171.904 82.8759L177.25 84.3783C178.477 84.723 178.871 86.2664 177.959 87.1564L173.985 91.0352C173.073 91.9252 171.539 91.4943 171.224 90.2596L169.852 84.8784Z" fill="#FFBEBD"/>
<path d="M19.3173 84.8784C19.0025 83.6437 20.1423 82.5312 21.369 82.8759L26.7153 84.3783C27.9419 84.723 28.3355 86.2664 27.4236 87.1564L23.4494 91.0352C22.5375 91.9252 21.0041 91.4943 20.6893 90.2596L19.3173 84.8784Z" fill="#FFBEBD"/>
<path d="M69.3616 7.99867C69.8509 5.97173 72.734 5.97173 73.2233 7.99867L74.0489 11.4189C74.2237 12.1432 74.7893 12.7088 75.5136 12.8836L78.9338 13.7092C80.9608 14.1985 80.9608 17.0816 78.9338 17.5709L75.5136 18.3965C74.7893 18.5714 74.2237 19.1369 74.0489 19.8613L73.2233 23.2815C72.734 25.3084 69.8509 25.3084 69.3616 23.2815L68.536 19.8613C68.3611 19.1369 67.7956 18.5714 67.0712 18.3965L63.651 17.5709C61.6241 17.0816 61.6241 14.1985 63.651 13.7092L67.0712 12.8836C67.7956 12.7088 68.3611 12.1432 68.536 11.4189L69.3616 7.99867Z" fill="#FFBEBD"/>
<path d="M104.589 178.557C104.589 180.391 103.102 181.878 101.269 181.878C99.435 181.878 97.9485 180.391 97.9485 178.557C97.9485 176.724 99.435 175.237 101.269 175.237C103.102 175.237 104.589 176.724 104.589 178.557Z" stroke="#FFBEBD" stroke-width="2.48287"/>
<path d="M168.416 150.714C168.906 148.688 171.789 148.688 172.278 150.714L173.104 154.135C173.278 154.859 173.844 155.425 174.568 155.599L177.989 156.425C180.015 156.914 180.015 159.797 177.989 160.287L174.568 161.112C173.844 161.287 173.278 161.853 173.104 162.577L172.278 165.997C171.789 168.024 168.906 168.024 168.416 165.997L167.591 162.577C167.416 161.853 166.85 161.287 166.126 161.112L162.706 160.287C160.679 159.797 160.679 156.914 162.706 156.425L166.126 155.599C166.85 155.425 167.416 154.859 167.591 154.135L168.416 150.714Z" fill="#FFBEBD"/>
<circle cx="174.909" cy="126.424" r="3.32025" stroke="#FC9999" stroke-width="2.48287"/>
<defs>
<filter id="filter0_f_2625_25140" x="2.63716" y="142.794" width="189.214" height="77.4041" filterUnits="userSpaceOnUse" color-interpolation-filters="sRGB">
<feFlood flood-opacity="0" result="BackgroundImageFix"/>
<feBlend mode="normal" in="SourceGraphic" in2="BackgroundImageFix" result="shape"/>
<feGaussianBlur stdDeviation="10.8865" result="effect1_foregroundBlur_2625_25140"/>
</filter>
<filter id="filter1_f_2625_25140" x="39.5243" y="92.7001" width="123.491" height="58.9762" filterUnits="userSpaceOnUse" color-interpolation-filters="sRGB">
<feFlood flood-opacity="0" result="BackgroundImageFix"/>
<feBlend mode="normal" in="SourceGraphic" in2="BackgroundImageFix" result="shape"/>
<feGaussianBlur stdDeviation="10.3453" result="effect1_foregroundBlur_2625_25140"/>
</filter>
<linearGradient id="paint0_linear_2625_25140" x1="97.4943" y1="-15.2359" x2="99.3445" y2="301.939" gradientUnits="userSpaceOnUse">
<stop stop-color="#FFE1E1" stop-opacity="0"/>
<stop offset="1" stop-color="#FFE1E0"/>
</linearGradient>
<linearGradient id="paint1_linear_2625_25140" x1="184.138" y1="195.41" x2="44.4478" y2="69.8968" gradientUnits="userSpaceOnUse">
<stop stop-color="#FF9999"/>
<stop offset="1" stop-color="#FFE7DA"/>
</linearGradient>
<linearGradient id="paint2_linear_2625_25140" x1="187.943" y1="88.3012" x2="156.337" y2="30.6284" gradientUnits="userSpaceOnUse">
<stop stop-color="#FFBEBD"/>
<stop offset="1" stop-color="#FFF6F5"/>
</linearGradient>
<linearGradient id="paint3_linear_2625_25140" x1="46.272" y1="58.9084" x2="22.5048" y2="15.5538" gradientUnits="userSpaceOnUse">
<stop stop-color="#FFBEBD"/>
<stop offset="1" stop-color="#FFF6F5"/>
</linearGradient>
<linearGradient id="paint4_linear_2625_25140" x1="61.0421" y1="66.0932" x2="215.254" y2="126.257" gradientUnits="userSpaceOnUse">
<stop stop-color="#FFDEAC"/>
<stop offset="0.70369" stop-color="#FF426F"/>
</linearGradient>
<linearGradient id="paint5_linear_2625_25140" x1="51.3384" y1="175.566" x2="19.8676" y2="118.084" gradientUnits="userSpaceOnUse">
<stop stop-color="#FFBEBD"/>
<stop offset="1" stop-color="#FFF6F5"/>
</linearGradient>
</defs>
</svg>
