<svg width="200" height="198" viewBox="0 0 200 198" fill="none" xmlns="http://www.w3.org/2000/svg">
<path d="M103.516 185.305C152.562 185.305 192.321 145.556 192.321 96.5228C192.321 47.4897 152.562 7.74048 103.516 7.74048C54.4703 7.74048 14.7109 47.4897 14.7109 96.5228C14.7109 145.556 54.4703 185.305 103.516 185.305Z" fill="url(#paint0_linear_3691_33235)"/>
<path fill-rule="evenodd" clip-rule="evenodd" d="M171.704 141.456H171.716L171.71 141.473L171.695 141.485L171.704 141.456ZM163.469 167.266C163.45 167.222 163.43 167.175 163.409 167.125C163.234 166.712 162.999 166.105 162.765 165.336C162.298 163.798 161.839 161.621 161.871 159.073C161.934 154.036 163.915 147.486 171.695 141.485L163.469 167.266ZM163.616 167.634L163.66 167.678L163.648 167.653L163.638 167.633L163.619 167.594C163.581 167.515 163.53 167.405 163.469 167.266L163.416 167.434L163.591 167.609C163.6 167.617 163.608 167.626 163.616 167.634ZM162.935 168.404L168.603 174.07C168.803 174.27 169.128 174.27 169.328 174.07C169.528 173.87 169.528 173.545 169.328 173.345L163.702 167.72L171.71 141.473L171.733 141.456H180.707C180.99 141.456 181.22 141.226 181.22 140.943C181.22 140.66 180.99 140.43 180.707 140.43H171.571C171.563 140.43 171.554 140.43 171.546 140.43H136.193C136.119 140.43 136.048 140.446 135.984 140.475C135.976 140.474 135.969 140.474 135.962 140.474C135.703 140.474 135.493 140.684 135.493 140.943V158.983L135.473 159.036C135.417 159.177 135.429 159.329 135.493 159.455V169.036L135.474 169.085C135.417 169.227 135.429 169.38 135.493 169.506V175.895C135.418 176.043 135.42 176.216 135.493 176.36V184.525C135.493 184.784 135.703 184.994 135.962 184.994C136.221 184.994 136.431 184.784 136.431 184.525V176.343C142.449 168.498 149.085 166.546 154.202 166.526C156.782 166.515 158.989 166.996 160.552 167.48C161.332 167.722 161.95 167.964 162.37 168.144C162.58 168.234 162.74 168.309 162.847 168.36C162.882 168.378 162.912 168.392 162.935 168.404ZM161.114 166.582L154.301 159.772C154.207 159.755 154.072 159.733 153.901 159.709C153.534 159.658 153.002 159.598 152.345 159.565C151.031 159.499 149.23 159.542 147.278 159.974C143.394 160.834 138.904 163.233 136.431 169.454V174.697C142.438 167.432 149.015 165.521 154.198 165.5C156.905 165.489 159.218 165.994 160.855 166.501C160.943 166.528 161.029 166.555 161.114 166.582ZM154.976 158.997C154.945 158.954 154.907 158.916 154.864 158.885L154.642 158.662C154.636 158.633 154.631 158.603 154.626 158.571C154.567 158.22 154.496 157.71 154.45 157.079C154.357 155.816 154.362 154.082 154.754 152.189C155.529 148.44 157.816 144.052 163.939 141.456H170.089C162.857 147.444 160.91 153.945 160.846 159.06C160.812 161.737 161.294 164.02 161.784 165.634C161.809 165.717 161.835 165.799 161.86 165.878L154.976 158.997ZM153.427 157.155C153.435 157.265 153.444 157.371 153.453 157.474L148.461 152.483L148.398 152.42C148.386 152.369 148.371 152.302 148.355 152.22C148.311 152.003 148.258 151.686 148.22 151.293C148.144 150.505 148.132 149.422 148.386 148.241C148.884 145.924 150.41 143.168 154.645 141.487L154.724 141.456H161.596C156.545 144.257 154.492 148.391 153.749 151.981C153.334 153.99 153.329 155.824 153.427 157.155ZM153.119 158.59C152.898 158.571 152.656 158.554 152.397 158.541C151.017 158.472 149.121 158.516 147.057 158.973C143.374 159.789 139.164 161.921 136.431 167.019V159.402C138.11 155.105 140.952 153.578 143.355 153.094C144.571 152.849 145.688 152.87 146.501 152.953C146.908 152.995 147.236 153.051 147.46 153.097C147.546 153.115 147.617 153.131 147.671 153.143L153.119 158.59ZM143.153 152.089C140.87 152.548 138.279 153.855 136.431 157.034V141.906L146.445 151.918C145.574 151.841 144.416 151.834 143.153 152.089ZM152.347 141.456H137.431L147.183 151.205C147.115 150.36 147.122 149.244 147.384 148.025C147.861 145.803 149.182 143.28 152.347 141.456Z" fill="url(#paint1_linear_3691_33235)"/>
<path fill-rule="evenodd" clip-rule="evenodd" d="M103.654 17.6412C103.21 17.4582 102.734 17.3644 102.254 17.3652L102.251 17.3652C101.281 17.3661 100.352 17.7513 99.6672 18.4363C98.9824 19.121 98.5971 20.0491 98.5958 21.0173V25.6146H89.5078L89.5078 21.0112C89.5107 17.6354 90.8534 14.3988 93.241 12.0118C95.6282 9.62521 98.8649 8.28296 102.241 8.27956L102.243 8.27955C103.916 8.27718 105.574 8.60444 107.12 9.24266C108.669 9.88139 110.075 10.819 111.261 12.0019C112.446 13.1848 113.386 14.5897 114.028 16.1363C114.669 17.6829 115 19.3408 115 21.0151V25.4445H105.912V21.0151C105.912 20.5353 105.817 20.0601 105.633 19.6169C105.449 19.1736 105.18 18.771 104.84 18.432C104.5 18.093 104.097 17.8243 103.654 17.6412ZM102.243 8.27955L102.241 8.27956L102.243 8.27955Z" fill="url(#paint2_linear_3691_33235)"/>
<path d="M102.808 174.083C121.644 174.083 136.913 158.817 136.913 139.986C136.913 121.156 121.644 105.89 102.808 105.89C83.9724 105.89 68.7031 121.156 68.7031 139.986C68.7031 158.817 83.9724 174.083 102.808 174.083Z" fill="url(#paint3_linear_3691_33235)"/>
<path d="M156.621 102.396V76.238C156.621 61.9698 150.951 48.286 140.86 38.1968C130.768 28.1077 117.081 22.4397 102.809 22.4397C88.537 22.4397 74.8497 28.1077 64.758 38.1968C54.6663 48.286 48.9968 61.9698 48.9968 76.238V102.396C48.9974 108.406 47.2969 114.293 44.0918 119.378C40.8867 124.462 36.3079 128.535 30.8846 131.128C29.6381 131.721 28.5859 132.656 27.8505 133.824C27.115 134.993 26.7266 136.346 26.7305 137.726V137.867C26.7296 138.366 26.827 138.86 27.0172 139.321C27.2073 139.781 27.4865 140.2 27.8388 140.553C28.1911 140.906 28.6095 141.186 29.0701 141.377C29.5307 141.568 30.0244 141.666 30.5231 141.666H175.087C175.586 141.666 176.08 141.568 176.54 141.377C177.001 141.186 177.419 140.906 177.772 140.553C178.124 140.2 178.403 139.781 178.593 139.321C178.784 138.86 178.881 138.366 178.88 137.867V137.726C178.881 136.35 178.491 135.002 177.757 133.838C177.023 132.674 175.975 131.742 174.733 131.149C169.306 128.555 164.725 124.478 161.52 119.39C158.315 114.302 156.616 108.41 156.621 102.396Z" fill="url(#paint4_linear_3691_33235)"/>
<path fill-rule="evenodd" clip-rule="evenodd" d="M81.9326 81.3131C81.9376 81.3181 81.9425 81.3232 81.9473 81.3284L101.29 100.669C101.359 100.714 101.417 100.773 101.46 100.839L126.486 125.863C126.715 126.091 126.715 126.462 126.486 126.691C126.257 126.92 125.886 126.92 125.657 126.691L113.436 114.471C103.42 112.139 95.576 114.707 90.2201 117.866C87.5246 119.456 85.4594 121.195 84.0696 122.536C83.375 123.206 82.8501 123.776 82.5005 124.176C82.3257 124.376 82.1948 124.533 82.1086 124.639L82.1036 124.645V126.511C82.1036 126.834 81.8412 127.097 81.5176 127.097C81.1939 127.097 80.9316 126.834 80.9316 126.511V124.642C80.9307 124.641 80.9298 124.64 80.929 124.639C80.8427 124.533 80.7118 124.376 80.537 124.176C80.1874 123.776 79.6624 123.206 78.9678 122.536C77.5779 121.195 75.5125 119.456 72.8166 117.866C67.4611 114.708 59.6176 112.141 49.6018 114.469L37.2581 126.812C37.0293 127.041 36.6583 127.041 36.4294 126.812C36.2006 126.583 36.2006 126.212 36.4295 125.983L48.8497 113.564C48.873 113.536 48.899 113.51 48.9275 113.486L61.5761 100.839C61.6195 100.773 61.6766 100.715 61.7455 100.67L68.5293 93.8864C68.543 93.8712 68.5575 93.8567 68.5729 93.8428L81.0864 81.3305C81.143 81.2691 81.213 81.2193 81.2933 81.186C81.3852 81.1479 81.4829 81.1347 81.5778 81.1445C81.7073 81.1576 81.8333 81.2138 81.9326 81.3131ZM51.1114 112.96C60.637 111.227 68.1749 113.769 73.4119 116.856C76.2028 118.502 78.3403 120.302 79.7815 121.693C80.2333 122.129 80.6171 122.525 80.9316 122.863V115.78L80.925 115.765C80.8893 115.683 80.833 115.561 80.7537 115.404C80.5952 115.089 80.3453 114.636 79.9851 114.097C79.2645 113.02 78.1049 111.603 76.3561 110.263C72.8966 107.612 67.0695 105.215 57.6222 106.45L51.1114 112.96ZM105.413 106.45L111.925 112.961C102.4 111.226 94.8619 113.768 89.6247 116.857C86.8343 118.502 84.697 120.302 83.2559 121.693C82.803 122.13 82.4184 122.527 82.1036 122.866V115.785L82.1123 115.765C82.148 115.683 82.2043 115.561 82.2835 115.404C82.442 115.089 82.692 114.636 83.0522 114.097C83.7727 113.02 84.9323 111.603 86.6812 110.263C90.1404 107.612 95.9671 105.215 105.413 106.45ZM58.9523 105.12C67.8296 104.272 73.5367 106.626 77.0689 109.332C78.9143 110.747 80.1509 112.245 80.9316 113.405V107.012C80.8806 106.94 80.8099 106.844 80.7196 106.725C80.5082 106.449 80.1906 106.056 79.771 105.599C78.9305 104.683 77.6879 103.518 76.0787 102.515C72.9016 100.534 68.2868 99.1724 62.4308 101.642L58.9523 105.12ZM80.9316 97.9325V105.137C80.8384 105.031 80.7393 104.92 80.6343 104.806C79.7427 103.835 78.4203 102.594 76.6987 101.52C73.706 99.6546 69.5134 98.3048 64.3358 99.7369L69.3016 94.7715C73.3234 93.0535 76.2223 93.8933 78.1247 95.1225C79.0976 95.7511 79.8232 96.4914 80.306 97.0764C80.5467 97.3682 80.7253 97.6191 80.8423 97.7947C80.8777 97.848 80.9075 97.8942 80.9316 97.9325ZM71.1461 92.9272C74.4183 92.1588 76.9575 92.973 78.7607 94.1382C79.6844 94.7349 80.4057 95.417 80.9316 96.0062V83.1427L71.1461 92.9272ZM104.083 105.12L100.605 101.642C94.7491 99.1725 90.1343 100.534 86.9573 102.515C85.3481 103.518 84.1055 104.683 83.265 105.599C82.8454 106.056 82.5277 106.449 82.3164 106.725C82.2256 106.844 82.1546 106.941 82.1036 107.013V113.408C82.8841 112.248 84.1213 110.748 85.9683 109.332C89.5004 106.626 95.207 104.272 104.083 105.12ZM82.4017 104.806C82.2964 104.921 82.197 105.032 82.1036 105.138V97.9351C82.1279 97.8962 82.1582 97.849 82.1946 97.7944C82.3114 97.6188 82.4896 97.3679 82.7301 97.0761C83.2121 96.4912 83.9369 95.7509 84.9088 95.1224C86.811 93.8923 89.7115 93.0521 93.7388 94.7761L98.7 99.7368C93.5225 98.3049 89.33 99.6546 86.3373 101.52C84.6156 102.594 83.2933 103.835 82.4017 104.806ZM91.8915 92.929L82.1036 83.142V96.0066C82.6288 95.4173 83.3495 94.7351 84.2724 94.1383C86.0758 92.9721 88.6162 92.1575 91.8915 92.929Z" fill="url(#paint5_linear_3691_33235)"/>
<path fill-rule="evenodd" clip-rule="evenodd" d="M132.184 80.4671V0H133.091V80.4671H132.184Z" fill="#FF607B"/>
<path fill-rule="evenodd" clip-rule="evenodd" d="M124.753 75.3351C125.024 75.2289 125.329 75.3623 125.435 75.633L126.275 77.7746L129.039 78.7298C129.788 76.9855 131.119 75.8253 132.636 75.8253C134.155 75.8253 135.487 76.9887 136.236 78.737L139.02 77.7746L139.86 75.633C139.966 75.3623 140.271 75.2289 140.542 75.3351C140.813 75.4412 140.946 75.7467 140.84 76.0174L139.911 78.3851C139.855 78.5286 139.739 78.6402 139.593 78.6905L136.58 79.732C136.718 80.2403 136.811 80.7816 136.851 81.3455L139.416 80.7605C139.62 80.714 139.833 80.7798 139.976 80.9333L142.166 83.2939C142.386 83.5311 142.373 83.9019 142.135 84.122C141.898 84.3421 141.527 84.3283 141.307 84.091L139.347 81.9784L136.858 82.546C136.826 83.0775 136.748 83.5897 136.629 84.074L138.51 83.6451C138.73 83.5948 138.959 83.6756 139.099 83.8526L140.907 86.1352C141.108 86.3889 141.065 86.7575 140.811 86.9584C140.558 87.1593 140.189 87.1165 139.988 86.8628L138.41 84.8699L136.184 85.3777C135.966 85.8619 135.702 86.2987 135.402 86.6754C135.551 87.0417 135.634 87.444 135.634 87.8661C135.634 89.5688 134.291 90.949 132.635 90.949C130.979 90.949 129.637 89.5688 129.637 87.8661C129.637 87.4439 129.719 87.0415 129.869 86.6751C129.568 86.297 129.303 85.8583 129.085 85.372L126.883 84.8699L125.305 86.8628C125.104 87.1165 124.736 87.1593 124.482 86.9584C124.228 86.7575 124.185 86.3889 124.386 86.1352L126.194 83.8526C126.334 83.6756 126.564 83.5948 126.784 83.6451L128.641 84.0686C128.522 83.5845 128.444 83.0725 128.413 82.5413L125.945 81.9784L123.984 84.091C123.764 84.3283 123.393 84.3421 123.156 84.122C122.919 83.9019 122.905 83.5311 123.125 83.2939L125.316 80.9333C125.458 80.7798 125.671 80.714 125.876 80.7605L128.42 81.3409C128.461 80.7759 128.555 80.2335 128.693 79.7244L125.702 78.6905C125.556 78.6402 125.44 78.5286 125.384 78.3851L124.455 76.0174C124.349 75.7467 124.482 75.4412 124.753 75.3351Z" fill="url(#paint6_linear_3691_33235)"/>
<path d="M199.434 68.845C199.474 68.7725 199.498 68.6922 199.505 68.6095C199.512 68.5268 199.502 68.4436 199.474 68.3653C199.447 68.287 199.403 68.2153 199.346 68.1551C199.289 68.0949 199.22 68.0474 199.143 68.0159C196.903 67.1229 188.978 64.4723 184.646 69.816C181.748 73.328 177.652 75.6431 173.148 76.3149C173.035 76.33 172.929 76.3791 172.844 76.4557C172.759 76.5322 172.699 76.6326 172.672 76.7438C172.645 76.8549 172.653 76.9715 172.693 77.0784C172.734 77.1852 172.806 77.2773 172.9 77.3425C176.728 80.0568 189.375 86.9739 199.434 68.845Z" fill="url(#paint7_linear_3691_33235)"/>
<path d="M31.5525 106.321C31.5845 106.263 31.6038 106.198 31.6092 106.132C31.6147 106.066 31.6061 105.999 31.584 105.936C31.5619 105.873 31.5269 105.816 31.4812 105.767C31.4355 105.719 31.3801 105.681 31.3186 105.655C29.5251 104.946 23.1522 102.82 19.6715 107.073C17.3489 109.89 14.0669 111.75 10.4559 112.296C10.3652 112.308 10.2804 112.347 10.2124 112.408C10.1445 112.47 10.0966 112.55 10.0752 112.639C10.0537 112.728 10.0596 112.821 10.0921 112.907C10.1247 112.992 10.1823 113.066 10.2574 113.118C13.3127 115.329 23.4712 120.885 31.5525 106.321Z" fill="url(#paint8_linear_3691_33235)"/>
<path d="M181.995 98.2824C181.968 98.2338 181.951 98.1799 181.947 98.1245C181.942 98.069 181.949 98.0132 181.968 97.9609C181.987 97.9085 182.017 97.8608 182.056 97.8209C182.094 97.781 182.141 97.7498 182.193 97.7296C183.696 97.1272 189.02 95.3483 191.926 98.9344C193.874 101.293 196.627 102.849 199.653 103.3C199.733 103.307 199.809 103.34 199.87 103.393C199.931 103.446 199.973 103.517 199.991 103.595C200.009 103.674 200.002 103.756 199.971 103.83C199.939 103.905 199.885 103.967 199.816 104.009C197.25 105.844 188.75 110.486 181.995 98.2824Z" fill="url(#paint9_linear_3691_33235)"/>
<path d="M0.0791462 75.2825C0.0353931 75.2014 0.00910549 75.1121 0.00197753 75.0203C-0.00515042 74.9285 0.00703946 74.8363 0.0377615 74.7495C0.0684836 74.6627 0.117056 74.5833 0.180349 74.5164C0.243642 74.4495 0.32025 74.3966 0.405237 74.3611C2.88636 73.376 11.6695 70.442 16.4687 76.3526C19.6835 80.2496 24.2303 82.8154 29.2288 83.5531C29.3538 83.5715 29.4704 83.6271 29.5634 83.7125C29.6565 83.7979 29.7218 83.9093 29.7508 84.0322C29.7798 84.1552 29.7713 84.284 29.7262 84.402C29.6812 84.52 29.6017 84.6218 29.4982 84.6941C25.2377 87.6991 11.2229 95.3673 0.0791462 75.2825Z" fill="url(#paint10_linear_3691_33235)"/>
<path d="M30.0675 52.92C29.7526 51.6855 30.8926 50.5731 32.1195 50.9178L37.2833 52.3685C38.5101 52.7132 38.9037 54.2564 37.9917 55.1463L34.1531 58.8918C33.2411 59.7816 31.7076 59.3508 31.3927 58.1162L30.0675 52.92Z" fill="#FFBEBD"/>
<path d="M176.811 22.703C177.3 20.6763 180.183 20.6763 180.673 22.7031L181.447 25.9116C181.622 26.6359 182.188 27.2014 182.912 27.3762L186.119 28.1503C188.147 28.6395 188.147 31.5228 186.119 32.012L182.912 32.786C182.188 32.9608 181.622 33.5263 181.447 34.2507L180.673 37.4592C180.183 39.486 177.3 39.486 176.811 37.4592L176.036 34.2507C175.861 33.5263 175.296 32.9608 174.571 32.786L171.364 32.012C169.337 31.5228 169.337 28.6395 171.364 28.1503L174.571 27.3762C175.296 27.2014 175.861 26.6359 176.036 25.9116L176.811 22.703Z" fill="#FFBEBD"/>
<path d="M66.8696 175.187C67.3589 173.161 70.2418 173.161 70.7312 175.187L71.5059 178.396C71.6808 179.12 72.2464 179.686 72.9707 179.861L76.1781 180.635C78.2051 181.124 78.2051 184.007 76.1781 184.496L72.9707 185.27C72.2464 185.445 71.6808 186.011 71.5059 186.735L70.7312 189.944C70.2418 191.97 67.3589 191.97 66.8696 189.944L66.0949 186.735C65.92 186.011 65.3544 185.445 64.63 185.27L61.4227 184.496C59.3956 184.007 59.3956 181.124 61.4227 180.635L64.63 179.861C65.3544 179.686 65.92 179.12 66.0949 178.396L66.8696 175.187Z" fill="#FFBEBD"/>
<path d="M46.4403 165.483C46.4403 167.274 44.9882 168.726 43.1963 168.726C41.4044 168.726 39.9524 167.274 39.9524 165.483C39.9524 163.693 41.4044 162.24 43.1963 162.24C44.9882 162.24 46.4403 163.693 46.4403 165.483Z" stroke="#FFBEBD" stroke-width="2.48287"/>
<path d="M51.8622 26.9313C51.8622 28.7219 50.4101 30.1741 48.6182 30.1741C46.8263 30.1741 45.3742 28.7219 45.3742 26.9313C45.3742 25.1406 46.8263 23.6885 48.6182 23.6885C50.4101 23.6885 51.8622 25.1406 51.8622 26.9313Z" stroke="#FC9999" stroke-width="2.48287"/>
<path d="M191.995 158.517C191.995 160.307 190.543 161.76 188.751 161.76C186.959 161.76 185.507 160.307 185.507 158.517C185.507 156.726 186.959 155.274 188.751 155.274C190.543 155.274 191.995 156.726 191.995 158.517Z" stroke="#FC9999" stroke-width="2.48287"/>
<defs>
<linearGradient id="paint0_linear_3691_33235" x1="102.831" y1="-21.1692" x2="104.65" y2="290.621" gradientUnits="userSpaceOnUse">
<stop stop-color="#FFE1E1" stop-opacity="0"/>
<stop offset="1" stop-color="#FFE1E0"/>
</linearGradient>
<linearGradient id="paint1_linear_3691_33235" x1="125.833" y1="147.763" x2="199.975" y2="156.26" gradientUnits="userSpaceOnUse">
<stop offset="0.0844027" stop-color="#FFBEBD"/>
<stop offset="1" stop-color="#FFF6F5"/>
</linearGradient>
<linearGradient id="paint2_linear_3691_33235" x1="121.201" y1="26.5074" x2="108.47" y2="3.24542" gradientUnits="userSpaceOnUse">
<stop stop-color="#FF9999"/>
<stop offset="1" stop-color="#FFE7DA"/>
</linearGradient>
<linearGradient id="paint3_linear_3691_33235" x1="160.265" y1="196.991" x2="55.4109" y2="83.673" gradientUnits="userSpaceOnUse">
<stop stop-color="#FFDEAC"/>
<stop offset="0.70369" stop-color="#FF426F"/>
</linearGradient>
<linearGradient id="paint4_linear_3691_33235" x1="123.877" y1="131.973" x2="91.0261" y2="35.3666" gradientUnits="userSpaceOnUse">
<stop stop-color="#FF9999"/>
<stop offset="1" stop-color="#FFE7DA"/>
</linearGradient>
<linearGradient id="paint5_linear_3691_33235" x1="177.394" y1="186.353" x2="87.4281" y2="64.2712" gradientUnits="userSpaceOnUse">
<stop stop-color="#FFBEBD"/>
<stop offset="1" stop-color="#FFF6F5"/>
</linearGradient>
<linearGradient id="paint6_linear_3691_33235" x1="157.814" y1="51.5611" x2="114.624" y2="78.2876" gradientUnits="userSpaceOnUse">
<stop stop-color="#FFDEAC"/>
<stop offset="1" stop-color="#FF426F"/>
</linearGradient>
<linearGradient id="paint7_linear_3691_33235" x1="206.04" y1="81.6607" x2="196.952" y2="60.5384" gradientUnits="userSpaceOnUse">
<stop stop-color="#FF9999"/>
<stop offset="1" stop-color="#FFE7DA"/>
</linearGradient>
<linearGradient id="paint8_linear_3691_33235" x1="36.8533" y1="116.613" x2="29.5549" y2="99.6569" gradientUnits="userSpaceOnUse">
<stop stop-color="#FF9999"/>
<stop offset="1" stop-color="#FFE7DA"/>
</linearGradient>
<linearGradient id="paint9_linear_3691_33235" x1="204.394" y1="106.916" x2="198.27" y2="92.701" gradientUnits="userSpaceOnUse">
<stop stop-color="#FF9999"/>
<stop offset="1" stop-color="#FFE7DA"/>
</linearGradient>
<linearGradient id="paint10_linear_3691_33235" x1="37.0099" y1="89.4784" x2="26.9494" y2="66.0757" gradientUnits="userSpaceOnUse">
<stop stop-color="#FF9999"/>
<stop offset="1" stop-color="#FFE7DA"/>
</linearGradient>
</defs>
</svg>
