<svg width="16" height="16" viewBox="0 0 16 16" fill="none" xmlns="http://www.w3.org/2000/svg">
<path d="M3.82843 7.56657C3.36347 7.37249 2.68628 7.3228 2.6772 7.3228C2.30473 7.3228 2 7.62753 2 8C2 8.37247 2.30473 8.67719 2.6772 8.67719C2.68848 8.67719 3.36569 8.62751 3.82843 8.43342C3.85322 8.69754 3.90068 8.96169 3.97294 9.21895C4.0068 9.34088 3.94583 9.46503 3.83075 9.4989C3.35671 9.64785 2.87813 9.83528 2.67043 9.95713C2.40864 10.1084 2.22351 10.3521 2.14449 10.6434C2.06549 10.9346 2.1061 11.2394 2.25736 11.499C2.56884 12.0385 3.25966 12.2235 3.79909 11.912C4.009 11.7924 4.41079 11.4719 4.7765 11.1355C4.86457 11.0542 5.00223 11.0632 5.0903 11.1535C5.27764 11.3454 5.48313 11.5169 5.69978 11.6727C5.62077 11.7337 5.53723 11.8103 5.44472 11.903C5.2077 12.1422 4.98196 12.4244 4.90973 12.5508C4.81943 12.7066 4.79464 12.8894 4.84201 13.0655C4.88937 13.2393 5.00002 13.386 5.15803 13.4763C5.26414 13.5373 5.38155 13.5666 5.49663 13.5666C5.73143 13.5666 5.95939 13.4447 6.08353 13.228C6.08806 13.2189 6.38606 12.6051 6.44924 12.1039C6.69079 12.2146 6.94363 12.3048 7.20324 12.3726C7.32517 12.4042 7.39964 12.5193 7.37475 12.6344C7.26864 13.1129 7.19195 13.6321 7.19195 13.8713C7.19195 14.4943 7.69764 15 8.32061 15C8.94358 15 9.44927 14.4943 9.44927 13.8713C9.44927 13.6321 9.37248 13.1129 9.26646 12.6344C9.24167 12.5193 9.31615 12.4041 9.43798 12.3726C9.69756 12.3071 9.9504 12.2145 10.192 12.1039C10.2552 12.6027 10.5509 13.2191 10.5577 13.228C10.6841 13.4447 10.9121 13.5666 11.1446 13.5666C11.2597 13.5666 11.3749 13.5373 11.4832 13.4763C11.639 13.386 11.7518 13.2393 11.7992 13.0655C11.8466 12.8916 11.8218 12.7088 11.7315 12.5508C11.6592 12.4245 11.4335 12.1423 11.1965 11.903C11.104 11.8105 11.0204 11.7337 10.9414 11.6727C11.1581 11.5192 11.3636 11.3454 11.5509 11.1535C11.639 11.0632 11.7766 11.0565 11.8647 11.1355C12.2304 11.4719 12.6344 11.7923 12.8421 11.912C13.3793 12.2235 14.0724 12.0384 14.3839 11.499C14.5351 11.2372 14.5735 10.9346 14.4967 10.6434C14.4199 10.3522 14.2326 10.1084 13.9708 9.95713C13.7631 9.83751 13.2845 9.64786 12.8105 9.4989C12.6976 9.46283 12.6344 9.34089 12.6683 9.21895C12.7405 8.96157 12.7879 8.69754 12.8128 8.43342C13.2777 8.62751 13.9549 8.67719 13.964 8.67719C14.3365 8.67719 14.6412 8.37247 14.6412 8C14.6412 7.62753 14.3365 7.3228 13.964 7.3228C13.9527 7.3228 13.2755 7.37249 12.8128 7.56657C12.788 7.30246 12.7405 7.03831 12.6683 6.78105C12.6344 6.65912 12.6954 6.53496 12.8105 6.50109C13.2845 6.35215 13.7631 6.16472 13.9708 6.04287C14.2326 5.89161 14.4177 5.64785 14.4967 5.3566C14.5757 5.06536 14.5351 4.76061 14.3839 4.50103C14.0724 3.9615 13.3816 3.77647 12.8421 4.08796C12.6322 4.20758 12.2304 4.52812 11.8647 4.86453C11.7766 4.94575 11.639 4.93678 11.5509 4.84649C11.3636 4.65462 11.1581 4.4831 10.9414 4.32731C11.0204 4.26634 11.104 4.18965 11.1965 4.09704C11.4335 3.8578 11.6593 3.57564 11.7315 3.44918C11.8218 3.29338 11.8466 3.11058 11.7992 2.93453C11.7518 2.7607 11.6412 2.61397 11.4832 2.52368C11.1604 2.33634 10.745 2.44921 10.5577 2.77198C10.5532 2.78105 10.2552 3.39495 10.192 3.8961C9.95042 3.78545 9.69758 3.69516 9.43798 3.62744C9.31604 3.5958 9.24157 3.48071 9.26646 3.36564C9.37258 2.88707 9.44927 2.36788 9.44927 2.12866C9.44927 1.50569 8.94358 1 8.32061 1C7.69764 1 7.19195 1.50569 7.19195 2.12866C7.19195 2.36789 7.26874 2.88707 7.37475 3.36564C7.39954 3.48072 7.32507 3.59591 7.20324 3.62744C6.94366 3.69294 6.69081 3.78545 6.44924 3.8961C6.38606 3.39727 6.09029 2.78093 6.08353 2.77198C5.89619 2.4492 5.48081 2.33855 5.15803 2.52368C5.00223 2.61397 4.88937 2.76069 4.84201 2.93453C4.79464 3.10837 4.81943 3.29116 4.90973 3.44918C4.98198 3.57554 5.20772 3.85771 5.44472 4.09704C5.53723 4.18955 5.62077 4.26634 5.69978 4.32731C5.48312 4.48078 5.27765 4.65463 5.0903 4.84649C5.00223 4.93678 4.86457 4.94353 4.7765 4.86453C4.41079 4.52815 4.00679 4.20769 3.79909 4.08796C3.25955 3.77647 2.56884 3.96159 2.25736 4.50103C2.1061 4.76283 2.0677 5.06536 2.14449 5.3566C2.22128 5.64783 2.40861 5.89159 2.67043 6.04287C2.87813 6.16249 3.35671 6.35214 3.83075 6.50109C3.94361 6.53717 4.0068 6.65911 3.97294 6.78105C3.90068 7.03843 3.85332 7.30246 3.82843 7.56657ZM2.6772 8.22574C2.55304 8.22574 2.45146 8.12416 2.45146 8C2.45146 7.87585 2.55304 7.77427 2.6772 7.77427C2.88942 7.77427 3.44246 7.89167 3.70207 8C3.44027 8.10834 2.88943 8.22574 2.6772 8.22574ZM13.9638 7.77427C14.0879 7.77427 14.1895 7.87585 14.1895 8C14.1895 8.12416 14.0879 8.22574 13.9638 8.22574C13.7515 8.22574 13.1985 8.10834 12.9389 8C13.2007 7.89167 13.7515 7.77427 13.9638 7.77427ZM5.69529 12.9999C5.63211 13.1082 5.49435 13.1444 5.38603 13.0834C5.2777 13.0203 5.24152 12.8825 5.30249 12.7742C5.4086 12.5914 5.7856 12.1715 6.01133 11.9999C5.97526 12.2799 5.79909 12.8171 5.69529 12.9999ZM11.3386 12.7742C11.4018 12.8825 11.3634 13.0203 11.255 13.0834C11.1467 13.1466 11.009 13.1082 10.9458 12.9999C10.8397 12.8171 10.6636 12.2798 10.6298 11.9999C10.8555 12.1714 11.2325 12.5914 11.3386 12.7742ZM10.9481 2.99985C10.9887 2.9276 11.0655 2.88699 11.1445 2.88699C11.1829 2.88699 11.2213 2.89606 11.2574 2.91631C11.3657 2.9795 11.4019 3.11726 11.3409 3.22558C11.2348 3.40838 10.8578 3.82829 10.632 3.99983C10.6681 3.71987 10.8443 3.18266 10.9481 2.99985ZM5.30479 3.22559C5.2416 3.11726 5.28 2.9795 5.38833 2.91632C5.42441 2.89596 5.4628 2.887 5.5012 2.887C5.5802 2.887 5.65467 2.92761 5.6976 2.99986C5.80372 3.18266 5.97978 3.71998 6.01363 3.99984C5.7879 3.82833 5.41092 3.40839 5.30479 3.22559ZM4.41094 9.09693C4.30936 8.7403 4.25968 8.37005 4.25968 8.00212C4.25968 7.63419 4.31158 7.26396 4.41094 6.90731C4.51252 6.54836 4.31843 6.18275 3.97078 6.0721C3.47871 5.91862 3.05204 5.74258 2.90076 5.65448C2.57798 5.46715 2.46511 5.05177 2.65246 4.72898C2.74275 4.57319 2.88947 4.46033 3.06331 4.41296C3.23715 4.3656 3.41994 4.39039 3.57795 4.48068C3.72922 4.56876 4.09492 4.84861 4.47634 5.19848C4.745 5.44457 5.15808 5.43096 5.41765 5.16462C5.93906 4.62962 6.596 4.25261 7.31834 4.06762C7.67729 3.97732 7.89848 3.62523 7.81949 3.2708C7.70663 2.76511 7.64566 2.30691 7.64566 2.13306C7.64566 1.76059 7.95038 1.45586 8.32285 1.45586C8.69532 1.45586 9.00005 1.76059 9.00005 2.13306C9.00005 2.30911 8.93908 2.76732 8.82621 3.2708C8.74721 3.62743 8.96619 3.97732 9.32736 4.06762C10.0475 4.25042 10.7065 4.62973 11.228 5.16462C11.4876 5.43096 11.9007 5.44458 12.1694 5.19848C12.5509 4.84861 12.9165 4.56643 13.0677 4.48068C13.2235 4.39039 13.4063 4.3656 13.5824 4.41296C13.7562 4.46032 13.903 4.57097 13.9932 4.72898C14.1806 5.05177 14.0677 5.46714 13.7449 5.65448C13.5937 5.74256 13.1671 5.9186 12.6749 6.0721C12.3272 6.18043 12.1332 6.54836 12.2348 6.90731C12.3363 7.26394 12.386 7.63419 12.386 8.00212C12.386 8.37005 12.3341 8.74028 12.2348 9.09693C12.1332 9.45588 12.3273 9.82149 12.6749 9.93214C13.167 10.0856 13.5937 10.2617 13.7449 10.3498C14.0677 10.5371 14.1806 10.9525 13.9932 11.2753C13.903 11.4311 13.7562 11.5439 13.5824 11.5913C13.4086 11.6386 13.2258 11.6139 13.0677 11.5236C12.9165 11.4355 12.5508 11.1556 12.1694 10.8058C11.9007 10.5597 11.4876 10.5733 11.228 10.8396C10.7066 11.3746 10.0497 11.7516 9.32736 11.9366C8.96841 12.0269 8.74722 12.379 8.82621 12.7334C8.93908 13.2391 9.00005 13.6973 9.00005 13.8712C9.00005 14.2437 8.69532 14.5484 8.32285 14.5484C7.95038 14.5484 7.64566 14.2437 7.64566 13.8712C7.64566 13.6951 7.70663 13.2369 7.81949 12.7334C7.8985 12.3768 7.67952 12.0269 7.31834 11.9366C6.59822 11.7538 5.93916 11.3745 5.41765 10.8396C5.28222 10.6996 5.10385 10.6297 4.92559 10.6297C4.76536 10.6297 4.6028 10.6884 4.47634 10.8058C4.09482 11.1556 3.72921 11.4378 3.57795 11.5236C3.42216 11.6139 3.23936 11.6386 3.06331 11.5913C2.88948 11.5439 2.74275 11.4333 2.65246 11.2753C2.46512 10.9525 2.57798 10.5371 2.90076 10.3498C3.05202 10.2617 3.47858 10.0856 3.97078 9.93214C4.31846 9.82381 4.51254 9.45588 4.41094 9.09693Z" fill="black" fill-opacity="0.35"/>
<path d="M8.54688 9.35437C8.54688 9.97733 9.05257 10.483 9.67553 10.483C10.2985 10.483 10.8042 9.97733 10.8042 9.35437C10.8042 8.7314 10.2985 8.22571 9.67553 8.22571V8.67717C10.048 8.67717 10.3527 8.9819 10.3527 9.35437C10.3527 9.72684 10.048 10.0316 9.67553 10.0316C9.30306 10.0316 8.99834 9.72684 8.99834 9.35437H8.54688Z" fill="black" fill-opacity="0.35"/>
<path d="M6.28965 8.9029C6.78847 8.9029 7.19257 8.4988 7.19257 7.99997H6.74111C6.74111 8.24828 6.53795 8.45144 6.28965 8.45144C6.04134 8.45144 5.83818 8.24828 5.83818 7.99997C5.83818 7.75167 6.04134 7.54851 6.28965 7.54851V7.09705C5.79082 7.09705 5.38672 7.50114 5.38672 7.99997C5.38672 8.4988 5.79082 8.9029 6.28965 8.9029Z" fill="black" fill-opacity="0.35"/>
<path d="M8.31782 6.87148V6.42002C8.19367 6.42002 8.09209 6.31844 8.09209 6.19428C8.09209 6.07013 8.19367 5.96855 8.31782 5.96855C8.44197 5.96855 8.54355 6.07013 8.54355 6.19428H8.99502C8.99502 5.82181 8.69029 5.51709 8.31782 5.51709C7.94535 5.51709 7.64062 5.82181 7.64062 6.19428C7.64062 6.56676 7.94535 6.87148 8.31782 6.87148Z" fill="black" fill-opacity="0.35"/>
<path d="M8.54521 2.13101C8.54521 2.25566 8.44414 2.35674 8.31948 2.35674C8.19483 2.35674 8.09375 2.25566 8.09375 2.13101C8.09375 2.00635 8.19483 1.90527 8.31948 1.90527C8.44414 1.90527 8.54521 2.00635 8.54521 2.13101Z" fill="black" fill-opacity="0.35"/>
<path d="M3.34758 4.86937C3.23925 4.80619 3.10149 4.84458 3.03832 4.95291C2.97513 5.06124 3.01353 5.199 3.12186 5.26218C3.23019 5.32536 3.36795 5.28697 3.43112 5.17864C3.4943 5.07031 3.45591 4.93255 3.34758 4.86937Z" fill="black" fill-opacity="0.35"/>
<path d="M3.12478 10.7381C3.01645 10.8013 2.98027 10.9391 3.04124 11.0474C3.10442 11.1557 3.24218 11.1919 3.3505 11.1309C3.45884 11.0678 3.49501 10.93 3.43405 10.8217C3.37086 10.7133 3.2331 10.6772 3.12478 10.7381Z" fill="black" fill-opacity="0.35"/>
<path d="M8.54521 13.8688C8.54521 13.9935 8.44414 14.0945 8.31948 14.0945C8.19483 14.0945 8.09375 13.9935 8.09375 13.8688C8.09375 13.7441 8.19483 13.6431 8.31948 13.6431C8.44414 13.6431 8.54521 13.7441 8.54521 13.8688Z" fill="black" fill-opacity="0.35"/>
<path d="M13.2898 11.1308C13.3982 11.194 13.5359 11.1556 13.5991 11.0473C13.6623 10.939 13.6239 10.8012 13.5155 10.738C13.4072 10.6748 13.2695 10.7132 13.2063 10.8216C13.1431 10.9299 13.1815 11.0677 13.2898 11.1308Z" fill="black" fill-opacity="0.35"/>
<path d="M13.5185 5.26168C13.6268 5.1985 13.663 5.06074 13.602 4.95242C13.5388 4.84409 13.4011 4.80791 13.2927 4.86888C13.1844 4.93206 13.1482 5.06982 13.2092 5.17814C13.2724 5.28647 13.4101 5.32265 13.5185 5.26168Z" fill="black" fill-opacity="0.35"/>
<path d="M9.788 9.55068C9.89634 9.4875 9.93251 9.34974 9.87155 9.24142C9.80836 9.13309 9.6706 9.09691 9.56228 9.15788C9.45395 9.22106 9.41777 9.35882 9.47874 9.46714C9.54192 9.57547 9.67968 9.61165 9.788 9.55068Z" fill="black" fill-opacity="0.35"/>
<path d="M6.17556 7.80369C6.06723 7.86687 6.03105 8.00463 6.09202 8.11296C6.1552 8.22129 6.29296 8.25746 6.40129 8.1965C6.50962 8.13331 6.5458 7.99555 6.48483 7.88723C6.42164 7.7789 6.28388 7.74272 6.17556 7.80369Z" fill="black" fill-opacity="0.35"/>
</svg>
