<svg width="64" height="64" viewBox="0 0 64 64" fill="none" xmlns="http://www.w3.org/2000/svg">
<path d="M32.6711 64C41.1211 64 47.9711 60.9107 47.9711 57.0999C47.9711 53.2892 41.1211 50.2 32.6711 50.2C24.2211 50.2 17.3711 53.2892 17.3711 57.0999C17.3711 60.9107 24.2211 64 32.6711 64Z" fill="#F74354" fill-opacity="0.5"/>
<path fill-rule="evenodd" clip-rule="evenodd" d="M13.7148 18.7C13.7148 8.4 22.1148 0 32.4148 0C42.7148 0 51.1148 8.4 51.1148 18.7C51.1148 29.5 38.9148 48 34.2148 54.6C33.4148 55.8 31.6148 55.8 30.7148 54.6C26.0148 48 13.7148 29.5 13.7148 18.7Z" fill="#F74354"/>
<path d="M23.668 28.3333H40.3346" stroke="white" stroke-width="1.5" stroke-miterlimit="10" stroke-linecap="round" stroke-linejoin="round"/>
<path d="M24.457 28.3334L24.4987 18.3084C24.4987 17.8 24.7404 17.3167 25.1404 17.0001L30.9737 12.4584C31.5737 11.9917 32.4154 11.9917 33.0237 12.4584L38.857 16.9917C39.2654 17.3084 39.4987 17.7917 39.4987 18.3084V28.3334" stroke="white" stroke-width="1.5" stroke-miterlimit="10" stroke-linejoin="round"/>
<path d="M32.8346 24.1667H31.168C30.4763 24.1667 29.918 24.7251 29.918 25.4167V28.3334H34.0846V25.4167C34.0846 24.7251 33.5263 24.1667 32.8346 24.1667Z" stroke="white" stroke-width="1.5" stroke-miterlimit="10" stroke-linejoin="round"/>
<path d="M29.918 21.4584H28.2513C27.793 21.4584 27.418 21.0834 27.418 20.6251V19.3751C27.418 18.9167 27.793 18.5417 28.2513 18.5417H29.918C30.3763 18.5417 30.7513 18.9167 30.7513 19.3751V20.6251C30.7513 21.0834 30.3763 21.4584 29.918 21.4584Z" stroke="white" stroke-width="1.5" stroke-miterlimit="10" stroke-linejoin="round"/>
<path d="M35.75 21.4584H34.0833C33.625 21.4584 33.25 21.0834 33.25 20.6251V19.3751C33.25 18.9167 33.625 18.5417 34.0833 18.5417H35.75C36.2083 18.5417 36.5833 18.9167 36.5833 19.3751V20.6251C36.5833 21.0834 36.2083 21.4584 35.75 21.4584Z" stroke="white" stroke-width="1.5" stroke-miterlimit="10" stroke-linejoin="round"/>
<path d="M37.8323 15.8333L37.8073 13.3333H34.1406" stroke="white" stroke-width="1.5" stroke-miterlimit="10" stroke-linecap="round" stroke-linejoin="round"/>
</svg>
