<svg width="24" height="24" viewBox="0 0 24 24" fill="none" xmlns="http://www.w3.org/2000/svg">
<g clip-path="url(#clip0_3487_24053)">
<path fill-rule="evenodd" clip-rule="evenodd" d="M12 0C18.627 0 24 5.37305 24 12C24 18.627 18.627 24 12 24C5.37305 24 0 18.627 0 12C0 5.37305 5.37305 0 12 0ZM10.5898 7.35352C10.5898 5.51172 13.3965 5.50977 13.3965 7.35742V12.3867L16.5664 14.0645C16.582 14.0723 16.5977 14.082 16.6113 14.0938L16.6387 14.1133C18.1113 15.0781 16.7422 17.3965 15.168 16.4863L15.1621 16.4824L11.3262 14.4277C10.877 14.1875 10.5859 13.7109 10.5859 13.1992H10.5879L10.5898 7.35352Z" fill="#FF7900"/>
</g>
<defs>
<clipPath id="clip0_3487_24053">
<rect width="24" height="24" fill="white"/>
</clipPath>
</defs>
</svg>
