<svg width="20" height="21" viewBox="0 0 20 21" fill="none" xmlns="http://www.w3.org/2000/svg">
<path d="M5.88747 9.8553C6.36212 10.7107 6.90859 11.5328 7.61915 12.2821C8.33128 13.0364 9.21633 13.7221 10.3637 14.3073C10.4488 14.3489 10.5297 14.3489 10.6015 14.3205C10.7105 14.2786 10.8217 14.1889 10.9313 14.079C11.0163 13.9942 11.1215 13.8588 11.2324 13.7105C11.673 13.1297 12.2195 12.41 12.9902 12.77C13.0072 12.7778 13.0201 12.7867 13.0372 12.7945L15.6091 14.2736C15.6161 14.2774 15.6258 14.2868 15.6334 14.2903C15.9729 14.5237 16.1121 14.8837 16.1159 15.2906C16.1159 15.7057 15.9632 16.1719 15.7392 16.5662C15.4432 17.0859 15.0063 17.4302 14.503 17.6588C14.0243 17.8793 13.491 17.9974 12.9786 18.073C12.1738 18.1918 11.4204 18.1162 10.6497 17.879C9.8957 17.6453 9.13696 17.2607 8.30734 16.7486L8.24592 16.7092C7.86576 16.4724 7.45473 16.2176 7.0519 15.9177C5.5744 14.8027 4.07076 13.1939 3.09154 11.4229C2.27011 9.93624 1.82161 8.3315 2.06696 6.80141C2.2024 5.96266 2.56209 5.20013 3.18918 4.69682C3.73564 4.2565 4.47234 4.01524 5.42574 4.09965C5.53534 4.10689 5.63298 4.17114 5.68369 4.26469L7.3319 7.05212C7.57348 7.36488 7.60308 7.67417 7.47174 7.98378C7.36182 8.23859 7.14198 8.47197 6.84056 8.69119C6.75174 8.76678 6.64591 8.84363 6.53536 8.92426C6.16653 9.19198 5.74795 9.50065 5.89125 9.86443L5.88747 9.8553ZM8.95869 8.52457C8.7042 8.45906 8.55112 8.19859 8.61695 7.9441C8.68278 7.6896 8.94294 7.53653 9.19743 7.60236C9.96941 7.80362 10.6954 8.22158 11.2828 8.76993C11.8737 9.32175 12.332 10.0112 12.5634 10.7504C12.6416 11.0021 12.5011 11.2698 12.2497 11.3479C11.9984 11.4263 11.7304 11.2859 11.6523 11.0345C11.4712 10.4559 11.1064 9.91041 10.633 9.46821C10.1559 9.02253 9.57224 8.68458 8.95869 8.52457ZM9.022 5.6036C8.76215 5.5595 8.58766 5.31257 8.63175 5.05273C8.67553 4.7932 8.92278 4.61839 9.18231 4.66249C10.6378 4.91446 12.0195 5.65336 13.1272 6.69022C14.2356 7.72708 15.0743 9.06537 15.4432 10.5158C15.508 10.7715 15.3534 11.0317 15.0976 11.0966C14.8419 11.1615 14.5817 11.0068 14.5169 10.7511C14.1924 9.47608 13.4539 8.2978 12.4775 7.3844C11.5033 6.47258 10.2922 5.82376 9.022 5.6036ZM9.32877 2.95192C9.06703 2.922 8.879 2.68514 8.90892 2.42341C8.93884 2.16167 9.17538 1.97333 9.43712 2.00325C11.4734 2.24167 13.3868 3.17554 14.9014 4.54847C16.4199 5.92455 17.5418 7.74567 17.9887 9.7523C18.0454 10.0087 17.8832 10.2632 17.6265 10.3199C17.3701 10.3766 17.1156 10.2144 17.0589 9.95766C16.6558 8.14819 15.64 6.50156 14.263 5.25399C12.892 4.01146 11.1637 3.16641 9.32877 2.95192Z" fill="#FA7070"/>
</svg>
