<svg width="20" height="21" viewBox="0 0 20 21" fill="none" xmlns="http://www.w3.org/2000/svg">
<g clip-path="url(#clip0_2743_28165)">
<path d="M4.85872 9.81723C5.45196 10.8864 6.13495 11.9138 7.02304 12.8503C7.91309 13.7931 9.01926 14.6501 10.4533 15.3815C10.5596 15.4335 10.6608 15.4335 10.7506 15.3981C10.8868 15.3457 11.0257 15.2335 11.1627 15.0961C11.269 14.9902 11.4005 14.821 11.539 14.6356C12.0898 13.9097 12.7728 13.0102 13.736 13.4601C13.7573 13.4699 13.7734 13.481 13.7947 13.4908L17.0093 15.3394C17.0179 15.3441 17.0301 15.356 17.0396 15.3603C17.4639 15.652 17.6379 16.1019 17.6427 16.6105C17.6427 17.1294 17.4517 17.712 17.1718 18.2048C16.8018 18.8544 16.2558 19.2846 15.6268 19.5704C15.0284 19.846 14.3619 19.9936 13.7215 20.0881C12.7157 20.2365 11.7741 20.142 10.8108 19.8456C9.86837 19.5535 8.92006 19.0728 7.88317 18.4328L7.80641 18.3835C7.33127 18.0875 6.81755 17.7691 6.31406 17.3943C4.46743 16.0008 2.58812 13.99 1.36425 11.7764C0.3376 9.9184 -0.222964 7.91273 0.0836927 6.00035C0.252964 4.95205 0.702518 3.99901 1.48628 3.36995C2.16927 2.81962 3.09003 2.51808 4.28163 2.62358C4.41862 2.63264 4.54065 2.71294 4.60403 2.82986L6.66402 6.3137C6.96596 6.7046 7.00296 7.09117 6.83881 7.47813C6.70142 7.7966 6.42665 8.0883 6.04992 8.36228C5.93891 8.45676 5.80664 8.55281 5.66847 8.65358C5.2075 8.98819 4.68433 9.37397 4.86345 9.82864L4.85872 9.81723ZM8.69725 8.15404C8.37918 8.07216 8.18786 7.7466 8.27013 7.42853C8.35241 7.11046 8.67757 6.91914 8.99564 7.00142C9.96049 7.25296 10.8679 7.77534 11.602 8.46069C12.3405 9.15038 12.9133 10.0121 13.2026 10.936C13.3003 11.2505 13.1247 11.5851 12.8105 11.6828C12.4964 11.7808 12.1614 11.6052 12.0638 11.2911C11.8374 10.5679 11.3816 9.88612 10.7899 9.33343C10.1935 8.77641 9.46409 8.35401 8.69725 8.15404ZM8.77637 4.50328C8.45161 4.44817 8.23352 4.13955 8.28864 3.81478C8.34335 3.49041 8.65237 3.27193 8.97674 3.32704C10.7958 3.64197 12.5228 4.56548 13.9073 5.86139C15.2925 7.1573 16.3408 8.82994 16.8018 10.6427C16.8829 10.9624 16.6896 11.2875 16.37 11.3686C16.0503 11.4497 15.7252 11.2564 15.6441 10.9368C15.2386 9.34327 14.3155 7.87061 13.0952 6.72901C11.8776 5.58938 10.364 4.77845 8.77637 4.50328ZM9.15979 1.1891C8.83267 1.15171 8.59766 0.855679 8.63505 0.528552C8.67245 0.201425 8.96808 -0.0339801 9.29521 0.00341707C11.8402 0.301414 14.2316 1.4686 16.1247 3.18454C18.0225 4.90442 19.4247 7.18053 19.9833 9.6885C20.0542 10.0089 19.8515 10.327 19.5306 10.3979C19.2102 10.4687 18.8921 10.266 18.8213 9.94517C18.3174 7.68362 17.0478 5.62559 15.3268 4.06633C13.6132 2.51336 11.4532 1.45718 9.15979 1.1891Z" fill="black" fill-opacity="0.35"/>
</g>
<defs>
<clipPath id="clip0_2743_28165">
<rect width="20" height="20.1575" fill="white"/>
</clipPath>
</defs>
</svg>
