<svg width="24" height="17" viewBox="0 0 24 17" fill="none" xmlns="http://www.w3.org/2000/svg">
<path d="M3.0519 6.04852L11.8847 0.0646456C11.9478 0.0220721 12.0191 -0.000195811 12.0915 1.29725e-06C12.164 0.000198405 12.2351 0.0228538 12.2981 0.0657706L21.1234 6.10196C21.3255 6.23977 21.3967 6.54858 21.2819 6.79102C21.2466 6.86553 21.1961 6.92805 21.1351 6.97271L12.4031 13.3515C12.263 13.4544 12.0919 13.4465 11.9606 13.3486L3.01862 6.93783C2.81939 6.7944 2.75424 6.4839 2.87377 6.24483C2.91572 6.15975 2.97769 6.09145 3.0519 6.04852ZM14.9461 15.9682C15.1707 16.0391 15.3052 16.3164 15.2461 16.5864C15.1871 16.8558 14.956 17.0173 14.7314 16.9464L13.3125 16.4964C13.0875 16.4255 12.953 16.1482 13.0125 15.8782L13.3946 14.1435C13.4536 13.8735 13.6842 13.7126 13.9092 13.7835C14.1343 13.8543 14.2688 14.1311 14.2097 14.4011L14.078 14.9979L22.4866 9.17715L22.0248 9.02865C21.7998 8.95665 21.6662 8.67877 21.7262 8.40933C21.7862 8.13933 22.0178 7.97846 22.2428 8.05046L23.687 8.51508C23.9121 8.58708 24.0456 8.86496 23.9856 9.13496L23.606 10.836C23.546 11.106 23.3144 11.2663 23.0894 11.1943C22.8644 11.1223 22.7308 10.8444 22.7908 10.5744L22.9075 10.0513L14.5439 15.8405L14.9461 15.9682ZM9.55121 16.9458C9.31871 16.9689 9.11433 16.7613 9.09558 16.4829C9.07683 16.2039 9.24933 15.9586 9.48184 15.9361L9.907 15.8928L1.09859 9.57596L1.20921 10.0721C1.26922 10.3415 1.13562 10.6194 0.910616 10.6914C0.685613 10.764 0.454047 10.6031 0.394046 10.3331L0.0143527 8.63265C-0.0456482 8.36265 0.0879475 8.08477 0.312951 8.01277L1.75719 7.54815C1.98219 7.47615 2.21376 7.63646 2.27376 7.90646C2.33376 8.17646 2.20017 8.45377 1.97516 8.52633L1.49328 8.68102L10.4723 15.1211L10.4315 14.5456C10.4128 14.2672 10.5853 14.022 10.8178 13.9995C11.0498 13.9764 11.2542 14.184 11.273 14.4624L11.3995 16.2506C11.4187 16.529 11.2458 16.7743 11.0137 16.7973L9.55121 16.9458ZM12.0891 1.08502L4.07238 6.51596L12.1819 12.33L20.0861 6.55533L12.0891 1.08502Z" fill="black" fill-opacity="0.5"/>
</svg>
