<svg width="24" height="24" viewBox="0 0 24 24" fill="none" xmlns="http://www.w3.org/2000/svg">
<path fill-rule="evenodd" clip-rule="evenodd" d="M11.4606 4C14.2526 5.72067 16.7746 6.53477 18.9394 6.34233C19.0574 8.66092 18.8636 10.6834 18.3894 12.4246C18.0681 12.2972 17.725 12.221 17.3709 12.206C17.7427 10.7668 17.8924 9.10546 17.796 7.21016C15.9634 7.37323 13.8282 6.68409 11.4648 5.22708C9.41951 6.77187 7.30932 7.22422 5.15801 7.11457C5.06259 10.6474 5.70098 13.3075 6.93438 15.2424C7.84618 14.5011 9.39894 14.613 10.1344 13.6299C10.1874 13.554 10.2118 13.513 10.2111 13.4796C10.2108 13.4621 9.4134 12.5112 9.34176 12.4003C9.15381 12.1098 8.802 11.7152 8.802 11.375C8.802 11.1829 8.95782 10.9323 9.18112 10.8764C9.16377 10.5884 9.15188 10.2963 9.15188 10.0067C9.15188 9.83584 9.15509 9.66277 9.16152 9.49345C9.17116 9.38599 9.19172 9.33882 9.22095 9.2351C9.35839 8.80006 9.65773 8.43047 10.0605 8.19858C10.2028 8.11111 10.3577 8.04301 10.5164 7.98709C10.8042 7.88493 10.6648 7.44258 10.9809 7.43571C11.7196 7.41728 12.9347 8.04519 13.4079 8.54409C13.7096 8.86835 13.8818 9.22886 13.8921 9.66621L13.8622 10.9242C13.9933 10.9555 14.1404 11.0551 14.1726 11.1829C14.2738 11.5799 13.85 12.0741 13.6527 12.39C13.4712 12.6814 12.7769 13.4768 12.7763 13.4834C12.7731 13.5174 12.7911 13.5605 12.8386 13.6299C13.1769 14.0822 13.6881 14.3028 14.2298 14.4811C14.1697 14.6908 14.1311 14.9072 14.1163 15.129C14.0598 15.1675 14.0071 15.2103 13.9586 15.2574L13.9554 15.2606C13.7392 15.4714 13.6042 15.7616 13.6042 16.0809V18.9921C12.9514 19.3873 12.2458 19.7231 11.4899 19.9999C6.65744 18.2849 3.79898 14.0831 4.01103 6.22956C6.55206 6.35889 9.04521 5.82469 11.4606 4ZM14.8556 15.7317H14.9803V15.3583C14.9803 14.7348 15.2331 14.1662 15.6405 13.7529C16.0514 13.3365 16.6185 13.0782 17.2431 13.0782C17.8676 13.0782 18.4354 13.3365 18.8456 13.7529C19.2533 14.1662 19.5062 14.7345 19.5062 15.3583V15.7317H19.6308C19.8339 15.7317 20 15.8935 20 16.0909V19.6406C20 19.8384 19.8339 19.9999 19.6308 19.9999H14.8556C14.6522 19.9999 14.4865 19.8384 14.4865 19.6406V16.0909C14.4861 15.8935 14.6522 15.7317 14.8556 15.7317ZM16.9504 18.0271L16.5661 19.0062H17.9197L17.5637 18.0137C17.7899 17.9006 17.9444 17.6716 17.9444 17.4073C17.9444 17.0306 17.6305 16.7257 17.2427 16.7257C16.8556 16.7257 16.5417 17.0306 16.5417 17.4073C16.5417 17.6822 16.7091 17.919 16.9504 18.0271ZM15.6791 15.7317H18.8068V15.3583C18.8068 14.9147 18.6291 14.513 18.3431 14.2231C18.0601 13.936 17.6707 13.7576 17.2431 13.7576C16.8154 13.7576 16.4257 13.936 16.143 14.2231C15.8567 14.513 15.6791 14.9147 15.6791 15.3583V15.7317Z" fill="#FA7070"/>
</svg>
