<svg width="24" height="24" viewBox="0 0 24 24" fill="none" xmlns="http://www.w3.org/2000/svg">
<path d="M12 4C7.584 4 4 7.584 4 12C4 16.416 7.584 20 12 20C16.416 20 20 16.416 20 12C20 7.584 16.416 4 12 4ZM5.6 12C5.6 11.512 5.664 11.032 5.768 10.576L9.592 14.4V15.2C9.592 16.08 10.312 16.8 11.192 16.8V18.344C8.048 17.944 5.6 15.256 5.6 12ZM16.712 16.32C16.504 15.672 15.912 15.2 15.192 15.2H14.392V12.8C14.392 12.36 14.032 12 13.592 12H8.792V10.4H10.392C10.832 10.4 11.192 10.04 11.192 9.6V8H12.792C13.672 8 14.392 7.28 14.392 6.4V6.072C16.736 7.016 18.4 9.32 18.4 12C18.4 13.664 17.752 15.184 16.712 16.32Z" fill="#FA7070"/>
</svg>
