<svg width="200" height="200" viewBox="0 0 200 200" fill="none" xmlns="http://www.w3.org/2000/svg">
<path d="M109.065 115.685C108.728 115.787 108.4 115.902 108.082 116.033C107.911 116.103 107.727 116.135 107.543 116.129C107.358 116.123 107.177 116.078 107.011 115.998C106.845 115.917 106.697 115.803 106.578 115.662C106.459 115.521 106.371 115.357 106.319 115.18L101.056 97.4963L41.1133 115.335L55.404 163.357C55.9043 165.036 57.0507 166.447 58.5912 167.281C60.1317 168.114 61.9401 168.302 63.6188 167.802L110.904 153.728C112.583 153.228 113.994 152.081 114.827 150.541C115.661 149 115.848 147.192 115.348 145.513L111.971 134.159C111.917 133.983 111.901 133.797 111.924 133.614C111.947 133.43 112.008 133.254 112.103 133.096C112.198 132.938 112.325 132.801 112.476 132.695C112.627 132.589 112.799 132.515 112.98 132.48C113.322 132.416 113.66 132.334 113.993 132.235C118.956 130.754 121.874 125.856 120.515 121.283C119.156 116.711 114.028 114.209 109.065 115.685Z" fill="#99ADF9"/>
<g style="mix-blend-mode:multiply" opacity="0.25">
<path d="M93.0319 160.787C93.0319 160.787 66.806 168.148 61.0301 163.874C56.1634 160.282 55.9393 156.578 49.0319 141.965C48.9541 154.557 55.8263 175.224 55.8263 175.224L93.0319 160.787Z" fill="#99ADF9"/>
</g>
<g style="mix-blend-mode:multiply" opacity="0.25">
<path d="M63.4531 111.063C63.4531 111.063 66.0124 123.315 75.2883 120.556C84.5642 117.796 79.9994 106.135 79.9994 106.135L63.4531 111.063Z" fill="#99ADF9"/>
</g>
<path d="M84.8824 43.1482L31.2658 59.1C29.5874 59.5999 28.1762 60.7459 27.3428 62.2861C26.5093 63.8263 26.3217 65.6345 26.8213 67.313L41.1139 115.335L61.6843 109.224C61.8467 109.175 62.0176 109.161 62.186 109.181C62.3544 109.202 62.5165 109.258 62.6621 109.345C62.8076 109.432 62.9334 109.549 63.0313 109.688C63.1292 109.826 63.1971 109.984 63.2306 110.15C63.2911 110.459 63.3676 110.767 63.4602 111.076C64.9417 116.037 69.8398 118.957 74.4102 117.596C78.9806 116.235 81.4917 111.115 80.0139 106.148C79.9213 105.841 79.8176 105.539 79.6991 105.246C79.6372 105.089 79.6088 104.92 79.6157 104.751C79.6225 104.582 79.6645 104.417 79.7388 104.265C79.8132 104.113 79.9184 103.978 80.0477 103.869C80.177 103.76 80.3276 103.679 80.4898 103.632L101.06 97.5093L84.8824 43.1482Z" fill="#FEC272"/>
<g style="mix-blend-mode:multiply" opacity="0.52">
<path d="M34.2787 95.876C34.2787 95.876 26.925 69.6501 31.1898 63.8742C34.7843 59.0075 41.1454 56.1594 48.6584 53.9223C36.0658 53.8445 19.8398 58.6705 19.8398 58.6705L34.2787 95.876Z" fill="#FEC272"/>
</g>
<path d="M84.8815 43.1481L89.487 58.6221C89.5616 58.8686 89.5826 59.1282 89.5485 59.3834C89.5144 59.6387 89.426 59.8836 89.2893 60.1019C89.1527 60.3201 88.9709 60.5066 88.7561 60.6487C88.5414 60.7908 88.2987 60.8853 88.0444 60.9258C87.5642 60.9973 87.0895 61.1025 86.624 61.2407C81.6629 62.7221 78.7426 67.6203 80.1037 72.1925C81.4648 76.7647 86.5852 79.2721 91.55 77.7962C92.0157 77.6583 92.4707 77.4862 92.9111 77.2814C93.146 77.178 93.4002 77.1258 93.6568 77.1283C93.9134 77.1308 94.1665 77.1879 94.3993 77.2958C94.6322 77.4037 94.8393 77.56 95.0071 77.7542C95.1748 77.9484 95.2993 78.1761 95.3722 78.4221L101.048 97.4962L120.628 91.6666C121.189 91.4954 121.66 91.1092 121.937 90.5923C122.215 90.0754 122.277 89.4697 122.109 88.9073L122.093 88.8518C120.611 83.8888 123.126 78.7629 127.696 77.4036C132.267 76.0443 137.17 78.9629 138.646 83.9258L138.663 83.9795C138.831 84.5434 139.216 85.0177 139.733 85.2982C140.25 85.5787 140.858 85.6426 141.422 85.4758L154.663 81.5351C156.341 81.0352 157.752 79.8892 158.586 78.349C159.419 76.8088 159.607 75.0006 159.107 73.3221L146.7 31.6295C146.2 29.9511 145.054 28.54 143.514 27.7065C141.974 26.873 140.165 26.6855 138.487 27.1851L84.8815 43.1481Z" fill="#FF97C9"/>
<g style="mix-blend-mode:multiply" opacity="0.19">
<path d="M86.6216 61.239C86.6216 61.239 81.4809 63.9575 83.3549 70.2649C85.229 76.5723 89.6124 77.3927 92.4957 77.9075C87.3105 82.4223 71.9883 76.2075 71.9883 76.2075L77.7772 60.6353L86.6216 61.239Z" fill="#FF97C9"/>
</g>
<g style="mix-blend-mode:multiply" opacity="0.19">
<path d="M155.321 60.5556C155.321 60.5556 147.137 34.5759 140.41 32.0704C134.739 29.9611 126.623 29.1852 119.113 31.4204C129.619 24.4667 147.076 21.5093 147.076 21.5093L155.321 60.5556Z" fill="#FF97C9"/>
</g>
<path d="M48.229 83.1388C49.9799 83.1388 51.3993 81.7194 51.3993 79.9685C51.3993 78.2175 49.9799 76.7981 48.229 76.7981C46.478 76.7981 45.0586 78.2175 45.0586 79.9685C45.0586 81.7194 46.478 83.1388 48.229 83.1388Z" fill="#1C3177"/>
<path d="M71.7485 76.1425C73.4994 76.1425 74.9189 74.7231 74.9189 72.9721C74.9189 71.2212 73.4994 69.8018 71.7485 69.8018C69.9975 69.8018 68.5781 71.2212 68.5781 72.9721C68.5781 74.7231 69.9975 76.1425 71.7485 76.1425Z" fill="#1C3177"/>
<path d="M58.2539 83.8889C58.2539 83.8889 58.3428 81.4204 61.2539 80.5556C64.165 79.6908 65.5002 81.7352 65.5002 81.7352" stroke="#1C3177" stroke-width="9" stroke-miterlimit="10" stroke-linecap="round"/>
<path d="M67.9555 138.302C69.7065 138.302 71.1259 136.882 71.1259 135.132C71.1259 133.381 69.7065 131.961 67.9555 131.961C66.2046 131.961 64.7852 133.381 64.7852 135.132C64.7852 136.882 66.2046 138.302 67.9555 138.302Z" fill="#1C3177"/>
<path d="M91.4712 131.304C93.2221 131.304 94.6415 129.884 94.6415 128.133C94.6415 126.382 93.2221 124.963 91.4712 124.963C89.7202 124.963 88.3008 126.382 88.3008 128.133C88.3008 129.884 89.7202 131.304 91.4712 131.304Z" fill="#1C3177"/>
<path d="M112.145 60.9501C112.643 62.6278 111.404 63.4371 109.724 63.9371C108.045 64.4371 106.565 64.4371 106.065 62.7593C105.936 62.3574 105.889 61.9338 105.926 61.5134C105.964 61.0931 106.084 60.6843 106.281 60.3112C106.478 59.938 106.748 59.6079 107.074 59.3403C107.401 59.0726 107.777 58.8728 108.181 58.7524C108.586 58.632 109.01 58.5936 109.43 58.6393C109.849 58.685 110.256 58.814 110.625 59.0186C110.994 59.2233 111.318 59.4995 111.579 59.8312C111.84 60.1628 112.032 60.5432 112.145 60.9501Z" fill="#1C3177"/>
<path d="M135.66 53.9518C136.16 55.6314 134.919 56.4388 133.24 56.9388C131.56 57.4388 130.08 57.4388 129.58 55.761C129.452 55.3591 129.405 54.9355 129.442 54.5151C129.479 54.0948 129.6 53.686 129.797 53.3129C129.994 52.9397 130.264 52.6097 130.59 52.342C130.916 52.0743 131.293 51.8745 131.697 51.7541C132.102 51.6337 132.526 51.5953 132.946 51.641C133.365 51.6867 133.771 51.8157 134.14 52.0203C134.509 52.225 134.834 52.5012 135.095 52.8329C135.356 53.1645 135.548 53.5449 135.66 53.9518Z" fill="#1C3177"/>
<path d="M127.94 63.4871C127.823 65.0853 125.882 64.9149 123.069 65.7519C120.256 66.589 118.912 67.9742 117.753 66.5186C116.271 64.6667 118.814 61.7408 121.627 60.9038C124.44 60.0667 128.112 61.1316 127.94 63.4871Z" fill="#F774B9"/>
<path d="M86.6839 134.593L75.3154 137.976C74.2351 138.297 73.6199 139.433 73.9414 140.514C74.2628 141.594 75.3991 142.209 76.4794 141.888L87.8479 138.505C88.9282 138.184 89.5433 137.047 89.2219 135.967C88.9005 134.887 87.7642 134.272 86.6839 134.593Z" fill="white"/>
<path d="M137.793 126.252L140.954 131.974" stroke="#1C3177" stroke-width="12" stroke-miterlimit="10" stroke-linecap="round"/>
<path d="M144.508 106.626L150.432 103.861" stroke="#1C3177" stroke-width="12" stroke-miterlimit="10" stroke-linecap="round"/>
<path d="M144.141 117.213L151.78 119.724" stroke="#1C3177" stroke-width="12" stroke-miterlimit="10" stroke-linecap="round"/>
</svg>
