<svg width="24" height="24" viewBox="0 0 24 24" fill="none" xmlns="http://www.w3.org/2000/svg">
<g clip-path="url(#clip0_3574_22752)">
<path fill-rule="evenodd" clip-rule="evenodd" d="M21.9303 22.6313C21.9303 22.8345 21.7701 23.0014 21.5709 23.0014H2.33068C2.13342 23.0014 1.97131 22.8365 1.97131 22.6313V11.3949C1.56897 11.5539 1.19592 11.5559 0.883419 11.4493C0.639278 11.3648 0.4342 11.2139 0.283809 11.0168C0.133419 10.8217 0.0377156 10.5823 0.00841877 10.3208C-0.03455 9.91246 0.0845906 9.44981 0.420528 9.01733C0.438106 8.9952 0.457638 8.97509 0.479122 8.95698L11.7291 1.09797C11.8561 0.977283 12.0514 0.965214 12.192 1.07786L23.4615 8.92078C23.4772 8.93285 23.4908 8.94693 23.5045 8.96101C23.9576 9.46389 24.0709 10.0211 23.9615 10.4938C23.9069 10.7251 23.7994 10.9363 23.651 11.1073C23.5026 11.2803 23.3131 11.4131 23.0963 11.4935C22.7526 11.6222 22.3463 11.6162 21.9322 11.4151C21.9303 14.553 21.9303 19.4953 21.9303 22.6313ZM8.85412 8.3133H15.1451V12.6763H8.85412V8.3133ZM10.9928 9.49808C11.1744 9.49808 11.3229 9.65096 11.3229 9.83803C11.3229 10.0251 11.1744 10.178 10.9928 10.178C10.8112 10.178 10.6627 10.0251 10.6627 9.83803C10.6627 9.64895 10.8092 9.49808 10.9928 9.49808ZM12.3815 10.9564L13.1237 9.78171L13.8248 11.6082H10.3873V11.3809L10.6627 11.3668L10.9381 10.6728L11.1569 11.1697H11.569L11.9264 10.2202L12.3815 10.9564ZM9.23303 8.76187H14.7701V12.2277H9.23303V8.76187ZM11.901 16.0235C11.9088 16.0255 11.9186 16.0235 11.9264 16.0154C12.3483 15.6755 12.9674 15.8183 13.2506 16.5304H13.2447C12.6862 17.0192 12.2858 17.5502 12.1412 18.1436H11.3326L11.901 16.0235ZM14.7174 17.3812C14.7858 17.9847 14.1842 18.5057 13.6549 18.3407C13.5807 18.4735 13.524 18.6404 13.4791 18.8416C13.3795 19.3103 13.4088 19.1675 13.4518 19.6221C13.5104 20.2275 13.4479 20.6399 13.069 20.8169V21.0502H5.41662V20.8169C5.1217 20.7083 4.99475 20.4106 5.03967 19.9218C5.13732 19.0005 5.07678 18.7129 4.85217 18.3649C4.45764 18.3789 4.17248 18.2824 3.99475 18.0772C3.63147 17.6608 3.74279 17.0513 4.19592 16.7597C4.28967 16.6993 4.39904 16.6531 4.526 16.6249C5.49865 16.4137 6.03576 17.4396 6.29358 18.2482L8.84631 18.3186C9.02014 18.3427 9.13147 18.4232 9.20568 18.5318C9.27404 18.4252 9.37365 18.3447 9.526 18.3085C10.3209 18.2723 10.8893 18.381 11.4694 18.381H12.1451C12.2838 18.381 12.3561 18.3186 12.3795 18.2039C12.5514 17.6649 13.1608 16.5827 13.7994 16.6028C14.192 16.6169 14.6197 16.8944 14.7174 17.3812ZM5.30139 16.466C5.5592 15.8746 5.96154 15.7278 6.51037 15.9249L7.09826 18.0068H6.4635C6.16858 17.3873 5.97326 16.7577 5.30139 16.466ZM6.75842 15.941C6.76623 15.937 6.77209 15.9309 6.776 15.9209C6.99279 15.4059 7.59045 15.2611 8.07873 15.4824C8.07873 15.4803 8.08068 15.4803 8.08068 15.4803L8.2135 18.1315H7.36779L6.75842 15.941ZM8.34045 15.426C8.49865 14.7482 9.99865 14.8869 10.1373 15.3536C10.1569 15.3516 9.98108 17.8559 9.96936 18.1335H9.7467C9.39514 18.1335 9.08459 18.1335 8.73693 18.1335H8.45568L8.34631 15.426H8.34045ZM10.3326 15.5407C10.3365 15.5407 10.3424 15.5387 10.3483 15.5367C10.8912 15.239 11.6471 15.4562 11.7194 15.8444L11.6822 15.8585L11.0865 18.1315H10.2057L10.3326 15.5407ZM18.1315 16.6712V20.3623H18.8541C18.9655 20.3623 19.0553 20.4971 19.0553 20.6117C19.0553 20.7264 18.9655 20.8612 18.8541 20.8612H16.8522C16.7408 20.8612 16.651 20.7264 16.651 20.6117C16.651 20.4971 16.7408 20.3623 16.8522 20.3623H17.5748V16.6712H18.1315ZM16.8151 13.8752H18.8854L19.4928 16.3433H16.2115L16.8151 13.8752ZM21.028 22.0701V10.9826C21.028 10.9584 21.0299 10.9343 21.0338 10.9122L12.0358 4.73883L2.86389 10.9142C2.8717 10.9444 2.87561 10.9766 2.87561 11.0087V22.0701C8.92639 22.0701 14.9772 22.0701 21.028 22.0701Z" fill="#FA7070"/>
</g>
<defs>
<clipPath id="clip0_3574_22752">
<rect width="24" height="24" fill="white"/>
</clipPath>
</defs>
</svg>
