<svg width="20" height="20" viewBox="0 0 20 20" fill="none" xmlns="http://www.w3.org/2000/svg">
<g clip-path="url(#clip0_2673_36387)">
<path d="M18.1254 20H1.87458C1.37795 19.9983 0.902167 19.805 0.550995 19.4623C0.199823 19.1196 0.001758 18.6552 0 18.1706L0 3.67025C0.001758 3.18558 0.199823 2.72126 0.550995 2.37854C0.902167 2.03583 1.37795 1.84254 1.87458 1.84082H3.60407V4.0918C3.60561 4.39279 3.6764 4.68959 3.8112 4.96031C3.946 5.23103 4.14139 5.46875 4.38292 5.65592C4.81494 5.99724 5.35393 6.18347 5.90977 6.18347C6.46561 6.18347 7.00461 5.99724 7.43662 5.65592C7.67816 5.46875 7.87354 5.23103 8.00835 4.96031C8.14315 4.68959 8.21393 4.39279 8.21548 4.0918V1.84082H11.7078V4.0918C11.7093 4.39279 11.7801 4.68959 11.9149 4.96031C12.0497 5.23103 12.2451 5.46875 12.4867 5.65592C12.9187 5.99724 13.4577 6.18347 14.0135 6.18347C14.5693 6.18347 15.1083 5.99724 15.5404 5.65592C15.7819 5.46875 15.9773 5.23103 16.1121 4.96031C16.2469 4.68959 16.3177 4.39279 16.3192 4.0918V1.84082H18.1254C18.6218 1.84339 19.0971 2.03695 19.448 2.37948C19.799 2.72201 19.9974 3.18584 20 3.67025V18.1706C19.9987 18.6554 19.8008 19.1199 19.4495 19.4627C19.0982 19.8056 18.6222 19.9987 18.1254 20ZM13.9393 9.23991H16.6244C16.7137 9.24028 16.7994 9.27439 16.8634 9.33509C16.9275 9.39579 16.965 9.47834 16.968 9.56543V11.7464C16.965 11.8335 16.9275 11.9161 16.8634 11.9768C16.7994 12.0375 16.7137 12.0716 16.6244 12.0719H13.9393C13.8516 12.0695 13.7682 12.0344 13.7062 11.9739C13.6442 11.9134 13.6083 11.832 13.6057 11.7464V9.57357C13.6079 9.48788 13.6437 9.40628 13.7058 9.34568C13.7679 9.28507 13.8515 9.25011 13.9393 9.24805V9.23991ZM8.68412 9.23991H11.3709C11.4586 9.24237 11.542 9.27745 11.604 9.33797C11.666 9.3985 11.702 9.47987 11.7045 9.56543V11.7464C11.7016 11.8318 11.6655 11.913 11.6035 11.9734C11.5416 12.0339 11.4585 12.0691 11.3709 12.0719H8.68412C8.59645 12.0695 8.51307 12.0344 8.45105 11.9739C8.38904 11.9134 8.35309 11.832 8.35057 11.7464V9.57357C8.35309 9.48801 8.38904 9.40663 8.45105 9.34611C8.51307 9.28559 8.59645 9.2505 8.68412 9.24805V9.23991ZM3.37392 9.23991H6.06071C6.14838 9.24237 6.23176 9.27745 6.29378 9.33797C6.35579 9.3985 6.39174 9.47987 6.39426 9.56543V11.7464C6.39135 11.8318 6.35527 11.913 6.29334 11.9734C6.2314 12.0339 6.14825 12.0691 6.06071 12.0719H3.37392C3.28479 12.0716 3.19931 12.0374 3.13552 11.9766C3.07173 11.9159 3.03462 11.8334 3.03202 11.7464V9.57357C3.0342 9.48649 3.07118 9.4037 3.13506 9.34288C3.19894 9.28205 3.28467 9.24802 3.37392 9.24805V9.23991ZM13.9393 13.877H16.6244C16.7137 13.8773 16.7994 13.9114 16.8634 13.9721C16.9275 14.0328 16.965 14.1154 16.968 14.2025V16.3835C16.9675 16.4721 16.9311 16.557 16.8668 16.6195C16.8024 16.682 16.7152 16.7171 16.6244 16.7171H13.9393C13.8502 16.7146 13.7656 16.6784 13.7034 16.6161C13.6411 16.5539 13.6061 16.4704 13.6057 16.3835V14.2106C13.6083 14.1251 13.6442 14.0437 13.7062 13.9832C13.7682 13.9226 13.8516 13.8875 13.9393 13.8851V13.877ZM8.68412 13.877H11.3709C11.4586 13.8794 11.542 13.9145 11.604 13.975C11.666 14.0355 11.702 14.1169 11.7045 14.2025V16.3835C11.7041 16.4704 11.6691 16.5539 11.6068 16.6161C11.5446 16.6784 11.46 16.7146 11.3709 16.7171H8.68412C8.59504 16.7146 8.51045 16.6784 8.44821 16.6161C8.38597 16.5539 8.35096 16.4704 8.35057 16.3835V14.2106C8.35348 14.1252 8.38956 14.044 8.45149 13.9836C8.51342 13.9231 8.59658 13.8879 8.68412 13.8851V13.877ZM3.37392 13.877H6.06071C6.14838 13.8794 6.23176 13.9145 6.29378 13.975C6.35579 14.0355 6.39174 14.1169 6.39426 14.2025V16.3835C6.39387 16.4704 6.35886 16.5539 6.29662 16.6161C6.23438 16.6784 6.14979 16.7146 6.06071 16.7171H3.37392C3.28337 16.7167 3.19667 16.6814 3.13264 16.6189C3.06862 16.5564 3.03246 16.4718 3.03202 16.3835V14.2106C3.03462 14.1237 3.07173 14.0411 3.13552 13.9804C3.19931 13.9196 3.28479 13.8855 3.37392 13.8851V13.877ZM13.1087 0.724284C13.1087 0.325521 13.509 0 14.0093 0C14.5097 0 14.9149 0.325521 14.9149 0.724284V4.0918C14.9149 4.49219 14.5113 4.81608 14.0093 4.81608C13.5073 4.81608 13.1054 4.49056 13.1054 4.0918V0.724284H13.1087ZM5.00334 0.724284C5.00334 0.325521 5.41027 0 5.91061 0C6.41094 0 6.81454 0.325521 6.81454 0.724284V4.0918C6.81454 4.49219 6.41094 4.81608 5.91061 4.81608C5.41027 4.81608 5.00334 4.49219 5.00334 4.0918V0.724284ZM0.6004 7.13867V17.9753C0.601719 18.3565 0.757472 18.7217 1.03367 18.9912C1.30988 19.2608 1.68411 19.4128 2.07472 19.4141H17.9186C18.3095 19.4132 18.6842 19.2614 18.9607 18.9918C19.2373 18.7222 19.3933 18.3567 19.3946 17.9753V7.13867H0.6004Z" fill="black" fill-opacity="0.5"/>
</g>
<defs>
<clipPath id="clip0_2673_36387">
<rect width="20" height="20" fill="white"/>
</clipPath>
</defs>
</svg>
