<svg width="24" height="24" viewBox="0 0 24 24" fill="none" xmlns="http://www.w3.org/2000/svg">
<path d="M12 2.5C17.2463 2.5 21.5 6.75368 21.5 12C21.5 17.2463 17.2463 21.5 12 21.5C6.75368 21.5 2.5 17.2463 2.5 12C2.5 6.75368 6.75368 2.5 12 2.5Z" stroke="black" stroke-opacity="0.5"/>
<path d="M7.87251 8.53797L7.87246 8.53803C7.46819 9.01838 7.14654 9.56817 6.92939 10.1631C6.71752 10.745 6.60156 11.3675 6.60156 12.01C6.60156 13.5015 7.20439 14.8504 8.182 15.828C9.15987 16.8059 10.5088 17.4101 12 17.4101C13.491 17.4101 14.8384 16.806 15.8164 15.828C16.7942 14.8501 17.3984 13.5012 17.3984 12.01C17.3984 11.3575 17.2781 10.7247 17.0571 10.1303C16.8305 9.52223 16.4998 8.96679 16.0846 8.48601C15.8878 8.25909 15.5446 8.23442 15.3172 8.43134C15.0899 8.62804 15.0651 8.97137 15.2621 9.19897C15.2621 9.19899 15.2621 9.19902 15.2621 9.19904L14.8841 9.52629C15.1787 9.86646 15.4115 10.2587 15.571 10.6851L7.87251 8.53797ZM7.87251 8.53797C8.066 8.30799 8.40817 8.27858 8.63774 8.47172C8.86772 8.66521 8.89713 9.00738 8.70399 9.23695L8.7037 9.23729C8.38546 9.61624 8.12941 10.0527 7.95437 10.5335L7.87251 8.53797Z" stroke="black" stroke-opacity="0.5"/>
<path fill-rule="evenodd" clip-rule="evenodd" d="M13.0495 9.99479C13.0495 10.5726 12.5807 11.043 12.0013 11.043C11.4235 11.043 10.9531 10.5742 10.9531 9.99479V6.87142C10.9531 6.29362 11.4219 5.82324 12.0013 5.82324C12.5791 5.82324 13.0495 6.29199 13.0495 6.87142V9.99479Z" fill="white"/>
<path d="M12.5495 9.99479C12.5495 10.297 12.3041 10.543 12.0013 10.543C11.6991 10.543 11.4531 10.2976 11.4531 9.99479V6.87142C11.4531 6.56926 11.6985 6.32324 12.0013 6.32324C12.3035 6.32324 12.5495 6.56864 12.5495 6.87142V9.99479Z" stroke="black" stroke-opacity="0.5"/>
</svg>
