<svg width="24" height="32" viewBox="0 0 24 32" fill="none" xmlns="http://www.w3.org/2000/svg">
<g clip-path="url(#clip0_2628_22722)">
<path d="M17.0743 17.8804H10.3603C9.87951 17.8623 9.42439 17.6561 9.09059 17.3053C8.75678 16.9544 8.57027 16.4861 8.57027 15.9989C8.57027 15.5117 8.75678 15.0434 9.09059 14.6925C9.42439 14.3417 9.87951 14.1355 10.3603 14.1174H17.0743L14.8937 11.6538C14.5683 11.2837 14.3996 10.7987 14.4242 10.3037C14.4487 9.80872 14.6645 9.34333 15.0249 9.00802C15.2021 8.84294 15.41 8.71523 15.6365 8.63231C15.8629 8.5494 16.1034 8.51294 16.3439 8.52505C16.5844 8.53717 16.8202 8.59763 17.0374 8.7029C17.2546 8.80817 17.4489 8.95615 17.6091 9.13822L22.5514 14.7242C22.862 15.0698 23.0354 15.5195 23.0383 15.9868C23.0411 16.4541 22.8732 16.906 22.5669 17.2554L17.6091 22.857C17.4493 23.0395 17.2552 23.188 17.038 23.2937C16.8209 23.3994 16.5851 23.4602 16.3445 23.4726C16.1039 23.485 15.8633 23.4486 15.6367 23.3657C15.4101 23.2828 15.2021 23.155 15.0249 22.9898C14.6645 22.6545 14.4487 22.1891 14.4242 21.6941C14.3996 21.1991 14.5683 20.7141 14.8937 20.344L17.0743 17.8804ZM11.0417 28.2736C11.281 28.322 11.5085 28.4177 11.7112 28.5551C11.914 28.6925 12.088 28.8691 12.2234 29.0746C12.3588 29.2802 12.4529 29.5107 12.5003 29.7531C12.5477 29.9954 12.5475 30.2449 12.4997 30.4872C12.4519 30.7295 12.3575 30.9599 12.2218 31.1652C12.0861 31.3705 11.9118 31.5468 11.7088 31.6839C11.5059 31.821 11.2782 31.9163 11.0389 31.9643C10.7996 32.0123 10.5533 32.0121 10.314 31.9637L9.44743 31.7867C3.30171 30.5523 0 29.8518 0 20.8856V10.5809C0 1.99239 3.54343 1.32052 9.41143 0.211141L10.3294 0.0340576C10.8126 -0.0595279 11.3127 0.0451085 11.7197 0.324948C12.1267 0.604787 12.4073 1.03691 12.4997 1.52625C12.5921 2.01558 12.4888 2.52206 12.2125 2.93425C11.9362 3.34644 11.5095 3.63058 11.0263 3.72416L10.0929 3.90645C6.11743 4.65906 3.71571 5.11218 3.71571 10.5861V20.8856C3.71571 26.7736 5.97086 27.2554 10.17 28.0992L11.0417 28.2736Z" fill="#FA7070"/>
</g>
<defs>
<clipPath id="clip0_2628_22722">
<rect width="23.04" height="32" fill="white"/>
</clipPath>
</defs>
</svg>
