<svg width="64" height="64" viewBox="0 0 64 64" fill="none" xmlns="http://www.w3.org/2000/svg">
<path d="M32.6711 64C41.1211 64 47.9711 60.9107 47.9711 57.0999C47.9711 53.2892 41.1211 50.2 32.6711 50.2C24.2211 50.2 17.3711 53.2892 17.3711 57.0999C17.3711 60.9107 24.2211 64 32.6711 64Z" fill="#F74354" fill-opacity="0.5"/>
<path fill-rule="evenodd" clip-rule="evenodd" d="M13.7148 18.7C13.7148 8.4 22.1148 0 32.4148 0C42.7148 0 51.1148 8.4 51.1148 18.7C51.1148 29.5 38.9148 48 34.2148 54.6C33.4148 55.8 31.6148 55.8 30.7148 54.6C26.0148 48 13.7148 29.5 13.7148 18.7Z" fill="#F74354"/>
<path d="M32.0984 21.275C32.0818 21.275 32.0568 21.275 32.0401 21.275C32.0151 21.275 31.9818 21.275 31.9568 21.275C30.0651 21.2167 28.6484 19.7417 28.6484 17.925C28.6484 16.075 30.1568 14.5667 32.0068 14.5667C33.8568 14.5667 35.3651 16.075 35.3651 17.925C35.3568 19.75 33.9318 21.2167 32.1234 21.275C32.1068 21.275 32.1068 21.275 32.0984 21.275ZM31.9984 15.8083C30.8318 15.8083 29.8901 16.7583 29.8901 17.9167C29.8901 19.0583 30.7818 19.9833 31.9151 20.025C31.9401 20.0167 32.0234 20.0167 32.1068 20.025C33.2234 19.9667 34.0984 19.05 34.1068 17.9167C34.1068 16.7583 33.1651 15.8083 31.9984 15.8083Z" fill="white"/>
<path d="M31.9981 28.9583C29.7564 28.9583 27.6147 28.125 25.9564 26.6083C25.8064 26.475 25.7397 26.275 25.7564 26.0833C25.8647 25.0917 26.4814 24.1667 27.5064 23.4833C29.9897 21.8333 34.0147 21.8333 36.4897 23.4833C37.5147 24.175 38.1314 25.0917 38.2397 26.0833C38.2647 26.2833 38.1897 26.475 38.0397 26.6083C36.3814 28.125 34.2397 28.9583 31.9981 28.9583ZM27.0647 25.9167C28.4481 27.075 30.1897 27.7083 31.9981 27.7083C33.8064 27.7083 35.5481 27.075 36.9314 25.9167C36.7814 25.4083 36.3814 24.9167 35.7897 24.5167C33.7397 23.15 30.2647 23.15 28.1981 24.5167C27.6064 24.9167 27.2147 25.4083 27.0647 25.9167Z" fill="white"/>
<path d="M32.0013 28.9584C27.0596 28.9584 23.043 24.9417 23.043 20.0001C23.043 15.0584 27.0596 11.0417 32.0013 11.0417C36.943 11.0417 40.9596 15.0584 40.9596 20.0001C40.9596 24.9417 36.943 28.9584 32.0013 28.9584ZM32.0013 12.2917C27.7513 12.2917 24.293 15.7501 24.293 20.0001C24.293 24.2501 27.7513 27.7084 32.0013 27.7084C36.2513 27.7084 39.7096 24.2501 39.7096 20.0001C39.7096 15.7501 36.2513 12.2917 32.0013 12.2917Z" fill="white"/>
</svg>
