<svg width="24" height="24" viewBox="0 0 24 24" fill="none" xmlns="http://www.w3.org/2000/svg">
<g clip-path="url(#clip0_2628_22750)">
<path fill-rule="evenodd" clip-rule="evenodd" d="M4.92188 0H19.0781C20.3824 0.00360791 21.6322 0.52332 22.5544 1.44557C23.4767 2.36782 23.9964 3.61762 24 4.92188V19.0781C23.9964 20.3824 23.4767 21.6322 22.5544 22.5544C21.6322 23.4767 20.3824 23.9964 19.0781 24H4.92188C3.61762 23.9964 2.36782 23.4767 1.44557 22.5544C0.52332 21.6322 0.00360791 20.3824 0 19.0781L0 4.92188C0.00360791 3.61762 0.52332 2.36782 1.44557 1.44557C2.36782 0.52332 3.61762 0.00360791 4.92188 0Z" fill="#FFFC00"/>
<path d="M15.9235 9.65626C15.9208 9.9957 15.8934 10.3345 15.8414 10.6699L15.9391 10.6328C16.1995 10.5088 16.487 10.4523 16.775 10.4688C16.8784 10.4758 16.9797 10.5016 17.0739 10.5449C17.222 10.609 17.3482 10.7149 17.4371 10.8496C17.5323 10.9939 17.5769 11.1656 17.5641 11.3379C17.5575 11.4386 17.5323 11.5373 17.4899 11.6289C17.4157 11.7734 17.3036 11.8949 17.1657 11.9805C17.0433 12.0602 16.9123 12.1258 16.775 12.1758H16.7555C16.6227 12.2227 16.484 12.2617 16.3649 12.2949C16.2457 12.3281 16.1696 12.3496 16.111 12.3731H16.0953C15.9684 12.4258 15.9332 12.4922 15.941 12.5586C15.9868 12.749 16.069 12.9288 16.1832 13.0879C16.4385 13.5366 16.7757 13.9335 17.1774 14.2578C17.5828 14.5578 18.0498 14.7639 18.5446 14.8613C18.6285 14.8798 18.7045 14.9243 18.7616 14.9885C18.8188 15.0527 18.8542 15.1333 18.8629 15.2188C18.9059 15.6953 18.6071 16 18.1188 16.1953C17.7783 16.3212 17.4264 16.4134 17.068 16.4707C16.8258 17.4473 16.7633 17.4336 16.0426 17.293C15.9625 17.2774 15.8649 17.2578 15.7438 17.2422C14.8571 17.1309 14.3493 17.4883 13.8297 17.8555L13.8043 17.8731C13.3044 18.2536 12.6979 18.4681 12.07 18.4863C11.4655 18.4741 10.8754 18.3001 10.361 17.9824L10.3532 17.9688C10.2067 17.8848 10.0602 17.7832 9.91956 17.6875C9.77248 17.5818 9.61776 17.4871 9.45667 17.4043H9.43714C9.34106 17.3679 9.24162 17.3411 9.14027 17.3242L9.03675 17.3047C8.74506 17.2571 8.44675 17.2691 8.1598 17.3399C8.04391 17.3648 7.92645 17.3818 7.80824 17.3906C7.32386 17.418 7.04261 17.2637 6.94495 16.5078C6.7848 16.4766 6.6305 16.4434 6.48597 16.4043C6.25726 16.3452 6.03633 16.2593 5.82777 16.1484C5.17933 15.793 5.02894 15.5117 5.20472 15.1914C5.32581 14.9688 5.55628 14.9043 5.86488 14.8164L5.90199 14.8047C6.35487 14.6643 6.77244 14.4286 7.12659 14.1133C7.47418 13.8211 7.75182 13.4547 7.93909 13.041C7.97034 12.9629 7.99964 12.8848 8.02503 12.8047C8.04366 12.744 8.05737 12.682 8.06605 12.6191C8.0651 12.6133 8.0651 12.6074 8.06605 12.6016C8.08167 12.4707 7.83753 12.3809 7.60316 12.2949L7.57972 12.2852H7.55824C7.29958 12.188 7.05672 12.053 6.83753 11.8848C6.46253 11.5899 6.27308 11.207 6.70472 10.75C6.77646 10.6768 6.86039 10.6167 6.95277 10.5723C7.0401 10.5301 7.13273 10.4998 7.22816 10.4824C7.27781 10.4727 7.32889 10.4727 7.37855 10.4824L7.73988 10.5606L8.17347 10.6563C8.12573 10.3015 8.10289 9.94388 8.10511 9.58595C8.10511 8.32032 8.4762 7.38282 9.05042 6.72462C9.62878 6.08251 10.4194 5.67058 11.277 5.56446C11.5163 5.53018 11.7579 5.51386 11.9996 5.51563C12.3202 5.51703 12.64 5.54842 12.9547 5.60938C13.4067 5.68696 13.8386 5.85388 14.2253 6.10036C14.6119 6.34685 14.9456 6.66797 15.2067 7.04493C15.7035 7.82209 15.9509 8.73257 15.9157 9.65431L15.9235 9.65626ZM15.3844 10.9375C15.9293 8.21681 14.8688 5.93946 12.0055 5.91993C9.96253 5.90431 8.08753 7.24415 8.59535 10.7422C8.66175 11.1816 8.44886 11.1328 8.12269 11.0527C7.8473 10.9961 7.57191 10.9336 7.30042 10.875C7.18497 10.8891 7.07728 10.9405 6.99378 11.0215C6.60316 11.4414 7.38441 11.7637 7.69105 11.875C8.08167 12.0234 8.51331 12.1621 8.46058 12.625C8.43402 12.8124 8.38143 12.9951 8.30433 13.168C7.93128 14.0723 6.93714 14.9102 5.99964 15.1777C5.51136 15.3164 5.26331 15.3731 5.99964 15.7793C6.40862 15.976 6.84885 16.0996 7.30042 16.1445C7.37659 17.5879 7.91956 16.6602 9.09925 16.8965C9.26281 16.9207 9.42325 16.9627 9.57777 17.0215C9.8805 17.1524 10.1871 17.4121 10.5348 17.6074C11.5914 18.2168 12.5407 18.2559 13.57 17.5313C14.1559 17.1113 14.7418 16.6973 15.7887 16.8281C16.5289 16.9219 16.484 17.1504 16.736 16.1074C17.6657 15.9434 18.5055 15.7617 18.4586 15.25C17.2399 14.9902 16.4645 14.3535 15.82 13.3125C15.5641 12.9024 15.234 12.3008 15.9176 12.0137C16.0914 11.9395 16.3317 11.8965 16.6032 11.8008C16.8057 11.7442 16.9841 11.6228 17.111 11.4551C17.1386 11.3921 17.1503 11.3232 17.145 11.2546C17.1396 11.1859 17.1174 11.1197 17.0803 11.0617C17.0432 11.0038 16.9924 10.9559 16.9323 10.9223C16.8722 10.8887 16.8048 10.8704 16.736 10.8691C16.1891 10.8301 15.9313 11.1875 15.5993 11.0781C15.5125 11.0464 15.4329 10.998 15.3649 10.9356L15.3844 10.9375Z" fill="black"/>
<path d="M15.3838 10.9375C15.9287 8.21681 14.8681 5.93947 12.0049 5.91993C9.96189 5.90431 8.08689 7.24415 8.59471 10.7422C8.66111 11.1817 8.44822 11.1328 8.12205 11.0527C7.84666 10.9961 7.57127 10.9336 7.29978 10.875C7.18433 10.8891 7.07664 10.9405 6.99314 11.0215C6.60252 11.4414 7.38377 11.7637 7.69041 11.875C8.08103 12.0235 8.51268 12.1621 8.45994 12.625C8.43338 12.8124 8.38079 12.9951 8.30369 13.168C7.93064 14.0723 6.9365 14.9102 5.999 15.1777C5.51072 15.3164 5.26267 15.3731 5.999 15.7793C6.40788 15.9763 6.84816 16.0999 7.29978 16.1445C7.37596 17.5879 7.91893 16.6602 9.09861 16.8965C9.26217 16.9207 9.42261 16.9627 9.57713 17.0215C9.87986 17.1524 10.1865 17.4121 10.5342 17.6074C11.5908 18.2168 12.54 18.2559 13.5693 17.5313C14.1553 17.1113 14.7412 16.6973 15.7881 16.8281C16.5283 16.9219 16.4834 17.1504 16.7353 16.1074C17.665 15.9434 18.5049 15.7617 18.458 15.25C17.2392 14.9902 16.4638 14.3535 15.8193 13.3125C15.5635 12.9024 15.2334 12.3008 15.917 12.0137C16.0908 11.9395 16.331 11.8965 16.6025 11.8008C16.8051 11.7442 16.9834 11.6228 17.1103 11.4551C17.138 11.3921 17.1497 11.3232 17.1443 11.2546C17.139 11.186 17.1168 11.1197 17.0797 11.0617C17.0426 11.0038 16.9917 10.9559 16.9317 10.9223C16.8716 10.8887 16.8041 10.8704 16.7353 10.8692C16.1885 10.8301 15.9306 11.1875 15.5986 11.0781C15.5119 11.0464 15.4323 10.998 15.3642 10.9356L15.3838 10.9375Z" fill="white"/>
</g>
<rect x="0.5" y="0.5" width="23" height="23" stroke="#EDEDED"/>
<defs>
<clipPath id="clip0_2628_22750">
<rect width="24" height="24" fill="white"/>
</clipPath>
</defs>
</svg>
