<svg width="20" height="20" viewBox="0 0 20 20" fill="none" xmlns="http://www.w3.org/2000/svg">
<path d="M13.2644 0.766664C13.2644 0.340197 13.6844 0 14.2036 0C14.7245 0 15.1428 0.346708 15.1428 0.766664V4.13445C15.1428 4.56092 14.7229 4.90111 14.2036 4.90111C13.6828 4.90111 13.2644 4.55441 13.2644 4.13445V0.766664ZM7.70733 10.5103V11.7685H6.68837V16.808H4.9532V11.7685H3.9261V10.5103H7.70733ZM10.7528 10.5103L11.7441 16.808H9.97314L9.87873 15.6767H9.25368L9.15927 16.808H7.36876L8.24774 10.5103H10.7528ZM9.83316 14.5634C9.75014 13.8488 9.66387 12.9649 9.57109 11.9101C9.40018 13.1212 9.29112 14.0034 9.24554 14.5634H9.83316ZM15.7565 10.5103L15.151 13.2954L16.069 16.808H14.469C14.2785 16.1797 14.1011 15.413 13.9383 14.508C13.8895 14.9117 13.826 15.3349 13.7479 15.7809L13.5932 16.808H11.9085L12.5401 13.2954L11.9085 10.5103H13.5835C13.6193 10.6845 13.6779 10.9742 13.7625 11.3811C13.8309 11.6888 13.8895 11.9736 13.9383 12.2341L14.3094 10.5103H15.7565ZM4.80671 0.766664C4.80671 0.340197 5.22666 0 5.74591 0C6.26679 0 6.68511 0.346708 6.68511 0.766664V4.13445C6.68511 4.56092 6.26516 4.90111 5.74591 4.90111C5.22503 4.90111 4.80671 4.55441 4.80671 4.13445V0.766664ZM1.03361 7.37365H18.9469V3.49149C18.9469 3.36128 18.8964 3.2392 18.8101 3.15944C18.7239 3.07317 18.6083 3.02271 18.4781 3.02271H16.7641C16.4743 3.02271 16.2432 2.79157 16.2432 2.50183C16.2432 2.21209 16.4743 1.98096 16.7641 1.98096H18.4781C18.898 1.98096 19.2724 2.15512 19.5475 2.42858C19.8226 2.70367 19.9951 3.08619 19.9951 3.49801V18.4829C19.9951 18.9029 19.8209 19.2773 19.5475 19.5524C19.2724 19.8275 18.8899 20 18.4781 20H1.51868C1.09872 20 0.724343 19.8258 0.449255 19.5524C0.174168 19.2789 0 18.8964 0 18.4829V3.49801C0 3.07805 0.174168 2.70367 0.447628 2.42858C0.722715 2.1535 1.10523 1.98096 1.51705 1.98096H3.35314C3.64287 1.98096 3.87401 2.21209 3.87401 2.50183C3.87401 2.79157 3.64287 3.02271 3.35314 3.02271H1.51868C1.38846 3.02271 1.26638 3.07317 1.17848 3.15944C1.09221 3.24571 1.04175 3.36128 1.04175 3.49963V7.38178L1.03361 7.37365ZM18.9469 8.41377H1.03361V18.4764C1.03361 18.6067 1.08407 18.7287 1.17034 18.8166C1.25661 18.9029 1.37218 18.9534 1.51054 18.9534H18.4683C18.5985 18.9534 18.7206 18.9029 18.8085 18.8166C18.8948 18.7304 18.9452 18.6148 18.9452 18.4764V8.41377H18.9469ZM8.19728 3.01457C7.90754 3.01457 7.67641 2.78343 7.67641 2.49369C7.67641 2.20396 7.90754 1.97282 8.19728 1.97282H11.6953C11.985 1.97282 12.2162 2.20396 12.2162 2.49369C12.2162 2.78343 11.985 3.01457 11.6953 3.01457H8.19728Z" fill="black" fill-opacity="0.35"/>
</svg>
