<svg width="20" height="20" viewBox="0 0 20 20" fill="none" xmlns="http://www.w3.org/2000/svg">
<g clip-path="url(#clip0_2673_36430)">
<path fill-rule="evenodd" clip-rule="evenodd" d="M10 0C11.9778 0 13.9112 0.58649 15.5557 1.6853C17.2002 2.78412 18.4819 4.3459 19.2388 6.17317C19.9957 8.00043 20.1937 10.0111 19.8079 11.9509C19.422 13.8907 18.4696 15.6725 17.0711 17.0711C15.6725 18.4696 13.8907 19.422 11.9509 19.8079C10.0111 20.1937 8.00043 19.9957 6.17317 19.2388C4.3459 18.4819 2.78412 17.2002 1.6853 15.5557C0.58649 13.9112 0 11.9778 0 10C0 7.34783 1.05357 4.8043 2.92893 2.92893C4.8043 1.05357 7.34783 0 10 0ZM8.61328 4.96745H9.83561C9.9434 4.96788 10.0466 5.01088 10.1229 5.0871C10.1991 5.16332 10.2421 5.26656 10.2425 5.37435V10.0911H14.541C14.6488 10.0916 14.752 10.1346 14.8283 10.2108C14.9045 10.287 14.9475 10.3903 14.9479 10.498V11.7187C14.9475 11.8265 14.9045 11.9298 14.8283 12.006C14.752 12.0822 14.6488 12.1252 14.541 12.1257H8.20475V5.37109C8.20518 5.26303 8.24841 5.15953 8.32498 5.08327C8.40155 5.00701 8.50521 4.96419 8.61328 4.96419V4.96745Z" fill="black" fill-opacity="0.35"/>
</g>
<defs>
<clipPath id="clip0_2673_36430">
<rect width="20" height="20" fill="white"/>
</clipPath>
</defs>
</svg>
