<svg width="17" height="16" viewBox="0 0 17 16" fill="none" xmlns="http://www.w3.org/2000/svg">
<path d="M10.6592 15.1668H6.33923C5.07923 15.1668 4.15923 14.6402 3.8059 13.7335C3.43923 12.7868 3.77923 11.6135 4.65923 10.8202L7.75256 8.00016L4.65923 5.18016C3.77923 4.38683 3.43923 3.2135 3.8059 2.26683C4.15923 1.3535 5.07923 0.833496 6.33923 0.833496H10.6592C11.9192 0.833496 12.8392 1.36016 13.1926 2.26683C13.5592 3.2135 13.2192 4.38683 12.3392 5.18016L9.2459 8.00016L12.3459 10.8202C13.2192 11.6135 13.5659 12.7868 13.1992 13.7335C12.8392 14.6402 11.9192 15.1668 10.6592 15.1668ZM8.49923 8.6735L5.33256 11.5535C4.77256 12.0668 4.5259 12.8135 4.73923 13.3668C4.93923 13.8802 5.5059 14.1668 6.33923 14.1668H10.6592C11.4926 14.1668 12.0592 13.8868 12.2592 13.3668C12.4726 12.8135 12.2326 12.0668 11.6659 11.5535L8.49923 8.6735ZM6.33923 1.8335C5.5059 1.8335 4.93923 2.1135 4.73923 2.6335C4.5259 3.18683 4.7659 3.9335 5.33256 4.44683L8.49923 7.32683L11.6659 4.44683C12.2259 3.9335 12.4726 3.18683 12.2592 2.6335C12.0592 2.12016 11.4926 1.8335 10.6592 1.8335H6.33923Z" fill="black" fill-opacity="0.5"/>
</svg>
