<svg width="24" height="25" viewBox="0 0 24 25" fill="none" xmlns="http://www.w3.org/2000/svg">
<path d="M4.80437 3.6831L6.66322 5.54235L7.82147 4.3841L9.01153 5.57416L7.85328 6.73201L8.50616 7.38489C9.49662 6.56978 10.7658 6.07992 12.1491 6.07992C13.4561 6.07992 14.6612 6.5173 15.6258 7.25288L19.1956 3.6831H17.2823V2H22V6.83817H20.3169V4.94155L16.8008 8.45805C17.4843 9.40239 17.8875 10.5634 17.8875 11.8183C17.8875 13.4028 17.2449 14.8378 16.2068 15.8759C15.332 16.7507 14.1753 17.3447 12.8851 17.5097V18.9141H15.3829V20.5972H12.8851V22.3384H11.202V20.5972H8.70417V18.9141H11.202V17.4787C9.99682 17.2783 8.91849 16.7026 8.09185 15.8759C7.05328 14.8378 6.41113 13.4028 6.41113 11.8183C6.41113 10.6402 6.7662 9.54513 7.37535 8.6338L6.66322 7.92207L5.46799 9.11769L4.27793 7.92763L5.47356 6.73201L3.6831 4.94155V6.83817H2V2H6.71769V3.6831H4.80437ZM15.0167 8.9507C14.2831 8.2171 13.2688 7.76302 12.1491 7.76302C11.0294 7.76302 10.0155 8.2171 9.28191 8.9507C8.54791 9.68469 8.09384 10.6986 8.09384 11.8183C8.09384 12.9384 8.54791 13.9523 9.28191 14.6859C10.0155 15.4195 11.0294 15.8736 12.1491 15.8736C13.2688 15.8736 14.2831 15.4195 15.0167 14.6859C15.7507 13.9523 16.2044 12.9384 16.2044 11.8183C16.2044 10.6986 15.7507 9.68469 15.0167 8.9507Z" fill="black" fill-opacity="0.35"/>
</svg>
