<svg width="24" height="24" viewBox="0 0 24 24" fill="none" xmlns="http://www.w3.org/2000/svg">
<path fill-rule="evenodd" clip-rule="evenodd" d="M23.9996 4.55728C23.1173 4.95184 22.1667 5.21406 21.1742 5.33092C22.1911 4.72194 22.9687 3.75693 23.34 2.60795C22.3896 3.17005 21.3333 3.58233 20.214 3.80286C19.3141 2.84663 18.0359 2.2522 16.6198 2.2522C13.901 2.2522 11.6997 4.45475 11.6997 7.17196C11.6997 7.55543 11.7422 7.93063 11.8255 8.29243C7.73446 8.08507 4.10753 6.12659 1.67962 3.1468C1.24409 3.89812 1.01362 4.7524 1.01362 5.62122V5.6218C1.01362 7.32791 1.87985 8.83689 3.20163 9.71688C2.39508 9.6929 1.63642 9.46797 0.970273 9.10351V9.165C0.970273 11.5509 2.66616 13.5418 4.91962 13.9918C4.50677 14.1039 4.07096 14.1658 3.62196 14.1658C3.30394 14.1658 2.99751 14.1331 2.6928 14.0777C3.32223 16.0317 5.139 17.4562 7.29051 17.4977C5.60355 18.8193 3.48473 19.6063 1.1749 19.6063C0.776233 19.6063 0.387864 19.5819 0 19.5355C2.18347 20.9364 4.77008 21.7478 7.54878 21.7478C16.6017 21.7478 21.5565 14.2455 21.5565 7.74069C21.5565 7.52455 21.5516 7.3151 21.5427 7.10335C22.5042 6.41553 23.3378 5.5475 23.9977 4.55937L23.9999 4.55714L23.9995 4.55742L23.9996 4.55728Z" fill="#1DA1F2"/>
</svg>
