<svg width="24" height="25" viewBox="0 0 24 25" fill="none" xmlns="http://www.w3.org/2000/svg">
<path d="M20.5902 22.5C20.5902 18.63 16.7402 15.5 12.0002 15.5C7.26016 15.5 3.41016 18.63 3.41016 22.5M12.0002 12.5C13.3262 12.5 14.598 11.9732 15.5357 11.0355C16.4734 10.0979 17.0002 8.82608 17.0002 7.5C17.0002 6.17392 16.4734 4.90215 15.5357 3.96447C14.598 3.02678 13.3262 2.5 12.0002 2.5C10.6741 2.5 9.4023 3.02678 8.46462 3.96447C7.52694 4.90215 7.00016 6.17392 7.00016 7.5C7.00016 8.82608 7.52694 10.0979 8.46462 11.0355C9.4023 11.9732 10.6741 12.5 12.0002 12.5V12.5Z" stroke="black" stroke-opacity="0.35" stroke-width="1.5" stroke-linecap="round" stroke-linejoin="round"/>
</svg>
