<svg width="18" height="24" viewBox="0 0 18 24" fill="none" xmlns="http://www.w3.org/2000/svg">
<path fill-rule="evenodd" clip-rule="evenodd" d="M15.0858 14.9784L17.5627 20.7699L14.4574 20.7337L11.9054 22.8043L9.66689 17.3488C10.314 17.1915 10.9546 16.8644 11.6013 16.3571L11.6792 16.2999L11.6778 16.298L11.72 16.2652L11.7182 16.2623C11.8003 16.1966 11.8848 16.1295 11.9598 16.0723C12.1161 16.0821 12.2851 16.0882 12.4958 16.0784C12.7863 16.0652 13.0979 16.0193 13.4423 15.9085C13.7455 15.8109 14.0266 15.6912 14.2847 15.5486C14.5512 15.4019 14.8016 15.2278 15.0318 15.029L15.0299 15.0267L15.0858 14.9784ZM8.73722 0.000949331C9.04743 -0.0074979 9.32478 0.040839 9.58242 0.129535C9.81988 0.211192 10.0376 0.328045 10.2521 0.464139C10.4698 0.599295 10.6749 0.773402 10.8941 0.961118C11.1039 1.14039 11.3352 1.33749 11.5675 1.4703L11.5825 1.47922C11.6783 1.51582 11.9228 1.52568 12.1785 1.53459C13.0697 1.56744 14.0313 1.60311 14.7531 2.6745L14.7925 2.73785C15.3092 3.53189 15.3477 4.12648 15.3847 4.70841L15.3866 4.74923C15.3983 4.9285 15.419 5.09698 15.4753 5.26358C15.5372 5.43956 15.6461 5.64229 15.8385 5.89712C16.3599 6.58604 16.6818 7.19001 16.8142 7.77616C16.9709 8.47165 16.8682 9.09111 16.5185 9.71433C16.2693 10.1573 15.9366 10.4427 15.6433 10.6937C15.5372 10.7843 15.4847 10.7665 15.4636 10.8162L15.442 10.8636C15.3918 11.0124 15.3885 11.1954 15.3861 11.3817C15.3791 11.8604 15.3706 12.3564 15.0346 13.0195C14.8239 13.4344 14.5485 13.785 14.212 14.0712C13.8816 14.3556 13.4954 14.5673 13.057 14.7085C12.6079 14.8531 12.248 14.8277 11.9078 14.8033C11.7778 14.7944 11.6853 14.7719 11.6698 14.7784C11.4258 14.884 11.1667 15.0924 10.9232 15.2872L10.8669 15.3294C9.34683 16.543 8.00091 16.4491 6.55127 15.2872C6.30818 15.0924 6.04866 14.8845 5.80416 14.7822C5.77975 14.7714 5.60471 14.8005 5.5667 14.8033C5.22599 14.8277 4.86604 14.8531 4.4174 14.7085C3.97862 14.5673 3.59286 14.3556 3.26248 14.075C2.92787 13.7906 2.65287 13.4386 2.43981 13.0195C2.10286 12.356 2.09535 11.8599 2.08831 11.3813C2.0855 11.1743 2.08174 10.972 2.01463 10.8162C1.99117 10.7613 1.94096 10.7876 1.83114 10.6937C1.5383 10.4431 1.20464 10.1583 0.955445 9.71433C0.605823 9.09111 0.503518 8.47165 0.660261 7.77616C0.792132 7.18955 1.11407 6.58604 1.63545 5.89712C1.82786 5.64229 1.9372 5.43956 1.99774 5.26311L2.00947 5.23026C2.05781 5.07492 2.07658 4.91677 2.08691 4.74923L2.09113 4.68541C2.12914 4.09504 2.17419 3.49106 2.72092 2.67825C3.44222 1.60358 4.40426 1.56744 5.29592 1.53459C5.56763 1.52474 5.82668 1.51441 5.90787 1.47218C6.1397 1.33749 6.37059 1.14039 6.5813 0.96018L6.63856 0.914658C6.83613 0.747122 7.02244 0.590379 7.21907 0.466016C7.42837 0.330391 7.64659 0.213538 7.89156 0.129535C8.1492 0.040839 8.42515 -0.0074979 8.73722 0.000949331ZM8.73769 0.825024C9.12814 0.808129 9.436 0.944224 9.74667 1.1418C10.1409 1.39193 10.5848 1.88562 11.1325 2.19911C11.9035 2.6393 13.3311 2.03157 14.0623 3.11798C14.4889 3.75105 14.5086 4.24803 14.5405 4.73844C14.5747 5.2678 14.6677 5.75445 15.2092 6.47106C16.106 7.65696 16.2928 8.44631 15.831 9.26897C15.5157 9.82977 14.8526 10.1414 14.6991 10.4966C14.3725 11.2522 14.7338 11.8219 14.2866 12.7028C13.9764 13.3143 13.4972 13.7169 12.859 13.9225C12.3212 14.0956 11.7815 13.845 11.3507 14.0262C10.5937 14.3439 10.0353 15.0835 9.43318 15.2703C9.20088 15.3421 8.96905 15.3777 8.73769 15.3763C8.50633 15.3777 8.2745 15.3421 8.04221 15.2703C7.43964 15.0835 6.88165 14.3439 6.12468 14.0262C5.69387 13.845 5.15419 14.0956 4.61591 13.9225C3.97815 13.7169 3.499 13.3143 3.1888 12.7028C2.74157 11.8219 3.10292 11.2522 2.77629 10.4966C2.62284 10.1414 1.95926 9.82977 1.64436 9.26897C1.18211 8.44631 1.36936 7.65696 2.2657 6.47106C2.80727 5.75445 2.90019 5.2678 2.93444 4.73844C2.96636 4.24803 2.98654 3.75105 3.41265 3.11798C4.14381 2.03157 5.57186 2.6393 6.34243 2.19911C6.89057 1.88562 7.33404 1.39193 7.72872 1.1418C8.03939 0.944224 8.34724 0.808129 8.73769 0.825024ZM8.8278 6.00083L9.41441 7.37445L10.9025 7.50772C10.9181 7.50902 10.9333 7.5134 10.9473 7.5206C10.9612 7.5278 10.9735 7.53768 10.9836 7.54968C10.9937 7.56168 11.0013 7.57555 11.006 7.5905C11.0107 7.60545 11.0124 7.62118 11.0109 7.63678C11.0083 7.66759 10.9938 7.69618 10.9706 7.71656L9.84522 8.69925L10.1779 10.1564C10.1833 10.1796 10.1816 10.2039 10.173 10.2261C10.1645 10.2483 10.1495 10.2675 10.1299 10.2811C10.1104 10.2947 10.0873 10.3022 10.0634 10.3026C10.0396 10.3029 10.0163 10.2961 9.99633 10.2831L8.71751 9.51864L7.43494 10.2855C7.37816 10.3192 7.30495 10.3009 7.27116 10.2442C7.25528 10.2178 7.25024 10.1864 7.25708 10.1564L7.59028 8.69925L6.46445 7.71656C6.45261 7.70626 6.44293 7.69372 6.43596 7.67967C6.42898 7.66561 6.42485 7.65032 6.42381 7.63466C6.42276 7.61901 6.42482 7.6033 6.42986 7.58844C6.4349 7.57358 6.44283 7.55987 6.45319 7.54808C6.47524 7.52274 6.50575 7.50913 6.53672 7.50726L8.02062 7.37445L8.6077 5.99989C8.63351 5.93889 8.70344 5.91073 8.76444 5.93654C8.79448 5.94921 8.81606 5.97314 8.8278 6.00083ZM8.71751 3.51453C11.3005 3.51453 13.3949 5.60897 13.3949 8.19195C13.3949 10.7754 11.3005 12.8694 8.71751 12.8694C6.13407 12.8694 4.04009 10.7754 4.04009 8.19195C4.04009 5.60897 6.13407 3.51453 8.71751 3.51453ZM8.71751 4.30435C10.8645 4.30435 12.6051 6.04494 12.6051 8.19195C12.6051 10.3394 10.8645 12.0796 8.71751 12.0796C6.57004 12.0796 4.82991 10.3394 4.82991 8.19195C4.82991 6.04494 6.57004 4.30435 8.71751 4.30435ZM8.70203 17.459L6.09089 24L3.53889 21.93L0.433594 21.9656L3.14234 15.5227L3.19162 15.5504C3.44973 15.6917 3.73083 15.8118 4.03212 15.9085C4.37611 16.0193 4.68771 16.0652 4.97821 16.0784C5.18657 16.0882 5.35458 16.0821 5.50991 16.0728C5.58641 16.1305 5.67463 16.2009 5.75911 16.2689L5.76098 16.2703C6.70332 17.0249 7.64941 17.4342 8.65322 17.4586L8.70203 17.459Z" fill="#FA7070"/>
</svg>
