<svg width="16" height="18" viewBox="0 0 16 18" fill="none" xmlns="http://www.w3.org/2000/svg">
<path d="M12.3077 5.66474C12.3077 5.81301 12.187 5.93373 12.0387 5.93373C11.8904 5.93373 11.7697 5.81301 11.7697 5.66474V4.61636C11.7697 4.20566 11.6634 3.78578 11.4797 3.40265C11.2882 3.00376 11.0153 2.64162 10.6912 2.36738C9.99967 1.78086 9.093 1.48564 8.18107 1.47514C7.25734 1.46464 6.33229 1.74675 5.62113 2.31358C5.27735 2.58782 4.96375 2.94603 4.74463 3.34754C4.55437 3.69656 4.43628 4.07839 4.43628 4.46284V5.67524L4.44415 5.67261L4.6869 5.97309C4.66853 5.49154 4.6659 4.97457 4.6869 4.51926C4.70264 4.36312 4.73282 4.20698 4.77612 4.05083C5.16844 2.64686 6.77054 1.82679 8.16401 1.90289C9.24258 1.96194 10.2555 2.35689 10.8959 3.0943C11.7881 4.12694 11.5572 5.39969 11.527 6.65933C11.7277 6.721 11.8563 6.84696 11.9088 7.05297C11.9665 7.28127 11.9036 7.60143 11.7107 8.03968C11.7067 8.04755 11.7028 8.05543 11.6989 8.0633L10.8749 9.42003C10.5573 9.94226 10.2345 10.4671 9.80548 10.8699L9.79236 10.8817C9.84222 10.9591 9.89733 11.0471 9.95375 11.1402C10.0876 11.3567 10.2385 11.5982 10.3841 11.8042C11.2882 12.4851 13.6041 12.6413 14.4845 13.132C14.7732 13.2934 15.0343 13.4981 15.2429 13.775C15.7612 14.4599 15.8019 15.4072 16 16.2431C15.9541 16.7364 15.6746 17.0198 15.1235 17.0618H0.876497C0.326718 17.0198 0.0472363 16.7364 0 16.2431C0.19813 15.4072 0.237494 14.4599 0.757094 13.775C0.967033 13.4981 1.22683 13.2934 1.5155 13.132C2.39724 12.64 4.71445 12.4838 5.61719 11.8028C5.7589 11.4879 5.90586 10.9985 5.9977 10.6954L5.99902 10.6889L6.03576 10.5721C6.03969 10.5576 6.04625 10.5458 6.05281 10.5327C5.79433 10.2244 5.57126 9.87796 5.35739 9.53812L4.65016 8.41363C4.59636 8.4097 4.54387 8.40051 4.49139 8.38346C3.92455 8.20501 3.45481 6.94537 3.54666 6.35098C3.59915 6.01377 3.71855 5.89305 3.91143 5.81957C3.90225 5.79202 3.897 5.76315 3.897 5.73297V4.46284C3.897 3.98523 4.04002 3.5168 4.27227 3.09167C4.52682 2.62456 4.89027 2.20862 5.28522 1.89371C6.09349 1.24814 7.14187 0.927985 8.1837 0.938482C9.21765 0.950291 10.2477 1.28619 11.0376 1.95669C11.4181 2.27947 11.7395 2.70329 11.9639 3.17171C12.1817 3.62833 12.309 4.12694 12.309 4.61767V5.66474H12.3077ZM9.53256 11.0956C9.13892 11.3843 8.66393 11.564 8.05904 11.5627C7.35837 11.5614 6.8309 11.2937 6.3979 10.8975C6.36641 10.8686 6.33492 10.8397 6.30474 10.8096C6.18534 11.2071 5.97409 11.9078 5.77596 12.2096C6.00426 13.5217 6.51205 14.4599 6.97523 15.4584L7.61292 13.2449C7.53157 13.1071 7.49352 12.9864 7.48827 12.8827C7.16155 13.0664 6.80991 13.1884 6.44382 13.2698C6.04494 12.8158 6.01083 12.3421 6.44382 11.8396C6.93325 11.9629 7.3833 12.1729 7.79662 12.4563C7.89503 12.4235 8.00656 12.4156 8.11415 12.4327C8.55371 12.1164 9.11793 11.9918 9.60997 11.7556C10.1939 12.3238 10.1309 12.8473 9.55749 13.3341C9.21109 13.254 8.88306 13.1281 8.57077 12.9628C8.56684 13.0467 8.54584 13.1412 8.50517 13.2449L9.14286 15.4584C9.63621 14.4205 10.1493 13.3905 10.266 12.2122C10.0705 11.9603 9.86321 11.6296 9.68476 11.341C9.63097 11.2544 9.57979 11.1717 9.53256 11.0956ZM5.04248 6.92569L5.35608 7.78513C5.39019 7.88485 5.40069 7.97145 5.38626 8.04624L5.38888 8.04362C5.87961 8.58815 6.4845 8.98178 7.21273 9.21272C7.24947 9.12874 7.30064 9.05526 7.37543 8.99753C7.59718 8.82564 8.24799 8.84139 8.44874 9.00803C8.6167 9.14711 8.61932 9.46727 8.49467 9.63391C8.23487 9.98162 7.15368 9.68902 6.79154 9.57224C6.2142 9.38592 5.68804 8.93848 5.20912 8.53697L5.70116 9.319C5.99114 9.77955 6.29424 10.2493 6.67213 10.5944C7.03559 10.9263 7.47515 11.1507 8.05773 11.152C8.68886 11.1533 9.14942 10.9198 9.52468 10.5695C9.91438 10.2047 10.2214 9.70476 10.5245 9.20616L11.338 7.86517C11.4902 7.51877 11.5454 7.28652 11.5099 7.15137C11.4889 7.07002 11.3997 7.03066 11.2475 7.02279C11.2147 7.02147 11.1819 7.02147 11.1478 7.02147C11.111 7.02279 11.073 7.02541 11.0336 7.02804C11.0113 7.02935 10.9903 7.02804 10.9706 7.0241C10.8985 7.02804 10.8237 7.02279 10.7476 7.01229L11.0271 5.7789C8.95785 6.1043 7.41086 4.56912 5.22486 5.47186L5.38232 6.92569C5.29441 6.92963 5.21043 6.927 5.13302 6.91519C5.10284 6.92044 5.07135 6.92307 5.04248 6.92569Z" fill="#FA7070"/>
</svg>
