<svg width="16" height="16" viewBox="0 0 16 16" fill="none" xmlns="http://www.w3.org/2000/svg">
<g clip-path="url(#clip0_4288_1090)">
<path fill-rule="evenodd" clip-rule="evenodd" d="M7.99089 1.46427L10.4727 0.391357L11.8333 2.70776L14.4727 3.29761L14.2122 5.97078L16 7.99943L14.2188 10.0098L14.4727 12.7026L11.849 13.282L10.4727 15.6088L8.00912 14.5346L5.52734 15.6088L4.16667 13.2924L1.52734 12.7026L1.78776 10.0281L0 7.99943L1.78125 5.98901L1.52734 3.29761L4.15104 2.71818L5.52734 0.391357L7.99089 1.46427Z" fill="#10A64A"/>
<path d="M4.93941 8.85481C4.14904 8.00455 5.36259 6.73762 6.24149 7.53971C6.55139 7.82226 7.00191 8.23502 7.31441 8.51497L9.72326 5.55533C10.5618 4.68814 11.886 5.96158 11.0579 6.83398L8.03186 10.4434C7.86635 10.6182 7.6394 10.7219 7.39891 10.7325C7.15841 10.7432 6.92316 10.6601 6.74279 10.5006C6.22977 10.0124 5.47717 9.31054 4.93941 8.85481Z" fill="white"/>
</g>
<defs>
<clipPath id="clip0_4288_1090">
<rect width="16" height="15.2174" fill="white" transform="translate(0 0.391357)"/>
</clipPath>
</defs>
</svg>
