<svg width="342" height="342" viewBox="0 0 342 342" fill="none" xmlns="http://www.w3.org/2000/svg">
<path d="M342 261.562H0V261.733H342V261.562Z" fill="#E6E6E6"/>
<path d="M304.778 265.96H288.875V266.131H304.778V265.96Z" fill="#E6E6E6"/>
<path d="M246.925 269.674H171.391V269.845H246.925V269.674Z" fill="#E6E6E6"/>
<path d="M139.08 269.763H131.672V269.934H139.08V269.763Z" fill="#E6E6E6"/>
<path d="M79.0426 267.711H53.3516V267.882H79.0426V267.711Z" fill="#E6E6E6"/>
<path d="M282.253 265.96H267.219V266.131H282.253V265.96Z" fill="#E6E6E6"/>
<path d="M47.7701 267.711H35.3281V267.882H47.7701V267.711Z" fill="#E6E6E6"/>
<path d="M162.109 231.055H30.0355C29.0009 231.053 28.0092 230.641 27.2782 229.909C26.5473 229.177 26.1367 228.184 26.1367 227.15V41.4914C26.1457 40.4627 26.5602 39.4791 27.2902 38.7542C28.0202 38.0293 29.0068 37.6218 30.0355 37.62H162.109C163.145 37.62 164.138 38.0315 164.871 38.7639C165.603 39.4964 166.015 40.4898 166.015 41.5256V227.15C166.015 228.185 165.603 229.179 164.871 229.911C164.138 230.644 163.145 231.055 162.109 231.055ZM30.0355 37.7568C29.0462 37.7586 28.0981 38.1529 27.3992 38.8531C26.7002 39.5532 26.3077 40.5021 26.3077 41.4914V227.15C26.3077 228.139 26.7002 229.088 27.3992 229.788C28.0981 230.488 29.0462 230.882 30.0355 230.884H162.109C163.099 230.882 164.048 230.488 164.748 229.788C165.448 229.088 165.842 228.139 165.844 227.15V41.4914C165.842 40.5015 165.448 39.5526 164.748 38.8526C164.048 38.1527 163.099 37.7586 162.109 37.7568H30.0355Z" fill="#E6E6E6"/>
<path d="M310.064 231.055H177.984C176.948 231.053 175.956 230.641 175.224 229.909C174.492 229.177 174.08 228.185 174.078 227.15V41.4914C174.089 40.4621 174.505 39.4785 175.236 38.7538C175.967 38.0291 176.954 37.6217 177.984 37.62H310.064C311.092 37.6236 312.077 38.0319 312.805 38.7566C313.534 39.4813 313.947 40.4639 313.956 41.4914V227.15C313.956 228.183 313.547 229.174 312.817 229.906C312.088 230.638 311.098 231.052 310.064 231.055ZM177.984 37.7568C176.994 37.7586 176.045 38.1527 175.345 38.8526C174.645 39.5526 174.251 40.5015 174.249 41.4914V227.15C174.251 228.139 174.645 229.088 175.345 229.788C176.045 230.488 176.994 230.882 177.984 230.884H310.064C311.054 230.882 312.003 230.488 312.703 229.788C313.403 229.088 313.797 228.139 313.799 227.15V41.4914C313.797 40.5015 313.403 39.5526 312.703 38.8526C312.003 38.1527 311.054 37.7586 310.064 37.7568H177.984Z" fill="#E6E6E6"/>
<path d="M221.322 140.302H273.012V50.3083H221.322V140.302Z" fill="#E6E6E6"/>
<path d="M218.533 140.302H270.223V50.3083H218.533V140.302Z" fill="#F5F5F5"/>
<path d="M265.199 136.082V54.5353H223.537V136.082H265.199Z" fill="#FAFAFA"/>
<path d="M225.652 136.082V54.5353H223.539V136.082H225.652Z" fill="#E6E6E6"/>
<path d="M220.604 116.396H268.148V110.726H220.604V116.396Z" fill="#F5F5F5"/>
<path d="M133.474 140.302H185.164V50.3083H133.474V140.302Z" fill="#E6E6E6"/>
<path d="M130.685 140.302H182.375V50.3083H130.685V140.302Z" fill="#F5F5F5"/>
<path d="M177.359 136.082V54.5353H135.697V136.082H177.359Z" fill="#FAFAFA"/>
<path d="M137.805 136.075V54.5284H135.691V136.075H137.805Z" fill="#E6E6E6"/>
<path d="M132.756 116.396H180.301V110.726H132.756V116.396Z" fill="#F5F5F5"/>
<path d="M45.6383 140.302H97.3281L97.3281 50.3083H45.6383L45.6383 140.302Z" fill="#E6E6E6"/>
<path d="M42.8453 140.302H94.5352L94.5352 50.3083H42.8453L42.8453 140.302Z" fill="#F5F5F5"/>
<path d="M89.5156 136.075V54.5284H47.8532L47.8532 136.075H89.5156Z" fill="#FAFAFA"/>
<path d="M49.9648 136.082L49.9648 54.5353H47.8513L47.8513 136.082H49.9648Z" fill="#E6E6E6"/>
<path d="M44.92 116.396H92.4648V110.726H44.92V116.396Z" fill="#F5F5F5"/>
<path d="M95.7598 195.98C86.4369 197.266 80.6708 177.006 101.232 159.851C100.158 179.707 112.025 193.736 95.7598 195.98Z" fill="#E6E6E6"/>
<path d="M88.9206 222.512C75.4047 213.039 84.6524 179.94 126.479 182.341C108.394 206.705 112.491 239.024 88.9206 222.512Z" fill="#E0E0E0"/>
<path d="M93.708 222.3C102.689 212.628 89.9049 188.285 57.5859 197.177C75.8214 213.182 78.0375 239.154 93.708 222.3Z" fill="#E0E0E0"/>
<path d="M82.174 208.182C79.0687 204.4 75.4024 200.145 76.2916 195.645C77.1808 191.144 79.4038 187.799 77.6596 183.011C75.5392 177.265 75.9496 170.412 79.5338 170.986C83.1179 171.561 87.133 175.774 87.0578 181.322C86.9962 186.712 90.4778 188.435 93.8294 191.301C97.181 194.167 98.3643 198.36 98.9594 202.464C99.9991 208.983 108.446 207.751 110.69 213.408C113.009 218.88 108.385 226.165 100.991 227.84C93.5968 229.516 88.33 230.576 83.2889 224.79C78.1658 218.695 86.7705 213.6 82.174 208.182Z" fill="#F5F5F5"/>
<path d="M107.612 261.562H79.8352L77.7422 223.723H109.706L107.612 261.562Z" fill="#EBEBEB"/>
<path d="M111.78 222.95H75.6719V227.026H111.78V222.95Z" fill="#EBEBEB"/>
<path d="M271.372 256.425H290.059V175.391H271.372V256.425Z" fill="#EBEBEB"/>
<path d="M124.931 261.562H286.465V256.425H124.931V261.562Z" fill="#EBEBEB"/>
<path d="M271.369 175.391H121.348V256.425H271.369V175.391Z" fill="#F5F5F5"/>
<path d="M264.025 185.364H128.695V211.944H264.025V185.364Z" fill="#EBEBEB"/>
<path d="M264.025 219.872H128.695V246.452H264.025V219.872Z" fill="#EBEBEB"/>
<path d="M154.261 200.474H238.454C238.936 200.472 239.398 200.28 239.739 199.939C240.08 199.598 240.272 199.136 240.274 198.654C240.274 198.171 240.082 197.707 239.741 197.365C239.4 197.023 238.938 196.83 238.454 196.828H154.261C153.778 196.83 153.315 197.023 152.974 197.365C152.633 197.707 152.441 198.171 152.441 198.654C152.443 199.136 152.635 199.598 152.976 199.939C153.317 200.28 153.779 200.472 154.261 200.474Z" fill="#F5F5F5"/>
<path d="M154.261 234.981H238.454C238.936 234.98 239.398 234.787 239.739 234.447C240.08 234.106 240.272 233.644 240.274 233.162C240.272 232.68 240.08 232.218 239.739 231.877C239.398 231.537 238.936 231.344 238.454 231.343H154.261C153.779 231.344 153.317 231.537 152.976 231.877C152.635 232.218 152.443 232.68 152.441 233.162C152.443 233.644 152.635 234.106 152.976 234.447C153.317 234.787 153.779 234.98 154.261 234.981Z" fill="#F5F5F5"/>
<path d="M229.953 163.565C229.953 163.565 251.362 183.852 264.071 163.483C264.071 163.483 260.692 156.937 257.128 156.376C253.565 155.815 253.421 162.04 250.288 160.118C247.156 158.196 243.496 151.622 241.499 155.131C239.502 158.64 236.759 153.64 233.77 153.353C230.781 153.066 229.953 163.565 229.953 163.565Z" fill="#F5F5F5"/>
<path d="M265.432 162.163C265.432 162.163 264.967 175.391 246.923 175.391C228.879 175.391 228.414 162.163 228.414 162.163H265.432Z" fill="#EBEBEB"/>
<path d="M174.152 155.268H184.542V175.391H154.035C154.035 170.056 156.154 164.938 159.927 161.164C163.699 157.391 168.816 155.27 174.152 155.268Z" fill="#F5F5F5"/>
<path d="M194.126 155.268H184.543V175.391H194.126V155.268Z" fill="#E6E6E6"/>
<path d="M171 292.451C244.244 292.451 303.62 288.984 303.62 284.708C303.62 280.432 244.244 276.965 171 276.965C97.7552 276.965 38.3789 280.432 38.3789 284.708C38.3789 288.984 97.7552 292.451 171 292.451Z" fill="#F5F5F5"/>
<path d="M149.113 135.268L148.661 135.952C148.524 136.15 148.381 136.328 148.244 136.513C147.963 136.882 147.669 137.197 147.375 137.573C146.78 138.257 146.178 138.941 145.535 139.543C144.25 140.778 142.878 141.921 141.431 142.963C139.986 144.004 138.466 144.937 136.883 145.753C136.082 146.143 135.289 146.547 134.461 146.875L133.223 147.368L132.874 147.498C132.683 147.559 132.505 147.628 132.293 147.676C131.879 147.779 131.454 147.827 131.028 147.819C130.215 147.814 129.415 147.614 128.695 147.238C128.116 146.935 127.584 146.551 127.115 146.095C126.373 145.363 125.731 144.535 125.207 143.633C124.311 142.071 123.58 140.421 123.025 138.708C121.949 135.48 121.179 132.157 120.727 128.783L123.586 128.154C124.106 129.652 124.639 131.198 125.227 132.689C125.816 134.18 126.404 135.664 127.088 137.074C127.71 138.434 128.452 139.736 129.304 140.965C129.642 141.475 130.05 141.936 130.515 142.333C130.648 142.443 130.798 142.531 130.959 142.593C131.055 142.593 131.048 142.593 131 142.593H130.952L131.178 142.484L132.197 141.991C132.881 141.663 133.531 141.307 134.188 140.911C135.483 140.135 136.734 139.287 137.936 138.373C139.122 137.441 140.248 136.436 141.308 135.364C141.842 134.844 142.348 134.29 142.833 133.729C143.073 133.448 143.312 133.168 143.517 132.887L143.846 132.47L144.113 132.115L149.113 135.268Z" fill="#B97964"/>
<path d="M140.828 134.974L144.296 143.291L141.786 144.857L137.887 137.313L140.828 134.974Z" fill="#FA7070"/>
<path d="M150.644 127.97C144.987 127.894 139.241 135.056 139.098 135.234L143.571 145.754C143.571 145.754 153.523 137.676 154.023 134.515C154.542 131.225 154.228 128.017 150.644 127.97Z" fill="#FA7070"/>
<path opacity="0.3" d="M150.644 127.97C144.987 127.894 139.241 135.056 139.098 135.234L143.571 145.754C143.571 145.754 153.523 137.676 154.023 134.515C154.542 131.225 154.228 128.017 150.644 127.97Z" fill="black" fill-opacity="0.2"/>
<path d="M123.12 127.067L119.208 124.023L118.414 130.015C118.414 130.015 122.217 131.506 124.242 130.213L124.187 129.119C124.167 128.72 124.061 128.331 123.877 127.977C123.693 127.623 123.435 127.312 123.12 127.067Z" fill="#B97964"/>
<path d="M113.996 123.722L114.242 128.271L118.435 130.015L119.229 124.023L113.996 123.722Z" fill="#B97964"/>
<path d="M199.727 126.581L205.773 125.069L201.546 120.753C201.546 120.753 197.627 122.354 198.584 125.774L199.727 126.581Z" fill="#B97964"/>
<path d="M208.776 123.995L208.276 119.249L201.512 120.753L205.739 125.069L208.776 123.995Z" fill="#B97964"/>
<path d="M180.008 278.709L174.379 279.25L169.68 265.967L175.309 265.419L180.008 278.709Z" fill="#B97964"/>
<path d="M240.267 250.782L236.122 254.804L225.465 246.486L229.617 242.464L240.267 250.782Z" fill="#B97964"/>
<path d="M234.925 254.024L238.112 248.367C238.166 248.27 238.253 248.196 238.358 248.158C238.462 248.12 238.577 248.122 238.68 248.162L243.523 250.036C243.642 250.088 243.75 250.165 243.838 250.261C243.926 250.357 243.993 250.471 244.034 250.595C244.076 250.719 244.091 250.85 244.078 250.98C244.065 251.11 244.025 251.236 243.96 251.349C242.818 253.306 242.168 254.188 240.766 256.678C239.904 258.21 238.222 261.719 237.032 263.832C235.841 265.946 233.687 264.879 233.995 263.894C235.363 259.469 235.13 256.999 234.761 255.043C234.693 254.695 234.751 254.333 234.925 254.024Z" fill="#FA7070"/>
<path d="M173.257 277.526H180.097C180.22 277.529 180.339 277.571 180.436 277.646C180.533 277.721 180.604 277.825 180.638 277.943L182.129 283.367C182.167 283.496 182.174 283.631 182.149 283.762C182.125 283.894 182.069 284.017 181.988 284.123C181.907 284.229 181.802 284.315 181.681 284.372C181.56 284.43 181.428 284.458 181.294 284.455C178.893 284.414 177.724 284.27 174.707 284.27C172.854 284.27 166.814 284.469 164.249 284.469C161.684 284.469 161.219 281.931 162.259 281.733C166.91 280.7 170.836 279.284 172.266 277.93C172.53 277.67 172.887 277.525 173.257 277.526Z" fill="#FA7070"/>
<path d="M169.688 265.967L172.102 272.82H177.93L175.317 265.419L169.688 265.967Z" fill="#A76755"/>
<path d="M229.625 242.464L225.473 246.493L230.965 250.775L235.117 246.753L229.625 242.464Z" fill="#A76755"/>
<path d="M145.137 129.796C145.137 129.796 142.812 131.567 158.482 162.149L180.822 154.933C177.511 145.966 175.692 140.364 173.982 120.302C170.668 120.668 167.386 121.274 164.159 122.114C160.71 122.983 157.321 124.077 154.016 125.391C149.748 127.224 145.137 129.796 145.137 129.796Z" fill="#FA7070"/>
<path opacity="0.3" d="M145.571 130.373C145.571 130.373 143.245 132.145 158.916 162.726L181.255 155.51C177.945 146.543 176.125 140.941 174.415 120.879C171.102 121.246 167.819 121.852 164.593 122.692C161.144 123.56 157.755 124.654 154.449 125.968C150.181 127.801 145.571 130.373 145.571 130.373Z" fill="black" fill-opacity="0.2"/>
<path d="M159.432 111.013C159.842 114.488 161.135 120.671 164.124 122.115C164.124 122.115 164.295 125.712 158.235 127.669C151.566 129.823 153.981 125.391 153.981 125.391C157.339 123.339 156.368 120.671 154.918 118.346L159.432 111.013Z" fill="#B97964"/>
<path d="M148.223 128.141C149.872 127.286 151.972 126.246 153.982 125.405C157.292 124.067 160.694 122.967 164.16 122.114C166.11 121.581 168.08 121.184 169.742 120.904C169.899 121.369 169.427 122.573 168.271 124.235C164.612 127.272 156.807 131.219 151.055 131.075C148.538 130.138 147.909 129.146 148.223 128.141Z" fill="#B97964"/>
<path d="M168.263 124.235C165.778 127.565 162.809 130.505 159.453 132.956C156.596 132.608 153.78 131.978 151.047 131.075C156.772 131.219 164.576 127.272 168.263 124.235Z" fill="#263238"/>
<path d="M157.592 114.002L154.918 118.332C155.267 118.872 155.567 119.442 155.814 120.035C157.141 119.385 158.83 117.463 158.509 115.931C158.318 115.24 158.008 114.587 157.592 114.002Z" fill="#A76755"/>
<path d="M160.787 104.597C161.129 110.322 161.403 112.737 158.885 116.006C155.103 120.917 147.996 120.11 145.944 114.584C144.104 109.625 143.851 101.095 149.138 98.1676C150.3 97.5148 151.609 97.1694 152.942 97.1644C154.275 97.1593 155.586 97.4946 156.753 98.1386C157.92 98.7826 158.903 99.7139 159.609 100.844C160.315 101.974 160.72 103.266 160.787 104.597Z" fill="#B97964"/>
<path d="M172.094 94.3368C173.387 88.6493 169.825 82.9903 164.137 81.6971C158.45 80.4039 152.791 83.9662 151.498 89.6537C150.205 95.3412 153.767 101 159.454 102.293C165.142 103.587 170.801 100.024 172.094 94.3368Z" fill="#263238"/>
<path d="M159.161 96.5808C161.336 98.0172 162.417 100.22 161.575 101.499C160.734 102.778 158.285 102.655 156.103 101.218C153.921 99.7819 152.847 97.5794 153.689 96.3003C154.53 95.0212 156.979 95.1444 159.161 96.5808Z" fill="#FA7070"/>
<path opacity="0.6" d="M159.161 96.5808C161.336 98.0172 162.417 100.22 161.575 101.499C160.734 102.778 158.285 102.655 156.103 101.218C153.921 99.7819 152.847 97.5794 153.689 96.3003C154.53 95.0212 156.979 95.1444 159.161 96.5808Z" fill="#FAFAFA"/>
<path d="M158.001 108.503C158.569 107.19 156.592 103.291 157.016 101.834C155.881 100.774 144.369 104.522 145.3 101.786C146.189 99.1594 148.993 95.6779 155.395 97.1348C162.235 98.6943 162.83 104.611 162.064 106.499C161.298 108.387 160.211 110.35 160.211 110.35L158.001 108.503Z" fill="#263238"/>
<path d="M162.294 109.618C162.308 110.726 161.885 111.795 161.117 112.593C160.084 113.64 158.839 112.887 158.518 111.533C158.224 110.315 158.415 108.298 159.742 107.764C160.035 107.65 160.351 107.612 160.663 107.652C160.974 107.692 161.27 107.81 161.524 107.994C161.778 108.179 161.982 108.424 162.116 108.708C162.251 108.991 162.312 109.304 162.294 109.618Z" fill="#B97964"/>
<path d="M158.482 162.149C158.482 162.149 148.126 212.656 153.899 229.311C159.904 246.637 169.679 270.823 169.679 270.823L178.81 270.303C178.81 270.303 171.286 239.742 169.432 225.939C166.895 206.91 177.764 155.952 177.764 155.952L158.482 162.149Z" fill="#407BFF"/>
<path opacity="0.6" d="M158.482 162.149C158.482 162.149 148.126 212.656 153.899 229.311C159.904 246.637 169.679 270.823 169.679 270.823L178.81 270.303C178.81 270.303 171.286 239.742 169.432 225.939C166.895 206.91 177.764 155.952 177.764 155.952L158.482 162.149Z" fill="#FAFAFA"/>
<path d="M179.53 270.522L168.962 271.131L167.266 266.972L178.921 265.761L179.53 270.522Z" fill="#FA7070"/>
<path opacity="0.2" d="M179.53 270.522L168.962 271.131L167.266 266.972L178.921 265.761L179.53 270.522Z" fill="black"/>
<path d="M169.434 166.034C167.847 171.903 169.174 180.699 172.17 186.869C172.901 182.081 173.681 177.443 174.42 173.291C172.881 170.316 171.185 167.676 169.434 166.034Z" fill="#407BFF"/>
<path opacity="0.4" d="M169.434 166.034C167.847 171.903 169.174 180.699 172.17 186.869C172.901 182.081 173.681 177.443 174.42 173.291C172.881 170.316 171.185 167.676 169.434 166.034Z" fill="#FAFAFA"/>
<path d="M164.379 160.241C164.379 160.241 179.755 196.992 189.94 217.17C198.148 233.49 228.607 250.57 228.607 250.57L234.079 244.769C234.079 244.769 211.315 224.557 205.638 213.49C187.471 178.066 191.205 162.594 180.836 154.933L164.379 160.241Z" fill="#407BFF"/>
<path opacity="0.6" d="M164.379 160.241C164.379 160.241 179.755 196.992 189.94 217.17C198.148 233.49 228.607 250.57 228.607 250.57L234.079 244.769C234.079 244.769 211.315 224.557 205.638 213.49C187.471 178.066 191.205 162.594 180.836 154.933L164.379 160.241Z" fill="#FAFAFA"/>
<path d="M235.097 243.942L227.573 251.938L222.812 249.434L231.479 240.597L235.097 243.942Z" fill="#FA7070"/>
<path opacity="0.2" d="M235.097 243.942L227.573 251.938L222.812 249.434L231.479 240.597L235.097 243.942Z" fill="black"/>
<path d="M180.732 153.517L182.38 155.193C182.51 155.323 182.38 155.542 182.12 155.624L158.693 163.148C158.488 163.216 158.29 163.148 158.235 163.045L157.394 161.116C157.332 160.979 157.469 160.808 157.688 160.733L180.308 153.435C180.379 153.411 180.456 153.406 180.531 153.42C180.605 153.434 180.674 153.468 180.732 153.517Z" fill="#263238"/>
<path d="M178.524 157.026L179.126 156.834C179.249 156.793 179.317 156.698 179.29 156.629L178.168 154.119C178.168 154.05 178.004 154.023 177.888 154.057L177.279 154.256C177.163 154.256 177.087 154.386 177.122 154.461L178.243 156.964C178.264 157.04 178.387 157.067 178.524 157.026Z" fill="#407BFF"/>
<path opacity="0.6" d="M178.524 157.026L179.126 156.834C179.249 156.793 179.317 156.698 179.29 156.629L178.168 154.119C178.168 154.05 178.004 154.023 177.888 154.057L177.279 154.256C177.163 154.256 177.087 154.386 177.122 154.461L178.243 156.964C178.264 157.04 178.387 157.067 178.524 157.026Z" fill="#FAFAFA"/>
<path d="M160.465 162.854L161.074 162.655C161.19 162.614 161.265 162.525 161.231 162.45L160.11 159.947C160.075 159.871 159.952 159.844 159.829 159.885L159.22 160.077C159.104 160.118 159.029 160.207 159.063 160.282L160.185 162.785C160.219 162.86 160.342 162.888 160.465 162.854Z" fill="#407BFF"/>
<path opacity="0.6" d="M160.465 162.854L161.074 162.655C161.19 162.614 161.265 162.525 161.231 162.45L160.11 159.947C160.075 159.871 159.952 159.844 159.829 159.885L159.22 160.077C159.104 160.118 159.029 160.207 159.063 160.282L160.185 162.785C160.219 162.86 160.342 162.888 160.465 162.854Z" fill="#FAFAFA"/>
<path d="M169.489 159.94L170.091 159.741C170.214 159.741 170.289 159.611 170.255 159.536L169.133 157.033C169.099 156.957 168.969 156.93 168.852 156.971L168.244 157.169C168.127 157.204 168.052 157.299 168.086 157.368L169.208 159.878C169.242 159.917 169.288 159.944 169.338 159.956C169.389 159.967 169.441 159.961 169.489 159.94Z" fill="#407BFF"/>
<path opacity="0.6" d="M169.489 159.94L170.091 159.741C170.214 159.741 170.289 159.611 170.255 159.536L169.133 157.033C169.099 156.957 168.969 156.93 168.852 156.971L168.244 157.169C168.127 157.204 168.052 157.299 168.086 157.368L169.208 159.878C169.242 159.917 169.288 159.944 169.338 159.956C169.389 159.967 169.441 159.961 169.489 159.94Z" fill="#FAFAFA"/>
<path d="M152.361 107.237C152.416 107.696 152.218 108.106 151.917 108.14C151.616 108.175 151.322 107.833 151.267 107.367C151.212 106.902 151.411 106.499 151.711 106.465C152.012 106.43 152.307 106.772 152.361 107.237Z" fill="#263238"/>
<path d="M147.127 107.874C147.188 108.339 146.983 108.742 146.682 108.777C146.381 108.811 146.087 108.469 146.033 108.01C145.978 107.552 146.176 107.142 146.477 107.101C146.778 107.06 147.059 107.388 147.127 107.874Z" fill="#263238"/>
<path d="M146.614 107.114L145.465 106.93C145.465 106.93 146.142 107.73 146.614 107.114Z" fill="#263238"/>
<path d="M148.613 108.503C148.327 109.608 147.892 110.669 147.32 111.656C147.578 111.794 147.862 111.874 148.153 111.893C148.445 111.912 148.737 111.869 149.01 111.766L148.613 108.503Z" fill="#A24E3F"/>
<path d="M150.84 113.387C150.807 113.387 150.775 113.375 150.75 113.354C150.725 113.333 150.708 113.303 150.703 113.27C150.701 113.234 150.712 113.197 150.735 113.168C150.758 113.139 150.79 113.12 150.827 113.113C151.403 113.056 151.957 112.864 152.446 112.552C152.934 112.241 153.342 111.819 153.638 111.321C153.645 111.304 153.656 111.289 153.669 111.276C153.683 111.264 153.698 111.254 153.716 111.248C153.733 111.241 153.751 111.238 153.77 111.239C153.788 111.24 153.806 111.245 153.822 111.253C153.839 111.261 153.853 111.272 153.865 111.285C153.877 111.299 153.886 111.315 153.892 111.332C153.898 111.349 153.9 111.367 153.898 111.385C153.897 111.403 153.892 111.421 153.884 111.437C153.573 111.981 153.136 112.441 152.61 112.781C152.084 113.12 151.484 113.328 150.861 113.387H150.84Z" fill="#263238"/>
<path d="M153.01 105.596C152.944 105.595 152.881 105.571 152.832 105.527C152.579 105.294 152.274 105.124 151.942 105.032C151.61 104.94 151.26 104.93 150.923 105.001C150.888 105.011 150.852 105.014 150.815 105.01C150.779 105.006 150.744 104.995 150.712 104.977C150.68 104.959 150.652 104.935 150.63 104.906C150.607 104.878 150.591 104.845 150.581 104.809C150.571 104.775 150.568 104.738 150.572 104.703C150.576 104.667 150.588 104.632 150.605 104.601C150.623 104.569 150.647 104.542 150.676 104.52C150.705 104.498 150.738 104.483 150.773 104.474C151.197 104.381 151.637 104.39 152.057 104.501C152.477 104.611 152.864 104.82 153.187 105.11C153.213 105.136 153.234 105.166 153.248 105.199C153.262 105.233 153.269 105.269 153.269 105.305C153.269 105.341 153.262 105.377 153.248 105.411C153.234 105.444 153.213 105.475 153.187 105.5C153.142 105.553 153.079 105.587 153.01 105.596Z" fill="#263238"/>
<path d="M144.424 105.753C144.384 105.763 144.342 105.763 144.301 105.753C144.238 105.718 144.191 105.661 144.169 105.592C144.148 105.523 144.153 105.449 144.185 105.384C144.372 104.993 144.65 104.652 144.995 104.389C145.339 104.126 145.742 103.949 146.169 103.872C146.24 103.864 146.312 103.885 146.368 103.93C146.425 103.975 146.461 104.04 146.47 104.112C146.474 104.148 146.472 104.184 146.462 104.219C146.453 104.254 146.437 104.287 146.414 104.316C146.392 104.344 146.364 104.368 146.333 104.386C146.301 104.404 146.266 104.415 146.23 104.419C145.893 104.482 145.575 104.625 145.304 104.836C145.032 105.046 144.815 105.319 144.671 105.63C144.644 105.671 144.607 105.703 144.564 105.725C144.521 105.746 144.473 105.756 144.424 105.753Z" fill="#263238"/>
<path d="M178.524 125.644L178.784 125.972L179.106 126.362C179.325 126.622 179.55 126.889 179.79 127.149C180.262 127.675 180.754 128.195 181.281 128.688C182.312 129.699 183.402 130.649 184.544 131.533C185.703 132.412 186.906 133.231 188.148 133.989C188.771 134.365 189.407 134.721 190.05 135.069L191.028 135.569L191.5 135.808C191.616 135.863 191.732 135.918 191.842 135.959C192.191 136.104 192.565 136.181 192.943 136.184C193.291 136.164 193.624 136.041 193.901 135.829C194.817 135.069 195.542 134.103 196.014 133.011C196.649 131.693 197.16 130.319 197.54 128.907C197.962 127.466 198.312 126.005 198.586 124.529L201.507 124.714C201.598 128.081 201.117 131.439 200.084 134.645C199.791 135.519 199.413 136.363 198.955 137.163C198.447 138.074 197.791 138.895 197.013 139.591C196.087 140.413 194.954 140.969 193.737 141.198C192.553 141.405 191.337 141.32 190.193 140.952C189.927 140.877 189.68 140.781 189.427 140.685L188.832 140.439L187.669 139.953C186.897 139.604 186.137 139.269 185.392 138.845C183.895 138.056 182.453 137.167 181.076 136.184C179.696 135.19 178.382 134.107 177.143 132.942C176.527 132.354 175.932 131.732 175.351 131.089C175.063 130.76 174.776 130.405 174.502 130.09L174.085 129.55C173.942 129.358 173.832 129.208 173.641 128.934L178.524 125.644Z" fill="#B97964"/>
<path d="M183.372 129.249L179.09 136.437L177.004 134.468L180.957 127.265L183.372 129.249Z" fill="#FA7070"/>
<path d="M174.009 120.302C176.471 120.261 182.449 127.32 182.449 127.32L177.251 136.369C177.251 136.369 170.63 130.535 170.637 127.34C170.644 124.009 171.204 120.384 174.009 120.302Z" fill="#FA7070"/>
<path opacity="0.3" d="M174.009 120.302C176.471 120.261 182.449 127.32 182.449 127.32L177.251 136.369C177.251 136.369 170.63 130.535 170.637 127.34C170.644 124.009 171.204 120.384 174.009 120.302Z" fill="black" fill-opacity="0.2"/>
<path d="M233.803 257.095C233.613 257.088 233.43 257.018 233.283 256.897C233.214 256.851 233.16 256.787 233.125 256.712C233.09 256.638 233.076 256.555 233.085 256.473C233.146 255.734 235 254.763 235.205 254.653C235.227 254.638 235.254 254.631 235.28 254.631C235.307 254.631 235.333 254.638 235.356 254.653C235.376 254.67 235.391 254.693 235.4 254.718C235.408 254.744 235.41 254.771 235.403 254.797C235.191 255.536 234.719 256.808 234.035 257.033C233.962 257.068 233.883 257.088 233.803 257.095ZM235.041 255.043C234.316 255.453 233.392 256.096 233.358 256.479C233.353 256.516 233.359 256.554 233.376 256.587C233.394 256.62 233.421 256.647 233.454 256.664C233.518 256.726 233.597 256.77 233.684 256.79C233.771 256.811 233.862 256.807 233.946 256.78C234.323 256.671 234.719 256.028 235.041 255.057V255.043Z" fill="#FA7070"/>
<path d="M233.552 255.303C233.252 255.329 232.951 255.254 232.697 255.091C232.615 255.02 232.559 254.923 232.539 254.816C232.519 254.709 232.537 254.599 232.588 254.503C232.625 254.404 232.684 254.314 232.761 254.242C232.838 254.169 232.931 254.116 233.032 254.085C233.826 253.819 235.276 254.619 235.337 254.653C235.36 254.665 235.378 254.683 235.392 254.705C235.405 254.726 235.412 254.751 235.413 254.776C235.412 254.8 235.405 254.823 235.393 254.843C235.381 254.863 235.364 254.88 235.344 254.893C234.786 255.163 234.173 255.303 233.552 255.303ZM233.409 254.304C233.311 254.303 233.214 254.317 233.121 254.345C233.058 254.365 233 254.399 232.952 254.444C232.903 254.489 232.865 254.544 232.841 254.605C232.772 254.769 232.841 254.838 232.841 254.886C233.149 255.146 234.284 255.036 234.934 254.769C234.46 254.518 233.942 254.36 233.409 254.304Z" fill="#FA7070"/>
<path d="M170.219 278.662C169.741 278.702 169.262 278.589 168.851 278.34C168.744 278.261 168.656 278.158 168.596 278.039C168.535 277.921 168.503 277.789 168.502 277.656C168.494 277.584 168.506 277.511 168.536 277.444C168.566 277.378 168.614 277.321 168.673 277.28C169.296 276.856 171.635 277.923 172.093 278.135C172.12 278.148 172.141 278.168 172.155 278.194C172.168 278.22 172.173 278.25 172.169 278.278C172.166 278.306 172.155 278.333 172.137 278.354C172.118 278.375 172.093 278.389 172.066 278.395C171.461 278.546 170.842 278.635 170.219 278.662ZM169.125 277.478C169.033 277.47 168.94 277.489 168.858 277.533C168.837 277.547 168.821 277.567 168.812 277.59C168.802 277.613 168.799 277.638 168.803 277.663C168.806 277.752 168.829 277.84 168.87 277.92C168.912 277.999 168.971 278.068 169.043 278.121C169.583 278.532 170.869 278.374 171.622 278.237C170.832 277.86 169.991 277.604 169.125 277.478Z" fill="#FA7070"/>
<path d="M172.068 278.422H172.013C171.24 278.108 169.68 276.856 169.769 276.206C169.769 276.062 169.879 275.885 170.234 275.844C171.602 275.666 172.177 278.162 172.197 278.265C172.203 278.289 172.202 278.315 172.195 278.339C172.188 278.363 172.175 278.384 172.156 278.402C172.13 278.418 172.099 278.425 172.068 278.422ZM170.358 276.103H170.269C170.125 276.103 170.043 276.165 170.036 276.233C169.988 276.603 171.062 277.601 171.855 278.025C171.684 277.437 171.178 276.103 170.358 276.103Z" fill="#FA7070"/>
<path d="M151.848 106.471L150.699 106.287C150.699 106.287 151.376 107.087 151.848 106.471Z" fill="#263238"/>
<path d="M109.056 58.6735C107.845 60.1919 101.176 61.9772 95.8755 61.4847C94.0492 73.4684 100.431 87.2647 100.431 87.2647C100.431 87.2647 114.282 85.6162 114.624 79.9117C114.966 74.2071 109.056 58.6735 109.056 58.6735Z" fill="#FA7070"/>
<path opacity="0.4" d="M109.056 58.6735C107.845 60.1919 101.176 61.9772 95.8755 61.4847C94.0492 73.4684 100.431 87.2647 100.431 87.2647C100.431 87.2647 114.282 85.6162 114.624 79.9117C114.966 74.2071 109.056 58.6735 109.056 58.6735Z" fill="#FAFAFA" fill-opacity="0.2"/>
<path d="M213.906 49.5558C215.144 51.3 221.43 53.0305 226.293 52.1276C228.899 66.3138 224.07 83.1675 224.07 83.1675C224.07 83.1675 211.163 82.0184 210.39 75.24C209.617 68.4615 213.906 49.5558 213.906 49.5558Z" fill="#FA7070"/>
<path opacity="0.4" d="M213.906 49.5558C215.144 51.3 221.43 53.0305 226.293 52.1276C228.899 66.3138 224.07 83.1675 224.07 83.1675C224.07 83.1675 211.163 82.0184 210.39 75.24C209.617 68.4615 213.906 49.5558 213.906 49.5558Z" fill="#FAFAFA" fill-opacity="0.2"/>
<path d="M123.118 172.416C123.02 172.43 122.919 172.425 122.823 172.401C122.727 172.376 122.636 172.333 122.557 172.273C122.477 172.213 122.41 172.138 122.36 172.052C122.309 171.966 122.277 171.872 122.263 171.773L106.018 56.5395C106.005 56.4377 106.012 56.3343 106.04 56.2354C106.067 56.1365 106.114 56.0441 106.178 55.9637C106.242 55.8833 106.321 55.8166 106.411 55.7674C106.501 55.7183 106.6 55.6878 106.702 55.6776C106.801 55.6641 106.902 55.6702 106.998 55.6956C107.094 55.721 107.185 55.7651 107.264 55.8254C107.344 55.8858 107.41 55.9611 107.461 56.0473C107.511 56.1334 107.544 56.2286 107.557 56.3274L123.802 171.554C123.816 171.656 123.808 171.759 123.781 171.858C123.753 171.957 123.706 172.049 123.643 172.13C123.579 172.21 123.5 172.277 123.409 172.326C123.319 172.375 123.22 172.406 123.118 172.416Z" fill="#FA7070"/>
<path opacity="0.2" d="M123.118 172.416C123.02 172.43 122.919 172.425 122.823 172.401C122.727 172.376 122.636 172.333 122.557 172.273C122.477 172.213 122.41 172.138 122.36 172.052C122.309 171.966 122.277 171.872 122.263 171.773L106.018 56.5395C106.005 56.4377 106.012 56.3343 106.04 56.2354C106.067 56.1365 106.114 56.0441 106.178 55.9637C106.242 55.8833 106.321 55.8166 106.411 55.7674C106.501 55.7183 106.6 55.6878 106.702 55.6776C106.801 55.6641 106.902 55.6702 106.998 55.6956C107.094 55.721 107.185 55.7651 107.264 55.8254C107.344 55.8858 107.41 55.9611 107.461 56.0473C107.511 56.1334 107.544 56.2286 107.557 56.3274L123.802 171.554C123.816 171.656 123.808 171.759 123.781 171.858C123.753 171.957 123.706 172.049 123.643 172.13C123.579 172.21 123.5 172.277 123.409 172.326C123.319 172.375 123.22 172.406 123.118 172.416Z" fill="black" fill-opacity="0.2"/>
<path d="M200.529 163.852C200.631 163.866 200.734 163.858 200.833 163.831C200.932 163.803 201.024 163.756 201.105 163.693C201.185 163.629 201.252 163.55 201.301 163.459C201.35 163.369 201.381 163.27 201.391 163.168L217.67 47.9416C217.685 47.8427 217.679 47.742 217.655 47.6452C217.631 47.5483 217.587 47.4573 217.527 47.3772C217.468 47.2972 217.393 47.2297 217.307 47.1786C217.221 47.1276 217.126 47.094 217.027 47.0797C216.925 47.0664 216.822 47.0737 216.723 47.1011C216.624 47.1285 216.532 47.1755 216.451 47.2393C216.371 47.3031 216.304 47.3824 216.255 47.4725C216.206 47.5626 216.175 47.6616 216.165 47.7637L199.886 162.99C199.859 163.19 199.911 163.392 200.031 163.553C200.151 163.714 200.33 163.822 200.529 163.852Z" fill="#FA7070"/>
<path opacity="0.2" d="M200.529 163.852C200.631 163.866 200.734 163.858 200.833 163.831C200.932 163.803 201.024 163.756 201.105 163.693C201.185 163.629 201.252 163.55 201.301 163.459C201.35 163.369 201.381 163.27 201.391 163.168L217.67 47.9416C217.685 47.8427 217.679 47.742 217.655 47.6452C217.631 47.5483 217.587 47.4573 217.527 47.3772C217.468 47.2972 217.393 47.2297 217.307 47.1786C217.221 47.1276 217.126 47.094 217.027 47.0797C216.925 47.0664 216.822 47.0737 216.723 47.1011C216.624 47.1285 216.532 47.1755 216.451 47.2393C216.371 47.3031 216.304 47.3824 216.255 47.4725C216.206 47.5626 216.175 47.6616 216.165 47.7637L199.886 162.99C199.859 163.19 199.911 163.392 200.031 163.553C200.151 163.714 200.33 163.822 200.529 163.852Z" fill="black" fill-opacity="0.2"/>
<path d="M105.371 58.9745L108.449 81.6012C108.468 81.7442 108.518 81.8814 108.595 82.0034C108.671 82.1254 108.774 82.2293 108.895 82.308C109.016 82.3866 109.152 82.4381 109.295 82.459C109.438 82.4799 109.583 82.4696 109.721 82.4288C116.602 80.4589 154.865 70.6367 213.642 76.8884C213.891 76.9172 214.143 76.8508 214.345 76.7025C214.548 76.5541 214.688 76.3348 214.736 76.0881C215.844 70.3562 217.752 54.0291 218.238 49.8499C218.267 49.5864 218.192 49.3221 218.028 49.1136C217.864 48.9051 217.625 48.7692 217.363 48.735C209.469 47.7363 155.59 41.765 106.062 57.8801C105.838 57.9543 105.647 58.1039 105.521 58.3035C105.395 58.5031 105.342 58.7403 105.371 58.9745Z" fill="#FA7070"/>
<path opacity="0.6" d="M105.008 59.1428L108.086 81.7695C108.105 81.9125 108.154 82.0497 108.231 82.1717C108.308 82.2937 108.411 82.3976 108.531 82.4763C108.652 82.5549 108.789 82.6065 108.932 82.6273C109.074 82.6482 109.22 82.6379 109.358 82.5972C116.239 80.6272 154.502 70.805 213.278 77.0568C213.528 77.0855 213.779 77.0191 213.982 76.8708C214.185 76.7225 214.324 76.5031 214.373 76.2565C215.481 70.5246 217.389 54.1975 217.875 50.0182C217.904 49.7548 217.828 49.4904 217.665 49.2819C217.501 49.0735 217.262 48.9375 216.999 48.9033C209.106 47.9047 155.227 41.9334 105.699 58.0484C105.475 58.1226 105.283 58.2723 105.157 58.4719C105.031 58.6715 104.979 58.9086 105.008 59.1428Z" fill="#FA7070"/>
<path d="M148.072 67.08C147.08 67.08 146.312 66.9787 145.768 66.776C145.235 66.5733 144.861 66.2587 144.648 65.832C144.435 65.3947 144.312 64.8453 144.28 64.184L143.944 55.288H146.184L146.52 63.112C146.541 63.6027 146.595 63.9707 146.68 64.216C146.765 64.4613 146.925 64.6267 147.16 64.712C147.405 64.7973 147.763 64.84 148.232 64.84C148.637 64.84 148.925 64.9467 149.096 65.16C149.277 65.3627 149.368 65.6187 149.368 65.928C149.368 66.2587 149.256 66.536 149.032 66.76C148.808 66.9733 148.488 67.08 148.072 67.08ZM147.686 67.08L147.846 64.84C148.251 64.84 148.571 64.8027 148.806 64.728C149.051 64.6533 149.243 64.504 149.382 64.28C149.531 64.0453 149.654 63.704 149.75 63.256C149.856 62.808 149.963 62.2107 150.07 61.464L152.166 61.816C152.144 61.976 152.112 62.1627 152.07 62.376C152.038 62.5893 152.006 62.808 151.974 63.032C151.952 63.2453 151.942 63.448 151.942 63.64C151.942 63.896 151.995 64.1147 152.102 64.296C152.219 64.4667 152.422 64.6 152.71 64.696C153.008 64.792 153.435 64.84 153.99 64.84C154.395 64.84 154.683 64.9467 154.854 65.16C155.024 65.3627 155.11 65.6187 155.11 65.928C155.11 66.2587 154.998 66.536 154.774 66.76C154.56 66.9733 154.246 67.08 153.83 67.08C153.094 67.08 152.496 67.0107 152.038 66.872C151.579 66.7333 151.238 66.4987 151.014 66.168C150.79 65.8373 150.646 65.384 150.582 64.808H151.35C151.158 65.32 150.934 65.7307 150.678 66.04C150.422 66.3387 150.134 66.5627 149.814 66.712C149.494 66.8613 149.152 66.9573 148.79 67C148.438 67.0533 148.07 67.08 147.686 67.08ZM150.534 70.76C150.224 70.76 149.958 70.6533 149.734 70.44C149.52 70.2267 149.414 69.9653 149.414 69.656C149.414 69.3467 149.52 69.0747 149.734 68.84C149.958 68.616 150.224 68.504 150.534 68.504C150.843 68.504 151.104 68.616 151.318 68.84C151.542 69.0747 151.654 69.3467 151.654 69.656C151.654 69.9653 151.542 70.2267 151.318 70.44C151.104 70.6533 150.843 70.76 150.534 70.76ZM153.418 67.08L153.578 64.84C154.154 64.84 154.725 64.808 155.29 64.744C155.856 64.68 156.405 64.584 156.938 64.456C157.472 64.328 157.978 64.1627 158.458 63.96C158.949 63.7573 159.408 63.512 159.834 63.224C159.514 63.032 159.168 62.8667 158.794 62.728C158.421 62.5893 158.021 62.488 157.594 62.424C157.178 62.3493 156.736 62.312 156.266 62.312C156.096 62.312 155.914 62.3173 155.722 62.328C155.541 62.3387 155.354 62.36 155.162 62.392C154.97 62.4133 154.778 62.4453 154.586 62.488L154.266 60.296C154.576 60.2107 154.901 60.152 155.242 60.12C155.594 60.0773 155.904 60.056 156.17 60.056C156.746 60.056 157.274 60.12 157.754 60.248C158.245 60.376 158.693 60.536 159.098 60.728C159.514 60.92 159.898 61.112 160.25 61.304C160.613 61.496 160.954 61.656 161.274 61.784C161.605 61.912 161.925 61.976 162.234 61.976H162.826L163.082 64.104C162.624 64.1253 162.192 64.216 161.786 64.376C161.392 64.5253 160.997 64.7173 160.602 64.952C160.218 65.176 159.802 65.4107 159.354 65.656C158.917 65.9013 158.421 66.1307 157.866 66.344C157.312 66.5573 156.672 66.7333 155.946 66.872C155.221 67.0107 154.378 67.08 153.418 67.08ZM162.688 70.696L161.872 68.712C162.438 68.52 162.955 68.296 163.424 68.04C163.904 67.784 164.32 67.5013 164.672 67.192C165.024 66.8827 165.296 66.5467 165.488 66.184C165.68 65.8107 165.776 65.4107 165.776 64.984C165.776 64.536 165.675 64.0453 165.472 63.512C165.27 62.9787 165.024 62.4347 164.736 61.88L166.832 60.872C167.024 61.2027 167.19 61.56 167.328 61.944C167.478 62.3173 167.6 62.6533 167.696 62.952C167.792 63.2507 167.856 63.4533 167.888 63.56C168.038 64.072 168.24 64.4133 168.496 64.584C168.763 64.7547 169.19 64.84 169.776 64.84C170.182 64.84 170.47 64.9467 170.64 65.16C170.822 65.3627 170.912 65.6187 170.912 65.928C170.912 66.2587 170.8 66.536 170.576 66.76C170.352 66.9733 170.032 67.08 169.616 67.08C169.179 67.08 168.795 67.016 168.464 66.888C168.134 66.76 167.867 66.5733 167.664 66.328C167.472 66.0827 167.35 65.7947 167.296 65.464L167.888 65.8C167.824 66.3653 167.638 66.8987 167.328 67.4C167.03 67.912 166.64 68.3813 166.16 68.808C165.68 69.2347 165.142 69.608 164.544 69.928C163.947 70.248 163.328 70.504 162.688 70.696ZM169.227 67.08L169.387 64.84C169.633 64.84 169.841 64.7813 170.011 64.664C170.193 64.536 170.379 64.328 170.571 64.04C170.763 63.7413 170.987 63.3413 171.243 62.84C171.563 62.2 171.894 61.6987 172.235 61.336C172.587 60.9733 172.945 60.7173 173.307 60.568C173.681 60.408 174.054 60.328 174.427 60.328C174.897 60.328 175.334 60.4293 175.739 60.632C176.145 60.8347 176.497 61.112 176.795 61.464C177.094 61.8053 177.323 62.2 177.483 62.648C177.654 63.0853 177.739 63.5387 177.739 64.008C177.739 64.5733 177.617 65.0853 177.371 65.544C177.137 65.992 176.806 66.3493 176.379 66.616C175.963 66.872 175.483 67 174.939 67C174.481 67 173.947 66.92 173.339 66.76C172.731 66.6 172.091 66.264 171.419 65.752L172.235 63.816C172.715 64.1467 173.163 64.3867 173.579 64.536C174.006 64.6853 174.358 64.76 174.635 64.76C174.849 64.76 175.025 64.7387 175.163 64.696C175.302 64.6533 175.403 64.584 175.467 64.488C175.531 64.392 175.563 64.264 175.563 64.104C175.563 63.88 175.51 63.6507 175.403 63.416C175.297 63.1813 175.153 62.984 174.971 62.824C174.801 62.6533 174.598 62.568 174.363 62.568C174.139 62.568 173.947 62.6533 173.787 62.824C173.638 62.984 173.489 63.2187 173.339 63.528C173.201 63.8267 173.03 64.1787 172.827 64.584C172.582 65.0747 172.342 65.4853 172.107 65.816C171.873 66.136 171.622 66.392 171.355 66.584C171.099 66.7653 170.795 66.8933 170.443 66.968C170.102 67.0427 169.697 67.08 169.227 67.08Z" fill="white"/>
</svg>
