<svg width="24" height="25" viewBox="0 0 24 25" fill="none" xmlns="http://www.w3.org/2000/svg">
<g clip-path="url(#clip0_2628_22756)">
<path fill-rule="evenodd" clip-rule="evenodd" d="M20.5 3.50505C19.3932 2.39005 18.0759 1.50604 16.6247 0.904349C15.1734 0.302658 13.617 -0.00472316 12.046 5.48585e-05C5.46 5.48585e-05 0.1 5.36105 0.1 11.9511C0.0998726 14.0483 0.651686 16.1086 1.7 17.9251L0 24.1191L6.336 22.4561C8.08716 23.4107 10.0495 23.9116 12.044 23.9131C14.4084 23.9135 16.7198 23.2129 18.686 21.8996C20.6522 20.5864 22.1847 18.7196 23.0899 16.5353C23.995 14.351 24.2321 11.9474 23.7711 9.62834C23.3101 7.30932 22.1717 5.17909 20.5 3.50706V3.50505ZM12.05 21.9001C10.2695 21.8992 8.52199 21.4191 6.991 20.5101L6.627 20.2931L2.867 21.2781L3.867 17.6131L3.632 17.2371C2.32891 15.168 1.83442 12.6912 2.24314 10.2804C2.65187 7.8696 3.93511 5.69415 5.84735 4.17025C7.7596 2.64635 10.1666 1.881 12.6078 2.02062C15.049 2.16025 17.353 3.19506 19.079 4.92705C20.4692 6.3176 21.416 8.08914 21.7995 10.0177C22.183 11.9462 21.9861 13.9452 21.2337 15.7619C20.4813 17.5785 19.2071 19.1313 17.5722 20.2239C15.9374 21.3164 14.0153 21.8998 12.049 21.9001H12.05ZM17.5 14.4541C17.2 14.3031 15.733 13.5831 15.461 13.4831C15.189 13.3831 14.989 13.3321 14.786 13.6341C14.583 13.9361 14.014 14.6051 13.84 14.8061C13.666 15.0071 13.491 15.0331 13.195 14.8821C12.899 14.7311 11.932 14.4161 10.795 13.3981C10.1402 12.7941 9.57757 12.0973 9.125 11.3301C8.95 11.0301 9.106 10.8691 9.258 10.7231C9.41 10.5771 9.558 10.3751 9.705 10.2001C9.82931 10.0492 9.93042 9.88071 10.005 9.70006C10.0447 9.61773 10.0633 9.52682 10.0591 9.43552C10.0549 9.34422 10.0281 9.2554 9.981 9.17705C9.9 9.02705 9.3 7.55705 9.06 6.95806C8.82 6.35906 8.571 6.45806 8.387 6.44406C8.203 6.43006 8.014 6.43505 7.817 6.43505C7.66512 6.43861 7.51563 6.4736 7.37795 6.53779C7.24026 6.60199 7.11736 6.69401 7.017 6.80806C6.748 7.10506 5.975 7.83006 5.975 9.30006C5.975 10.7701 7.044 12.1881 7.194 12.3901C7.344 12.5921 9.3 15.6071 12.3 16.9001C13.012 17.2061 13.568 17.3901 14 17.5321C14.6092 17.7158 15.2527 17.7558 15.88 17.6491C16.454 17.5651 17.646 16.9281 17.897 16.2311C18.148 15.5341 18.147 14.9311 18.072 14.8121C17.997 14.6931 17.803 14.6061 17.502 14.4531L17.5 14.4541Z" fill="#25D366"/>
</g>
<defs>
<clipPath id="clip0_2628_22756">
<rect width="24" height="24.119" fill="white"/>
</clipPath>
</defs>
</svg>
