<svg width="24" height="24" viewBox="0 0 24 24" fill="none" xmlns="http://www.w3.org/2000/svg">
<path d="M17.2279 5.92241C17.1561 5.84794 17.0699 5.78871 16.9747 5.74826C16.8794 5.70781 16.777 5.68696 16.6735 5.68696C16.57 5.68696 16.4676 5.70781 16.3723 5.74826C16.2771 5.78871 16.191 5.84794 16.1191 5.92241L15.2745 6.76443C15.0454 6.61671 14.8058 6.48621 14.5574 6.37401C14.308 6.26242 14.0525 6.16509 13.7921 6.08249V4.78106C13.7945 4.67806 13.7755 4.57568 13.7366 4.4803C13.6976 4.38492 13.6395 4.29858 13.5657 4.22665C13.4938 4.15283 13.4075 4.09462 13.3121 4.05566C13.2167 4.01669 13.1143 3.99782 13.0113 4.0002H11.3858C11.2842 3.99941 11.1834 4.01905 11.0895 4.05795C10.9956 4.09685 10.9105 4.15422 10.8392 4.22665C10.7645 4.29813 10.7054 4.38427 10.6655 4.47967C10.6256 4.57507 10.6059 4.67768 10.6076 4.78106V5.96666C10.3391 6.02973 10.0756 6.11193 9.81889 6.21263C9.56907 6.30795 9.32601 6.42013 9.09139 6.5484L8.15566 5.62568C8.08725 5.55041 8.00357 5.49058 7.91022 5.45019C7.81686 5.4098 7.71597 5.38976 7.61427 5.39143C7.51082 5.39097 7.40836 5.4115 7.31307 5.45176C7.21777 5.49203 7.13164 5.55119 7.05986 5.62568L5.92241 6.76704C5.84794 6.8389 5.78871 6.92503 5.74826 7.02028C5.70781 7.11553 5.68696 7.21796 5.68696 7.32145C5.68696 7.42493 5.70781 7.52736 5.74826 7.62261C5.78871 7.71787 5.84794 7.80399 5.92241 7.87585L6.76443 8.72048C6.61671 8.94951 6.48621 9.1892 6.37401 9.43757C6.26195 9.68584 6.16461 9.94049 6.08249 10.2002H4.78106C4.67806 10.1979 4.57568 10.2168 4.4803 10.2558C4.38492 10.2947 4.29858 10.3529 4.22665 10.4267C4.15283 10.4985 4.09462 10.5849 4.05566 10.6803C4.01669 10.7757 3.99782 10.878 4.0002 10.9811V12.6065C3.99941 12.7082 4.01905 12.8089 4.05795 12.9028C4.09685 12.9967 4.15422 13.0818 4.22665 13.1531C4.29794 13.2281 4.38404 13.2874 4.47949 13.3273C4.57493 13.3672 4.67763 13.3868 4.78106 13.3848H5.96796C6.0306 13.6532 6.11237 13.9167 6.21263 14.1735C6.31072 14.4276 6.42282 14.6761 6.5484 14.9179L5.62308 15.8432C5.54781 15.9116 5.48798 15.9953 5.44759 16.0886C5.40719 16.182 5.38716 16.2829 5.38882 16.3846C5.38837 16.488 5.4089 16.5905 5.44916 16.6858C5.48942 16.7811 5.54859 16.8672 5.62308 16.939L6.76443 18.0934C6.91484 18.2339 7.113 18.3121 7.31884 18.3121C7.52468 18.3121 7.72284 18.2339 7.87325 18.0934L8.71788 17.2357C8.94734 17.3827 9.18698 17.5132 9.43496 17.6262C9.68439 17.7398 9.93985 17.8397 10.2002 17.9255V19.2204C10.1992 19.3232 10.2186 19.4252 10.2575 19.5205C10.2964 19.6157 10.3539 19.7022 10.4266 19.7749C10.4993 19.8476 10.5858 19.9051 10.681 19.9439C10.7762 19.9828 10.8782 20.0023 10.9811 20.0013H12.6065C12.7082 20.002 12.8089 19.9824 12.9028 19.9435C12.9967 19.9046 13.0818 19.8472 13.1531 19.7748C13.2281 19.7035 13.2874 19.6174 13.3273 19.522C13.3672 19.4265 13.3868 19.3238 13.3848 19.2204V18.0348C13.6532 17.9726 13.9167 17.8912 14.1735 17.7914C14.4278 17.6939 14.6764 17.5818 14.9179 17.4557L15.8432 18.3693C15.9139 18.4434 15.9989 18.5023 16.0931 18.5426C16.1873 18.5829 16.2887 18.6037 16.3911 18.6037C16.4935 18.6037 16.5949 18.5829 16.6891 18.5426C16.7833 18.5023 16.8683 18.4434 16.939 18.3693L18.0934 17.2292C18.234 17.0786 18.3122 16.8802 18.3122 16.6742C18.3122 16.4681 18.234 16.2697 18.0934 16.1191L17.2344 15.2745C17.3822 15.0454 17.5127 14.8058 17.6249 14.5574C17.7385 14.308 17.8384 14.0525 17.9242 13.7921H19.2191C19.3219 13.7932 19.4239 13.7737 19.5192 13.7348C19.6144 13.696 19.7009 13.6385 19.7736 13.5658C19.8463 13.493 19.9038 13.4066 19.9426 13.3113C19.9815 13.2161 20.001 13.1141 20 13.0113V11.3858C20.0007 11.2842 19.9811 11.1834 19.9422 11.0895C19.9033 10.9956 19.8459 10.9105 19.7735 10.8392C19.7022 10.7643 19.6161 10.7049 19.5207 10.6651C19.4252 10.6252 19.3225 10.6056 19.2191 10.6076H18.0335C17.9682 10.3426 17.887 10.0818 17.7901 9.82669C17.6956 9.57361 17.5834 9.32747 17.4544 9.09009L18.3771 8.15566C18.4524 8.08725 18.5122 8.00357 18.5526 7.91022C18.593 7.81686 18.613 7.71597 18.6113 7.61427C18.6118 7.51082 18.5913 7.40836 18.551 7.31307C18.5107 7.21777 18.4516 7.13164 18.3771 7.05986L17.2357 5.92241H17.2279ZM11.9962 7.22384C13.0989 7.22376 14.1676 7.60599 15.0201 8.30543C15.8727 9.00486 16.4564 9.97823 16.6718 11.0597C16.8872 12.1412 16.721 13.264 16.2015 14.2367C15.6821 15.2094 14.8414 15.972 13.8228 16.3944C12.8042 16.8169 11.6706 16.8731 10.6152 16.5536C9.55972 16.234 8.64771 15.5585 8.03448 14.642C7.42124 13.7255 7.14471 12.6247 7.252 11.5272C7.35929 10.4297 7.84376 9.40328 8.62287 8.62287C9.06539 8.17931 9.59122 7.82759 10.1701 7.58794C10.749 7.34829 11.3696 7.22543 11.9962 7.22644V7.22384Z" fill="#FA7070"/>
<path fill-rule="evenodd" clip-rule="evenodd" d="M11.9955 8.27808C12.7313 8.27782 13.4506 8.49578 14.0624 8.90438C14.6743 9.31298 15.1512 9.89387 15.4329 10.5736C15.7146 11.2533 15.7884 12.0012 15.6449 12.7229C15.5014 13.4445 15.1472 14.1074 14.6269 14.6276C14.1066 15.1479 13.4438 15.5022 12.7221 15.6456C12.0005 15.7891 11.2525 15.7153 10.5728 15.4337C9.89314 15.152 9.31225 14.675 8.90365 14.0632C8.49504 13.4513 8.27709 12.732 8.27734 11.9963C8.27769 11.0102 8.66954 10.0647 9.36676 9.36749C10.064 8.67027 11.0095 8.27842 11.9955 8.27808ZM10.8373 11.4015L11.4984 12.0249L13.0601 10.4411C13.1902 10.3109 13.2709 10.2042 13.431 10.3682L13.9516 10.8992C14.1221 11.0683 14.1129 11.1672 13.9516 11.3234L11.7951 13.4473C11.4567 13.7792 11.5153 13.8 11.1717 13.4591L9.9653 12.2591C9.94906 12.2436 9.93653 12.2246 9.92863 12.2036C9.92073 12.1826 9.91767 12.16 9.91967 12.1377C9.92167 12.1153 9.92868 12.0936 9.94018 12.0743C9.95169 12.0551 9.96739 12.0386 9.98612 12.0262L10.5874 11.4028C10.6785 11.3065 10.7514 11.3156 10.8477 11.4028L10.8373 11.4015Z" fill="#FA7070"/>
</svg>
